M48
; DRILL file {KiCad (5.1.2)-2} date 2021-06-07 01:18:39
; FORMAT={-:-/ absolute / inch / decimal}
; #@! TF.CreationDate,2021-06-07T01:18:39+02:00
; #@! TF.GenerationSoftware,Kicad,Pcbnew,(5.1.2)-2
FMAT,2
INCH
T1C0.0120
T2C0.0157
T3C0.0256
T4C0.0394
T5C0.0400
%
G90
G05
T1
X5.38Y-5.03
X5.3846Y-4.5604
X5.385Y-4.73
X5.39Y-4.43
X5.41Y-4.085
X5.49Y-3.355
X5.49Y-4.325
X5.492Y-3.407
X5.5068Y-4.1807
X5.5163Y-5.0237
X5.52Y-4.605
X5.521Y-4.3334
X5.525Y-3.755
X5.545Y-4.53
X5.575Y-3.53
X5.5786Y-3.8658
X5.58Y-3.48
X5.58Y-3.58
X5.58Y-3.63
X5.58Y-3.68
X5.58Y-4.13
X5.58Y-4.88
X5.585Y-4.68
X5.585Y-4.99
X5.595Y-4.08
X5.605Y-4.305
X5.655Y-3.88
X5.745Y-5.1
X5.75Y-5.065
X5.785Y-4.8302
X5.785Y-4.64
X5.785Y-5.05
X5.795Y-4.7717
X5.7954Y-4.7396
X5.8159Y-4.6208
X5.8191Y-5.0687
X5.82Y-4.547
X5.83Y-4.74
X5.8354Y-4.6529
X6.135Y-4.7
X6.14Y-4.6607
X6.3Y-5.04
X6.596Y-4.129
X6.62Y-4.229
X6.6455Y-4.2791
X6.6715Y-4.329
X6.6965Y-4.379
X6.7215Y-4.429
X6.7465Y-4.529
X6.7715Y-4.579
X6.7965Y-4.629
X6.8215Y-4.705
X6.8465Y-4.735
X6.8715Y-4.83
X6.8965Y-4.929
X6.9215Y-5.029
X7.18Y-5.295
X7.405Y-5.28
X7.625Y-5.28
T2
X5.155Y-5.03
X5.35Y-3.36
X5.35Y-3.28
X5.765Y-3.96
X5.785Y-4.315
X5.79Y-3.9927
X5.79Y-4.4
X5.79Y-4.44
X5.7905Y-3.823
X5.7929Y-4.3571
X5.7944Y-3.7777
X5.795Y-3.33
X5.795Y-3.5301
X5.795Y-3.58
X5.795Y-3.63
X5.795Y-3.68
X5.795Y-3.925
X5.795Y-4.045
X5.8Y-3.38
X5.8Y-3.43
X5.815Y-4.2077
X5.825Y-4.295
X5.83Y-4.45
X5.8313Y-3.8943
X5.93Y-3.18
X5.94Y-3.745
X5.95Y-3.28
X5.95Y-3.48
X5.95Y-3.68
X5.95Y-3.88
X5.95Y-4.08
X5.95Y-4.18
X5.95Y-4.28
X5.95Y-4.48
X5.95Y-4.58
X5.95Y-4.68
X5.95Y-4.88
X5.95Y-4.98
X5.97Y-5.2106
X6.075Y-5.2106
X6.105Y-5.385
X6.135Y-3.18
X6.135Y-3.28
X6.155Y-3.45
X6.155Y-3.5523
X6.155Y-3.88
X6.155Y-4.18
X6.155Y-4.28
X6.155Y-4.48
X6.155Y-4.88
X6.155Y-4.98
X6.1625Y-4.045
X6.18Y-5.235
X6.255Y-3.165
X6.255Y-3.21
X6.255Y-3.695
X6.255Y-4.245
X6.255Y-4.68
X6.2573Y-4.0356
X6.2573Y-4.1356
X6.265Y-5.1523
X6.29Y-4.92
X6.315Y-5.18
X6.355Y-3.145
X6.355Y-3.185
X6.365Y-5.205
X6.385Y-5.055
X6.46Y-4.75
X6.465Y-5.255
X6.4707Y-5.0907
X6.495Y-4.78
X6.495Y-4.825
X6.51Y-4.87
X6.545Y-4.34
X6.545Y-4.39
X6.545Y-4.44
X6.545Y-4.49
X6.545Y-4.54
X6.545Y-4.59
X6.545Y-4.64
X6.545Y-4.69
X6.5452Y-4.7398
X6.5452Y-4.9198
X6.565Y-4.295
X6.575Y-4.23
X6.59Y-4.18
X6.625Y-5.17
X6.715Y-4.48
X6.785Y-5.165
X7.185Y-5.1787
X7.185Y-5.245
X7.275Y-4.13
X7.275Y-4.43
X7.28Y-4.715
X7.325Y-4.28
T3
X6.265Y-5.3
X6.265Y-5.35
X6.315Y-5.3
X6.315Y-5.35
X6.365Y-5.3
X6.365Y-5.35
X6.415Y-5.3
X6.415Y-5.35
X6.465Y-5.3
X6.465Y-5.35
T4
X7.005Y-3.18
X7.005Y-3.28
X7.005Y-3.38
X7.005Y-3.48
X7.005Y-3.58
X7.005Y-3.68
X7.005Y-3.78
X7.005Y-3.88
X7.005Y-3.98
X7.005Y-4.08
X7.005Y-4.18
X7.005Y-4.28
X7.005Y-4.38
X7.005Y-4.48
X7.005Y-4.58
X7.005Y-4.68
X7.005Y-4.78
X7.005Y-4.88
X7.005Y-4.98
X7.005Y-5.08
X7.105Y-3.18
X7.105Y-3.28
X7.105Y-3.38
X7.105Y-3.48
X7.105Y-3.58
X7.105Y-3.68
X7.105Y-3.78
X7.105Y-3.88
X7.105Y-3.98
X7.105Y-4.08
X7.105Y-4.18
X7.105Y-4.28
X7.105Y-4.38
X7.105Y-4.48
X7.105Y-4.58
X7.105Y-4.68
X7.105Y-4.78
X7.105Y-4.88
X7.105Y-4.98
X7.105Y-5.08
X7.505Y-5.28
X7.505Y-5.38
X6.705Y-5.28
X6.705Y-5.38
X6.805Y-5.28
X6.805Y-5.38
X6.905Y-5.28
X6.905Y-5.38
X7.005Y-5.28
X7.005Y-5.38
X7.105Y-5.28
X7.105Y-5.38
X7.505Y-3.18
X7.505Y-3.28
X7.505Y-3.38
X7.505Y-3.48
X7.505Y-3.58
X7.505Y-3.68
X7.505Y-3.78
X7.505Y-3.88
X7.505Y-3.98
X7.505Y-4.08
X7.505Y-4.18
X7.505Y-4.28
X7.505Y-4.38
X7.505Y-4.48
X7.505Y-4.58
X7.505Y-4.68
X7.505Y-4.78
X7.505Y-4.88
X7.505Y-4.98
X7.505Y-5.08
X7.605Y-3.18
X7.605Y-3.28
X7.605Y-3.38
X7.605Y-3.48
X7.605Y-3.58
X7.605Y-3.68
X7.605Y-3.78
X7.605Y-3.88
X7.605Y-3.98
X7.605Y-4.08
X7.605Y-4.18
X7.605Y-4.28
X7.605Y-4.38
X7.605Y-4.48
X7.605Y-4.58
X7.605Y-4.68
X7.605Y-4.78
X7.605Y-4.88
X7.605Y-4.98
X7.605Y-5.08
X6.405Y-4.88
X6.405Y-4.98
X7.305Y-5.28
X7.305Y-5.38
X5.505Y-3.18
X5.605Y-3.18
X5.105Y-3.18
X5.105Y-3.28
X5.105Y-3.38
X5.105Y-3.48
X5.105Y-3.58
X5.105Y-3.68
X5.105Y-3.78
X5.105Y-3.88
X5.105Y-3.98
X5.105Y-4.08
X5.105Y-4.18
X5.105Y-4.28
X5.105Y-4.38
X5.105Y-4.48
X5.105Y-4.58
X5.105Y-4.68
X5.105Y-4.78
X5.105Y-4.88
X5.105Y-4.98
X5.105Y-5.08
X5.205Y-3.18
X5.205Y-3.28
X5.205Y-3.38
X5.205Y-3.48
X5.205Y-3.58
X5.205Y-3.68
X5.205Y-3.78
X5.205Y-3.88
X5.205Y-3.98
X5.205Y-4.08
X5.205Y-4.18
X5.205Y-4.28
X5.205Y-4.38
X5.205Y-4.48
X5.205Y-4.58
X5.205Y-4.68
X5.205Y-4.78
X5.205Y-4.88
X5.205Y-4.98
X5.205Y-5.08
X6.605Y-4.78
X6.605Y-4.88
X6.605Y-4.98
T5
X5.505Y-5.28
X5.505Y-5.38
X5.605Y-5.28
X5.605Y-5.38
X5.705Y-5.28
X5.705Y-5.38
X5.805Y-5.28
X5.805Y-5.38
X5.905Y-5.28
X5.905Y-5.38
T0
M30
