G04 #@! TF.GenerationSoftware,KiCad,Pcbnew,(5.1.2)-2*
G04 #@! TF.CreationDate,2021-05-12T22:03:05+02:00*
G04 #@! TF.ProjectId,BeagleV Chew Toy,42656167-6c65-4562-9043-68657720546f,rev?*
G04 #@! TF.SameCoordinates,Original*
G04 #@! TF.FileFunction,Legend,Bot*
G04 #@! TF.FilePolarity,Positive*
%FSLAX46Y46*%
G04 Gerber Fmt 4.6, Leading zero omitted, Abs format (unit mm)*
G04 Created by KiCad (PCBNEW (5.1.2)-2) date 2021-05-12 22:03:05*
%MOMM*%
%LPD*%
G04 APERTURE LIST*
%ADD10C,0.100000*%
%ADD11C,0.120000*%
%ADD12C,0.010000*%
%ADD13C,0.150000*%
G04 APERTURE END LIST*
D10*
X138631714Y-133546904D02*
X138136476Y-133546904D01*
X138403142Y-133851666D01*
X138288857Y-133851666D01*
X138212666Y-133889761D01*
X138174571Y-133927857D01*
X138136476Y-134004047D01*
X138136476Y-134194523D01*
X138174571Y-134270714D01*
X138212666Y-134308809D01*
X138288857Y-134346904D01*
X138517428Y-134346904D01*
X138593619Y-134308809D01*
X138631714Y-134270714D01*
X137793619Y-134270714D02*
X137755523Y-134308809D01*
X137793619Y-134346904D01*
X137831714Y-134308809D01*
X137793619Y-134270714D01*
X137793619Y-134346904D01*
X137488857Y-133546904D02*
X136993619Y-133546904D01*
X137260285Y-133851666D01*
X137146000Y-133851666D01*
X137069809Y-133889761D01*
X137031714Y-133927857D01*
X136993619Y-134004047D01*
X136993619Y-134194523D01*
X137031714Y-134270714D01*
X137069809Y-134308809D01*
X137146000Y-134346904D01*
X137374571Y-134346904D01*
X137450761Y-134308809D01*
X137488857Y-134270714D01*
X136765047Y-133546904D02*
X136498380Y-134346904D01*
X136231714Y-133546904D01*
D11*
X152527000Y-133096000D02*
X153289000Y-133858000D01*
X156083000Y-133223000D02*
X155575000Y-133858000D01*
D10*
X156666904Y-134039904D02*
X156209761Y-134039904D01*
X156438333Y-134839904D02*
X156438333Y-134039904D01*
X155943095Y-134839904D02*
X155943095Y-134039904D01*
X155752619Y-134039904D01*
X155638333Y-134078000D01*
X155562142Y-134154190D01*
X155524047Y-134230380D01*
X155485952Y-134382761D01*
X155485952Y-134497047D01*
X155524047Y-134649428D01*
X155562142Y-134725619D01*
X155638333Y-134801809D01*
X155752619Y-134839904D01*
X155943095Y-134839904D01*
X155143095Y-134839904D02*
X155143095Y-134039904D01*
X154190714Y-134001809D02*
X154876428Y-135030380D01*
X154038333Y-134039904D02*
X153581190Y-134039904D01*
X153809761Y-134839904D02*
X153809761Y-134039904D01*
X153314523Y-134839904D02*
X153314523Y-134039904D01*
X153124047Y-134039904D01*
X153009761Y-134078000D01*
X152933571Y-134154190D01*
X152895476Y-134230380D01*
X152857380Y-134382761D01*
X152857380Y-134497047D01*
X152895476Y-134649428D01*
X152933571Y-134725619D01*
X153009761Y-134801809D01*
X153124047Y-134839904D01*
X153314523Y-134839904D01*
X152362142Y-134039904D02*
X152209761Y-134039904D01*
X152133571Y-134078000D01*
X152057380Y-134154190D01*
X152019285Y-134306571D01*
X152019285Y-134573238D01*
X152057380Y-134725619D01*
X152133571Y-134801809D01*
X152209761Y-134839904D01*
X152362142Y-134839904D01*
X152438333Y-134801809D01*
X152514523Y-134725619D01*
X152552619Y-134573238D01*
X152552619Y-134306571D01*
X152514523Y-134154190D01*
X152438333Y-134078000D01*
X152362142Y-134039904D01*
X156285952Y-135606571D02*
X155981190Y-135606571D01*
X156171666Y-136139904D02*
X156171666Y-135454190D01*
X156133571Y-135378000D01*
X156057380Y-135339904D01*
X155981190Y-135339904D01*
X155600238Y-136139904D02*
X155676428Y-136101809D01*
X155714523Y-136025619D01*
X155714523Y-135339904D01*
X155295476Y-136139904D02*
X155295476Y-135606571D01*
X155295476Y-135339904D02*
X155333571Y-135378000D01*
X155295476Y-135416095D01*
X155257380Y-135378000D01*
X155295476Y-135339904D01*
X155295476Y-135416095D01*
X154914523Y-135606571D02*
X154914523Y-136406571D01*
X154914523Y-135644666D02*
X154838333Y-135606571D01*
X154685952Y-135606571D01*
X154609761Y-135644666D01*
X154571666Y-135682761D01*
X154533571Y-135758952D01*
X154533571Y-135987523D01*
X154571666Y-136063714D01*
X154609761Y-136101809D01*
X154685952Y-136139904D01*
X154838333Y-136139904D01*
X154914523Y-136101809D01*
X154190714Y-135606571D02*
X154190714Y-136406571D01*
X154190714Y-135644666D02*
X154114523Y-135606571D01*
X153962142Y-135606571D01*
X153885952Y-135644666D01*
X153847857Y-135682761D01*
X153809761Y-135758952D01*
X153809761Y-135987523D01*
X153847857Y-136063714D01*
X153885952Y-136101809D01*
X153962142Y-136139904D01*
X154114523Y-136139904D01*
X154190714Y-136101809D01*
X153162142Y-136101809D02*
X153238333Y-136139904D01*
X153390714Y-136139904D01*
X153466904Y-136101809D01*
X153505000Y-136025619D01*
X153505000Y-135720857D01*
X153466904Y-135644666D01*
X153390714Y-135606571D01*
X153238333Y-135606571D01*
X153162142Y-135644666D01*
X153124047Y-135720857D01*
X153124047Y-135797047D01*
X153505000Y-135873238D01*
X152438333Y-136139904D02*
X152438333Y-135339904D01*
X152438333Y-136101809D02*
X152514523Y-136139904D01*
X152666904Y-136139904D01*
X152743095Y-136101809D01*
X152781190Y-136063714D01*
X152819285Y-135987523D01*
X152819285Y-135758952D01*
X152781190Y-135682761D01*
X152743095Y-135644666D01*
X152666904Y-135606571D01*
X152514523Y-135606571D01*
X152438333Y-135644666D01*
X157054095Y-85578904D02*
X157511238Y-85578904D01*
X157282666Y-85578904D02*
X157282666Y-84778904D01*
X157358857Y-84893190D01*
X157435047Y-84969380D01*
X157511238Y-85007476D01*
X156101714Y-85578904D02*
X156101714Y-84778904D01*
X156025523Y-85274142D02*
X155796952Y-85578904D01*
X155796952Y-85045571D02*
X156101714Y-85350333D01*
X155301714Y-84778904D02*
X155149333Y-84778904D01*
X155073142Y-84817000D01*
X154996952Y-84893190D01*
X154958857Y-85045571D01*
X154958857Y-85312238D01*
X154996952Y-85464619D01*
X155073142Y-85540809D01*
X155149333Y-85578904D01*
X155301714Y-85578904D01*
X155377904Y-85540809D01*
X155454095Y-85464619D01*
X155492190Y-85312238D01*
X155492190Y-85045571D01*
X155454095Y-84893190D01*
X155377904Y-84817000D01*
X155301714Y-84778904D01*
X154616000Y-85578904D02*
X154616000Y-84778904D01*
X154273142Y-85578904D02*
X154273142Y-85159857D01*
X154311238Y-85083666D01*
X154387428Y-85045571D01*
X154501714Y-85045571D01*
X154577904Y-85083666D01*
X154616000Y-85121761D01*
X153892190Y-85578904D02*
X153892190Y-85045571D01*
X153892190Y-85121761D02*
X153854095Y-85083666D01*
X153777904Y-85045571D01*
X153663619Y-85045571D01*
X153587428Y-85083666D01*
X153549333Y-85159857D01*
X153549333Y-85578904D01*
X153549333Y-85159857D02*
X153511238Y-85083666D01*
X153435047Y-85045571D01*
X153320761Y-85045571D01*
X153244571Y-85083666D01*
X153206476Y-85159857D01*
X153206476Y-85578904D01*
X151987428Y-85883666D02*
X152025523Y-85845571D01*
X152101714Y-85731285D01*
X152139809Y-85655095D01*
X152177904Y-85540809D01*
X152216000Y-85350333D01*
X152216000Y-85197952D01*
X152177904Y-85007476D01*
X152139809Y-84893190D01*
X152101714Y-84817000D01*
X152025523Y-84702714D01*
X151987428Y-84664619D01*
X151758857Y-84778904D02*
X151263619Y-84778904D01*
X151530285Y-85083666D01*
X151416000Y-85083666D01*
X151339809Y-85121761D01*
X151301714Y-85159857D01*
X151263619Y-85236047D01*
X151263619Y-85426523D01*
X151301714Y-85502714D01*
X151339809Y-85540809D01*
X151416000Y-85578904D01*
X151644571Y-85578904D01*
X151720761Y-85540809D01*
X151758857Y-85502714D01*
X150768380Y-84778904D02*
X150692190Y-84778904D01*
X150616000Y-84817000D01*
X150577904Y-84855095D01*
X150539809Y-84931285D01*
X150501714Y-85083666D01*
X150501714Y-85274142D01*
X150539809Y-85426523D01*
X150577904Y-85502714D01*
X150616000Y-85540809D01*
X150692190Y-85578904D01*
X150768380Y-85578904D01*
X150844571Y-85540809D01*
X150882666Y-85502714D01*
X150920761Y-85426523D01*
X150958857Y-85274142D01*
X150958857Y-85083666D01*
X150920761Y-84931285D01*
X150882666Y-84855095D01*
X150844571Y-84817000D01*
X150768380Y-84778904D01*
X150235047Y-85578904D02*
X149816000Y-85045571D01*
X150235047Y-85045571D02*
X149816000Y-85578904D01*
X149587428Y-85883666D02*
X149549333Y-85845571D01*
X149473142Y-85731285D01*
X149435047Y-85655095D01*
X149396952Y-85540809D01*
X149358857Y-85350333D01*
X149358857Y-85197952D01*
X149396952Y-85007476D01*
X149435047Y-84893190D01*
X149473142Y-84817000D01*
X149549333Y-84702714D01*
X149587428Y-84664619D01*
X169633857Y-80913142D02*
X169671952Y-81027428D01*
X169710047Y-81065523D01*
X169786238Y-81103619D01*
X169900523Y-81103619D01*
X169976714Y-81065523D01*
X170014809Y-81027428D01*
X170052904Y-80951238D01*
X170052904Y-80646476D01*
X169252904Y-80646476D01*
X169252904Y-80913142D01*
X169291000Y-80989333D01*
X169329095Y-81027428D01*
X169405285Y-81065523D01*
X169481476Y-81065523D01*
X169557666Y-81027428D01*
X169595761Y-80989333D01*
X169633857Y-80913142D01*
X169633857Y-80646476D01*
X170014809Y-81751238D02*
X170052904Y-81675047D01*
X170052904Y-81522666D01*
X170014809Y-81446476D01*
X169938619Y-81408380D01*
X169633857Y-81408380D01*
X169557666Y-81446476D01*
X169519571Y-81522666D01*
X169519571Y-81675047D01*
X169557666Y-81751238D01*
X169633857Y-81789333D01*
X169710047Y-81789333D01*
X169786238Y-81408380D01*
X170052904Y-82475047D02*
X169633857Y-82475047D01*
X169557666Y-82436952D01*
X169519571Y-82360761D01*
X169519571Y-82208380D01*
X169557666Y-82132190D01*
X170014809Y-82475047D02*
X170052904Y-82398857D01*
X170052904Y-82208380D01*
X170014809Y-82132190D01*
X169938619Y-82094095D01*
X169862428Y-82094095D01*
X169786238Y-82132190D01*
X169748142Y-82208380D01*
X169748142Y-82398857D01*
X169710047Y-82475047D01*
X169519571Y-83198857D02*
X170167190Y-83198857D01*
X170243380Y-83160761D01*
X170281476Y-83122666D01*
X170319571Y-83046476D01*
X170319571Y-82932190D01*
X170281476Y-82856000D01*
X170014809Y-83198857D02*
X170052904Y-83122666D01*
X170052904Y-82970285D01*
X170014809Y-82894095D01*
X169976714Y-82856000D01*
X169900523Y-82817904D01*
X169671952Y-82817904D01*
X169595761Y-82856000D01*
X169557666Y-82894095D01*
X169519571Y-82970285D01*
X169519571Y-83122666D01*
X169557666Y-83198857D01*
X170052904Y-83694095D02*
X170014809Y-83617904D01*
X169938619Y-83579809D01*
X169252904Y-83579809D01*
X170014809Y-84303619D02*
X170052904Y-84227428D01*
X170052904Y-84075047D01*
X170014809Y-83998857D01*
X169938619Y-83960761D01*
X169633857Y-83960761D01*
X169557666Y-83998857D01*
X169519571Y-84075047D01*
X169519571Y-84227428D01*
X169557666Y-84303619D01*
X169633857Y-84341714D01*
X169710047Y-84341714D01*
X169786238Y-83960761D01*
X169252904Y-84570285D02*
X170052904Y-84836952D01*
X169252904Y-85103619D01*
X170052904Y-85979809D02*
X169252904Y-85979809D01*
X169557666Y-85979809D02*
X169519571Y-86056000D01*
X169519571Y-86208380D01*
X169557666Y-86284571D01*
X169595761Y-86322666D01*
X169671952Y-86360761D01*
X169900523Y-86360761D01*
X169976714Y-86322666D01*
X170014809Y-86284571D01*
X170052904Y-86208380D01*
X170052904Y-86056000D01*
X170014809Y-85979809D01*
X170052904Y-86817904D02*
X170014809Y-86741714D01*
X169938619Y-86703619D01*
X169252904Y-86703619D01*
X170052904Y-87122666D02*
X169519571Y-87122666D01*
X169252904Y-87122666D02*
X169291000Y-87084571D01*
X169329095Y-87122666D01*
X169291000Y-87160761D01*
X169252904Y-87122666D01*
X169329095Y-87122666D01*
X169519571Y-87503619D02*
X170052904Y-87503619D01*
X169595761Y-87503619D02*
X169557666Y-87541714D01*
X169519571Y-87617904D01*
X169519571Y-87732190D01*
X169557666Y-87808380D01*
X169633857Y-87846476D01*
X170052904Y-87846476D01*
X170052904Y-88227428D02*
X169252904Y-88227428D01*
X169748142Y-88303619D02*
X170052904Y-88532190D01*
X169519571Y-88532190D02*
X169824333Y-88227428D01*
X169519571Y-88798857D02*
X170052904Y-88989333D01*
X169519571Y-89179809D02*
X170052904Y-88989333D01*
X170243380Y-88913142D01*
X170281476Y-88875047D01*
X170319571Y-88798857D01*
X169519571Y-89979809D02*
X169519571Y-90284571D01*
X169252904Y-90094095D02*
X169938619Y-90094095D01*
X170014809Y-90132190D01*
X170052904Y-90208380D01*
X170052904Y-90284571D01*
X170052904Y-90665523D02*
X170014809Y-90589333D01*
X169976714Y-90551238D01*
X169900523Y-90513142D01*
X169671952Y-90513142D01*
X169595761Y-90551238D01*
X169557666Y-90589333D01*
X169519571Y-90665523D01*
X169519571Y-90779809D01*
X169557666Y-90856000D01*
X169595761Y-90894095D01*
X169671952Y-90932190D01*
X169900523Y-90932190D01*
X169976714Y-90894095D01*
X170014809Y-90856000D01*
X170052904Y-90779809D01*
X170052904Y-90665523D01*
X169519571Y-91198857D02*
X170052904Y-91389333D01*
X169519571Y-91579809D02*
X170052904Y-91389333D01*
X170243380Y-91313142D01*
X170281476Y-91275047D01*
X170319571Y-91198857D01*
X169519571Y-92417904D02*
X170052904Y-92608380D01*
X169519571Y-92798857D01*
X170052904Y-93522666D02*
X170052904Y-93065523D01*
X170052904Y-93294095D02*
X169252904Y-93294095D01*
X169367190Y-93217904D01*
X169443380Y-93141714D01*
X169481476Y-93065523D01*
X171657666Y-80875047D02*
X171619571Y-80836952D01*
X171505285Y-80760761D01*
X171429095Y-80722666D01*
X171314809Y-80684571D01*
X171124333Y-80646476D01*
X170971952Y-80646476D01*
X170781476Y-80684571D01*
X170667190Y-80722666D01*
X170591000Y-80760761D01*
X170476714Y-80836952D01*
X170438619Y-80875047D01*
X171276714Y-81636952D02*
X171314809Y-81598857D01*
X171352904Y-81484571D01*
X171352904Y-81408380D01*
X171314809Y-81294095D01*
X171238619Y-81217904D01*
X171162428Y-81179809D01*
X171010047Y-81141714D01*
X170895761Y-81141714D01*
X170743380Y-81179809D01*
X170667190Y-81217904D01*
X170591000Y-81294095D01*
X170552904Y-81408380D01*
X170552904Y-81484571D01*
X170591000Y-81598857D01*
X170629095Y-81636952D01*
X171657666Y-81903619D02*
X171619571Y-81941714D01*
X171505285Y-82017904D01*
X171429095Y-82056000D01*
X171314809Y-82094095D01*
X171124333Y-82132190D01*
X170971952Y-82132190D01*
X170781476Y-82094095D01*
X170667190Y-82056000D01*
X170591000Y-82017904D01*
X170476714Y-81941714D01*
X170438619Y-81903619D01*
X170629095Y-83084571D02*
X170591000Y-83122666D01*
X170552904Y-83198857D01*
X170552904Y-83389333D01*
X170591000Y-83465523D01*
X170629095Y-83503619D01*
X170705285Y-83541714D01*
X170781476Y-83541714D01*
X170895761Y-83503619D01*
X171352904Y-83046476D01*
X171352904Y-83541714D01*
X170552904Y-84036952D02*
X170552904Y-84113142D01*
X170591000Y-84189333D01*
X170629095Y-84227428D01*
X170705285Y-84265523D01*
X170857666Y-84303619D01*
X171048142Y-84303619D01*
X171200523Y-84265523D01*
X171276714Y-84227428D01*
X171314809Y-84189333D01*
X171352904Y-84113142D01*
X171352904Y-84036952D01*
X171314809Y-83960761D01*
X171276714Y-83922666D01*
X171200523Y-83884571D01*
X171048142Y-83846476D01*
X170857666Y-83846476D01*
X170705285Y-83884571D01*
X170629095Y-83922666D01*
X170591000Y-83960761D01*
X170552904Y-84036952D01*
X170629095Y-84608380D02*
X170591000Y-84646476D01*
X170552904Y-84722666D01*
X170552904Y-84913142D01*
X170591000Y-84989333D01*
X170629095Y-85027428D01*
X170705285Y-85065523D01*
X170781476Y-85065523D01*
X170895761Y-85027428D01*
X171352904Y-84570285D01*
X171352904Y-85065523D01*
X171352904Y-85827428D02*
X171352904Y-85370285D01*
X171352904Y-85598857D02*
X170552904Y-85598857D01*
X170667190Y-85522666D01*
X170743380Y-85446476D01*
X170781476Y-85370285D01*
X171314809Y-86741714D02*
X171352904Y-86817904D01*
X171352904Y-86970285D01*
X171314809Y-87046476D01*
X171238619Y-87084571D01*
X171200523Y-87084571D01*
X171124333Y-87046476D01*
X171086238Y-86970285D01*
X171086238Y-86856000D01*
X171048142Y-86779809D01*
X170971952Y-86741714D01*
X170933857Y-86741714D01*
X170857666Y-86779809D01*
X170819571Y-86856000D01*
X170819571Y-86970285D01*
X170857666Y-87046476D01*
X170819571Y-87427428D02*
X171352904Y-87427428D01*
X170895761Y-87427428D02*
X170857666Y-87465523D01*
X170819571Y-87541714D01*
X170819571Y-87656000D01*
X170857666Y-87732190D01*
X170933857Y-87770285D01*
X171352904Y-87770285D01*
X171352904Y-88265523D02*
X171314809Y-88189333D01*
X171276714Y-88151238D01*
X171200523Y-88113142D01*
X170971952Y-88113142D01*
X170895761Y-88151238D01*
X170857666Y-88189333D01*
X170819571Y-88265523D01*
X170819571Y-88379809D01*
X170857666Y-88456000D01*
X170895761Y-88494095D01*
X170971952Y-88532190D01*
X171200523Y-88532190D01*
X171276714Y-88494095D01*
X171314809Y-88456000D01*
X171352904Y-88379809D01*
X171352904Y-88265523D01*
X170819571Y-88798857D02*
X171352904Y-88951238D01*
X170971952Y-89103619D01*
X171352904Y-89256000D01*
X170819571Y-89408380D01*
X171352904Y-89713142D02*
X170552904Y-89713142D01*
X170857666Y-89713142D02*
X170819571Y-89789333D01*
X170819571Y-89941714D01*
X170857666Y-90017904D01*
X170895761Y-90056000D01*
X170971952Y-90094095D01*
X171200523Y-90094095D01*
X171276714Y-90056000D01*
X171314809Y-90017904D01*
X171352904Y-89941714D01*
X171352904Y-89789333D01*
X171314809Y-89713142D01*
X171352904Y-90779809D02*
X170933857Y-90779809D01*
X170857666Y-90741714D01*
X170819571Y-90665523D01*
X170819571Y-90513142D01*
X170857666Y-90436952D01*
X171314809Y-90779809D02*
X171352904Y-90703619D01*
X171352904Y-90513142D01*
X171314809Y-90436952D01*
X171238619Y-90398857D01*
X171162428Y-90398857D01*
X171086238Y-90436952D01*
X171048142Y-90513142D01*
X171048142Y-90703619D01*
X171010047Y-90779809D01*
X171352904Y-91275047D02*
X171314809Y-91198857D01*
X171238619Y-91160761D01*
X170552904Y-91160761D01*
X171352904Y-91694095D02*
X171314809Y-91617904D01*
X171238619Y-91579809D01*
X170552904Y-91579809D01*
X172652904Y-80646476D02*
X171852904Y-80646476D01*
X172157666Y-80646476D02*
X172119571Y-80722666D01*
X172119571Y-80875047D01*
X172157666Y-80951238D01*
X172195761Y-80989333D01*
X172271952Y-81027428D01*
X172500523Y-81027428D01*
X172576714Y-80989333D01*
X172614809Y-80951238D01*
X172652904Y-80875047D01*
X172652904Y-80722666D01*
X172614809Y-80646476D01*
X172652904Y-81713142D02*
X172233857Y-81713142D01*
X172157666Y-81675047D01*
X172119571Y-81598857D01*
X172119571Y-81446476D01*
X172157666Y-81370285D01*
X172614809Y-81713142D02*
X172652904Y-81636952D01*
X172652904Y-81446476D01*
X172614809Y-81370285D01*
X172538619Y-81332190D01*
X172462428Y-81332190D01*
X172386238Y-81370285D01*
X172348142Y-81446476D01*
X172348142Y-81636952D01*
X172310047Y-81713142D01*
X172614809Y-82055999D02*
X172652904Y-82132190D01*
X172652904Y-82284571D01*
X172614809Y-82360761D01*
X172538619Y-82398857D01*
X172500523Y-82398857D01*
X172424333Y-82360761D01*
X172386238Y-82284571D01*
X172386238Y-82170285D01*
X172348142Y-82094095D01*
X172271952Y-82055999D01*
X172233857Y-82055999D01*
X172157666Y-82094095D01*
X172119571Y-82170285D01*
X172119571Y-82284571D01*
X172157666Y-82360761D01*
X172614809Y-83046476D02*
X172652904Y-82970285D01*
X172652904Y-82817904D01*
X172614809Y-82741714D01*
X172538619Y-82703619D01*
X172233857Y-82703619D01*
X172157666Y-82741714D01*
X172119571Y-82817904D01*
X172119571Y-82970285D01*
X172157666Y-83046476D01*
X172233857Y-83084571D01*
X172310047Y-83084571D01*
X172386238Y-82703619D01*
X172652904Y-83770285D02*
X171852904Y-83770285D01*
X172614809Y-83770285D02*
X172652904Y-83694095D01*
X172652904Y-83541714D01*
X172614809Y-83465523D01*
X172576714Y-83427428D01*
X172500523Y-83389333D01*
X172271952Y-83389333D01*
X172195761Y-83427428D01*
X172157666Y-83465523D01*
X172119571Y-83541714D01*
X172119571Y-83694095D01*
X172157666Y-83770285D01*
X172652904Y-84875047D02*
X172614809Y-84798857D01*
X172576714Y-84760761D01*
X172500523Y-84722666D01*
X172271952Y-84722666D01*
X172195761Y-84760761D01*
X172157666Y-84798857D01*
X172119571Y-84875047D01*
X172119571Y-84989333D01*
X172157666Y-85065523D01*
X172195761Y-85103619D01*
X172271952Y-85141714D01*
X172500523Y-85141714D01*
X172576714Y-85103619D01*
X172614809Y-85065523D01*
X172652904Y-84989333D01*
X172652904Y-84875047D01*
X172119571Y-85484571D02*
X172652904Y-85484571D01*
X172195761Y-85484571D02*
X172157666Y-85522666D01*
X172119571Y-85598857D01*
X172119571Y-85713142D01*
X172157666Y-85789333D01*
X172233857Y-85827428D01*
X172652904Y-85827428D01*
X172233857Y-87084571D02*
X172271952Y-87198857D01*
X172310047Y-87236952D01*
X172386238Y-87275047D01*
X172500523Y-87275047D01*
X172576714Y-87236952D01*
X172614809Y-87198857D01*
X172652904Y-87122666D01*
X172652904Y-86817904D01*
X171852904Y-86817904D01*
X171852904Y-87084571D01*
X171891000Y-87160761D01*
X171929095Y-87198857D01*
X172005285Y-87236952D01*
X172081476Y-87236952D01*
X172157666Y-87198857D01*
X172195761Y-87160761D01*
X172233857Y-87084571D01*
X172233857Y-86817904D01*
X172614809Y-87922666D02*
X172652904Y-87846476D01*
X172652904Y-87694095D01*
X172614809Y-87617904D01*
X172538619Y-87579809D01*
X172233857Y-87579809D01*
X172157666Y-87617904D01*
X172119571Y-87694095D01*
X172119571Y-87846476D01*
X172157666Y-87922666D01*
X172233857Y-87960761D01*
X172310047Y-87960761D01*
X172386238Y-87579809D01*
X172652904Y-88646476D02*
X172233857Y-88646476D01*
X172157666Y-88608380D01*
X172119571Y-88532190D01*
X172119571Y-88379809D01*
X172157666Y-88303619D01*
X172614809Y-88646476D02*
X172652904Y-88570285D01*
X172652904Y-88379809D01*
X172614809Y-88303619D01*
X172538619Y-88265523D01*
X172462428Y-88265523D01*
X172386238Y-88303619D01*
X172348142Y-88379809D01*
X172348142Y-88570285D01*
X172310047Y-88646476D01*
X172119571Y-89370285D02*
X172767190Y-89370285D01*
X172843380Y-89332190D01*
X172881476Y-89294095D01*
X172919571Y-89217904D01*
X172919571Y-89103619D01*
X172881476Y-89027428D01*
X172614809Y-89370285D02*
X172652904Y-89294095D01*
X172652904Y-89141714D01*
X172614809Y-89065523D01*
X172576714Y-89027428D01*
X172500523Y-88989333D01*
X172271952Y-88989333D01*
X172195761Y-89027428D01*
X172157666Y-89065523D01*
X172119571Y-89141714D01*
X172119571Y-89294095D01*
X172157666Y-89370285D01*
X172652904Y-89865523D02*
X172614809Y-89789333D01*
X172538619Y-89751238D01*
X171852904Y-89751238D01*
X172614809Y-90475047D02*
X172652904Y-90398857D01*
X172652904Y-90246476D01*
X172614809Y-90170285D01*
X172538619Y-90132190D01*
X172233857Y-90132190D01*
X172157666Y-90170285D01*
X172119571Y-90246476D01*
X172119571Y-90398857D01*
X172157666Y-90475047D01*
X172233857Y-90513142D01*
X172310047Y-90513142D01*
X172386238Y-90132190D01*
X171852904Y-90741714D02*
X172652904Y-91008380D01*
X171852904Y-91275047D01*
X172614809Y-92494095D02*
X172652904Y-92417904D01*
X172652904Y-92265523D01*
X172614809Y-92189333D01*
X172576714Y-92151238D01*
X172500523Y-92113142D01*
X172271952Y-92113142D01*
X172195761Y-92151238D01*
X172157666Y-92189333D01*
X172119571Y-92265523D01*
X172119571Y-92417904D01*
X172157666Y-92494095D01*
X172652904Y-92836952D02*
X171852904Y-92836952D01*
X172652904Y-93179809D02*
X172233857Y-93179809D01*
X172157666Y-93141714D01*
X172119571Y-93065523D01*
X172119571Y-92951238D01*
X172157666Y-92875047D01*
X172195761Y-92836952D01*
X172614809Y-93865523D02*
X172652904Y-93789333D01*
X172652904Y-93636952D01*
X172614809Y-93560761D01*
X172538619Y-93522666D01*
X172233857Y-93522666D01*
X172157666Y-93560761D01*
X172119571Y-93636952D01*
X172119571Y-93789333D01*
X172157666Y-93865523D01*
X172233857Y-93903619D01*
X172310047Y-93903619D01*
X172386238Y-93522666D01*
X172119571Y-94170285D02*
X172652904Y-94322666D01*
X172271952Y-94475047D01*
X172652904Y-94627428D01*
X172119571Y-94779809D01*
X172119571Y-95579809D02*
X172119571Y-95884571D01*
X171852904Y-95694095D02*
X172538619Y-95694095D01*
X172614809Y-95732190D01*
X172652904Y-95808380D01*
X172652904Y-95884571D01*
X172652904Y-96265523D02*
X172614809Y-96189333D01*
X172576714Y-96151238D01*
X172500523Y-96113142D01*
X172271952Y-96113142D01*
X172195761Y-96151238D01*
X172157666Y-96189333D01*
X172119571Y-96265523D01*
X172119571Y-96379809D01*
X172157666Y-96456000D01*
X172195761Y-96494095D01*
X172271952Y-96532190D01*
X172500523Y-96532190D01*
X172576714Y-96494095D01*
X172614809Y-96456000D01*
X172652904Y-96379809D01*
X172652904Y-96265523D01*
X172119571Y-96798857D02*
X172652904Y-96989333D01*
X172119571Y-97179809D02*
X172652904Y-96989333D01*
X172843380Y-96913142D01*
X172881476Y-96875047D01*
X172919571Y-96798857D01*
X172652904Y-98094095D02*
X171852904Y-98094095D01*
X172157666Y-98094095D02*
X172119571Y-98170285D01*
X172119571Y-98322666D01*
X172157666Y-98398857D01*
X172195761Y-98436952D01*
X172271952Y-98475047D01*
X172500523Y-98475047D01*
X172576714Y-98436952D01*
X172614809Y-98398857D01*
X172652904Y-98322666D01*
X172652904Y-98170285D01*
X172614809Y-98094095D01*
X172119571Y-98741714D02*
X172652904Y-98932190D01*
X172119571Y-99122666D02*
X172652904Y-98932190D01*
X172843380Y-98856000D01*
X172881476Y-98817904D01*
X172919571Y-98741714D01*
X171852904Y-100265523D02*
X172424333Y-100265523D01*
X172538619Y-100227428D01*
X172614809Y-100151238D01*
X172652904Y-100036952D01*
X172652904Y-99960761D01*
X172652904Y-100760761D02*
X172614809Y-100684571D01*
X172576714Y-100646476D01*
X172500523Y-100608380D01*
X172271952Y-100608380D01*
X172195761Y-100646476D01*
X172157666Y-100684571D01*
X172119571Y-100760761D01*
X172119571Y-100875047D01*
X172157666Y-100951238D01*
X172195761Y-100989333D01*
X172271952Y-101027428D01*
X172500523Y-101027428D01*
X172576714Y-100989333D01*
X172614809Y-100951238D01*
X172652904Y-100875047D01*
X172652904Y-100760761D01*
X172652904Y-101370285D02*
X171852904Y-101370285D01*
X172652904Y-101713142D02*
X172233857Y-101713142D01*
X172157666Y-101675047D01*
X172119571Y-101598857D01*
X172119571Y-101484571D01*
X172157666Y-101408380D01*
X172195761Y-101370285D01*
X172119571Y-102094095D02*
X172652904Y-102094095D01*
X172195761Y-102094095D02*
X172157666Y-102132190D01*
X172119571Y-102208380D01*
X172119571Y-102322666D01*
X172157666Y-102398857D01*
X172233857Y-102436952D01*
X172652904Y-102436952D01*
X171852904Y-103465523D02*
X172005285Y-103389333D01*
X171852904Y-103732190D02*
X172652904Y-103922666D01*
X172081476Y-104075047D01*
X172652904Y-104227428D01*
X171852904Y-104417904D01*
X172652904Y-105065523D02*
X172233857Y-105065523D01*
X172157666Y-105027428D01*
X172119571Y-104951238D01*
X172119571Y-104798857D01*
X172157666Y-104722666D01*
X172614809Y-105065523D02*
X172652904Y-104989333D01*
X172652904Y-104798857D01*
X172614809Y-104722666D01*
X172538619Y-104684571D01*
X172462428Y-104684571D01*
X172386238Y-104722666D01*
X172348142Y-104798857D01*
X172348142Y-104989333D01*
X172310047Y-105065523D01*
X172652904Y-105446476D02*
X172119571Y-105446476D01*
X172271952Y-105446476D02*
X172195761Y-105484571D01*
X172157666Y-105522666D01*
X172119571Y-105598857D01*
X172119571Y-105675047D01*
X172119571Y-105827428D02*
X172119571Y-106132190D01*
X171852904Y-105941714D02*
X172538619Y-105941714D01*
X172614809Y-105979809D01*
X172652904Y-106056000D01*
X172652904Y-106132190D01*
X172652904Y-106398857D02*
X171852904Y-106398857D01*
X172652904Y-106741714D02*
X172233857Y-106741714D01*
X172157666Y-106703619D01*
X172119571Y-106627428D01*
X172119571Y-106513142D01*
X172157666Y-106436952D01*
X172195761Y-106398857D01*
X172652904Y-107236952D02*
X172614809Y-107160761D01*
X172576714Y-107122666D01*
X172500523Y-107084571D01*
X172271952Y-107084571D01*
X172195761Y-107122666D01*
X172157666Y-107160761D01*
X172119571Y-107236952D01*
X172119571Y-107351238D01*
X172157666Y-107427428D01*
X172195761Y-107465523D01*
X172271952Y-107503619D01*
X172500523Y-107503619D01*
X172576714Y-107465523D01*
X172614809Y-107427428D01*
X172652904Y-107351238D01*
X172652904Y-107236952D01*
X172119571Y-108189333D02*
X172767190Y-108189333D01*
X172843380Y-108151238D01*
X172881476Y-108113142D01*
X172919571Y-108036952D01*
X172919571Y-107922666D01*
X172881476Y-107846476D01*
X172614809Y-108189333D02*
X172652904Y-108113142D01*
X172652904Y-107960761D01*
X172614809Y-107884571D01*
X172576714Y-107846476D01*
X172500523Y-107808380D01*
X172271952Y-107808380D01*
X172195761Y-107846476D01*
X172157666Y-107884571D01*
X172119571Y-107960761D01*
X172119571Y-108113142D01*
X172157666Y-108189333D01*
X172652904Y-108608380D02*
X172652904Y-108760761D01*
X172614809Y-108836952D01*
X172576714Y-108875047D01*
X172462428Y-108951238D01*
X172310047Y-108989333D01*
X172005285Y-108989333D01*
X171929095Y-108951238D01*
X171891000Y-108913142D01*
X171852904Y-108836952D01*
X171852904Y-108684571D01*
X171891000Y-108608380D01*
X171929095Y-108570285D01*
X172005285Y-108532190D01*
X172195761Y-108532190D01*
X172271952Y-108570285D01*
X172310047Y-108608380D01*
X172348142Y-108684571D01*
X172348142Y-108836952D01*
X172310047Y-108913142D01*
X172271952Y-108951238D01*
X172195761Y-108989333D01*
X171852904Y-109370285D02*
X172005285Y-109294095D01*
X172652904Y-110322666D02*
X171852904Y-110322666D01*
X172233857Y-110322666D02*
X172233857Y-110779809D01*
X172652904Y-110779809D02*
X171852904Y-110779809D01*
X172652904Y-111503619D02*
X172233857Y-111503619D01*
X172157666Y-111465523D01*
X172119571Y-111389333D01*
X172119571Y-111236952D01*
X172157666Y-111160761D01*
X172614809Y-111503619D02*
X172652904Y-111427428D01*
X172652904Y-111236952D01*
X172614809Y-111160761D01*
X172538619Y-111122666D01*
X172462428Y-111122666D01*
X172386238Y-111160761D01*
X172348142Y-111236952D01*
X172348142Y-111427428D01*
X172310047Y-111503619D01*
X172119571Y-111808380D02*
X172652904Y-111960761D01*
X172271952Y-112113142D01*
X172652904Y-112265523D01*
X172119571Y-112417904D01*
X172652904Y-112836952D02*
X172614809Y-112760761D01*
X172538619Y-112722666D01*
X171852904Y-112722666D01*
X172614809Y-113446476D02*
X172652904Y-113370285D01*
X172652904Y-113217904D01*
X172614809Y-113141714D01*
X172538619Y-113103619D01*
X172233857Y-113103619D01*
X172157666Y-113141714D01*
X172119571Y-113217904D01*
X172119571Y-113370285D01*
X172157666Y-113446476D01*
X172233857Y-113484571D01*
X172310047Y-113484571D01*
X172386238Y-113103619D01*
X172119571Y-113751238D02*
X172652904Y-113941714D01*
X172119571Y-114132190D02*
X172652904Y-113941714D01*
X172843380Y-113865523D01*
X172881476Y-113827428D01*
X172919571Y-113751238D01*
X173876714Y-81103619D02*
X173914809Y-81065523D01*
X173952904Y-80951238D01*
X173952904Y-80875047D01*
X173914809Y-80760761D01*
X173838619Y-80684571D01*
X173762428Y-80646476D01*
X173610047Y-80608380D01*
X173495761Y-80608380D01*
X173343380Y-80646476D01*
X173267190Y-80684571D01*
X173191000Y-80760761D01*
X173152904Y-80875047D01*
X173152904Y-80951238D01*
X173191000Y-81065523D01*
X173229095Y-81103619D01*
X173876714Y-81903619D02*
X173914809Y-81865523D01*
X173952904Y-81751238D01*
X173952904Y-81675047D01*
X173914809Y-81560761D01*
X173838619Y-81484571D01*
X173762428Y-81446476D01*
X173610047Y-81408380D01*
X173495761Y-81408380D01*
X173343380Y-81446476D01*
X173267190Y-81484571D01*
X173191000Y-81560761D01*
X173152904Y-81675047D01*
X173152904Y-81751238D01*
X173191000Y-81865523D01*
X173229095Y-81903619D01*
X173648142Y-82246476D02*
X173648142Y-82856000D01*
X173533857Y-83503619D02*
X173571952Y-83617904D01*
X173610047Y-83656000D01*
X173686238Y-83694095D01*
X173800523Y-83694095D01*
X173876714Y-83656000D01*
X173914809Y-83617904D01*
X173952904Y-83541714D01*
X173952904Y-83236952D01*
X173152904Y-83236952D01*
X173152904Y-83503619D01*
X173191000Y-83579809D01*
X173229095Y-83617904D01*
X173305285Y-83656000D01*
X173381476Y-83656000D01*
X173457666Y-83617904D01*
X173495761Y-83579809D01*
X173533857Y-83503619D01*
X173533857Y-83236952D01*
X173571952Y-84189333D02*
X173952904Y-84189333D01*
X173152904Y-83922666D02*
X173571952Y-84189333D01*
X173152904Y-84456000D01*
X173648142Y-84722666D02*
X173648142Y-85332190D01*
X173914809Y-85675047D02*
X173952904Y-85789333D01*
X173952904Y-85979809D01*
X173914809Y-86056000D01*
X173876714Y-86094095D01*
X173800523Y-86132190D01*
X173724333Y-86132190D01*
X173648142Y-86094095D01*
X173610047Y-86056000D01*
X173571952Y-85979809D01*
X173533857Y-85827428D01*
X173495761Y-85751238D01*
X173457666Y-85713142D01*
X173381476Y-85675047D01*
X173305285Y-85675047D01*
X173229095Y-85713142D01*
X173191000Y-85751238D01*
X173152904Y-85827428D01*
X173152904Y-86017904D01*
X173191000Y-86132190D01*
X173724333Y-86436952D02*
X173724333Y-86817904D01*
X173952904Y-86360761D02*
X173152904Y-86627428D01*
X173952904Y-86894095D01*
X173419571Y-88113142D02*
X173952904Y-88113142D01*
X173114809Y-87922666D02*
X173686238Y-87732190D01*
X173686238Y-88227428D01*
X173876714Y-88532190D02*
X173914809Y-88570285D01*
X173952904Y-88532190D01*
X173914809Y-88494095D01*
X173876714Y-88532190D01*
X173952904Y-88532190D01*
X173152904Y-89065523D02*
X173152904Y-89141714D01*
X173191000Y-89217904D01*
X173229095Y-89256000D01*
X173305285Y-89294095D01*
X173457666Y-89332190D01*
X173648142Y-89332190D01*
X173800523Y-89294095D01*
X173876714Y-89256000D01*
X173914809Y-89217904D01*
X173952904Y-89141714D01*
X173952904Y-89065523D01*
X173914809Y-88989333D01*
X173876714Y-88951238D01*
X173800523Y-88913142D01*
X173648142Y-88875047D01*
X173457666Y-88875047D01*
X173305285Y-88913142D01*
X173229095Y-88951238D01*
X173191000Y-88989333D01*
X173152904Y-89065523D01*
X175252904Y-80646476D02*
X174452904Y-80646476D01*
X175252904Y-80989333D02*
X174833857Y-80989333D01*
X174757666Y-80951238D01*
X174719571Y-80875047D01*
X174719571Y-80760761D01*
X174757666Y-80684571D01*
X174795761Y-80646476D01*
X174719571Y-81256000D02*
X174719571Y-81560761D01*
X174452904Y-81370285D02*
X175138619Y-81370285D01*
X175214809Y-81408380D01*
X175252904Y-81484571D01*
X175252904Y-81560761D01*
X174719571Y-81713142D02*
X174719571Y-82017904D01*
X174452904Y-81827428D02*
X175138619Y-81827428D01*
X175214809Y-81865523D01*
X175252904Y-81941714D01*
X175252904Y-82017904D01*
X174719571Y-82284571D02*
X175519571Y-82284571D01*
X174757666Y-82284571D02*
X174719571Y-82360761D01*
X174719571Y-82513142D01*
X174757666Y-82589333D01*
X174795761Y-82627428D01*
X174871952Y-82665523D01*
X175100523Y-82665523D01*
X175176714Y-82627428D01*
X175214809Y-82589333D01*
X175252904Y-82513142D01*
X175252904Y-82360761D01*
X175214809Y-82284571D01*
X175214809Y-82970285D02*
X175252904Y-83046476D01*
X175252904Y-83198857D01*
X175214809Y-83275047D01*
X175138619Y-83313142D01*
X175100523Y-83313142D01*
X175024333Y-83275047D01*
X174986238Y-83198857D01*
X174986238Y-83084571D01*
X174948142Y-83008380D01*
X174871952Y-82970285D01*
X174833857Y-82970285D01*
X174757666Y-83008380D01*
X174719571Y-83084571D01*
X174719571Y-83198857D01*
X174757666Y-83275047D01*
X175176714Y-83656000D02*
X175214809Y-83694095D01*
X175252904Y-83656000D01*
X175214809Y-83617904D01*
X175176714Y-83656000D01*
X175252904Y-83656000D01*
X174757666Y-83656000D02*
X174795761Y-83694095D01*
X174833857Y-83656000D01*
X174795761Y-83617904D01*
X174757666Y-83656000D01*
X174833857Y-83656000D01*
X174414809Y-84608380D02*
X175443380Y-83922666D01*
X174414809Y-85446476D02*
X175443380Y-84760761D01*
X174719571Y-86056000D02*
X175367190Y-86056000D01*
X175443380Y-86017904D01*
X175481476Y-85979809D01*
X175519571Y-85903619D01*
X175519571Y-85789333D01*
X175481476Y-85713142D01*
X175214809Y-86056000D02*
X175252904Y-85979809D01*
X175252904Y-85827428D01*
X175214809Y-85751238D01*
X175176714Y-85713142D01*
X175100523Y-85675047D01*
X174871952Y-85675047D01*
X174795761Y-85713142D01*
X174757666Y-85751238D01*
X174719571Y-85827428D01*
X174719571Y-85979809D01*
X174757666Y-86056000D01*
X175252904Y-86436952D02*
X174719571Y-86436952D01*
X174452904Y-86436952D02*
X174491000Y-86398857D01*
X174529095Y-86436952D01*
X174491000Y-86475047D01*
X174452904Y-86436952D01*
X174529095Y-86436952D01*
X174719571Y-86703619D02*
X174719571Y-87008380D01*
X174452904Y-86817904D02*
X175138619Y-86817904D01*
X175214809Y-86856000D01*
X175252904Y-86932190D01*
X175252904Y-87008380D01*
X175252904Y-87275047D02*
X174452904Y-87275047D01*
X175252904Y-87617904D02*
X174833857Y-87617904D01*
X174757666Y-87579809D01*
X174719571Y-87503619D01*
X174719571Y-87389333D01*
X174757666Y-87313142D01*
X174795761Y-87275047D01*
X174719571Y-88341714D02*
X175252904Y-88341714D01*
X174719571Y-87998857D02*
X175138619Y-87998857D01*
X175214809Y-88036952D01*
X175252904Y-88113142D01*
X175252904Y-88227428D01*
X175214809Y-88303619D01*
X175176714Y-88341714D01*
X175252904Y-88722666D02*
X174452904Y-88722666D01*
X174757666Y-88722666D02*
X174719571Y-88798857D01*
X174719571Y-88951238D01*
X174757666Y-89027428D01*
X174795761Y-89065523D01*
X174871952Y-89103619D01*
X175100523Y-89103619D01*
X175176714Y-89065523D01*
X175214809Y-89027428D01*
X175252904Y-88951238D01*
X175252904Y-88798857D01*
X175214809Y-88722666D01*
X175176714Y-89446476D02*
X175214809Y-89484571D01*
X175252904Y-89446476D01*
X175214809Y-89408380D01*
X175176714Y-89446476D01*
X175252904Y-89446476D01*
X175214809Y-90170285D02*
X175252904Y-90094095D01*
X175252904Y-89941714D01*
X175214809Y-89865523D01*
X175176714Y-89827428D01*
X175100523Y-89789333D01*
X174871952Y-89789333D01*
X174795761Y-89827428D01*
X174757666Y-89865523D01*
X174719571Y-89941714D01*
X174719571Y-90094095D01*
X174757666Y-90170285D01*
X175252904Y-90627428D02*
X175214809Y-90551238D01*
X175176714Y-90513142D01*
X175100523Y-90475047D01*
X174871952Y-90475047D01*
X174795761Y-90513142D01*
X174757666Y-90551238D01*
X174719571Y-90627428D01*
X174719571Y-90741714D01*
X174757666Y-90817904D01*
X174795761Y-90856000D01*
X174871952Y-90894095D01*
X175100523Y-90894095D01*
X175176714Y-90856000D01*
X175214809Y-90817904D01*
X175252904Y-90741714D01*
X175252904Y-90627428D01*
X175252904Y-91236952D02*
X174719571Y-91236952D01*
X174795761Y-91236952D02*
X174757666Y-91275047D01*
X174719571Y-91351238D01*
X174719571Y-91465523D01*
X174757666Y-91541714D01*
X174833857Y-91579809D01*
X175252904Y-91579809D01*
X174833857Y-91579809D02*
X174757666Y-91617904D01*
X174719571Y-91694095D01*
X174719571Y-91808380D01*
X174757666Y-91884571D01*
X174833857Y-91922666D01*
X175252904Y-91922666D01*
X174414809Y-92875047D02*
X175443380Y-92189333D01*
X174833857Y-93408380D02*
X174871952Y-93522666D01*
X174910047Y-93560761D01*
X174986238Y-93598857D01*
X175100523Y-93598857D01*
X175176714Y-93560761D01*
X175214809Y-93522666D01*
X175252904Y-93446476D01*
X175252904Y-93141714D01*
X174452904Y-93141714D01*
X174452904Y-93408380D01*
X174491000Y-93484571D01*
X174529095Y-93522666D01*
X174605285Y-93560761D01*
X174681476Y-93560761D01*
X174757666Y-93522666D01*
X174795761Y-93484571D01*
X174833857Y-93408380D01*
X174833857Y-93141714D01*
X174833857Y-94208380D02*
X174871952Y-94322666D01*
X174910047Y-94360761D01*
X174986238Y-94398857D01*
X175100523Y-94398857D01*
X175176714Y-94360761D01*
X175214809Y-94322666D01*
X175252904Y-94246476D01*
X175252904Y-93941714D01*
X174452904Y-93941714D01*
X174452904Y-94208380D01*
X174491000Y-94284571D01*
X174529095Y-94322666D01*
X174605285Y-94360761D01*
X174681476Y-94360761D01*
X174757666Y-94322666D01*
X174795761Y-94284571D01*
X174833857Y-94208380D01*
X174833857Y-93941714D01*
X174833857Y-95008380D02*
X174871952Y-95122666D01*
X174910047Y-95160761D01*
X174986238Y-95198857D01*
X175100523Y-95198857D01*
X175176714Y-95160761D01*
X175214809Y-95122666D01*
X175252904Y-95046476D01*
X175252904Y-94741714D01*
X174452904Y-94741714D01*
X174452904Y-95008380D01*
X174491000Y-95084571D01*
X174529095Y-95122666D01*
X174605285Y-95160761D01*
X174681476Y-95160761D01*
X174757666Y-95122666D01*
X174795761Y-95084571D01*
X174833857Y-95008380D01*
X174833857Y-94741714D01*
X175214809Y-95503619D02*
X175252904Y-95617904D01*
X175252904Y-95808380D01*
X175214809Y-95884571D01*
X175176714Y-95922666D01*
X175100523Y-95960761D01*
X175024333Y-95960761D01*
X174948142Y-95922666D01*
X174910047Y-95884571D01*
X174871952Y-95808380D01*
X174833857Y-95656000D01*
X174795761Y-95579809D01*
X174757666Y-95541714D01*
X174681476Y-95503619D01*
X174605285Y-95503619D01*
X174529095Y-95541714D01*
X174491000Y-95579809D01*
X174452904Y-95656000D01*
X174452904Y-95846476D01*
X174491000Y-95960761D01*
X174719571Y-96303619D02*
X175252904Y-96303619D01*
X174795761Y-96303619D02*
X174757666Y-96341714D01*
X174719571Y-96417904D01*
X174719571Y-96532190D01*
X174757666Y-96608380D01*
X174833857Y-96646476D01*
X175252904Y-96646476D01*
X175252904Y-97141714D02*
X175214809Y-97065523D01*
X175176714Y-97027428D01*
X175100523Y-96989333D01*
X174871952Y-96989333D01*
X174795761Y-97027428D01*
X174757666Y-97065523D01*
X174719571Y-97141714D01*
X174719571Y-97256000D01*
X174757666Y-97332190D01*
X174795761Y-97370285D01*
X174871952Y-97408380D01*
X175100523Y-97408380D01*
X175176714Y-97370285D01*
X175214809Y-97332190D01*
X175252904Y-97256000D01*
X175252904Y-97141714D01*
X174719571Y-97675047D02*
X175252904Y-97827428D01*
X174871952Y-97979809D01*
X175252904Y-98132190D01*
X174719571Y-98284571D01*
X175252904Y-98589333D02*
X174452904Y-98589333D01*
X174757666Y-98589333D02*
X174719571Y-98665523D01*
X174719571Y-98817904D01*
X174757666Y-98894095D01*
X174795761Y-98932190D01*
X174871952Y-98970285D01*
X175100523Y-98970285D01*
X175176714Y-98932190D01*
X175214809Y-98894095D01*
X175252904Y-98817904D01*
X175252904Y-98665523D01*
X175214809Y-98589333D01*
X175252904Y-99656000D02*
X174833857Y-99656000D01*
X174757666Y-99617904D01*
X174719571Y-99541714D01*
X174719571Y-99389333D01*
X174757666Y-99313142D01*
X175214809Y-99656000D02*
X175252904Y-99579809D01*
X175252904Y-99389333D01*
X175214809Y-99313142D01*
X175138619Y-99275047D01*
X175062428Y-99275047D01*
X174986238Y-99313142D01*
X174948142Y-99389333D01*
X174948142Y-99579809D01*
X174910047Y-99656000D01*
X175252904Y-100151238D02*
X175214809Y-100075047D01*
X175138619Y-100036952D01*
X174452904Y-100036952D01*
X175252904Y-100570285D02*
X175214809Y-100494095D01*
X175138619Y-100456000D01*
X174452904Y-100456000D01*
X174414809Y-101446476D02*
X175443380Y-100760761D01*
X175252904Y-101713142D02*
X174452904Y-101713142D01*
X174757666Y-101713142D02*
X174719571Y-101789333D01*
X174719571Y-101941714D01*
X174757666Y-102017904D01*
X174795761Y-102056000D01*
X174871952Y-102094095D01*
X175100523Y-102094095D01*
X175176714Y-102056000D01*
X175214809Y-102017904D01*
X175252904Y-101941714D01*
X175252904Y-101789333D01*
X175214809Y-101713142D01*
X175214809Y-102741714D02*
X175252904Y-102665523D01*
X175252904Y-102513142D01*
X175214809Y-102436952D01*
X175138619Y-102398857D01*
X174833857Y-102398857D01*
X174757666Y-102436952D01*
X174719571Y-102513142D01*
X174719571Y-102665523D01*
X174757666Y-102741714D01*
X174833857Y-102779809D01*
X174910047Y-102779809D01*
X174986238Y-102398857D01*
X175252904Y-103465523D02*
X174833857Y-103465523D01*
X174757666Y-103427428D01*
X174719571Y-103351238D01*
X174719571Y-103198857D01*
X174757666Y-103122666D01*
X175214809Y-103465523D02*
X175252904Y-103389333D01*
X175252904Y-103198857D01*
X175214809Y-103122666D01*
X175138619Y-103084571D01*
X175062428Y-103084571D01*
X174986238Y-103122666D01*
X174948142Y-103198857D01*
X174948142Y-103389333D01*
X174910047Y-103465523D01*
X174719571Y-104189333D02*
X175367190Y-104189333D01*
X175443380Y-104151238D01*
X175481476Y-104113142D01*
X175519571Y-104036952D01*
X175519571Y-103922666D01*
X175481476Y-103846476D01*
X175214809Y-104189333D02*
X175252904Y-104113142D01*
X175252904Y-103960761D01*
X175214809Y-103884571D01*
X175176714Y-103846476D01*
X175100523Y-103808380D01*
X174871952Y-103808380D01*
X174795761Y-103846476D01*
X174757666Y-103884571D01*
X174719571Y-103960761D01*
X174719571Y-104113142D01*
X174757666Y-104189333D01*
X175252904Y-104684571D02*
X175214809Y-104608380D01*
X175138619Y-104570285D01*
X174452904Y-104570285D01*
X175214809Y-105294095D02*
X175252904Y-105217904D01*
X175252904Y-105065523D01*
X175214809Y-104989333D01*
X175138619Y-104951238D01*
X174833857Y-104951238D01*
X174757666Y-104989333D01*
X174719571Y-105065523D01*
X174719571Y-105217904D01*
X174757666Y-105294095D01*
X174833857Y-105332190D01*
X174910047Y-105332190D01*
X174986238Y-104951238D01*
X174719571Y-105598857D02*
X175252904Y-105789333D01*
X174719571Y-105979809D01*
X174948142Y-106284571D02*
X174948142Y-106894095D01*
X175214809Y-107617904D02*
X175252904Y-107541714D01*
X175252904Y-107389333D01*
X175214809Y-107313142D01*
X175176714Y-107275047D01*
X175100523Y-107236952D01*
X174871952Y-107236952D01*
X174795761Y-107275047D01*
X174757666Y-107313142D01*
X174719571Y-107389333D01*
X174719571Y-107541714D01*
X174757666Y-107617904D01*
X175252904Y-107960761D02*
X174452904Y-107960761D01*
X175252904Y-108303619D02*
X174833857Y-108303619D01*
X174757666Y-108265523D01*
X174719571Y-108189333D01*
X174719571Y-108075047D01*
X174757666Y-107998857D01*
X174795761Y-107960761D01*
X175214809Y-108989333D02*
X175252904Y-108913142D01*
X175252904Y-108760761D01*
X175214809Y-108684571D01*
X175138619Y-108646476D01*
X174833857Y-108646476D01*
X174757666Y-108684571D01*
X174719571Y-108760761D01*
X174719571Y-108913142D01*
X174757666Y-108989333D01*
X174833857Y-109027428D01*
X174910047Y-109027428D01*
X174986238Y-108646476D01*
X174719571Y-109294095D02*
X175252904Y-109446476D01*
X174871952Y-109598857D01*
X175252904Y-109751238D01*
X174719571Y-109903619D01*
X174719571Y-110094095D02*
X174719571Y-110398857D01*
X174452904Y-110208380D02*
X175138619Y-110208380D01*
X175214809Y-110246476D01*
X175252904Y-110322666D01*
X175252904Y-110398857D01*
X175252904Y-110779809D02*
X175214809Y-110703619D01*
X175176714Y-110665523D01*
X175100523Y-110627428D01*
X174871952Y-110627428D01*
X174795761Y-110665523D01*
X174757666Y-110703619D01*
X174719571Y-110779809D01*
X174719571Y-110894095D01*
X174757666Y-110970285D01*
X174795761Y-111008380D01*
X174871952Y-111046476D01*
X175100523Y-111046476D01*
X175176714Y-111008380D01*
X175214809Y-110970285D01*
X175252904Y-110894095D01*
X175252904Y-110779809D01*
X174719571Y-111313142D02*
X175252904Y-111503619D01*
X174719571Y-111694095D02*
X175252904Y-111503619D01*
X175443380Y-111427428D01*
X175481476Y-111389333D01*
X175519571Y-111313142D01*
D11*
X136541000Y-135444000D02*
X136541000Y-136844000D01*
X137241000Y-137544000D02*
X137841000Y-137544000D01*
X138541000Y-136844000D02*
X138541000Y-135444000D01*
X137841000Y-134744000D02*
X137241000Y-134744000D01*
X137241000Y-134744000D02*
G75*
G03X136541000Y-135444000I0J-700000D01*
G01*
X138541000Y-135444000D02*
G75*
G03X137841000Y-134744000I-700000J0D01*
G01*
X137841000Y-137544000D02*
G75*
G03X138541000Y-136844000I0J700000D01*
G01*
X136541000Y-136844000D02*
G75*
G03X137241000Y-137544000I700000J0D01*
G01*
D12*
G36*
X185668451Y-113838424D02*
G01*
X185659235Y-113843529D01*
X185644490Y-113851834D01*
X185624503Y-113863174D01*
X185599564Y-113877383D01*
X185569961Y-113894296D01*
X185535983Y-113913746D01*
X185497920Y-113935568D01*
X185456059Y-113959596D01*
X185410690Y-113985664D01*
X185362102Y-114013607D01*
X185310583Y-114043259D01*
X185256423Y-114074453D01*
X185199909Y-114107025D01*
X185141332Y-114140809D01*
X185080980Y-114175638D01*
X185045662Y-114196029D01*
X184937295Y-114258610D01*
X184834821Y-114317786D01*
X184738026Y-114373683D01*
X184646694Y-114426425D01*
X184560609Y-114476136D01*
X184479555Y-114522942D01*
X184403318Y-114566966D01*
X184331682Y-114608333D01*
X184264430Y-114647167D01*
X184201347Y-114683594D01*
X184142217Y-114717737D01*
X184086826Y-114749722D01*
X184034956Y-114779672D01*
X183986394Y-114807712D01*
X183940922Y-114833967D01*
X183898325Y-114858561D01*
X183858389Y-114881619D01*
X183820896Y-114903265D01*
X183785631Y-114923624D01*
X183752380Y-114942820D01*
X183720925Y-114960977D01*
X183691052Y-114978221D01*
X183685215Y-114981591D01*
X183507944Y-115083916D01*
X183507944Y-117583612D01*
X183685215Y-117685937D01*
X183717783Y-117704736D01*
X183755503Y-117726512D01*
X183797419Y-117750710D01*
X183842575Y-117776779D01*
X183890011Y-117804166D01*
X183938773Y-117832319D01*
X183987902Y-117860684D01*
X184036441Y-117888710D01*
X184083434Y-117915843D01*
X184121777Y-117937984D01*
X184242603Y-118007752D01*
X184357448Y-118074065D01*
X184466438Y-118136997D01*
X184569704Y-118196623D01*
X184667372Y-118253016D01*
X184759571Y-118306250D01*
X184846429Y-118356399D01*
X184928074Y-118403538D01*
X185004634Y-118447739D01*
X185076238Y-118489077D01*
X185143013Y-118527627D01*
X185205089Y-118563461D01*
X185262591Y-118596654D01*
X185315650Y-118627279D01*
X185364393Y-118655412D01*
X185408948Y-118681125D01*
X185449444Y-118704493D01*
X185486008Y-118725590D01*
X185518768Y-118744489D01*
X185547854Y-118761264D01*
X185573392Y-118775990D01*
X185595511Y-118788741D01*
X185614340Y-118799590D01*
X185630006Y-118808611D01*
X185642637Y-118815879D01*
X185652362Y-118821467D01*
X185659308Y-118825449D01*
X185663605Y-118827899D01*
X185665356Y-118828879D01*
X185666589Y-118828889D01*
X185669063Y-118828138D01*
X185672957Y-118826525D01*
X185678451Y-118823946D01*
X185685728Y-118820299D01*
X185694967Y-118815480D01*
X185706350Y-118809386D01*
X185720056Y-118801916D01*
X185736266Y-118792964D01*
X185755161Y-118782429D01*
X185776922Y-118770208D01*
X185801729Y-118756197D01*
X185829763Y-118740294D01*
X185861205Y-118722396D01*
X185896234Y-118702399D01*
X185935033Y-118680201D01*
X185977781Y-118655699D01*
X186024659Y-118628790D01*
X186075847Y-118599370D01*
X186131527Y-118567338D01*
X186152776Y-118555103D01*
X185578795Y-118555103D01*
X185567307Y-118548071D01*
X185563327Y-118545740D01*
X185553482Y-118540025D01*
X185538019Y-118531067D01*
X185517182Y-118519008D01*
X185491219Y-118503991D01*
X185460375Y-118486157D01*
X185424896Y-118465649D01*
X185385028Y-118442610D01*
X185341017Y-118417180D01*
X185293109Y-118389502D01*
X185241551Y-118359719D01*
X185186587Y-118327972D01*
X185128465Y-118294403D01*
X185067429Y-118259155D01*
X185003727Y-118222369D01*
X184937603Y-118184189D01*
X184869305Y-118144755D01*
X184799077Y-118104210D01*
X184727167Y-118062696D01*
X184680930Y-118036005D01*
X184608195Y-117994015D01*
X184537044Y-117952932D01*
X184467720Y-117912898D01*
X184400467Y-117874052D01*
X184335526Y-117836536D01*
X184273140Y-117800488D01*
X184213553Y-117766051D01*
X184157006Y-117733363D01*
X184103743Y-117702566D01*
X184054005Y-117673799D01*
X184008036Y-117647204D01*
X183966078Y-117622920D01*
X183928374Y-117601088D01*
X183895167Y-117581848D01*
X183866699Y-117565341D01*
X183843213Y-117551706D01*
X183824951Y-117541085D01*
X183812156Y-117533617D01*
X183805071Y-117529444D01*
X183803642Y-117528563D01*
X183806268Y-117526526D01*
X183814437Y-117521318D01*
X183827570Y-117513277D01*
X183845085Y-117502740D01*
X183866405Y-117490042D01*
X183890949Y-117475522D01*
X183918139Y-117459515D01*
X183947394Y-117442359D01*
X183978135Y-117424391D01*
X184009783Y-117405947D01*
X184041758Y-117387364D01*
X184073481Y-117368980D01*
X184104372Y-117351131D01*
X184133852Y-117334154D01*
X184161341Y-117318385D01*
X184186259Y-117304163D01*
X184208028Y-117291822D01*
X184226068Y-117281702D01*
X184239798Y-117274137D01*
X184248641Y-117269466D01*
X184251804Y-117268039D01*
X184255394Y-117269633D01*
X184264829Y-117274616D01*
X184279845Y-117282838D01*
X184300181Y-117294152D01*
X184325577Y-117308406D01*
X184355772Y-117325454D01*
X184390502Y-117345146D01*
X184429509Y-117367332D01*
X184472529Y-117391864D01*
X184519302Y-117418593D01*
X184569567Y-117447369D01*
X184623062Y-117478045D01*
X184679526Y-117510471D01*
X184738697Y-117544497D01*
X184800314Y-117579975D01*
X184864117Y-117616757D01*
X184917291Y-117647444D01*
X185576986Y-118028341D01*
X185577890Y-118291722D01*
X185578795Y-118555103D01*
X186152776Y-118555103D01*
X186191879Y-118532589D01*
X186257083Y-118495021D01*
X186327321Y-118454531D01*
X186402772Y-118411016D01*
X186483618Y-118364373D01*
X186570039Y-118314499D01*
X186662216Y-118261291D01*
X186754557Y-118207978D01*
X187836527Y-117583270D01*
X187836527Y-117527917D01*
X187541358Y-117527917D01*
X187538212Y-117529804D01*
X187529195Y-117535079D01*
X187514549Y-117543602D01*
X187494514Y-117555235D01*
X187469332Y-117569837D01*
X187439243Y-117587270D01*
X187404487Y-117607394D01*
X187365306Y-117630071D01*
X187321940Y-117655160D01*
X187274631Y-117682523D01*
X187223618Y-117712020D01*
X187169143Y-117743513D01*
X187111446Y-117776861D01*
X187050769Y-117811927D01*
X186987351Y-117848569D01*
X186921434Y-117886650D01*
X186853259Y-117926030D01*
X186783065Y-117966570D01*
X186711095Y-118008130D01*
X186653634Y-118041307D01*
X185767486Y-118552933D01*
X185766581Y-118291978D01*
X185766470Y-118249686D01*
X185766433Y-118209451D01*
X185766466Y-118171830D01*
X185766565Y-118137378D01*
X185766728Y-118106653D01*
X185766949Y-118080211D01*
X185767226Y-118058609D01*
X185767555Y-118042402D01*
X185767932Y-118032148D01*
X185768345Y-118028410D01*
X185771774Y-118026264D01*
X185780963Y-118020807D01*
X185795573Y-118012236D01*
X185815262Y-118000746D01*
X185839691Y-117986536D01*
X185868519Y-117969799D01*
X185901404Y-117950734D01*
X185938008Y-117929536D01*
X185977988Y-117906401D01*
X186021005Y-117881526D01*
X186066718Y-117855106D01*
X186114786Y-117827339D01*
X186164869Y-117798420D01*
X186216627Y-117768547D01*
X186269718Y-117737914D01*
X186323802Y-117706718D01*
X186378540Y-117675156D01*
X186433589Y-117643424D01*
X186488611Y-117611718D01*
X186543263Y-117580234D01*
X186597206Y-117549169D01*
X186650099Y-117518719D01*
X186701601Y-117489080D01*
X186751372Y-117460449D01*
X186799072Y-117433021D01*
X186844359Y-117406994D01*
X186886894Y-117382562D01*
X186926336Y-117359924D01*
X186962344Y-117339274D01*
X186994577Y-117320809D01*
X187022696Y-117304725D01*
X187046359Y-117291220D01*
X187065226Y-117280488D01*
X187078957Y-117272726D01*
X187087211Y-117268131D01*
X187089668Y-117266861D01*
X187093362Y-117268569D01*
X187102506Y-117273468D01*
X187116519Y-117281225D01*
X187134823Y-117291505D01*
X187156838Y-117303972D01*
X187181986Y-117318293D01*
X187209688Y-117334132D01*
X187239364Y-117351155D01*
X187270435Y-117369027D01*
X187302323Y-117387414D01*
X187334448Y-117405981D01*
X187366232Y-117424394D01*
X187397094Y-117442316D01*
X187426457Y-117459415D01*
X187453740Y-117475355D01*
X187478366Y-117489802D01*
X187499754Y-117502420D01*
X187517326Y-117512876D01*
X187530503Y-117520834D01*
X187538706Y-117525960D01*
X187541358Y-117527917D01*
X187836527Y-117527917D01*
X187836527Y-116333848D01*
X187649555Y-116333848D01*
X187649546Y-116418548D01*
X187649520Y-116501394D01*
X187649477Y-116582112D01*
X187649418Y-116660424D01*
X187649343Y-116736054D01*
X187649254Y-116808727D01*
X187649151Y-116878166D01*
X187649035Y-116944095D01*
X187648907Y-117006239D01*
X187648767Y-117064320D01*
X187648615Y-117118064D01*
X187648454Y-117167194D01*
X187648283Y-117211434D01*
X187648103Y-117250507D01*
X187647914Y-117284139D01*
X187647719Y-117312052D01*
X187647516Y-117333970D01*
X187647307Y-117349618D01*
X187647094Y-117358720D01*
X187646909Y-117361103D01*
X187643498Y-117359153D01*
X187634456Y-117353954D01*
X187620263Y-117345784D01*
X187601400Y-117334919D01*
X187578348Y-117321637D01*
X187551586Y-117306214D01*
X187521596Y-117288928D01*
X187488857Y-117270054D01*
X187453852Y-117249871D01*
X187417059Y-117228655D01*
X187415840Y-117227952D01*
X187187416Y-117096225D01*
X187187416Y-115972512D01*
X186999926Y-115972512D01*
X186999923Y-116023154D01*
X186999897Y-116079348D01*
X186999849Y-116141381D01*
X186999782Y-116209538D01*
X186999698Y-116284106D01*
X186999598Y-116365371D01*
X186999571Y-116387093D01*
X186998680Y-117092124D01*
X186383083Y-117447596D01*
X185767486Y-117803069D01*
X185766853Y-117302051D01*
X185578005Y-117302051D01*
X185577989Y-117365453D01*
X185577944Y-117425911D01*
X185577872Y-117483092D01*
X185577774Y-117536667D01*
X185577651Y-117586305D01*
X185577504Y-117631673D01*
X185577334Y-117672442D01*
X185577141Y-117708280D01*
X185576927Y-117738857D01*
X185576693Y-117763841D01*
X185576440Y-117782902D01*
X185576169Y-117795708D01*
X185575881Y-117801929D01*
X185575755Y-117802498D01*
X185572446Y-117800644D01*
X185563318Y-117795429D01*
X185548661Y-117787020D01*
X185528766Y-117775585D01*
X185503922Y-117761291D01*
X185474422Y-117744307D01*
X185440554Y-117724798D01*
X185402610Y-117702934D01*
X185360881Y-117678880D01*
X185315656Y-117652805D01*
X185267226Y-117624877D01*
X185215882Y-117595261D01*
X185161914Y-117564127D01*
X185105613Y-117531641D01*
X185047270Y-117497971D01*
X184987174Y-117463285D01*
X184959267Y-117447175D01*
X184898436Y-117412052D01*
X184839213Y-117377842D01*
X184781889Y-117344715D01*
X184726757Y-117312839D01*
X184674106Y-117282385D01*
X184624230Y-117253520D01*
X184577419Y-117226414D01*
X184533965Y-117201236D01*
X184494160Y-117178155D01*
X184458294Y-117157340D01*
X184426661Y-117138959D01*
X184399551Y-117123183D01*
X184377255Y-117110179D01*
X184360066Y-117100118D01*
X184359927Y-117100036D01*
X184150016Y-117100036D01*
X183926876Y-117229017D01*
X183703736Y-117357997D01*
X183702842Y-116847047D01*
X183702732Y-116775547D01*
X183702642Y-116698128D01*
X183702571Y-116615927D01*
X183702519Y-116530080D01*
X183702487Y-116441726D01*
X183702474Y-116351999D01*
X183702480Y-116262038D01*
X183702505Y-116172978D01*
X183702550Y-116085957D01*
X183702614Y-116002111D01*
X183702697Y-115922578D01*
X183702799Y-115848493D01*
X183702842Y-115822790D01*
X183703736Y-115309481D01*
X183925986Y-115437806D01*
X184148236Y-115566132D01*
X184150016Y-117100036D01*
X184359927Y-117100036D01*
X184348275Y-117093167D01*
X184342173Y-117089496D01*
X184341362Y-117088960D01*
X184340555Y-117086875D01*
X184339856Y-117081953D01*
X184339259Y-117073818D01*
X184338761Y-117062091D01*
X184338357Y-117046397D01*
X184338043Y-117026359D01*
X184337815Y-117001599D01*
X184337667Y-116971741D01*
X184337596Y-116936409D01*
X184337598Y-116895224D01*
X184337668Y-116847811D01*
X184337801Y-116793793D01*
X184337834Y-116782518D01*
X184338736Y-116480146D01*
X184374014Y-116500603D01*
X184390633Y-116510221D01*
X184407397Y-116519893D01*
X184421987Y-116528280D01*
X184429576Y-116532622D01*
X184449861Y-116544185D01*
X184449861Y-116357227D01*
X184393416Y-116324508D01*
X184336972Y-116291788D01*
X184336972Y-115983602D01*
X184337001Y-115937688D01*
X184337087Y-115893877D01*
X184337225Y-115852671D01*
X184337410Y-115814572D01*
X184337638Y-115780082D01*
X184337905Y-115749703D01*
X184338207Y-115723937D01*
X184338539Y-115703287D01*
X184338896Y-115688253D01*
X184339275Y-115679338D01*
X184339618Y-115676949D01*
X184342907Y-115678848D01*
X184351994Y-115684094D01*
X184366564Y-115692504D01*
X184386305Y-115703899D01*
X184410903Y-115718097D01*
X184440044Y-115734918D01*
X184473416Y-115754180D01*
X184510704Y-115775703D01*
X184551595Y-115799305D01*
X184595777Y-115824806D01*
X184642934Y-115852026D01*
X184692755Y-115880782D01*
X184744926Y-115910895D01*
X184799132Y-115942182D01*
X184855061Y-115974464D01*
X184869666Y-115982894D01*
X184927556Y-116016308D01*
X184984732Y-116049310D01*
X185040807Y-116081678D01*
X185095395Y-116113189D01*
X185148111Y-116143619D01*
X185198567Y-116172746D01*
X185246378Y-116200347D01*
X185291158Y-116226198D01*
X185332520Y-116250078D01*
X185370078Y-116271762D01*
X185403446Y-116291028D01*
X185432237Y-116307653D01*
X185456066Y-116321414D01*
X185474546Y-116332088D01*
X185487027Y-116339299D01*
X185576986Y-116391292D01*
X185577876Y-117097485D01*
X185577950Y-117167736D01*
X185577993Y-117236035D01*
X185578005Y-117302051D01*
X185766853Y-117302051D01*
X185766595Y-117098588D01*
X185766520Y-117028590D01*
X185766472Y-116960472D01*
X185766451Y-116894567D01*
X185766457Y-116831214D01*
X185766487Y-116770746D01*
X185766542Y-116713500D01*
X185766621Y-116659813D01*
X185766722Y-116610020D01*
X185766846Y-116564456D01*
X185766990Y-116523458D01*
X185767154Y-116487362D01*
X185767338Y-116456503D01*
X185767540Y-116431218D01*
X185767760Y-116411842D01*
X185767997Y-116398711D01*
X185768250Y-116392161D01*
X185768359Y-116391456D01*
X185771706Y-116389364D01*
X185780603Y-116384082D01*
X185794505Y-116375923D01*
X185812868Y-116365201D01*
X185835147Y-116352231D01*
X185860800Y-116337328D01*
X185889280Y-116320805D01*
X185920045Y-116302977D01*
X185952550Y-116284158D01*
X185986252Y-116264663D01*
X186020605Y-116244806D01*
X186055065Y-116224902D01*
X186089089Y-116205265D01*
X186122133Y-116186209D01*
X186153651Y-116168048D01*
X186183101Y-116151098D01*
X186209937Y-116135672D01*
X186233617Y-116122084D01*
X186253594Y-116110650D01*
X186269326Y-116101683D01*
X186280268Y-116095498D01*
X186285877Y-116092410D01*
X186286509Y-116092111D01*
X186286694Y-116095560D01*
X186286872Y-116105591D01*
X186287040Y-116121731D01*
X186287197Y-116143505D01*
X186287340Y-116170441D01*
X186287469Y-116202066D01*
X186287581Y-116237905D01*
X186287675Y-116277485D01*
X186287749Y-116320333D01*
X186287801Y-116365974D01*
X186287828Y-116413937D01*
X186287833Y-116443125D01*
X186287859Y-116492232D01*
X186287935Y-116539295D01*
X186288056Y-116583842D01*
X186288220Y-116625399D01*
X186288423Y-116663492D01*
X186288662Y-116697649D01*
X186288932Y-116727397D01*
X186289230Y-116752261D01*
X186289553Y-116771769D01*
X186289897Y-116785447D01*
X186290259Y-116792823D01*
X186290479Y-116794026D01*
X186294090Y-116792293D01*
X186303016Y-116787447D01*
X186316476Y-116779928D01*
X186333689Y-116770177D01*
X186353874Y-116758635D01*
X186376251Y-116745740D01*
X186383083Y-116741785D01*
X186473041Y-116689657D01*
X186476569Y-115981681D01*
X186732333Y-115833662D01*
X186771427Y-115811058D01*
X186808845Y-115789463D01*
X186844126Y-115769142D01*
X186876811Y-115750357D01*
X186906437Y-115733372D01*
X186932545Y-115718450D01*
X186954674Y-115705856D01*
X186972363Y-115695852D01*
X186985152Y-115688701D01*
X186992579Y-115684668D01*
X186994279Y-115683852D01*
X186995007Y-115683881D01*
X186995674Y-115684598D01*
X186996284Y-115686290D01*
X186996837Y-115689242D01*
X186997337Y-115693741D01*
X186997785Y-115700073D01*
X186998184Y-115708523D01*
X186998535Y-115719379D01*
X186998842Y-115732925D01*
X186999105Y-115749449D01*
X186999327Y-115769236D01*
X186999511Y-115792573D01*
X186999659Y-115819745D01*
X186999772Y-115851039D01*
X186999853Y-115886741D01*
X186999903Y-115927136D01*
X186999926Y-115972512D01*
X187187416Y-115972512D01*
X187187416Y-115570772D01*
X187283189Y-115515561D01*
X186893723Y-115515561D01*
X186890318Y-115517666D01*
X186881165Y-115523071D01*
X186866618Y-115531573D01*
X186847032Y-115542967D01*
X186822761Y-115557051D01*
X186794159Y-115573620D01*
X186761580Y-115592470D01*
X186725378Y-115613397D01*
X186685908Y-115636198D01*
X186643522Y-115660668D01*
X186598577Y-115686604D01*
X186551425Y-115713802D01*
X186502421Y-115742058D01*
X186451918Y-115771167D01*
X186400272Y-115800927D01*
X186347836Y-115831133D01*
X186294964Y-115861581D01*
X186242011Y-115892067D01*
X186189330Y-115922388D01*
X186137276Y-115952340D01*
X186086202Y-115981718D01*
X186036464Y-116010319D01*
X185988415Y-116037939D01*
X185942408Y-116064374D01*
X185898799Y-116089420D01*
X185857942Y-116112873D01*
X185820190Y-116134530D01*
X185785898Y-116154186D01*
X185755419Y-116171638D01*
X185729109Y-116186682D01*
X185707320Y-116199113D01*
X185690408Y-116208728D01*
X185678726Y-116215323D01*
X185672628Y-116218695D01*
X185671787Y-116219108D01*
X185668087Y-116217388D01*
X185658837Y-116212436D01*
X185644589Y-116204562D01*
X185625894Y-116194079D01*
X185603302Y-116181298D01*
X185577365Y-116166530D01*
X185548635Y-116150088D01*
X185517662Y-116132283D01*
X185490106Y-116116381D01*
X185449974Y-116093186D01*
X185405438Y-116067455D01*
X185358036Y-116040076D01*
X185309304Y-116011936D01*
X185260781Y-115983924D01*
X185214004Y-115956926D01*
X185170511Y-115931832D01*
X185137777Y-115912952D01*
X185105514Y-115894338D01*
X185074976Y-115876699D01*
X185046728Y-115860365D01*
X185021339Y-115845664D01*
X184999373Y-115832925D01*
X184981399Y-115822475D01*
X184967981Y-115814644D01*
X184959688Y-115809760D01*
X184957173Y-115808230D01*
X184955990Y-115806449D01*
X184957313Y-115803811D01*
X184961771Y-115799875D01*
X184969996Y-115794201D01*
X184982615Y-115786347D01*
X185000258Y-115775872D01*
X185018909Y-115765024D01*
X185032153Y-115757366D01*
X185050934Y-115746512D01*
X185074681Y-115732793D01*
X185102820Y-115716540D01*
X185134777Y-115698084D01*
X185169981Y-115677755D01*
X185207858Y-115655886D01*
X185247835Y-115632805D01*
X185289339Y-115608845D01*
X185331798Y-115584336D01*
X185368847Y-115562952D01*
X185410066Y-115539156D01*
X185449689Y-115516272D01*
X185487269Y-115494559D01*
X185522359Y-115474274D01*
X185554515Y-115455676D01*
X185583289Y-115439022D01*
X185608237Y-115424572D01*
X185628911Y-115412583D01*
X185644866Y-115403313D01*
X185655656Y-115397021D01*
X185660834Y-115393964D01*
X185661060Y-115393825D01*
X185671051Y-115387591D01*
X185586977Y-115338986D01*
X185564443Y-115325960D01*
X185543512Y-115313862D01*
X185525082Y-115303212D01*
X185510050Y-115294526D01*
X185499313Y-115288325D01*
X185493767Y-115285125D01*
X185493711Y-115285093D01*
X185492201Y-115284357D01*
X185490392Y-115283965D01*
X185487949Y-115284101D01*
X185484538Y-115284948D01*
X185479825Y-115286689D01*
X185473475Y-115289508D01*
X185465155Y-115293588D01*
X185454529Y-115299113D01*
X185441263Y-115306265D01*
X185425024Y-115315229D01*
X185405477Y-115326187D01*
X185382287Y-115339324D01*
X185355120Y-115354821D01*
X185323642Y-115372864D01*
X185287518Y-115393634D01*
X185246415Y-115417316D01*
X185199998Y-115444093D01*
X185147932Y-115474148D01*
X185126793Y-115486354D01*
X185080508Y-115513070D01*
X185035902Y-115538800D01*
X184993357Y-115563323D01*
X184953257Y-115586421D01*
X184915986Y-115607872D01*
X184881925Y-115627457D01*
X184851459Y-115644955D01*
X184824971Y-115660146D01*
X184802843Y-115672810D01*
X184785460Y-115682727D01*
X184773205Y-115689676D01*
X184766460Y-115693438D01*
X184765233Y-115694070D01*
X184761448Y-115692639D01*
X184752376Y-115688061D01*
X184738709Y-115680734D01*
X184721140Y-115671061D01*
X184700363Y-115659441D01*
X184677071Y-115646275D01*
X184651956Y-115631964D01*
X184625711Y-115616908D01*
X184599030Y-115601509D01*
X184572605Y-115586165D01*
X184547129Y-115571279D01*
X184523296Y-115557251D01*
X184501799Y-115544480D01*
X184483330Y-115533369D01*
X184468582Y-115524317D01*
X184458249Y-115517724D01*
X184453024Y-115513993D01*
X184452543Y-115513324D01*
X184455807Y-115511364D01*
X184464825Y-115506088D01*
X184479244Y-115497699D01*
X184498708Y-115486404D01*
X184522864Y-115472405D01*
X184551356Y-115455909D01*
X184583829Y-115437119D01*
X184619930Y-115416241D01*
X184659303Y-115393479D01*
X184701594Y-115369038D01*
X184746448Y-115343122D01*
X184793510Y-115315936D01*
X184842426Y-115287685D01*
X184892842Y-115258573D01*
X184944402Y-115228806D01*
X184996752Y-115198587D01*
X185049537Y-115168121D01*
X185102403Y-115137614D01*
X185154994Y-115107269D01*
X185206957Y-115077292D01*
X185257937Y-115047887D01*
X185307578Y-115019258D01*
X185355527Y-114991611D01*
X185401429Y-114965150D01*
X185444929Y-114940080D01*
X185485672Y-114916605D01*
X185523304Y-114894930D01*
X185557470Y-114875260D01*
X185587815Y-114857800D01*
X185613985Y-114842753D01*
X185635626Y-114830325D01*
X185652381Y-114820721D01*
X185663898Y-114814145D01*
X185669821Y-114810801D01*
X185670568Y-114810406D01*
X185673844Y-114812050D01*
X185682851Y-114817008D01*
X185697207Y-114825062D01*
X185716535Y-114835995D01*
X185740455Y-114849591D01*
X185768586Y-114865632D01*
X185800550Y-114883903D01*
X185835968Y-114904185D01*
X185874459Y-114926264D01*
X185915645Y-114949921D01*
X185959147Y-114974939D01*
X186004584Y-115001103D01*
X186033392Y-115017708D01*
X186088036Y-115049223D01*
X186136875Y-115077412D01*
X186180225Y-115102465D01*
X186218397Y-115124571D01*
X186251708Y-115143918D01*
X186280469Y-115160696D01*
X186304996Y-115175093D01*
X186325601Y-115187300D01*
X186342600Y-115197504D01*
X186356304Y-115205894D01*
X186367030Y-115212661D01*
X186375089Y-115217993D01*
X186380797Y-115222078D01*
X186384466Y-115225106D01*
X186386411Y-115227267D01*
X186386946Y-115228748D01*
X186386384Y-115229739D01*
X186385913Y-115230046D01*
X186377052Y-115234961D01*
X186363027Y-115242898D01*
X186344299Y-115253588D01*
X186321332Y-115266763D01*
X186294587Y-115282155D01*
X186264524Y-115299494D01*
X186231607Y-115318513D01*
X186196298Y-115338943D01*
X186159057Y-115360515D01*
X186120347Y-115382960D01*
X186080629Y-115406011D01*
X186040366Y-115429399D01*
X186000019Y-115452855D01*
X185960050Y-115476110D01*
X185920920Y-115498897D01*
X185883093Y-115520947D01*
X185847028Y-115541990D01*
X185813189Y-115561759D01*
X185782037Y-115579986D01*
X185754034Y-115596400D01*
X185729641Y-115610735D01*
X185709321Y-115622722D01*
X185693535Y-115632091D01*
X185682745Y-115638575D01*
X185677413Y-115641905D01*
X185676912Y-115642296D01*
X185679858Y-115644699D01*
X185688186Y-115650131D01*
X185701144Y-115658136D01*
X185717979Y-115668259D01*
X185737938Y-115680042D01*
X185760269Y-115693031D01*
X185768301Y-115697659D01*
X185859674Y-115750192D01*
X186580952Y-115333692D01*
X186737776Y-115424217D01*
X186768064Y-115441726D01*
X186796393Y-115458150D01*
X186822195Y-115473159D01*
X186844905Y-115486418D01*
X186863953Y-115497597D01*
X186878773Y-115506362D01*
X186888797Y-115512382D01*
X186893458Y-115515323D01*
X186893723Y-115515561D01*
X187283189Y-115515561D01*
X187410548Y-115442142D01*
X187447119Y-115421066D01*
X187482038Y-115400951D01*
X187514803Y-115382088D01*
X187544914Y-115364764D01*
X187571868Y-115349266D01*
X187595164Y-115335885D01*
X187614299Y-115324908D01*
X187628773Y-115316623D01*
X187638082Y-115311320D01*
X187641618Y-115309340D01*
X187649555Y-115305169D01*
X187649555Y-116333848D01*
X187836527Y-116333848D01*
X187836527Y-115139036D01*
X187540758Y-115139036D01*
X187538142Y-115141083D01*
X187529978Y-115146294D01*
X187516845Y-115154337D01*
X187499322Y-115164874D01*
X187477985Y-115177570D01*
X187453415Y-115192090D01*
X187426188Y-115208098D01*
X187396883Y-115225259D01*
X187366078Y-115243237D01*
X187334352Y-115261697D01*
X187302283Y-115280303D01*
X187270449Y-115298720D01*
X187239428Y-115316612D01*
X187209799Y-115333643D01*
X187182139Y-115349480D01*
X187157027Y-115363784D01*
X187135041Y-115376223D01*
X187116760Y-115386458D01*
X187102761Y-115394156D01*
X187093624Y-115398981D01*
X187089954Y-115400599D01*
X187086562Y-115398866D01*
X187077343Y-115393762D01*
X187062578Y-115385449D01*
X187042546Y-115374086D01*
X187017528Y-115359835D01*
X186987805Y-115342856D01*
X186953657Y-115323312D01*
X186915366Y-115301363D01*
X186873210Y-115277169D01*
X186827472Y-115250893D01*
X186778431Y-115222694D01*
X186726367Y-115192734D01*
X186671563Y-115161174D01*
X186614297Y-115128175D01*
X186554850Y-115093898D01*
X186493504Y-115058504D01*
X186430538Y-115022153D01*
X186426732Y-115019955D01*
X185767486Y-114639244D01*
X185766581Y-114375834D01*
X185766575Y-114373857D01*
X185578750Y-114373857D01*
X185578750Y-114637805D01*
X184918383Y-115019236D01*
X184855282Y-115055674D01*
X184793788Y-115091166D01*
X184734180Y-115125552D01*
X184676739Y-115158670D01*
X184621744Y-115190360D01*
X184569475Y-115220460D01*
X184520213Y-115248810D01*
X184474237Y-115275249D01*
X184431828Y-115299617D01*
X184393266Y-115321751D01*
X184358830Y-115341491D01*
X184328801Y-115358677D01*
X184303458Y-115373148D01*
X184283082Y-115384742D01*
X184267952Y-115393299D01*
X184258349Y-115398657D01*
X184254553Y-115400657D01*
X184254510Y-115400667D01*
X184250956Y-115398946D01*
X184241781Y-115393969D01*
X184227472Y-115386011D01*
X184208513Y-115375349D01*
X184185393Y-115362257D01*
X184158598Y-115347013D01*
X184128613Y-115329893D01*
X184095925Y-115311172D01*
X184061020Y-115291127D01*
X184026099Y-115271021D01*
X183989672Y-115249972D01*
X183955138Y-115229919D01*
X183922971Y-115211143D01*
X183893641Y-115193923D01*
X183867619Y-115178539D01*
X183845377Y-115165271D01*
X183827386Y-115154398D01*
X183814117Y-115146200D01*
X183806042Y-115140957D01*
X183803618Y-115138959D01*
X183806836Y-115137017D01*
X183815922Y-115131687D01*
X183830637Y-115123110D01*
X183850737Y-115111423D01*
X183875983Y-115096769D01*
X183906132Y-115079285D01*
X183940943Y-115059112D01*
X183980175Y-115036389D01*
X184023587Y-115011257D01*
X184070937Y-114983854D01*
X184121983Y-114954321D01*
X184176484Y-114922797D01*
X184234199Y-114889422D01*
X184294887Y-114854335D01*
X184358305Y-114817677D01*
X184424214Y-114779586D01*
X184492370Y-114740204D01*
X184562534Y-114699668D01*
X184634462Y-114658119D01*
X184689750Y-114626188D01*
X184762850Y-114583971D01*
X184834368Y-114542667D01*
X184904063Y-114502416D01*
X184971694Y-114463357D01*
X185037018Y-114425628D01*
X185099795Y-114389371D01*
X185159783Y-114354724D01*
X185216740Y-114321826D01*
X185270426Y-114290818D01*
X185320598Y-114261838D01*
X185367015Y-114235027D01*
X185409437Y-114210523D01*
X185447621Y-114188465D01*
X185481325Y-114168995D01*
X185510310Y-114152250D01*
X185534332Y-114138371D01*
X185553151Y-114127496D01*
X185566525Y-114119765D01*
X185574213Y-114115319D01*
X185576104Y-114114222D01*
X185576530Y-114117394D01*
X185576935Y-114127079D01*
X185577314Y-114142734D01*
X185577660Y-114163815D01*
X185577968Y-114189780D01*
X185578233Y-114220086D01*
X185578449Y-114254189D01*
X185578611Y-114291548D01*
X185578713Y-114331618D01*
X185578750Y-114373857D01*
X185766575Y-114373857D01*
X185765677Y-114112425D01*
X185777165Y-114119480D01*
X185781145Y-114121813D01*
X185790989Y-114127531D01*
X185806452Y-114136492D01*
X185827288Y-114148553D01*
X185853251Y-114163573D01*
X185884095Y-114181409D01*
X185919573Y-114201920D01*
X185959440Y-114224963D01*
X186003450Y-114250396D01*
X186051357Y-114278077D01*
X186102915Y-114307864D01*
X186157877Y-114339615D01*
X186215999Y-114373187D01*
X186277033Y-114408439D01*
X186340735Y-114445228D01*
X186406857Y-114483412D01*
X186475155Y-114522850D01*
X186545381Y-114563398D01*
X186617291Y-114604915D01*
X186663541Y-114631617D01*
X186736275Y-114673610D01*
X186807424Y-114714695D01*
X186876745Y-114754731D01*
X186943995Y-114793578D01*
X187008933Y-114831095D01*
X187071315Y-114867143D01*
X187130899Y-114901581D01*
X187187441Y-114934268D01*
X187240701Y-114965064D01*
X187290434Y-114993829D01*
X187336399Y-115020423D01*
X187378352Y-115044704D01*
X187416052Y-115066534D01*
X187449255Y-115085771D01*
X187477719Y-115102276D01*
X187501201Y-115115907D01*
X187519459Y-115126524D01*
X187532250Y-115133988D01*
X187539331Y-115138158D01*
X187540758Y-115139036D01*
X187836527Y-115139036D01*
X187836527Y-115084228D01*
X186756150Y-114460457D01*
X186675243Y-114413750D01*
X186595891Y-114367954D01*
X186518313Y-114323194D01*
X186442726Y-114279595D01*
X186369350Y-114237283D01*
X186298403Y-114196385D01*
X186230103Y-114157024D01*
X186164670Y-114119329D01*
X186102320Y-114083423D01*
X186043274Y-114049433D01*
X185987749Y-114017484D01*
X185935964Y-113987702D01*
X185888137Y-113960214D01*
X185844487Y-113935143D01*
X185805233Y-113912617D01*
X185770592Y-113892761D01*
X185740784Y-113875700D01*
X185716027Y-113861560D01*
X185696539Y-113850468D01*
X185682539Y-113842548D01*
X185674245Y-113837927D01*
X185671847Y-113836685D01*
X185668451Y-113838424D01*
X185668451Y-113838424D01*
G37*
X185668451Y-113838424D02*
X185659235Y-113843529D01*
X185644490Y-113851834D01*
X185624503Y-113863174D01*
X185599564Y-113877383D01*
X185569961Y-113894296D01*
X185535983Y-113913746D01*
X185497920Y-113935568D01*
X185456059Y-113959596D01*
X185410690Y-113985664D01*
X185362102Y-114013607D01*
X185310583Y-114043259D01*
X185256423Y-114074453D01*
X185199909Y-114107025D01*
X185141332Y-114140809D01*
X185080980Y-114175638D01*
X185045662Y-114196029D01*
X184937295Y-114258610D01*
X184834821Y-114317786D01*
X184738026Y-114373683D01*
X184646694Y-114426425D01*
X184560609Y-114476136D01*
X184479555Y-114522942D01*
X184403318Y-114566966D01*
X184331682Y-114608333D01*
X184264430Y-114647167D01*
X184201347Y-114683594D01*
X184142217Y-114717737D01*
X184086826Y-114749722D01*
X184034956Y-114779672D01*
X183986394Y-114807712D01*
X183940922Y-114833967D01*
X183898325Y-114858561D01*
X183858389Y-114881619D01*
X183820896Y-114903265D01*
X183785631Y-114923624D01*
X183752380Y-114942820D01*
X183720925Y-114960977D01*
X183691052Y-114978221D01*
X183685215Y-114981591D01*
X183507944Y-115083916D01*
X183507944Y-117583612D01*
X183685215Y-117685937D01*
X183717783Y-117704736D01*
X183755503Y-117726512D01*
X183797419Y-117750710D01*
X183842575Y-117776779D01*
X183890011Y-117804166D01*
X183938773Y-117832319D01*
X183987902Y-117860684D01*
X184036441Y-117888710D01*
X184083434Y-117915843D01*
X184121777Y-117937984D01*
X184242603Y-118007752D01*
X184357448Y-118074065D01*
X184466438Y-118136997D01*
X184569704Y-118196623D01*
X184667372Y-118253016D01*
X184759571Y-118306250D01*
X184846429Y-118356399D01*
X184928074Y-118403538D01*
X185004634Y-118447739D01*
X185076238Y-118489077D01*
X185143013Y-118527627D01*
X185205089Y-118563461D01*
X185262591Y-118596654D01*
X185315650Y-118627279D01*
X185364393Y-118655412D01*
X185408948Y-118681125D01*
X185449444Y-118704493D01*
X185486008Y-118725590D01*
X185518768Y-118744489D01*
X185547854Y-118761264D01*
X185573392Y-118775990D01*
X185595511Y-118788741D01*
X185614340Y-118799590D01*
X185630006Y-118808611D01*
X185642637Y-118815879D01*
X185652362Y-118821467D01*
X185659308Y-118825449D01*
X185663605Y-118827899D01*
X185665356Y-118828879D01*
X185666589Y-118828889D01*
X185669063Y-118828138D01*
X185672957Y-118826525D01*
X185678451Y-118823946D01*
X185685728Y-118820299D01*
X185694967Y-118815480D01*
X185706350Y-118809386D01*
X185720056Y-118801916D01*
X185736266Y-118792964D01*
X185755161Y-118782429D01*
X185776922Y-118770208D01*
X185801729Y-118756197D01*
X185829763Y-118740294D01*
X185861205Y-118722396D01*
X185896234Y-118702399D01*
X185935033Y-118680201D01*
X185977781Y-118655699D01*
X186024659Y-118628790D01*
X186075847Y-118599370D01*
X186131527Y-118567338D01*
X186152776Y-118555103D01*
X185578795Y-118555103D01*
X185567307Y-118548071D01*
X185563327Y-118545740D01*
X185553482Y-118540025D01*
X185538019Y-118531067D01*
X185517182Y-118519008D01*
X185491219Y-118503991D01*
X185460375Y-118486157D01*
X185424896Y-118465649D01*
X185385028Y-118442610D01*
X185341017Y-118417180D01*
X185293109Y-118389502D01*
X185241551Y-118359719D01*
X185186587Y-118327972D01*
X185128465Y-118294403D01*
X185067429Y-118259155D01*
X185003727Y-118222369D01*
X184937603Y-118184189D01*
X184869305Y-118144755D01*
X184799077Y-118104210D01*
X184727167Y-118062696D01*
X184680930Y-118036005D01*
X184608195Y-117994015D01*
X184537044Y-117952932D01*
X184467720Y-117912898D01*
X184400467Y-117874052D01*
X184335526Y-117836536D01*
X184273140Y-117800488D01*
X184213553Y-117766051D01*
X184157006Y-117733363D01*
X184103743Y-117702566D01*
X184054005Y-117673799D01*
X184008036Y-117647204D01*
X183966078Y-117622920D01*
X183928374Y-117601088D01*
X183895167Y-117581848D01*
X183866699Y-117565341D01*
X183843213Y-117551706D01*
X183824951Y-117541085D01*
X183812156Y-117533617D01*
X183805071Y-117529444D01*
X183803642Y-117528563D01*
X183806268Y-117526526D01*
X183814437Y-117521318D01*
X183827570Y-117513277D01*
X183845085Y-117502740D01*
X183866405Y-117490042D01*
X183890949Y-117475522D01*
X183918139Y-117459515D01*
X183947394Y-117442359D01*
X183978135Y-117424391D01*
X184009783Y-117405947D01*
X184041758Y-117387364D01*
X184073481Y-117368980D01*
X184104372Y-117351131D01*
X184133852Y-117334154D01*
X184161341Y-117318385D01*
X184186259Y-117304163D01*
X184208028Y-117291822D01*
X184226068Y-117281702D01*
X184239798Y-117274137D01*
X184248641Y-117269466D01*
X184251804Y-117268039D01*
X184255394Y-117269633D01*
X184264829Y-117274616D01*
X184279845Y-117282838D01*
X184300181Y-117294152D01*
X184325577Y-117308406D01*
X184355772Y-117325454D01*
X184390502Y-117345146D01*
X184429509Y-117367332D01*
X184472529Y-117391864D01*
X184519302Y-117418593D01*
X184569567Y-117447369D01*
X184623062Y-117478045D01*
X184679526Y-117510471D01*
X184738697Y-117544497D01*
X184800314Y-117579975D01*
X184864117Y-117616757D01*
X184917291Y-117647444D01*
X185576986Y-118028341D01*
X185577890Y-118291722D01*
X185578795Y-118555103D01*
X186152776Y-118555103D01*
X186191879Y-118532589D01*
X186257083Y-118495021D01*
X186327321Y-118454531D01*
X186402772Y-118411016D01*
X186483618Y-118364373D01*
X186570039Y-118314499D01*
X186662216Y-118261291D01*
X186754557Y-118207978D01*
X187836527Y-117583270D01*
X187836527Y-117527917D01*
X187541358Y-117527917D01*
X187538212Y-117529804D01*
X187529195Y-117535079D01*
X187514549Y-117543602D01*
X187494514Y-117555235D01*
X187469332Y-117569837D01*
X187439243Y-117587270D01*
X187404487Y-117607394D01*
X187365306Y-117630071D01*
X187321940Y-117655160D01*
X187274631Y-117682523D01*
X187223618Y-117712020D01*
X187169143Y-117743513D01*
X187111446Y-117776861D01*
X187050769Y-117811927D01*
X186987351Y-117848569D01*
X186921434Y-117886650D01*
X186853259Y-117926030D01*
X186783065Y-117966570D01*
X186711095Y-118008130D01*
X186653634Y-118041307D01*
X185767486Y-118552933D01*
X185766581Y-118291978D01*
X185766470Y-118249686D01*
X185766433Y-118209451D01*
X185766466Y-118171830D01*
X185766565Y-118137378D01*
X185766728Y-118106653D01*
X185766949Y-118080211D01*
X185767226Y-118058609D01*
X185767555Y-118042402D01*
X185767932Y-118032148D01*
X185768345Y-118028410D01*
X185771774Y-118026264D01*
X185780963Y-118020807D01*
X185795573Y-118012236D01*
X185815262Y-118000746D01*
X185839691Y-117986536D01*
X185868519Y-117969799D01*
X185901404Y-117950734D01*
X185938008Y-117929536D01*
X185977988Y-117906401D01*
X186021005Y-117881526D01*
X186066718Y-117855106D01*
X186114786Y-117827339D01*
X186164869Y-117798420D01*
X186216627Y-117768547D01*
X186269718Y-117737914D01*
X186323802Y-117706718D01*
X186378540Y-117675156D01*
X186433589Y-117643424D01*
X186488611Y-117611718D01*
X186543263Y-117580234D01*
X186597206Y-117549169D01*
X186650099Y-117518719D01*
X186701601Y-117489080D01*
X186751372Y-117460449D01*
X186799072Y-117433021D01*
X186844359Y-117406994D01*
X186886894Y-117382562D01*
X186926336Y-117359924D01*
X186962344Y-117339274D01*
X186994577Y-117320809D01*
X187022696Y-117304725D01*
X187046359Y-117291220D01*
X187065226Y-117280488D01*
X187078957Y-117272726D01*
X187087211Y-117268131D01*
X187089668Y-117266861D01*
X187093362Y-117268569D01*
X187102506Y-117273468D01*
X187116519Y-117281225D01*
X187134823Y-117291505D01*
X187156838Y-117303972D01*
X187181986Y-117318293D01*
X187209688Y-117334132D01*
X187239364Y-117351155D01*
X187270435Y-117369027D01*
X187302323Y-117387414D01*
X187334448Y-117405981D01*
X187366232Y-117424394D01*
X187397094Y-117442316D01*
X187426457Y-117459415D01*
X187453740Y-117475355D01*
X187478366Y-117489802D01*
X187499754Y-117502420D01*
X187517326Y-117512876D01*
X187530503Y-117520834D01*
X187538706Y-117525960D01*
X187541358Y-117527917D01*
X187836527Y-117527917D01*
X187836527Y-116333848D01*
X187649555Y-116333848D01*
X187649546Y-116418548D01*
X187649520Y-116501394D01*
X187649477Y-116582112D01*
X187649418Y-116660424D01*
X187649343Y-116736054D01*
X187649254Y-116808727D01*
X187649151Y-116878166D01*
X187649035Y-116944095D01*
X187648907Y-117006239D01*
X187648767Y-117064320D01*
X187648615Y-117118064D01*
X187648454Y-117167194D01*
X187648283Y-117211434D01*
X187648103Y-117250507D01*
X187647914Y-117284139D01*
X187647719Y-117312052D01*
X187647516Y-117333970D01*
X187647307Y-117349618D01*
X187647094Y-117358720D01*
X187646909Y-117361103D01*
X187643498Y-117359153D01*
X187634456Y-117353954D01*
X187620263Y-117345784D01*
X187601400Y-117334919D01*
X187578348Y-117321637D01*
X187551586Y-117306214D01*
X187521596Y-117288928D01*
X187488857Y-117270054D01*
X187453852Y-117249871D01*
X187417059Y-117228655D01*
X187415840Y-117227952D01*
X187187416Y-117096225D01*
X187187416Y-115972512D01*
X186999926Y-115972512D01*
X186999923Y-116023154D01*
X186999897Y-116079348D01*
X186999849Y-116141381D01*
X186999782Y-116209538D01*
X186999698Y-116284106D01*
X186999598Y-116365371D01*
X186999571Y-116387093D01*
X186998680Y-117092124D01*
X186383083Y-117447596D01*
X185767486Y-117803069D01*
X185766853Y-117302051D01*
X185578005Y-117302051D01*
X185577989Y-117365453D01*
X185577944Y-117425911D01*
X185577872Y-117483092D01*
X185577774Y-117536667D01*
X185577651Y-117586305D01*
X185577504Y-117631673D01*
X185577334Y-117672442D01*
X185577141Y-117708280D01*
X185576927Y-117738857D01*
X185576693Y-117763841D01*
X185576440Y-117782902D01*
X185576169Y-117795708D01*
X185575881Y-117801929D01*
X185575755Y-117802498D01*
X185572446Y-117800644D01*
X185563318Y-117795429D01*
X185548661Y-117787020D01*
X185528766Y-117775585D01*
X185503922Y-117761291D01*
X185474422Y-117744307D01*
X185440554Y-117724798D01*
X185402610Y-117702934D01*
X185360881Y-117678880D01*
X185315656Y-117652805D01*
X185267226Y-117624877D01*
X185215882Y-117595261D01*
X185161914Y-117564127D01*
X185105613Y-117531641D01*
X185047270Y-117497971D01*
X184987174Y-117463285D01*
X184959267Y-117447175D01*
X184898436Y-117412052D01*
X184839213Y-117377842D01*
X184781889Y-117344715D01*
X184726757Y-117312839D01*
X184674106Y-117282385D01*
X184624230Y-117253520D01*
X184577419Y-117226414D01*
X184533965Y-117201236D01*
X184494160Y-117178155D01*
X184458294Y-117157340D01*
X184426661Y-117138959D01*
X184399551Y-117123183D01*
X184377255Y-117110179D01*
X184360066Y-117100118D01*
X184359927Y-117100036D01*
X184150016Y-117100036D01*
X183926876Y-117229017D01*
X183703736Y-117357997D01*
X183702842Y-116847047D01*
X183702732Y-116775547D01*
X183702642Y-116698128D01*
X183702571Y-116615927D01*
X183702519Y-116530080D01*
X183702487Y-116441726D01*
X183702474Y-116351999D01*
X183702480Y-116262038D01*
X183702505Y-116172978D01*
X183702550Y-116085957D01*
X183702614Y-116002111D01*
X183702697Y-115922578D01*
X183702799Y-115848493D01*
X183702842Y-115822790D01*
X183703736Y-115309481D01*
X183925986Y-115437806D01*
X184148236Y-115566132D01*
X184150016Y-117100036D01*
X184359927Y-117100036D01*
X184348275Y-117093167D01*
X184342173Y-117089496D01*
X184341362Y-117088960D01*
X184340555Y-117086875D01*
X184339856Y-117081953D01*
X184339259Y-117073818D01*
X184338761Y-117062091D01*
X184338357Y-117046397D01*
X184338043Y-117026359D01*
X184337815Y-117001599D01*
X184337667Y-116971741D01*
X184337596Y-116936409D01*
X184337598Y-116895224D01*
X184337668Y-116847811D01*
X184337801Y-116793793D01*
X184337834Y-116782518D01*
X184338736Y-116480146D01*
X184374014Y-116500603D01*
X184390633Y-116510221D01*
X184407397Y-116519893D01*
X184421987Y-116528280D01*
X184429576Y-116532622D01*
X184449861Y-116544185D01*
X184449861Y-116357227D01*
X184393416Y-116324508D01*
X184336972Y-116291788D01*
X184336972Y-115983602D01*
X184337001Y-115937688D01*
X184337087Y-115893877D01*
X184337225Y-115852671D01*
X184337410Y-115814572D01*
X184337638Y-115780082D01*
X184337905Y-115749703D01*
X184338207Y-115723937D01*
X184338539Y-115703287D01*
X184338896Y-115688253D01*
X184339275Y-115679338D01*
X184339618Y-115676949D01*
X184342907Y-115678848D01*
X184351994Y-115684094D01*
X184366564Y-115692504D01*
X184386305Y-115703899D01*
X184410903Y-115718097D01*
X184440044Y-115734918D01*
X184473416Y-115754180D01*
X184510704Y-115775703D01*
X184551595Y-115799305D01*
X184595777Y-115824806D01*
X184642934Y-115852026D01*
X184692755Y-115880782D01*
X184744926Y-115910895D01*
X184799132Y-115942182D01*
X184855061Y-115974464D01*
X184869666Y-115982894D01*
X184927556Y-116016308D01*
X184984732Y-116049310D01*
X185040807Y-116081678D01*
X185095395Y-116113189D01*
X185148111Y-116143619D01*
X185198567Y-116172746D01*
X185246378Y-116200347D01*
X185291158Y-116226198D01*
X185332520Y-116250078D01*
X185370078Y-116271762D01*
X185403446Y-116291028D01*
X185432237Y-116307653D01*
X185456066Y-116321414D01*
X185474546Y-116332088D01*
X185487027Y-116339299D01*
X185576986Y-116391292D01*
X185577876Y-117097485D01*
X185577950Y-117167736D01*
X185577993Y-117236035D01*
X185578005Y-117302051D01*
X185766853Y-117302051D01*
X185766595Y-117098588D01*
X185766520Y-117028590D01*
X185766472Y-116960472D01*
X185766451Y-116894567D01*
X185766457Y-116831214D01*
X185766487Y-116770746D01*
X185766542Y-116713500D01*
X185766621Y-116659813D01*
X185766722Y-116610020D01*
X185766846Y-116564456D01*
X185766990Y-116523458D01*
X185767154Y-116487362D01*
X185767338Y-116456503D01*
X185767540Y-116431218D01*
X185767760Y-116411842D01*
X185767997Y-116398711D01*
X185768250Y-116392161D01*
X185768359Y-116391456D01*
X185771706Y-116389364D01*
X185780603Y-116384082D01*
X185794505Y-116375923D01*
X185812868Y-116365201D01*
X185835147Y-116352231D01*
X185860800Y-116337328D01*
X185889280Y-116320805D01*
X185920045Y-116302977D01*
X185952550Y-116284158D01*
X185986252Y-116264663D01*
X186020605Y-116244806D01*
X186055065Y-116224902D01*
X186089089Y-116205265D01*
X186122133Y-116186209D01*
X186153651Y-116168048D01*
X186183101Y-116151098D01*
X186209937Y-116135672D01*
X186233617Y-116122084D01*
X186253594Y-116110650D01*
X186269326Y-116101683D01*
X186280268Y-116095498D01*
X186285877Y-116092410D01*
X186286509Y-116092111D01*
X186286694Y-116095560D01*
X186286872Y-116105591D01*
X186287040Y-116121731D01*
X186287197Y-116143505D01*
X186287340Y-116170441D01*
X186287469Y-116202066D01*
X186287581Y-116237905D01*
X186287675Y-116277485D01*
X186287749Y-116320333D01*
X186287801Y-116365974D01*
X186287828Y-116413937D01*
X186287833Y-116443125D01*
X186287859Y-116492232D01*
X186287935Y-116539295D01*
X186288056Y-116583842D01*
X186288220Y-116625399D01*
X186288423Y-116663492D01*
X186288662Y-116697649D01*
X186288932Y-116727397D01*
X186289230Y-116752261D01*
X186289553Y-116771769D01*
X186289897Y-116785447D01*
X186290259Y-116792823D01*
X186290479Y-116794026D01*
X186294090Y-116792293D01*
X186303016Y-116787447D01*
X186316476Y-116779928D01*
X186333689Y-116770177D01*
X186353874Y-116758635D01*
X186376251Y-116745740D01*
X186383083Y-116741785D01*
X186473041Y-116689657D01*
X186476569Y-115981681D01*
X186732333Y-115833662D01*
X186771427Y-115811058D01*
X186808845Y-115789463D01*
X186844126Y-115769142D01*
X186876811Y-115750357D01*
X186906437Y-115733372D01*
X186932545Y-115718450D01*
X186954674Y-115705856D01*
X186972363Y-115695852D01*
X186985152Y-115688701D01*
X186992579Y-115684668D01*
X186994279Y-115683852D01*
X186995007Y-115683881D01*
X186995674Y-115684598D01*
X186996284Y-115686290D01*
X186996837Y-115689242D01*
X186997337Y-115693741D01*
X186997785Y-115700073D01*
X186998184Y-115708523D01*
X186998535Y-115719379D01*
X186998842Y-115732925D01*
X186999105Y-115749449D01*
X186999327Y-115769236D01*
X186999511Y-115792573D01*
X186999659Y-115819745D01*
X186999772Y-115851039D01*
X186999853Y-115886741D01*
X186999903Y-115927136D01*
X186999926Y-115972512D01*
X187187416Y-115972512D01*
X187187416Y-115570772D01*
X187283189Y-115515561D01*
X186893723Y-115515561D01*
X186890318Y-115517666D01*
X186881165Y-115523071D01*
X186866618Y-115531573D01*
X186847032Y-115542967D01*
X186822761Y-115557051D01*
X186794159Y-115573620D01*
X186761580Y-115592470D01*
X186725378Y-115613397D01*
X186685908Y-115636198D01*
X186643522Y-115660668D01*
X186598577Y-115686604D01*
X186551425Y-115713802D01*
X186502421Y-115742058D01*
X186451918Y-115771167D01*
X186400272Y-115800927D01*
X186347836Y-115831133D01*
X186294964Y-115861581D01*
X186242011Y-115892067D01*
X186189330Y-115922388D01*
X186137276Y-115952340D01*
X186086202Y-115981718D01*
X186036464Y-116010319D01*
X185988415Y-116037939D01*
X185942408Y-116064374D01*
X185898799Y-116089420D01*
X185857942Y-116112873D01*
X185820190Y-116134530D01*
X185785898Y-116154186D01*
X185755419Y-116171638D01*
X185729109Y-116186682D01*
X185707320Y-116199113D01*
X185690408Y-116208728D01*
X185678726Y-116215323D01*
X185672628Y-116218695D01*
X185671787Y-116219108D01*
X185668087Y-116217388D01*
X185658837Y-116212436D01*
X185644589Y-116204562D01*
X185625894Y-116194079D01*
X185603302Y-116181298D01*
X185577365Y-116166530D01*
X185548635Y-116150088D01*
X185517662Y-116132283D01*
X185490106Y-116116381D01*
X185449974Y-116093186D01*
X185405438Y-116067455D01*
X185358036Y-116040076D01*
X185309304Y-116011936D01*
X185260781Y-115983924D01*
X185214004Y-115956926D01*
X185170511Y-115931832D01*
X185137777Y-115912952D01*
X185105514Y-115894338D01*
X185074976Y-115876699D01*
X185046728Y-115860365D01*
X185021339Y-115845664D01*
X184999373Y-115832925D01*
X184981399Y-115822475D01*
X184967981Y-115814644D01*
X184959688Y-115809760D01*
X184957173Y-115808230D01*
X184955990Y-115806449D01*
X184957313Y-115803811D01*
X184961771Y-115799875D01*
X184969996Y-115794201D01*
X184982615Y-115786347D01*
X185000258Y-115775872D01*
X185018909Y-115765024D01*
X185032153Y-115757366D01*
X185050934Y-115746512D01*
X185074681Y-115732793D01*
X185102820Y-115716540D01*
X185134777Y-115698084D01*
X185169981Y-115677755D01*
X185207858Y-115655886D01*
X185247835Y-115632805D01*
X185289339Y-115608845D01*
X185331798Y-115584336D01*
X185368847Y-115562952D01*
X185410066Y-115539156D01*
X185449689Y-115516272D01*
X185487269Y-115494559D01*
X185522359Y-115474274D01*
X185554515Y-115455676D01*
X185583289Y-115439022D01*
X185608237Y-115424572D01*
X185628911Y-115412583D01*
X185644866Y-115403313D01*
X185655656Y-115397021D01*
X185660834Y-115393964D01*
X185661060Y-115393825D01*
X185671051Y-115387591D01*
X185586977Y-115338986D01*
X185564443Y-115325960D01*
X185543512Y-115313862D01*
X185525082Y-115303212D01*
X185510050Y-115294526D01*
X185499313Y-115288325D01*
X185493767Y-115285125D01*
X185493711Y-115285093D01*
X185492201Y-115284357D01*
X185490392Y-115283965D01*
X185487949Y-115284101D01*
X185484538Y-115284948D01*
X185479825Y-115286689D01*
X185473475Y-115289508D01*
X185465155Y-115293588D01*
X185454529Y-115299113D01*
X185441263Y-115306265D01*
X185425024Y-115315229D01*
X185405477Y-115326187D01*
X185382287Y-115339324D01*
X185355120Y-115354821D01*
X185323642Y-115372864D01*
X185287518Y-115393634D01*
X185246415Y-115417316D01*
X185199998Y-115444093D01*
X185147932Y-115474148D01*
X185126793Y-115486354D01*
X185080508Y-115513070D01*
X185035902Y-115538800D01*
X184993357Y-115563323D01*
X184953257Y-115586421D01*
X184915986Y-115607872D01*
X184881925Y-115627457D01*
X184851459Y-115644955D01*
X184824971Y-115660146D01*
X184802843Y-115672810D01*
X184785460Y-115682727D01*
X184773205Y-115689676D01*
X184766460Y-115693438D01*
X184765233Y-115694070D01*
X184761448Y-115692639D01*
X184752376Y-115688061D01*
X184738709Y-115680734D01*
X184721140Y-115671061D01*
X184700363Y-115659441D01*
X184677071Y-115646275D01*
X184651956Y-115631964D01*
X184625711Y-115616908D01*
X184599030Y-115601509D01*
X184572605Y-115586165D01*
X184547129Y-115571279D01*
X184523296Y-115557251D01*
X184501799Y-115544480D01*
X184483330Y-115533369D01*
X184468582Y-115524317D01*
X184458249Y-115517724D01*
X184453024Y-115513993D01*
X184452543Y-115513324D01*
X184455807Y-115511364D01*
X184464825Y-115506088D01*
X184479244Y-115497699D01*
X184498708Y-115486404D01*
X184522864Y-115472405D01*
X184551356Y-115455909D01*
X184583829Y-115437119D01*
X184619930Y-115416241D01*
X184659303Y-115393479D01*
X184701594Y-115369038D01*
X184746448Y-115343122D01*
X184793510Y-115315936D01*
X184842426Y-115287685D01*
X184892842Y-115258573D01*
X184944402Y-115228806D01*
X184996752Y-115198587D01*
X185049537Y-115168121D01*
X185102403Y-115137614D01*
X185154994Y-115107269D01*
X185206957Y-115077292D01*
X185257937Y-115047887D01*
X185307578Y-115019258D01*
X185355527Y-114991611D01*
X185401429Y-114965150D01*
X185444929Y-114940080D01*
X185485672Y-114916605D01*
X185523304Y-114894930D01*
X185557470Y-114875260D01*
X185587815Y-114857800D01*
X185613985Y-114842753D01*
X185635626Y-114830325D01*
X185652381Y-114820721D01*
X185663898Y-114814145D01*
X185669821Y-114810801D01*
X185670568Y-114810406D01*
X185673844Y-114812050D01*
X185682851Y-114817008D01*
X185697207Y-114825062D01*
X185716535Y-114835995D01*
X185740455Y-114849591D01*
X185768586Y-114865632D01*
X185800550Y-114883903D01*
X185835968Y-114904185D01*
X185874459Y-114926264D01*
X185915645Y-114949921D01*
X185959147Y-114974939D01*
X186004584Y-115001103D01*
X186033392Y-115017708D01*
X186088036Y-115049223D01*
X186136875Y-115077412D01*
X186180225Y-115102465D01*
X186218397Y-115124571D01*
X186251708Y-115143918D01*
X186280469Y-115160696D01*
X186304996Y-115175093D01*
X186325601Y-115187300D01*
X186342600Y-115197504D01*
X186356304Y-115205894D01*
X186367030Y-115212661D01*
X186375089Y-115217993D01*
X186380797Y-115222078D01*
X186384466Y-115225106D01*
X186386411Y-115227267D01*
X186386946Y-115228748D01*
X186386384Y-115229739D01*
X186385913Y-115230046D01*
X186377052Y-115234961D01*
X186363027Y-115242898D01*
X186344299Y-115253588D01*
X186321332Y-115266763D01*
X186294587Y-115282155D01*
X186264524Y-115299494D01*
X186231607Y-115318513D01*
X186196298Y-115338943D01*
X186159057Y-115360515D01*
X186120347Y-115382960D01*
X186080629Y-115406011D01*
X186040366Y-115429399D01*
X186000019Y-115452855D01*
X185960050Y-115476110D01*
X185920920Y-115498897D01*
X185883093Y-115520947D01*
X185847028Y-115541990D01*
X185813189Y-115561759D01*
X185782037Y-115579986D01*
X185754034Y-115596400D01*
X185729641Y-115610735D01*
X185709321Y-115622722D01*
X185693535Y-115632091D01*
X185682745Y-115638575D01*
X185677413Y-115641905D01*
X185676912Y-115642296D01*
X185679858Y-115644699D01*
X185688186Y-115650131D01*
X185701144Y-115658136D01*
X185717979Y-115668259D01*
X185737938Y-115680042D01*
X185760269Y-115693031D01*
X185768301Y-115697659D01*
X185859674Y-115750192D01*
X186580952Y-115333692D01*
X186737776Y-115424217D01*
X186768064Y-115441726D01*
X186796393Y-115458150D01*
X186822195Y-115473159D01*
X186844905Y-115486418D01*
X186863953Y-115497597D01*
X186878773Y-115506362D01*
X186888797Y-115512382D01*
X186893458Y-115515323D01*
X186893723Y-115515561D01*
X187283189Y-115515561D01*
X187410548Y-115442142D01*
X187447119Y-115421066D01*
X187482038Y-115400951D01*
X187514803Y-115382088D01*
X187544914Y-115364764D01*
X187571868Y-115349266D01*
X187595164Y-115335885D01*
X187614299Y-115324908D01*
X187628773Y-115316623D01*
X187638082Y-115311320D01*
X187641618Y-115309340D01*
X187649555Y-115305169D01*
X187649555Y-116333848D01*
X187836527Y-116333848D01*
X187836527Y-115139036D01*
X187540758Y-115139036D01*
X187538142Y-115141083D01*
X187529978Y-115146294D01*
X187516845Y-115154337D01*
X187499322Y-115164874D01*
X187477985Y-115177570D01*
X187453415Y-115192090D01*
X187426188Y-115208098D01*
X187396883Y-115225259D01*
X187366078Y-115243237D01*
X187334352Y-115261697D01*
X187302283Y-115280303D01*
X187270449Y-115298720D01*
X187239428Y-115316612D01*
X187209799Y-115333643D01*
X187182139Y-115349480D01*
X187157027Y-115363784D01*
X187135041Y-115376223D01*
X187116760Y-115386458D01*
X187102761Y-115394156D01*
X187093624Y-115398981D01*
X187089954Y-115400599D01*
X187086562Y-115398866D01*
X187077343Y-115393762D01*
X187062578Y-115385449D01*
X187042546Y-115374086D01*
X187017528Y-115359835D01*
X186987805Y-115342856D01*
X186953657Y-115323312D01*
X186915366Y-115301363D01*
X186873210Y-115277169D01*
X186827472Y-115250893D01*
X186778431Y-115222694D01*
X186726367Y-115192734D01*
X186671563Y-115161174D01*
X186614297Y-115128175D01*
X186554850Y-115093898D01*
X186493504Y-115058504D01*
X186430538Y-115022153D01*
X186426732Y-115019955D01*
X185767486Y-114639244D01*
X185766581Y-114375834D01*
X185766575Y-114373857D01*
X185578750Y-114373857D01*
X185578750Y-114637805D01*
X184918383Y-115019236D01*
X184855282Y-115055674D01*
X184793788Y-115091166D01*
X184734180Y-115125552D01*
X184676739Y-115158670D01*
X184621744Y-115190360D01*
X184569475Y-115220460D01*
X184520213Y-115248810D01*
X184474237Y-115275249D01*
X184431828Y-115299617D01*
X184393266Y-115321751D01*
X184358830Y-115341491D01*
X184328801Y-115358677D01*
X184303458Y-115373148D01*
X184283082Y-115384742D01*
X184267952Y-115393299D01*
X184258349Y-115398657D01*
X184254553Y-115400657D01*
X184254510Y-115400667D01*
X184250956Y-115398946D01*
X184241781Y-115393969D01*
X184227472Y-115386011D01*
X184208513Y-115375349D01*
X184185393Y-115362257D01*
X184158598Y-115347013D01*
X184128613Y-115329893D01*
X184095925Y-115311172D01*
X184061020Y-115291127D01*
X184026099Y-115271021D01*
X183989672Y-115249972D01*
X183955138Y-115229919D01*
X183922971Y-115211143D01*
X183893641Y-115193923D01*
X183867619Y-115178539D01*
X183845377Y-115165271D01*
X183827386Y-115154398D01*
X183814117Y-115146200D01*
X183806042Y-115140957D01*
X183803618Y-115138959D01*
X183806836Y-115137017D01*
X183815922Y-115131687D01*
X183830637Y-115123110D01*
X183850737Y-115111423D01*
X183875983Y-115096769D01*
X183906132Y-115079285D01*
X183940943Y-115059112D01*
X183980175Y-115036389D01*
X184023587Y-115011257D01*
X184070937Y-114983854D01*
X184121983Y-114954321D01*
X184176484Y-114922797D01*
X184234199Y-114889422D01*
X184294887Y-114854335D01*
X184358305Y-114817677D01*
X184424214Y-114779586D01*
X184492370Y-114740204D01*
X184562534Y-114699668D01*
X184634462Y-114658119D01*
X184689750Y-114626188D01*
X184762850Y-114583971D01*
X184834368Y-114542667D01*
X184904063Y-114502416D01*
X184971694Y-114463357D01*
X185037018Y-114425628D01*
X185099795Y-114389371D01*
X185159783Y-114354724D01*
X185216740Y-114321826D01*
X185270426Y-114290818D01*
X185320598Y-114261838D01*
X185367015Y-114235027D01*
X185409437Y-114210523D01*
X185447621Y-114188465D01*
X185481325Y-114168995D01*
X185510310Y-114152250D01*
X185534332Y-114138371D01*
X185553151Y-114127496D01*
X185566525Y-114119765D01*
X185574213Y-114115319D01*
X185576104Y-114114222D01*
X185576530Y-114117394D01*
X185576935Y-114127079D01*
X185577314Y-114142734D01*
X185577660Y-114163815D01*
X185577968Y-114189780D01*
X185578233Y-114220086D01*
X185578449Y-114254189D01*
X185578611Y-114291548D01*
X185578713Y-114331618D01*
X185578750Y-114373857D01*
X185766575Y-114373857D01*
X185765677Y-114112425D01*
X185777165Y-114119480D01*
X185781145Y-114121813D01*
X185790989Y-114127531D01*
X185806452Y-114136492D01*
X185827288Y-114148553D01*
X185853251Y-114163573D01*
X185884095Y-114181409D01*
X185919573Y-114201920D01*
X185959440Y-114224963D01*
X186003450Y-114250396D01*
X186051357Y-114278077D01*
X186102915Y-114307864D01*
X186157877Y-114339615D01*
X186215999Y-114373187D01*
X186277033Y-114408439D01*
X186340735Y-114445228D01*
X186406857Y-114483412D01*
X186475155Y-114522850D01*
X186545381Y-114563398D01*
X186617291Y-114604915D01*
X186663541Y-114631617D01*
X186736275Y-114673610D01*
X186807424Y-114714695D01*
X186876745Y-114754731D01*
X186943995Y-114793578D01*
X187008933Y-114831095D01*
X187071315Y-114867143D01*
X187130899Y-114901581D01*
X187187441Y-114934268D01*
X187240701Y-114965064D01*
X187290434Y-114993829D01*
X187336399Y-115020423D01*
X187378352Y-115044704D01*
X187416052Y-115066534D01*
X187449255Y-115085771D01*
X187477719Y-115102276D01*
X187501201Y-115115907D01*
X187519459Y-115126524D01*
X187532250Y-115133988D01*
X187539331Y-115138158D01*
X187540758Y-115139036D01*
X187836527Y-115139036D01*
X187836527Y-115084228D01*
X186756150Y-114460457D01*
X186675243Y-114413750D01*
X186595891Y-114367954D01*
X186518313Y-114323194D01*
X186442726Y-114279595D01*
X186369350Y-114237283D01*
X186298403Y-114196385D01*
X186230103Y-114157024D01*
X186164670Y-114119329D01*
X186102320Y-114083423D01*
X186043274Y-114049433D01*
X185987749Y-114017484D01*
X185935964Y-113987702D01*
X185888137Y-113960214D01*
X185844487Y-113935143D01*
X185805233Y-113912617D01*
X185770592Y-113892761D01*
X185740784Y-113875700D01*
X185716027Y-113861560D01*
X185696539Y-113850468D01*
X185682539Y-113842548D01*
X185674245Y-113837927D01*
X185671847Y-113836685D01*
X185668451Y-113838424D01*
G36*
X184764657Y-116863058D02*
G01*
X184765597Y-116957559D01*
X184966060Y-117073404D01*
X185000480Y-117093283D01*
X185033077Y-117112083D01*
X185063342Y-117129514D01*
X185090765Y-117145282D01*
X185114836Y-117159096D01*
X185135047Y-117170663D01*
X185150887Y-117179691D01*
X185161847Y-117185888D01*
X185167418Y-117188961D01*
X185168025Y-117189250D01*
X185168426Y-117185876D01*
X185168786Y-117176367D01*
X185169092Y-117161645D01*
X185169327Y-117142629D01*
X185169477Y-117120243D01*
X185169527Y-117096467D01*
X185169527Y-117003683D01*
X184974618Y-116891204D01*
X184940448Y-116871478D01*
X184907937Y-116852695D01*
X184877625Y-116835169D01*
X184850053Y-116819214D01*
X184825761Y-116805141D01*
X184805292Y-116793266D01*
X184789184Y-116783900D01*
X184777980Y-116777358D01*
X184772219Y-116773953D01*
X184771712Y-116773641D01*
X184763716Y-116768557D01*
X184764657Y-116863058D01*
X184764657Y-116863058D01*
G37*
X184764657Y-116863058D02*
X184765597Y-116957559D01*
X184966060Y-117073404D01*
X185000480Y-117093283D01*
X185033077Y-117112083D01*
X185063342Y-117129514D01*
X185090765Y-117145282D01*
X185114836Y-117159096D01*
X185135047Y-117170663D01*
X185150887Y-117179691D01*
X185161847Y-117185888D01*
X185167418Y-117188961D01*
X185168025Y-117189250D01*
X185168426Y-117185876D01*
X185168786Y-117176367D01*
X185169092Y-117161645D01*
X185169327Y-117142629D01*
X185169477Y-117120243D01*
X185169527Y-117096467D01*
X185169527Y-117003683D01*
X184974618Y-116891204D01*
X184940448Y-116871478D01*
X184907937Y-116852695D01*
X184877625Y-116835169D01*
X184850053Y-116819214D01*
X184825761Y-116805141D01*
X184805292Y-116793266D01*
X184789184Y-116783900D01*
X184777980Y-116777358D01*
X184772219Y-116773953D01*
X184771712Y-116773641D01*
X184763716Y-116768557D01*
X184764657Y-116863058D01*
G36*
X184764829Y-116303625D02*
G01*
X184764503Y-116313134D01*
X184764227Y-116327858D01*
X184764015Y-116346877D01*
X184763879Y-116369269D01*
X184763833Y-116393145D01*
X184763833Y-116486039D01*
X184958743Y-116598433D01*
X184992916Y-116618145D01*
X185025430Y-116636914D01*
X185055744Y-116654426D01*
X185083317Y-116670369D01*
X185107609Y-116684428D01*
X185128079Y-116696292D01*
X185144185Y-116705646D01*
X185155387Y-116712178D01*
X185161143Y-116715575D01*
X185161648Y-116715885D01*
X185169644Y-116720944D01*
X185167764Y-116532022D01*
X184967157Y-116416136D01*
X184932726Y-116396258D01*
X184900123Y-116377458D01*
X184869855Y-116360026D01*
X184842432Y-116344256D01*
X184818362Y-116330439D01*
X184798155Y-116318867D01*
X184782319Y-116309833D01*
X184771364Y-116303628D01*
X184765798Y-116300544D01*
X184765191Y-116300250D01*
X184764829Y-116303625D01*
X184764829Y-116303625D01*
G37*
X184764829Y-116303625D02*
X184764503Y-116313134D01*
X184764227Y-116327858D01*
X184764015Y-116346877D01*
X184763879Y-116369269D01*
X184763833Y-116393145D01*
X184763833Y-116486039D01*
X184958743Y-116598433D01*
X184992916Y-116618145D01*
X185025430Y-116636914D01*
X185055744Y-116654426D01*
X185083317Y-116670369D01*
X185107609Y-116684428D01*
X185128079Y-116696292D01*
X185144185Y-116705646D01*
X185155387Y-116712178D01*
X185161143Y-116715575D01*
X185161648Y-116715885D01*
X185169644Y-116720944D01*
X185167764Y-116532022D01*
X184967157Y-116416136D01*
X184932726Y-116396258D01*
X184900123Y-116377458D01*
X184869855Y-116360026D01*
X184842432Y-116344256D01*
X184818362Y-116330439D01*
X184798155Y-116318867D01*
X184782319Y-116309833D01*
X184771364Y-116303628D01*
X184765798Y-116300544D01*
X184765191Y-116300250D01*
X184764829Y-116303625D01*
G36*
X165452625Y-84348171D02*
G01*
X165462134Y-84348497D01*
X165476858Y-84348773D01*
X165495877Y-84348985D01*
X165518269Y-84349121D01*
X165542145Y-84349167D01*
X165635039Y-84349167D01*
X165747433Y-84154257D01*
X165767145Y-84120084D01*
X165785914Y-84087570D01*
X165803426Y-84057256D01*
X165819369Y-84029683D01*
X165833428Y-84005391D01*
X165845292Y-83984921D01*
X165854646Y-83968815D01*
X165861178Y-83957613D01*
X165864575Y-83951857D01*
X165864885Y-83951352D01*
X165869944Y-83943356D01*
X165681022Y-83945236D01*
X165565136Y-84145843D01*
X165545258Y-84180274D01*
X165526458Y-84212877D01*
X165509026Y-84243145D01*
X165493256Y-84270568D01*
X165479439Y-84294638D01*
X165467867Y-84314845D01*
X165458833Y-84330681D01*
X165452628Y-84341636D01*
X165449544Y-84347202D01*
X165449250Y-84347809D01*
X165452625Y-84348171D01*
X165452625Y-84348171D01*
G37*
X165452625Y-84348171D02*
X165462134Y-84348497D01*
X165476858Y-84348773D01*
X165495877Y-84348985D01*
X165518269Y-84349121D01*
X165542145Y-84349167D01*
X165635039Y-84349167D01*
X165747433Y-84154257D01*
X165767145Y-84120084D01*
X165785914Y-84087570D01*
X165803426Y-84057256D01*
X165819369Y-84029683D01*
X165833428Y-84005391D01*
X165845292Y-83984921D01*
X165854646Y-83968815D01*
X165861178Y-83957613D01*
X165864575Y-83951857D01*
X165864885Y-83951352D01*
X165869944Y-83943356D01*
X165681022Y-83945236D01*
X165565136Y-84145843D01*
X165545258Y-84180274D01*
X165526458Y-84212877D01*
X165509026Y-84243145D01*
X165493256Y-84270568D01*
X165479439Y-84294638D01*
X165467867Y-84314845D01*
X165458833Y-84330681D01*
X165452628Y-84341636D01*
X165449544Y-84347202D01*
X165449250Y-84347809D01*
X165452625Y-84348171D01*
G36*
X166012058Y-84348343D02*
G01*
X166106559Y-84347403D01*
X166222404Y-84146940D01*
X166242283Y-84112520D01*
X166261083Y-84079923D01*
X166278514Y-84049658D01*
X166294282Y-84022235D01*
X166308096Y-83998164D01*
X166319663Y-83977953D01*
X166328691Y-83962113D01*
X166334888Y-83951153D01*
X166337961Y-83945582D01*
X166338250Y-83944975D01*
X166334876Y-83944574D01*
X166325367Y-83944214D01*
X166310645Y-83943908D01*
X166291629Y-83943673D01*
X166269243Y-83943523D01*
X166245467Y-83943473D01*
X166152683Y-83943473D01*
X166040204Y-84138382D01*
X166020478Y-84172552D01*
X166001695Y-84205063D01*
X165984169Y-84235375D01*
X165968214Y-84262947D01*
X165954141Y-84287239D01*
X165942266Y-84307708D01*
X165932900Y-84323816D01*
X165926358Y-84335020D01*
X165922953Y-84340781D01*
X165922641Y-84341288D01*
X165917557Y-84349284D01*
X166012058Y-84348343D01*
X166012058Y-84348343D01*
G37*
X166012058Y-84348343D02*
X166106559Y-84347403D01*
X166222404Y-84146940D01*
X166242283Y-84112520D01*
X166261083Y-84079923D01*
X166278514Y-84049658D01*
X166294282Y-84022235D01*
X166308096Y-83998164D01*
X166319663Y-83977953D01*
X166328691Y-83962113D01*
X166334888Y-83951153D01*
X166337961Y-83945582D01*
X166338250Y-83944975D01*
X166334876Y-83944574D01*
X166325367Y-83944214D01*
X166310645Y-83943908D01*
X166291629Y-83943673D01*
X166269243Y-83943523D01*
X166245467Y-83943473D01*
X166152683Y-83943473D01*
X166040204Y-84138382D01*
X166020478Y-84172552D01*
X166001695Y-84205063D01*
X165984169Y-84235375D01*
X165968214Y-84262947D01*
X165954141Y-84287239D01*
X165942266Y-84307708D01*
X165932900Y-84323816D01*
X165926358Y-84335020D01*
X165922953Y-84340781D01*
X165922641Y-84341288D01*
X165917557Y-84349284D01*
X166012058Y-84348343D01*
G36*
X162987424Y-83444549D02*
G01*
X162992529Y-83453765D01*
X163000834Y-83468510D01*
X163012174Y-83488497D01*
X163026383Y-83513436D01*
X163043296Y-83543039D01*
X163062746Y-83577017D01*
X163084568Y-83615080D01*
X163108596Y-83656941D01*
X163134664Y-83702310D01*
X163162607Y-83750898D01*
X163192259Y-83802417D01*
X163223453Y-83856577D01*
X163256025Y-83913091D01*
X163289809Y-83971668D01*
X163324638Y-84032020D01*
X163345029Y-84067338D01*
X163407610Y-84175705D01*
X163466786Y-84278179D01*
X163522683Y-84374974D01*
X163575425Y-84466306D01*
X163625136Y-84552391D01*
X163671942Y-84633445D01*
X163715966Y-84709682D01*
X163757333Y-84781318D01*
X163796167Y-84848570D01*
X163832594Y-84911653D01*
X163866737Y-84970783D01*
X163898722Y-85026174D01*
X163928672Y-85078044D01*
X163956712Y-85126606D01*
X163982967Y-85172078D01*
X164007561Y-85214675D01*
X164030619Y-85254611D01*
X164052265Y-85292104D01*
X164072624Y-85327369D01*
X164091820Y-85360620D01*
X164109977Y-85392075D01*
X164127221Y-85421948D01*
X164130591Y-85427785D01*
X164232916Y-85605056D01*
X166732612Y-85605056D01*
X166834937Y-85427785D01*
X166853736Y-85395217D01*
X166875512Y-85357497D01*
X166899710Y-85315581D01*
X166925779Y-85270425D01*
X166953166Y-85222989D01*
X166981319Y-85174227D01*
X167009684Y-85125098D01*
X167037710Y-85076559D01*
X167064843Y-85029566D01*
X167086984Y-84991223D01*
X167156752Y-84870397D01*
X167223065Y-84755552D01*
X167285997Y-84646562D01*
X167345623Y-84543296D01*
X167402016Y-84445628D01*
X167455250Y-84353429D01*
X167505399Y-84266571D01*
X167552538Y-84184926D01*
X167596739Y-84108366D01*
X167638077Y-84036762D01*
X167676627Y-83969987D01*
X167712461Y-83907911D01*
X167745654Y-83850409D01*
X167776279Y-83797350D01*
X167804412Y-83748607D01*
X167830125Y-83704052D01*
X167853493Y-83663556D01*
X167874590Y-83626992D01*
X167893489Y-83594232D01*
X167910264Y-83565146D01*
X167924990Y-83539608D01*
X167937741Y-83517489D01*
X167948590Y-83498660D01*
X167957611Y-83482994D01*
X167964879Y-83470363D01*
X167970467Y-83460638D01*
X167974449Y-83453692D01*
X167976899Y-83449395D01*
X167977879Y-83447644D01*
X167977889Y-83446411D01*
X167977138Y-83443937D01*
X167975525Y-83440043D01*
X167972946Y-83434549D01*
X167969299Y-83427272D01*
X167964480Y-83418033D01*
X167958386Y-83406650D01*
X167950916Y-83392944D01*
X167941964Y-83376734D01*
X167931429Y-83357839D01*
X167919208Y-83336078D01*
X167905197Y-83311271D01*
X167889294Y-83283237D01*
X167871396Y-83251795D01*
X167851399Y-83216766D01*
X167829201Y-83177967D01*
X167804699Y-83135219D01*
X167777790Y-83088341D01*
X167748370Y-83037153D01*
X167716338Y-82981473D01*
X167704103Y-82960224D01*
X167704103Y-83534205D01*
X167697071Y-83545693D01*
X167694740Y-83549673D01*
X167689025Y-83559518D01*
X167680067Y-83574981D01*
X167668008Y-83595818D01*
X167652991Y-83621781D01*
X167635157Y-83652625D01*
X167614649Y-83688104D01*
X167591610Y-83727972D01*
X167566180Y-83771983D01*
X167538502Y-83819891D01*
X167508719Y-83871449D01*
X167476972Y-83926413D01*
X167443403Y-83984535D01*
X167408155Y-84045571D01*
X167371369Y-84109273D01*
X167333189Y-84175397D01*
X167293755Y-84243695D01*
X167253210Y-84313923D01*
X167211696Y-84385833D01*
X167185005Y-84432070D01*
X167143015Y-84504805D01*
X167101932Y-84575956D01*
X167061898Y-84645280D01*
X167023052Y-84712533D01*
X166985536Y-84777474D01*
X166949488Y-84839860D01*
X166915051Y-84899447D01*
X166882363Y-84955994D01*
X166851566Y-85009257D01*
X166822799Y-85058995D01*
X166796204Y-85104964D01*
X166771920Y-85146922D01*
X166750088Y-85184626D01*
X166730848Y-85217833D01*
X166714341Y-85246301D01*
X166700706Y-85269787D01*
X166690085Y-85288049D01*
X166682617Y-85300844D01*
X166678444Y-85307929D01*
X166677563Y-85309358D01*
X166675526Y-85306732D01*
X166670318Y-85298563D01*
X166662277Y-85285430D01*
X166651740Y-85267915D01*
X166639042Y-85246595D01*
X166624522Y-85222051D01*
X166608515Y-85194861D01*
X166591359Y-85165606D01*
X166573391Y-85134865D01*
X166554947Y-85103217D01*
X166536364Y-85071242D01*
X166517980Y-85039519D01*
X166500131Y-85008628D01*
X166483154Y-84979148D01*
X166467385Y-84951659D01*
X166453163Y-84926741D01*
X166440822Y-84904972D01*
X166430702Y-84886932D01*
X166423137Y-84873202D01*
X166418466Y-84864359D01*
X166417039Y-84861196D01*
X166418633Y-84857606D01*
X166423616Y-84848171D01*
X166431838Y-84833155D01*
X166443152Y-84812819D01*
X166457406Y-84787423D01*
X166474454Y-84757228D01*
X166494146Y-84722498D01*
X166516332Y-84683491D01*
X166540864Y-84640471D01*
X166567593Y-84593698D01*
X166596369Y-84543433D01*
X166627045Y-84489938D01*
X166659471Y-84433474D01*
X166693497Y-84374303D01*
X166728975Y-84312686D01*
X166765757Y-84248883D01*
X166796444Y-84195709D01*
X167177341Y-83536014D01*
X167440722Y-83535110D01*
X167704103Y-83534205D01*
X167704103Y-82960224D01*
X167681589Y-82921121D01*
X167644021Y-82855917D01*
X167603531Y-82785679D01*
X167560016Y-82710228D01*
X167513373Y-82629382D01*
X167463499Y-82542961D01*
X167410291Y-82450784D01*
X167356978Y-82358443D01*
X166732270Y-81276473D01*
X166676917Y-81276473D01*
X166676917Y-81571642D01*
X166678804Y-81574788D01*
X166684079Y-81583805D01*
X166692602Y-81598451D01*
X166704235Y-81618486D01*
X166718837Y-81643668D01*
X166736270Y-81673757D01*
X166756394Y-81708513D01*
X166779071Y-81747694D01*
X166804160Y-81791060D01*
X166831523Y-81838369D01*
X166861020Y-81889382D01*
X166892513Y-81943857D01*
X166925861Y-82001554D01*
X166960927Y-82062231D01*
X166997569Y-82125649D01*
X167035650Y-82191566D01*
X167075030Y-82259741D01*
X167115570Y-82329935D01*
X167157130Y-82401905D01*
X167190307Y-82459366D01*
X167701933Y-83345514D01*
X167440978Y-83346419D01*
X167398686Y-83346530D01*
X167358451Y-83346567D01*
X167320830Y-83346534D01*
X167286378Y-83346435D01*
X167255653Y-83346272D01*
X167229211Y-83346051D01*
X167207609Y-83345774D01*
X167191402Y-83345445D01*
X167181148Y-83345068D01*
X167177410Y-83344655D01*
X167175264Y-83341226D01*
X167169807Y-83332037D01*
X167161236Y-83317427D01*
X167149746Y-83297738D01*
X167135536Y-83273309D01*
X167118799Y-83244481D01*
X167099734Y-83211596D01*
X167078536Y-83174992D01*
X167055401Y-83135012D01*
X167030526Y-83091995D01*
X167004106Y-83046282D01*
X166976339Y-82998214D01*
X166947420Y-82948131D01*
X166917547Y-82896373D01*
X166886914Y-82843282D01*
X166855718Y-82789198D01*
X166824156Y-82734460D01*
X166792424Y-82679411D01*
X166760718Y-82624389D01*
X166729234Y-82569737D01*
X166698169Y-82515794D01*
X166667719Y-82462901D01*
X166638080Y-82411399D01*
X166609449Y-82361628D01*
X166582021Y-82313928D01*
X166555994Y-82268641D01*
X166531562Y-82226106D01*
X166508924Y-82186664D01*
X166488274Y-82150656D01*
X166469809Y-82118423D01*
X166453725Y-82090304D01*
X166440220Y-82066641D01*
X166429488Y-82047774D01*
X166421726Y-82034043D01*
X166417131Y-82025789D01*
X166415861Y-82023332D01*
X166417569Y-82019638D01*
X166422468Y-82010494D01*
X166430225Y-81996481D01*
X166440505Y-81978177D01*
X166452972Y-81956162D01*
X166467293Y-81931014D01*
X166483132Y-81903312D01*
X166500155Y-81873636D01*
X166518027Y-81842565D01*
X166536414Y-81810677D01*
X166554981Y-81778552D01*
X166573394Y-81746768D01*
X166591316Y-81715906D01*
X166608415Y-81686543D01*
X166624355Y-81659260D01*
X166638802Y-81634634D01*
X166651420Y-81613246D01*
X166661876Y-81595674D01*
X166669834Y-81582497D01*
X166674960Y-81574294D01*
X166676917Y-81571642D01*
X166676917Y-81276473D01*
X165482848Y-81276473D01*
X165482848Y-81463445D01*
X165567548Y-81463454D01*
X165650394Y-81463480D01*
X165731112Y-81463523D01*
X165809424Y-81463582D01*
X165885054Y-81463657D01*
X165957727Y-81463746D01*
X166027166Y-81463849D01*
X166093095Y-81463965D01*
X166155239Y-81464093D01*
X166213320Y-81464233D01*
X166267064Y-81464385D01*
X166316194Y-81464546D01*
X166360434Y-81464717D01*
X166399507Y-81464897D01*
X166433139Y-81465086D01*
X166461052Y-81465281D01*
X166482970Y-81465484D01*
X166498618Y-81465693D01*
X166507720Y-81465906D01*
X166510103Y-81466091D01*
X166508153Y-81469502D01*
X166502954Y-81478544D01*
X166494784Y-81492737D01*
X166483919Y-81511600D01*
X166470637Y-81534652D01*
X166455214Y-81561414D01*
X166437928Y-81591404D01*
X166419054Y-81624143D01*
X166398871Y-81659148D01*
X166377655Y-81695941D01*
X166376952Y-81697160D01*
X166245225Y-81925584D01*
X165121512Y-81925584D01*
X165121512Y-82113074D01*
X165172154Y-82113077D01*
X165228348Y-82113103D01*
X165290381Y-82113151D01*
X165358538Y-82113218D01*
X165433106Y-82113302D01*
X165514371Y-82113402D01*
X165536093Y-82113429D01*
X166241124Y-82114320D01*
X166596596Y-82729917D01*
X166952069Y-83345514D01*
X166451051Y-83346147D01*
X166451051Y-83534995D01*
X166514453Y-83535011D01*
X166574911Y-83535056D01*
X166632092Y-83535128D01*
X166685667Y-83535226D01*
X166735305Y-83535349D01*
X166780673Y-83535496D01*
X166821442Y-83535666D01*
X166857280Y-83535859D01*
X166887857Y-83536073D01*
X166912841Y-83536307D01*
X166931902Y-83536560D01*
X166944708Y-83536831D01*
X166950929Y-83537119D01*
X166951498Y-83537245D01*
X166949644Y-83540554D01*
X166944429Y-83549682D01*
X166936020Y-83564339D01*
X166924585Y-83584234D01*
X166910291Y-83609078D01*
X166893307Y-83638578D01*
X166873798Y-83672446D01*
X166851934Y-83710390D01*
X166827880Y-83752119D01*
X166801805Y-83797344D01*
X166773877Y-83845774D01*
X166744261Y-83897118D01*
X166713127Y-83951086D01*
X166680641Y-84007387D01*
X166646971Y-84065730D01*
X166612285Y-84125826D01*
X166596175Y-84153733D01*
X166561052Y-84214564D01*
X166526842Y-84273787D01*
X166493715Y-84331111D01*
X166461839Y-84386243D01*
X166431385Y-84438894D01*
X166402520Y-84488770D01*
X166375414Y-84535581D01*
X166350236Y-84579035D01*
X166327155Y-84618840D01*
X166306340Y-84654706D01*
X166287959Y-84686339D01*
X166272183Y-84713449D01*
X166259179Y-84735745D01*
X166249118Y-84752934D01*
X166249036Y-84753073D01*
X166249036Y-84962984D01*
X166378017Y-85186124D01*
X166506997Y-85409264D01*
X165996047Y-85410158D01*
X165924547Y-85410268D01*
X165847128Y-85410358D01*
X165764927Y-85410429D01*
X165679080Y-85410481D01*
X165590726Y-85410513D01*
X165500999Y-85410526D01*
X165411038Y-85410520D01*
X165321978Y-85410495D01*
X165234957Y-85410450D01*
X165151111Y-85410386D01*
X165071578Y-85410303D01*
X164997493Y-85410201D01*
X164971790Y-85410158D01*
X164458481Y-85409264D01*
X164586806Y-85187014D01*
X164715132Y-84964764D01*
X166249036Y-84962984D01*
X166249036Y-84753073D01*
X166242167Y-84764725D01*
X166238496Y-84770827D01*
X166237960Y-84771638D01*
X166235875Y-84772445D01*
X166230953Y-84773144D01*
X166222818Y-84773741D01*
X166211091Y-84774239D01*
X166195397Y-84774643D01*
X166175359Y-84774957D01*
X166150599Y-84775185D01*
X166120741Y-84775333D01*
X166085409Y-84775404D01*
X166044224Y-84775402D01*
X165996811Y-84775332D01*
X165942793Y-84775199D01*
X165931518Y-84775166D01*
X165629146Y-84774264D01*
X165649603Y-84738986D01*
X165659221Y-84722367D01*
X165668893Y-84705603D01*
X165677280Y-84691013D01*
X165681622Y-84683424D01*
X165693185Y-84663139D01*
X165506227Y-84663139D01*
X165473508Y-84719584D01*
X165440788Y-84776028D01*
X165132602Y-84776028D01*
X165086688Y-84775999D01*
X165042877Y-84775913D01*
X165001671Y-84775775D01*
X164963572Y-84775590D01*
X164929082Y-84775362D01*
X164898703Y-84775095D01*
X164872937Y-84774793D01*
X164852287Y-84774461D01*
X164837253Y-84774104D01*
X164828338Y-84773725D01*
X164825949Y-84773382D01*
X164827848Y-84770093D01*
X164833094Y-84761006D01*
X164841504Y-84746436D01*
X164852899Y-84726695D01*
X164867097Y-84702097D01*
X164883918Y-84672956D01*
X164903180Y-84639584D01*
X164924703Y-84602296D01*
X164948305Y-84561405D01*
X164973806Y-84517223D01*
X165001026Y-84470066D01*
X165029782Y-84420245D01*
X165059895Y-84368074D01*
X165091182Y-84313868D01*
X165123464Y-84257939D01*
X165131894Y-84243334D01*
X165165308Y-84185444D01*
X165198310Y-84128268D01*
X165230678Y-84072193D01*
X165262189Y-84017605D01*
X165292619Y-83964889D01*
X165321746Y-83914433D01*
X165349347Y-83866622D01*
X165375198Y-83821842D01*
X165399078Y-83780480D01*
X165420762Y-83742922D01*
X165440028Y-83709554D01*
X165456653Y-83680763D01*
X165470414Y-83656934D01*
X165481088Y-83638454D01*
X165488299Y-83625973D01*
X165540292Y-83536014D01*
X166246485Y-83535124D01*
X166316736Y-83535050D01*
X166385035Y-83535007D01*
X166451051Y-83534995D01*
X166451051Y-83346147D01*
X166247588Y-83346405D01*
X166177590Y-83346480D01*
X166109472Y-83346528D01*
X166043567Y-83346549D01*
X165980214Y-83346543D01*
X165919746Y-83346513D01*
X165862500Y-83346458D01*
X165808813Y-83346379D01*
X165759020Y-83346278D01*
X165713456Y-83346154D01*
X165672458Y-83346010D01*
X165636362Y-83345846D01*
X165605503Y-83345662D01*
X165580218Y-83345460D01*
X165560842Y-83345240D01*
X165547711Y-83345003D01*
X165541161Y-83344750D01*
X165540456Y-83344641D01*
X165538364Y-83341294D01*
X165533082Y-83332397D01*
X165524923Y-83318495D01*
X165514201Y-83300132D01*
X165501231Y-83277853D01*
X165486328Y-83252200D01*
X165469805Y-83223720D01*
X165451977Y-83192955D01*
X165433158Y-83160450D01*
X165413663Y-83126748D01*
X165393806Y-83092395D01*
X165373902Y-83057935D01*
X165354265Y-83023911D01*
X165335209Y-82990867D01*
X165317048Y-82959349D01*
X165300098Y-82929899D01*
X165284672Y-82903063D01*
X165271084Y-82879383D01*
X165259650Y-82859406D01*
X165250683Y-82843674D01*
X165244498Y-82832732D01*
X165241410Y-82827123D01*
X165241111Y-82826491D01*
X165244560Y-82826306D01*
X165254591Y-82826128D01*
X165270731Y-82825960D01*
X165292505Y-82825803D01*
X165319441Y-82825660D01*
X165351066Y-82825531D01*
X165386905Y-82825419D01*
X165426485Y-82825325D01*
X165469333Y-82825251D01*
X165514974Y-82825199D01*
X165562937Y-82825172D01*
X165592125Y-82825167D01*
X165641232Y-82825141D01*
X165688295Y-82825065D01*
X165732842Y-82824944D01*
X165774399Y-82824780D01*
X165812492Y-82824577D01*
X165846649Y-82824338D01*
X165876397Y-82824068D01*
X165901261Y-82823770D01*
X165920769Y-82823447D01*
X165934447Y-82823103D01*
X165941823Y-82822741D01*
X165943026Y-82822521D01*
X165941293Y-82818910D01*
X165936447Y-82809984D01*
X165928928Y-82796524D01*
X165919177Y-82779311D01*
X165907635Y-82759126D01*
X165894740Y-82736749D01*
X165890785Y-82729917D01*
X165838657Y-82639959D01*
X165130681Y-82636431D01*
X164982662Y-82380667D01*
X164960058Y-82341573D01*
X164938463Y-82304155D01*
X164918142Y-82268874D01*
X164899357Y-82236189D01*
X164882372Y-82206563D01*
X164867450Y-82180455D01*
X164854856Y-82158326D01*
X164844852Y-82140637D01*
X164837701Y-82127848D01*
X164833668Y-82120421D01*
X164832852Y-82118721D01*
X164832881Y-82117993D01*
X164833598Y-82117326D01*
X164835290Y-82116716D01*
X164838242Y-82116163D01*
X164842741Y-82115663D01*
X164849073Y-82115215D01*
X164857523Y-82114816D01*
X164868379Y-82114465D01*
X164881925Y-82114158D01*
X164898449Y-82113895D01*
X164918236Y-82113673D01*
X164941573Y-82113489D01*
X164968745Y-82113341D01*
X165000039Y-82113228D01*
X165035741Y-82113147D01*
X165076136Y-82113097D01*
X165121512Y-82113074D01*
X165121512Y-81925584D01*
X164719772Y-81925584D01*
X164664561Y-81829811D01*
X164664561Y-82219277D01*
X164666666Y-82222682D01*
X164672071Y-82231835D01*
X164680573Y-82246382D01*
X164691967Y-82265968D01*
X164706051Y-82290239D01*
X164722620Y-82318841D01*
X164741470Y-82351420D01*
X164762397Y-82387622D01*
X164785198Y-82427092D01*
X164809668Y-82469478D01*
X164835604Y-82514423D01*
X164862802Y-82561575D01*
X164891058Y-82610579D01*
X164920167Y-82661082D01*
X164949927Y-82712728D01*
X164980133Y-82765164D01*
X165010581Y-82818036D01*
X165041067Y-82870989D01*
X165071388Y-82923670D01*
X165101340Y-82975724D01*
X165130718Y-83026798D01*
X165159319Y-83076536D01*
X165186939Y-83124585D01*
X165213374Y-83170592D01*
X165238420Y-83214201D01*
X165261873Y-83255058D01*
X165283530Y-83292810D01*
X165303186Y-83327102D01*
X165320638Y-83357581D01*
X165335682Y-83383891D01*
X165348113Y-83405680D01*
X165357728Y-83422592D01*
X165364323Y-83434274D01*
X165367695Y-83440372D01*
X165368108Y-83441213D01*
X165366388Y-83444913D01*
X165361436Y-83454163D01*
X165353562Y-83468411D01*
X165343079Y-83487106D01*
X165330298Y-83509698D01*
X165315530Y-83535635D01*
X165299088Y-83564365D01*
X165281283Y-83595338D01*
X165265381Y-83622894D01*
X165242186Y-83663026D01*
X165216455Y-83707562D01*
X165189076Y-83754964D01*
X165160936Y-83803696D01*
X165132924Y-83852219D01*
X165105926Y-83898996D01*
X165080832Y-83942489D01*
X165061952Y-83975223D01*
X165043338Y-84007486D01*
X165025699Y-84038024D01*
X165009365Y-84066272D01*
X164994664Y-84091661D01*
X164981925Y-84113627D01*
X164971475Y-84131601D01*
X164963644Y-84145019D01*
X164958760Y-84153312D01*
X164957230Y-84155827D01*
X164955449Y-84157010D01*
X164952811Y-84155687D01*
X164948875Y-84151229D01*
X164943201Y-84143004D01*
X164935347Y-84130385D01*
X164924872Y-84112742D01*
X164914024Y-84094091D01*
X164906366Y-84080847D01*
X164895512Y-84062066D01*
X164881793Y-84038319D01*
X164865540Y-84010180D01*
X164847084Y-83978223D01*
X164826755Y-83943019D01*
X164804886Y-83905142D01*
X164781805Y-83865165D01*
X164757845Y-83823661D01*
X164733336Y-83781202D01*
X164711952Y-83744153D01*
X164688156Y-83702934D01*
X164665272Y-83663311D01*
X164643559Y-83625731D01*
X164623274Y-83590641D01*
X164604676Y-83558485D01*
X164588022Y-83529711D01*
X164573572Y-83504763D01*
X164561583Y-83484089D01*
X164552313Y-83468134D01*
X164546021Y-83457344D01*
X164542964Y-83452166D01*
X164542825Y-83451940D01*
X164536591Y-83441949D01*
X164487986Y-83526023D01*
X164474960Y-83548557D01*
X164462862Y-83569488D01*
X164452212Y-83587918D01*
X164443526Y-83602950D01*
X164437325Y-83613687D01*
X164434125Y-83619233D01*
X164434093Y-83619289D01*
X164433357Y-83620799D01*
X164432965Y-83622608D01*
X164433101Y-83625051D01*
X164433948Y-83628462D01*
X164435689Y-83633175D01*
X164438508Y-83639525D01*
X164442588Y-83647845D01*
X164448113Y-83658471D01*
X164455265Y-83671737D01*
X164464229Y-83687976D01*
X164475187Y-83707523D01*
X164488324Y-83730713D01*
X164503821Y-83757880D01*
X164521864Y-83789358D01*
X164542634Y-83825482D01*
X164566316Y-83866585D01*
X164593093Y-83913002D01*
X164623148Y-83965068D01*
X164635354Y-83986207D01*
X164662070Y-84032492D01*
X164687800Y-84077098D01*
X164712323Y-84119643D01*
X164735421Y-84159743D01*
X164756872Y-84197014D01*
X164776457Y-84231075D01*
X164793955Y-84261541D01*
X164809146Y-84288029D01*
X164821810Y-84310157D01*
X164831727Y-84327540D01*
X164838676Y-84339795D01*
X164842438Y-84346540D01*
X164843070Y-84347767D01*
X164841639Y-84351552D01*
X164837061Y-84360624D01*
X164829734Y-84374291D01*
X164820061Y-84391860D01*
X164808441Y-84412637D01*
X164795275Y-84435929D01*
X164780964Y-84461044D01*
X164765908Y-84487289D01*
X164750509Y-84513970D01*
X164735165Y-84540395D01*
X164720279Y-84565871D01*
X164706251Y-84589704D01*
X164693480Y-84611201D01*
X164682369Y-84629670D01*
X164673317Y-84644418D01*
X164666724Y-84654751D01*
X164662993Y-84659976D01*
X164662324Y-84660457D01*
X164660364Y-84657193D01*
X164655088Y-84648175D01*
X164646699Y-84633756D01*
X164635404Y-84614292D01*
X164621405Y-84590136D01*
X164604909Y-84561644D01*
X164586119Y-84529171D01*
X164565241Y-84493070D01*
X164542479Y-84453697D01*
X164518038Y-84411406D01*
X164492122Y-84366552D01*
X164464936Y-84319490D01*
X164436685Y-84270574D01*
X164407573Y-84220158D01*
X164377806Y-84168598D01*
X164347587Y-84116248D01*
X164317121Y-84063463D01*
X164286614Y-84010597D01*
X164256269Y-83958006D01*
X164226292Y-83906043D01*
X164196887Y-83855063D01*
X164168258Y-83805422D01*
X164140611Y-83757473D01*
X164114150Y-83711571D01*
X164089080Y-83668071D01*
X164065605Y-83627328D01*
X164043930Y-83589696D01*
X164024260Y-83555530D01*
X164006800Y-83525185D01*
X163991753Y-83499015D01*
X163979325Y-83477374D01*
X163969721Y-83460619D01*
X163963145Y-83449102D01*
X163959801Y-83443179D01*
X163959406Y-83442432D01*
X163961050Y-83439156D01*
X163966008Y-83430149D01*
X163974062Y-83415793D01*
X163984995Y-83396465D01*
X163998591Y-83372545D01*
X164014632Y-83344414D01*
X164032903Y-83312450D01*
X164053185Y-83277032D01*
X164075264Y-83238541D01*
X164098921Y-83197355D01*
X164123939Y-83153853D01*
X164150103Y-83108416D01*
X164166708Y-83079608D01*
X164198223Y-83024964D01*
X164226412Y-82976125D01*
X164251465Y-82932775D01*
X164273571Y-82894603D01*
X164292918Y-82861292D01*
X164309696Y-82832531D01*
X164324093Y-82808004D01*
X164336300Y-82787399D01*
X164346504Y-82770400D01*
X164354894Y-82756696D01*
X164361661Y-82745970D01*
X164366993Y-82737911D01*
X164371078Y-82732203D01*
X164374106Y-82728534D01*
X164376267Y-82726589D01*
X164377748Y-82726054D01*
X164378739Y-82726616D01*
X164379046Y-82727087D01*
X164383961Y-82735948D01*
X164391898Y-82749973D01*
X164402588Y-82768701D01*
X164415763Y-82791668D01*
X164431155Y-82818413D01*
X164448494Y-82848476D01*
X164467513Y-82881393D01*
X164487943Y-82916702D01*
X164509515Y-82953943D01*
X164531960Y-82992653D01*
X164555011Y-83032371D01*
X164578399Y-83072634D01*
X164601855Y-83112981D01*
X164625110Y-83152950D01*
X164647897Y-83192080D01*
X164669947Y-83229907D01*
X164690990Y-83265972D01*
X164710759Y-83299811D01*
X164728986Y-83330963D01*
X164745400Y-83358966D01*
X164759735Y-83383359D01*
X164771722Y-83403679D01*
X164781091Y-83419465D01*
X164787575Y-83430255D01*
X164790905Y-83435587D01*
X164791296Y-83436088D01*
X164793699Y-83433142D01*
X164799131Y-83424814D01*
X164807136Y-83411856D01*
X164817259Y-83395021D01*
X164829042Y-83375062D01*
X164842031Y-83352731D01*
X164846659Y-83344699D01*
X164899192Y-83253326D01*
X164482692Y-82532048D01*
X164573217Y-82375224D01*
X164590726Y-82344936D01*
X164607150Y-82316607D01*
X164622159Y-82290805D01*
X164635418Y-82268095D01*
X164646597Y-82249047D01*
X164655362Y-82234227D01*
X164661382Y-82224203D01*
X164664323Y-82219542D01*
X164664561Y-82219277D01*
X164664561Y-81829811D01*
X164591142Y-81702452D01*
X164570066Y-81665881D01*
X164549951Y-81630962D01*
X164531088Y-81598197D01*
X164513764Y-81568086D01*
X164498266Y-81541132D01*
X164484885Y-81517836D01*
X164473908Y-81498701D01*
X164465623Y-81484227D01*
X164460320Y-81474918D01*
X164458340Y-81471382D01*
X164454169Y-81463445D01*
X165482848Y-81463445D01*
X165482848Y-81276473D01*
X164288036Y-81276473D01*
X164288036Y-81572242D01*
X164290083Y-81574858D01*
X164295294Y-81583022D01*
X164303337Y-81596155D01*
X164313874Y-81613678D01*
X164326570Y-81635015D01*
X164341090Y-81659585D01*
X164357098Y-81686812D01*
X164374259Y-81716117D01*
X164392237Y-81746922D01*
X164410697Y-81778648D01*
X164429303Y-81810717D01*
X164447720Y-81842551D01*
X164465612Y-81873572D01*
X164482643Y-81903201D01*
X164498480Y-81930861D01*
X164512784Y-81955973D01*
X164525223Y-81977959D01*
X164535458Y-81996240D01*
X164543156Y-82010239D01*
X164547981Y-82019376D01*
X164549599Y-82023046D01*
X164547866Y-82026438D01*
X164542762Y-82035657D01*
X164534449Y-82050422D01*
X164523086Y-82070454D01*
X164508835Y-82095472D01*
X164491856Y-82125195D01*
X164472312Y-82159343D01*
X164450363Y-82197634D01*
X164426169Y-82239790D01*
X164399893Y-82285528D01*
X164371694Y-82334569D01*
X164341734Y-82386633D01*
X164310174Y-82441437D01*
X164277175Y-82498703D01*
X164242898Y-82558150D01*
X164207504Y-82619496D01*
X164171153Y-82682462D01*
X164168955Y-82686268D01*
X163788244Y-83345514D01*
X163524834Y-83346419D01*
X163522857Y-83346425D01*
X163522857Y-83534250D01*
X163786805Y-83534250D01*
X164168236Y-84194617D01*
X164204674Y-84257718D01*
X164240166Y-84319212D01*
X164274552Y-84378820D01*
X164307670Y-84436261D01*
X164339360Y-84491256D01*
X164369460Y-84543525D01*
X164397810Y-84592787D01*
X164424249Y-84638763D01*
X164448617Y-84681172D01*
X164470751Y-84719734D01*
X164490491Y-84754170D01*
X164507677Y-84784199D01*
X164522148Y-84809542D01*
X164533742Y-84829918D01*
X164542299Y-84845048D01*
X164547657Y-84854651D01*
X164549657Y-84858447D01*
X164549667Y-84858490D01*
X164547946Y-84862044D01*
X164542969Y-84871219D01*
X164535011Y-84885528D01*
X164524349Y-84904487D01*
X164511257Y-84927607D01*
X164496013Y-84954402D01*
X164478893Y-84984387D01*
X164460172Y-85017075D01*
X164440127Y-85051980D01*
X164420021Y-85086901D01*
X164398972Y-85123328D01*
X164378919Y-85157862D01*
X164360143Y-85190029D01*
X164342923Y-85219359D01*
X164327539Y-85245381D01*
X164314271Y-85267623D01*
X164303398Y-85285614D01*
X164295200Y-85298883D01*
X164289957Y-85306958D01*
X164287959Y-85309382D01*
X164286017Y-85306164D01*
X164280687Y-85297078D01*
X164272110Y-85282363D01*
X164260423Y-85262263D01*
X164245769Y-85237017D01*
X164228285Y-85206868D01*
X164208112Y-85172057D01*
X164185389Y-85132825D01*
X164160257Y-85089413D01*
X164132854Y-85042063D01*
X164103321Y-84991017D01*
X164071797Y-84936516D01*
X164038422Y-84878801D01*
X164003335Y-84818113D01*
X163966677Y-84754695D01*
X163928586Y-84688786D01*
X163889204Y-84620630D01*
X163848668Y-84550466D01*
X163807119Y-84478538D01*
X163775188Y-84423250D01*
X163732971Y-84350150D01*
X163691667Y-84278632D01*
X163651416Y-84208937D01*
X163612357Y-84141306D01*
X163574628Y-84075982D01*
X163538371Y-84013205D01*
X163503724Y-83953217D01*
X163470826Y-83896260D01*
X163439818Y-83842574D01*
X163410838Y-83792402D01*
X163384027Y-83745985D01*
X163359523Y-83703563D01*
X163337465Y-83665379D01*
X163317995Y-83631675D01*
X163301250Y-83602690D01*
X163287371Y-83578668D01*
X163276496Y-83559849D01*
X163268765Y-83546475D01*
X163264319Y-83538787D01*
X163263222Y-83536896D01*
X163266394Y-83536470D01*
X163276079Y-83536065D01*
X163291734Y-83535686D01*
X163312815Y-83535340D01*
X163338780Y-83535032D01*
X163369086Y-83534767D01*
X163403189Y-83534551D01*
X163440548Y-83534389D01*
X163480618Y-83534287D01*
X163522857Y-83534250D01*
X163522857Y-83346425D01*
X163261425Y-83347323D01*
X163268480Y-83335835D01*
X163270813Y-83331855D01*
X163276531Y-83322011D01*
X163285492Y-83306548D01*
X163297553Y-83285712D01*
X163312573Y-83259749D01*
X163330409Y-83228905D01*
X163350920Y-83193427D01*
X163373963Y-83153560D01*
X163399396Y-83109550D01*
X163427077Y-83061643D01*
X163456864Y-83010085D01*
X163488615Y-82955123D01*
X163522187Y-82897001D01*
X163557439Y-82835967D01*
X163594228Y-82772265D01*
X163632412Y-82706143D01*
X163671850Y-82637845D01*
X163712398Y-82567619D01*
X163753915Y-82495709D01*
X163780617Y-82449459D01*
X163822610Y-82376725D01*
X163863695Y-82305576D01*
X163903731Y-82236255D01*
X163942578Y-82169005D01*
X163980095Y-82104067D01*
X164016143Y-82041685D01*
X164050581Y-81982101D01*
X164083268Y-81925559D01*
X164114064Y-81872299D01*
X164142829Y-81822566D01*
X164169423Y-81776601D01*
X164193704Y-81734648D01*
X164215534Y-81696948D01*
X164234771Y-81663745D01*
X164251276Y-81635281D01*
X164264907Y-81611799D01*
X164275524Y-81593541D01*
X164282988Y-81580750D01*
X164287158Y-81573669D01*
X164288036Y-81572242D01*
X164288036Y-81276473D01*
X164233228Y-81276473D01*
X163609457Y-82356850D01*
X163562750Y-82437757D01*
X163516954Y-82517109D01*
X163472194Y-82594687D01*
X163428595Y-82670274D01*
X163386283Y-82743650D01*
X163345385Y-82814597D01*
X163306024Y-82882897D01*
X163268329Y-82948330D01*
X163232423Y-83010680D01*
X163198433Y-83069726D01*
X163166484Y-83125251D01*
X163136702Y-83177036D01*
X163109214Y-83224863D01*
X163084143Y-83268513D01*
X163061617Y-83307767D01*
X163041761Y-83342408D01*
X163024700Y-83372216D01*
X163010560Y-83396973D01*
X162999468Y-83416461D01*
X162991548Y-83430461D01*
X162986927Y-83438755D01*
X162985685Y-83441153D01*
X162987424Y-83444549D01*
X162987424Y-83444549D01*
G37*
X162987424Y-83444549D02*
X162992529Y-83453765D01*
X163000834Y-83468510D01*
X163012174Y-83488497D01*
X163026383Y-83513436D01*
X163043296Y-83543039D01*
X163062746Y-83577017D01*
X163084568Y-83615080D01*
X163108596Y-83656941D01*
X163134664Y-83702310D01*
X163162607Y-83750898D01*
X163192259Y-83802417D01*
X163223453Y-83856577D01*
X163256025Y-83913091D01*
X163289809Y-83971668D01*
X163324638Y-84032020D01*
X163345029Y-84067338D01*
X163407610Y-84175705D01*
X163466786Y-84278179D01*
X163522683Y-84374974D01*
X163575425Y-84466306D01*
X163625136Y-84552391D01*
X163671942Y-84633445D01*
X163715966Y-84709682D01*
X163757333Y-84781318D01*
X163796167Y-84848570D01*
X163832594Y-84911653D01*
X163866737Y-84970783D01*
X163898722Y-85026174D01*
X163928672Y-85078044D01*
X163956712Y-85126606D01*
X163982967Y-85172078D01*
X164007561Y-85214675D01*
X164030619Y-85254611D01*
X164052265Y-85292104D01*
X164072624Y-85327369D01*
X164091820Y-85360620D01*
X164109977Y-85392075D01*
X164127221Y-85421948D01*
X164130591Y-85427785D01*
X164232916Y-85605056D01*
X166732612Y-85605056D01*
X166834937Y-85427785D01*
X166853736Y-85395217D01*
X166875512Y-85357497D01*
X166899710Y-85315581D01*
X166925779Y-85270425D01*
X166953166Y-85222989D01*
X166981319Y-85174227D01*
X167009684Y-85125098D01*
X167037710Y-85076559D01*
X167064843Y-85029566D01*
X167086984Y-84991223D01*
X167156752Y-84870397D01*
X167223065Y-84755552D01*
X167285997Y-84646562D01*
X167345623Y-84543296D01*
X167402016Y-84445628D01*
X167455250Y-84353429D01*
X167505399Y-84266571D01*
X167552538Y-84184926D01*
X167596739Y-84108366D01*
X167638077Y-84036762D01*
X167676627Y-83969987D01*
X167712461Y-83907911D01*
X167745654Y-83850409D01*
X167776279Y-83797350D01*
X167804412Y-83748607D01*
X167830125Y-83704052D01*
X167853493Y-83663556D01*
X167874590Y-83626992D01*
X167893489Y-83594232D01*
X167910264Y-83565146D01*
X167924990Y-83539608D01*
X167937741Y-83517489D01*
X167948590Y-83498660D01*
X167957611Y-83482994D01*
X167964879Y-83470363D01*
X167970467Y-83460638D01*
X167974449Y-83453692D01*
X167976899Y-83449395D01*
X167977879Y-83447644D01*
X167977889Y-83446411D01*
X167977138Y-83443937D01*
X167975525Y-83440043D01*
X167972946Y-83434549D01*
X167969299Y-83427272D01*
X167964480Y-83418033D01*
X167958386Y-83406650D01*
X167950916Y-83392944D01*
X167941964Y-83376734D01*
X167931429Y-83357839D01*
X167919208Y-83336078D01*
X167905197Y-83311271D01*
X167889294Y-83283237D01*
X167871396Y-83251795D01*
X167851399Y-83216766D01*
X167829201Y-83177967D01*
X167804699Y-83135219D01*
X167777790Y-83088341D01*
X167748370Y-83037153D01*
X167716338Y-82981473D01*
X167704103Y-82960224D01*
X167704103Y-83534205D01*
X167697071Y-83545693D01*
X167694740Y-83549673D01*
X167689025Y-83559518D01*
X167680067Y-83574981D01*
X167668008Y-83595818D01*
X167652991Y-83621781D01*
X167635157Y-83652625D01*
X167614649Y-83688104D01*
X167591610Y-83727972D01*
X167566180Y-83771983D01*
X167538502Y-83819891D01*
X167508719Y-83871449D01*
X167476972Y-83926413D01*
X167443403Y-83984535D01*
X167408155Y-84045571D01*
X167371369Y-84109273D01*
X167333189Y-84175397D01*
X167293755Y-84243695D01*
X167253210Y-84313923D01*
X167211696Y-84385833D01*
X167185005Y-84432070D01*
X167143015Y-84504805D01*
X167101932Y-84575956D01*
X167061898Y-84645280D01*
X167023052Y-84712533D01*
X166985536Y-84777474D01*
X166949488Y-84839860D01*
X166915051Y-84899447D01*
X166882363Y-84955994D01*
X166851566Y-85009257D01*
X166822799Y-85058995D01*
X166796204Y-85104964D01*
X166771920Y-85146922D01*
X166750088Y-85184626D01*
X166730848Y-85217833D01*
X166714341Y-85246301D01*
X166700706Y-85269787D01*
X166690085Y-85288049D01*
X166682617Y-85300844D01*
X166678444Y-85307929D01*
X166677563Y-85309358D01*
X166675526Y-85306732D01*
X166670318Y-85298563D01*
X166662277Y-85285430D01*
X166651740Y-85267915D01*
X166639042Y-85246595D01*
X166624522Y-85222051D01*
X166608515Y-85194861D01*
X166591359Y-85165606D01*
X166573391Y-85134865D01*
X166554947Y-85103217D01*
X166536364Y-85071242D01*
X166517980Y-85039519D01*
X166500131Y-85008628D01*
X166483154Y-84979148D01*
X166467385Y-84951659D01*
X166453163Y-84926741D01*
X166440822Y-84904972D01*
X166430702Y-84886932D01*
X166423137Y-84873202D01*
X166418466Y-84864359D01*
X166417039Y-84861196D01*
X166418633Y-84857606D01*
X166423616Y-84848171D01*
X166431838Y-84833155D01*
X166443152Y-84812819D01*
X166457406Y-84787423D01*
X166474454Y-84757228D01*
X166494146Y-84722498D01*
X166516332Y-84683491D01*
X166540864Y-84640471D01*
X166567593Y-84593698D01*
X166596369Y-84543433D01*
X166627045Y-84489938D01*
X166659471Y-84433474D01*
X166693497Y-84374303D01*
X166728975Y-84312686D01*
X166765757Y-84248883D01*
X166796444Y-84195709D01*
X167177341Y-83536014D01*
X167440722Y-83535110D01*
X167704103Y-83534205D01*
X167704103Y-82960224D01*
X167681589Y-82921121D01*
X167644021Y-82855917D01*
X167603531Y-82785679D01*
X167560016Y-82710228D01*
X167513373Y-82629382D01*
X167463499Y-82542961D01*
X167410291Y-82450784D01*
X167356978Y-82358443D01*
X166732270Y-81276473D01*
X166676917Y-81276473D01*
X166676917Y-81571642D01*
X166678804Y-81574788D01*
X166684079Y-81583805D01*
X166692602Y-81598451D01*
X166704235Y-81618486D01*
X166718837Y-81643668D01*
X166736270Y-81673757D01*
X166756394Y-81708513D01*
X166779071Y-81747694D01*
X166804160Y-81791060D01*
X166831523Y-81838369D01*
X166861020Y-81889382D01*
X166892513Y-81943857D01*
X166925861Y-82001554D01*
X166960927Y-82062231D01*
X166997569Y-82125649D01*
X167035650Y-82191566D01*
X167075030Y-82259741D01*
X167115570Y-82329935D01*
X167157130Y-82401905D01*
X167190307Y-82459366D01*
X167701933Y-83345514D01*
X167440978Y-83346419D01*
X167398686Y-83346530D01*
X167358451Y-83346567D01*
X167320830Y-83346534D01*
X167286378Y-83346435D01*
X167255653Y-83346272D01*
X167229211Y-83346051D01*
X167207609Y-83345774D01*
X167191402Y-83345445D01*
X167181148Y-83345068D01*
X167177410Y-83344655D01*
X167175264Y-83341226D01*
X167169807Y-83332037D01*
X167161236Y-83317427D01*
X167149746Y-83297738D01*
X167135536Y-83273309D01*
X167118799Y-83244481D01*
X167099734Y-83211596D01*
X167078536Y-83174992D01*
X167055401Y-83135012D01*
X167030526Y-83091995D01*
X167004106Y-83046282D01*
X166976339Y-82998214D01*
X166947420Y-82948131D01*
X166917547Y-82896373D01*
X166886914Y-82843282D01*
X166855718Y-82789198D01*
X166824156Y-82734460D01*
X166792424Y-82679411D01*
X166760718Y-82624389D01*
X166729234Y-82569737D01*
X166698169Y-82515794D01*
X166667719Y-82462901D01*
X166638080Y-82411399D01*
X166609449Y-82361628D01*
X166582021Y-82313928D01*
X166555994Y-82268641D01*
X166531562Y-82226106D01*
X166508924Y-82186664D01*
X166488274Y-82150656D01*
X166469809Y-82118423D01*
X166453725Y-82090304D01*
X166440220Y-82066641D01*
X166429488Y-82047774D01*
X166421726Y-82034043D01*
X166417131Y-82025789D01*
X166415861Y-82023332D01*
X166417569Y-82019638D01*
X166422468Y-82010494D01*
X166430225Y-81996481D01*
X166440505Y-81978177D01*
X166452972Y-81956162D01*
X166467293Y-81931014D01*
X166483132Y-81903312D01*
X166500155Y-81873636D01*
X166518027Y-81842565D01*
X166536414Y-81810677D01*
X166554981Y-81778552D01*
X166573394Y-81746768D01*
X166591316Y-81715906D01*
X166608415Y-81686543D01*
X166624355Y-81659260D01*
X166638802Y-81634634D01*
X166651420Y-81613246D01*
X166661876Y-81595674D01*
X166669834Y-81582497D01*
X166674960Y-81574294D01*
X166676917Y-81571642D01*
X166676917Y-81276473D01*
X165482848Y-81276473D01*
X165482848Y-81463445D01*
X165567548Y-81463454D01*
X165650394Y-81463480D01*
X165731112Y-81463523D01*
X165809424Y-81463582D01*
X165885054Y-81463657D01*
X165957727Y-81463746D01*
X166027166Y-81463849D01*
X166093095Y-81463965D01*
X166155239Y-81464093D01*
X166213320Y-81464233D01*
X166267064Y-81464385D01*
X166316194Y-81464546D01*
X166360434Y-81464717D01*
X166399507Y-81464897D01*
X166433139Y-81465086D01*
X166461052Y-81465281D01*
X166482970Y-81465484D01*
X166498618Y-81465693D01*
X166507720Y-81465906D01*
X166510103Y-81466091D01*
X166508153Y-81469502D01*
X166502954Y-81478544D01*
X166494784Y-81492737D01*
X166483919Y-81511600D01*
X166470637Y-81534652D01*
X166455214Y-81561414D01*
X166437928Y-81591404D01*
X166419054Y-81624143D01*
X166398871Y-81659148D01*
X166377655Y-81695941D01*
X166376952Y-81697160D01*
X166245225Y-81925584D01*
X165121512Y-81925584D01*
X165121512Y-82113074D01*
X165172154Y-82113077D01*
X165228348Y-82113103D01*
X165290381Y-82113151D01*
X165358538Y-82113218D01*
X165433106Y-82113302D01*
X165514371Y-82113402D01*
X165536093Y-82113429D01*
X166241124Y-82114320D01*
X166596596Y-82729917D01*
X166952069Y-83345514D01*
X166451051Y-83346147D01*
X166451051Y-83534995D01*
X166514453Y-83535011D01*
X166574911Y-83535056D01*
X166632092Y-83535128D01*
X166685667Y-83535226D01*
X166735305Y-83535349D01*
X166780673Y-83535496D01*
X166821442Y-83535666D01*
X166857280Y-83535859D01*
X166887857Y-83536073D01*
X166912841Y-83536307D01*
X166931902Y-83536560D01*
X166944708Y-83536831D01*
X166950929Y-83537119D01*
X166951498Y-83537245D01*
X166949644Y-83540554D01*
X166944429Y-83549682D01*
X166936020Y-83564339D01*
X166924585Y-83584234D01*
X166910291Y-83609078D01*
X166893307Y-83638578D01*
X166873798Y-83672446D01*
X166851934Y-83710390D01*
X166827880Y-83752119D01*
X166801805Y-83797344D01*
X166773877Y-83845774D01*
X166744261Y-83897118D01*
X166713127Y-83951086D01*
X166680641Y-84007387D01*
X166646971Y-84065730D01*
X166612285Y-84125826D01*
X166596175Y-84153733D01*
X166561052Y-84214564D01*
X166526842Y-84273787D01*
X166493715Y-84331111D01*
X166461839Y-84386243D01*
X166431385Y-84438894D01*
X166402520Y-84488770D01*
X166375414Y-84535581D01*
X166350236Y-84579035D01*
X166327155Y-84618840D01*
X166306340Y-84654706D01*
X166287959Y-84686339D01*
X166272183Y-84713449D01*
X166259179Y-84735745D01*
X166249118Y-84752934D01*
X166249036Y-84753073D01*
X166249036Y-84962984D01*
X166378017Y-85186124D01*
X166506997Y-85409264D01*
X165996047Y-85410158D01*
X165924547Y-85410268D01*
X165847128Y-85410358D01*
X165764927Y-85410429D01*
X165679080Y-85410481D01*
X165590726Y-85410513D01*
X165500999Y-85410526D01*
X165411038Y-85410520D01*
X165321978Y-85410495D01*
X165234957Y-85410450D01*
X165151111Y-85410386D01*
X165071578Y-85410303D01*
X164997493Y-85410201D01*
X164971790Y-85410158D01*
X164458481Y-85409264D01*
X164586806Y-85187014D01*
X164715132Y-84964764D01*
X166249036Y-84962984D01*
X166249036Y-84753073D01*
X166242167Y-84764725D01*
X166238496Y-84770827D01*
X166237960Y-84771638D01*
X166235875Y-84772445D01*
X166230953Y-84773144D01*
X166222818Y-84773741D01*
X166211091Y-84774239D01*
X166195397Y-84774643D01*
X166175359Y-84774957D01*
X166150599Y-84775185D01*
X166120741Y-84775333D01*
X166085409Y-84775404D01*
X166044224Y-84775402D01*
X165996811Y-84775332D01*
X165942793Y-84775199D01*
X165931518Y-84775166D01*
X165629146Y-84774264D01*
X165649603Y-84738986D01*
X165659221Y-84722367D01*
X165668893Y-84705603D01*
X165677280Y-84691013D01*
X165681622Y-84683424D01*
X165693185Y-84663139D01*
X165506227Y-84663139D01*
X165473508Y-84719584D01*
X165440788Y-84776028D01*
X165132602Y-84776028D01*
X165086688Y-84775999D01*
X165042877Y-84775913D01*
X165001671Y-84775775D01*
X164963572Y-84775590D01*
X164929082Y-84775362D01*
X164898703Y-84775095D01*
X164872937Y-84774793D01*
X164852287Y-84774461D01*
X164837253Y-84774104D01*
X164828338Y-84773725D01*
X164825949Y-84773382D01*
X164827848Y-84770093D01*
X164833094Y-84761006D01*
X164841504Y-84746436D01*
X164852899Y-84726695D01*
X164867097Y-84702097D01*
X164883918Y-84672956D01*
X164903180Y-84639584D01*
X164924703Y-84602296D01*
X164948305Y-84561405D01*
X164973806Y-84517223D01*
X165001026Y-84470066D01*
X165029782Y-84420245D01*
X165059895Y-84368074D01*
X165091182Y-84313868D01*
X165123464Y-84257939D01*
X165131894Y-84243334D01*
X165165308Y-84185444D01*
X165198310Y-84128268D01*
X165230678Y-84072193D01*
X165262189Y-84017605D01*
X165292619Y-83964889D01*
X165321746Y-83914433D01*
X165349347Y-83866622D01*
X165375198Y-83821842D01*
X165399078Y-83780480D01*
X165420762Y-83742922D01*
X165440028Y-83709554D01*
X165456653Y-83680763D01*
X165470414Y-83656934D01*
X165481088Y-83638454D01*
X165488299Y-83625973D01*
X165540292Y-83536014D01*
X166246485Y-83535124D01*
X166316736Y-83535050D01*
X166385035Y-83535007D01*
X166451051Y-83534995D01*
X166451051Y-83346147D01*
X166247588Y-83346405D01*
X166177590Y-83346480D01*
X166109472Y-83346528D01*
X166043567Y-83346549D01*
X165980214Y-83346543D01*
X165919746Y-83346513D01*
X165862500Y-83346458D01*
X165808813Y-83346379D01*
X165759020Y-83346278D01*
X165713456Y-83346154D01*
X165672458Y-83346010D01*
X165636362Y-83345846D01*
X165605503Y-83345662D01*
X165580218Y-83345460D01*
X165560842Y-83345240D01*
X165547711Y-83345003D01*
X165541161Y-83344750D01*
X165540456Y-83344641D01*
X165538364Y-83341294D01*
X165533082Y-83332397D01*
X165524923Y-83318495D01*
X165514201Y-83300132D01*
X165501231Y-83277853D01*
X165486328Y-83252200D01*
X165469805Y-83223720D01*
X165451977Y-83192955D01*
X165433158Y-83160450D01*
X165413663Y-83126748D01*
X165393806Y-83092395D01*
X165373902Y-83057935D01*
X165354265Y-83023911D01*
X165335209Y-82990867D01*
X165317048Y-82959349D01*
X165300098Y-82929899D01*
X165284672Y-82903063D01*
X165271084Y-82879383D01*
X165259650Y-82859406D01*
X165250683Y-82843674D01*
X165244498Y-82832732D01*
X165241410Y-82827123D01*
X165241111Y-82826491D01*
X165244560Y-82826306D01*
X165254591Y-82826128D01*
X165270731Y-82825960D01*
X165292505Y-82825803D01*
X165319441Y-82825660D01*
X165351066Y-82825531D01*
X165386905Y-82825419D01*
X165426485Y-82825325D01*
X165469333Y-82825251D01*
X165514974Y-82825199D01*
X165562937Y-82825172D01*
X165592125Y-82825167D01*
X165641232Y-82825141D01*
X165688295Y-82825065D01*
X165732842Y-82824944D01*
X165774399Y-82824780D01*
X165812492Y-82824577D01*
X165846649Y-82824338D01*
X165876397Y-82824068D01*
X165901261Y-82823770D01*
X165920769Y-82823447D01*
X165934447Y-82823103D01*
X165941823Y-82822741D01*
X165943026Y-82822521D01*
X165941293Y-82818910D01*
X165936447Y-82809984D01*
X165928928Y-82796524D01*
X165919177Y-82779311D01*
X165907635Y-82759126D01*
X165894740Y-82736749D01*
X165890785Y-82729917D01*
X165838657Y-82639959D01*
X165130681Y-82636431D01*
X164982662Y-82380667D01*
X164960058Y-82341573D01*
X164938463Y-82304155D01*
X164918142Y-82268874D01*
X164899357Y-82236189D01*
X164882372Y-82206563D01*
X164867450Y-82180455D01*
X164854856Y-82158326D01*
X164844852Y-82140637D01*
X164837701Y-82127848D01*
X164833668Y-82120421D01*
X164832852Y-82118721D01*
X164832881Y-82117993D01*
X164833598Y-82117326D01*
X164835290Y-82116716D01*
X164838242Y-82116163D01*
X164842741Y-82115663D01*
X164849073Y-82115215D01*
X164857523Y-82114816D01*
X164868379Y-82114465D01*
X164881925Y-82114158D01*
X164898449Y-82113895D01*
X164918236Y-82113673D01*
X164941573Y-82113489D01*
X164968745Y-82113341D01*
X165000039Y-82113228D01*
X165035741Y-82113147D01*
X165076136Y-82113097D01*
X165121512Y-82113074D01*
X165121512Y-81925584D01*
X164719772Y-81925584D01*
X164664561Y-81829811D01*
X164664561Y-82219277D01*
X164666666Y-82222682D01*
X164672071Y-82231835D01*
X164680573Y-82246382D01*
X164691967Y-82265968D01*
X164706051Y-82290239D01*
X164722620Y-82318841D01*
X164741470Y-82351420D01*
X164762397Y-82387622D01*
X164785198Y-82427092D01*
X164809668Y-82469478D01*
X164835604Y-82514423D01*
X164862802Y-82561575D01*
X164891058Y-82610579D01*
X164920167Y-82661082D01*
X164949927Y-82712728D01*
X164980133Y-82765164D01*
X165010581Y-82818036D01*
X165041067Y-82870989D01*
X165071388Y-82923670D01*
X165101340Y-82975724D01*
X165130718Y-83026798D01*
X165159319Y-83076536D01*
X165186939Y-83124585D01*
X165213374Y-83170592D01*
X165238420Y-83214201D01*
X165261873Y-83255058D01*
X165283530Y-83292810D01*
X165303186Y-83327102D01*
X165320638Y-83357581D01*
X165335682Y-83383891D01*
X165348113Y-83405680D01*
X165357728Y-83422592D01*
X165364323Y-83434274D01*
X165367695Y-83440372D01*
X165368108Y-83441213D01*
X165366388Y-83444913D01*
X165361436Y-83454163D01*
X165353562Y-83468411D01*
X165343079Y-83487106D01*
X165330298Y-83509698D01*
X165315530Y-83535635D01*
X165299088Y-83564365D01*
X165281283Y-83595338D01*
X165265381Y-83622894D01*
X165242186Y-83663026D01*
X165216455Y-83707562D01*
X165189076Y-83754964D01*
X165160936Y-83803696D01*
X165132924Y-83852219D01*
X165105926Y-83898996D01*
X165080832Y-83942489D01*
X165061952Y-83975223D01*
X165043338Y-84007486D01*
X165025699Y-84038024D01*
X165009365Y-84066272D01*
X164994664Y-84091661D01*
X164981925Y-84113627D01*
X164971475Y-84131601D01*
X164963644Y-84145019D01*
X164958760Y-84153312D01*
X164957230Y-84155827D01*
X164955449Y-84157010D01*
X164952811Y-84155687D01*
X164948875Y-84151229D01*
X164943201Y-84143004D01*
X164935347Y-84130385D01*
X164924872Y-84112742D01*
X164914024Y-84094091D01*
X164906366Y-84080847D01*
X164895512Y-84062066D01*
X164881793Y-84038319D01*
X164865540Y-84010180D01*
X164847084Y-83978223D01*
X164826755Y-83943019D01*
X164804886Y-83905142D01*
X164781805Y-83865165D01*
X164757845Y-83823661D01*
X164733336Y-83781202D01*
X164711952Y-83744153D01*
X164688156Y-83702934D01*
X164665272Y-83663311D01*
X164643559Y-83625731D01*
X164623274Y-83590641D01*
X164604676Y-83558485D01*
X164588022Y-83529711D01*
X164573572Y-83504763D01*
X164561583Y-83484089D01*
X164552313Y-83468134D01*
X164546021Y-83457344D01*
X164542964Y-83452166D01*
X164542825Y-83451940D01*
X164536591Y-83441949D01*
X164487986Y-83526023D01*
X164474960Y-83548557D01*
X164462862Y-83569488D01*
X164452212Y-83587918D01*
X164443526Y-83602950D01*
X164437325Y-83613687D01*
X164434125Y-83619233D01*
X164434093Y-83619289D01*
X164433357Y-83620799D01*
X164432965Y-83622608D01*
X164433101Y-83625051D01*
X164433948Y-83628462D01*
X164435689Y-83633175D01*
X164438508Y-83639525D01*
X164442588Y-83647845D01*
X164448113Y-83658471D01*
X164455265Y-83671737D01*
X164464229Y-83687976D01*
X164475187Y-83707523D01*
X164488324Y-83730713D01*
X164503821Y-83757880D01*
X164521864Y-83789358D01*
X164542634Y-83825482D01*
X164566316Y-83866585D01*
X164593093Y-83913002D01*
X164623148Y-83965068D01*
X164635354Y-83986207D01*
X164662070Y-84032492D01*
X164687800Y-84077098D01*
X164712323Y-84119643D01*
X164735421Y-84159743D01*
X164756872Y-84197014D01*
X164776457Y-84231075D01*
X164793955Y-84261541D01*
X164809146Y-84288029D01*
X164821810Y-84310157D01*
X164831727Y-84327540D01*
X164838676Y-84339795D01*
X164842438Y-84346540D01*
X164843070Y-84347767D01*
X164841639Y-84351552D01*
X164837061Y-84360624D01*
X164829734Y-84374291D01*
X164820061Y-84391860D01*
X164808441Y-84412637D01*
X164795275Y-84435929D01*
X164780964Y-84461044D01*
X164765908Y-84487289D01*
X164750509Y-84513970D01*
X164735165Y-84540395D01*
X164720279Y-84565871D01*
X164706251Y-84589704D01*
X164693480Y-84611201D01*
X164682369Y-84629670D01*
X164673317Y-84644418D01*
X164666724Y-84654751D01*
X164662993Y-84659976D01*
X164662324Y-84660457D01*
X164660364Y-84657193D01*
X164655088Y-84648175D01*
X164646699Y-84633756D01*
X164635404Y-84614292D01*
X164621405Y-84590136D01*
X164604909Y-84561644D01*
X164586119Y-84529171D01*
X164565241Y-84493070D01*
X164542479Y-84453697D01*
X164518038Y-84411406D01*
X164492122Y-84366552D01*
X164464936Y-84319490D01*
X164436685Y-84270574D01*
X164407573Y-84220158D01*
X164377806Y-84168598D01*
X164347587Y-84116248D01*
X164317121Y-84063463D01*
X164286614Y-84010597D01*
X164256269Y-83958006D01*
X164226292Y-83906043D01*
X164196887Y-83855063D01*
X164168258Y-83805422D01*
X164140611Y-83757473D01*
X164114150Y-83711571D01*
X164089080Y-83668071D01*
X164065605Y-83627328D01*
X164043930Y-83589696D01*
X164024260Y-83555530D01*
X164006800Y-83525185D01*
X163991753Y-83499015D01*
X163979325Y-83477374D01*
X163969721Y-83460619D01*
X163963145Y-83449102D01*
X163959801Y-83443179D01*
X163959406Y-83442432D01*
X163961050Y-83439156D01*
X163966008Y-83430149D01*
X163974062Y-83415793D01*
X163984995Y-83396465D01*
X163998591Y-83372545D01*
X164014632Y-83344414D01*
X164032903Y-83312450D01*
X164053185Y-83277032D01*
X164075264Y-83238541D01*
X164098921Y-83197355D01*
X164123939Y-83153853D01*
X164150103Y-83108416D01*
X164166708Y-83079608D01*
X164198223Y-83024964D01*
X164226412Y-82976125D01*
X164251465Y-82932775D01*
X164273571Y-82894603D01*
X164292918Y-82861292D01*
X164309696Y-82832531D01*
X164324093Y-82808004D01*
X164336300Y-82787399D01*
X164346504Y-82770400D01*
X164354894Y-82756696D01*
X164361661Y-82745970D01*
X164366993Y-82737911D01*
X164371078Y-82732203D01*
X164374106Y-82728534D01*
X164376267Y-82726589D01*
X164377748Y-82726054D01*
X164378739Y-82726616D01*
X164379046Y-82727087D01*
X164383961Y-82735948D01*
X164391898Y-82749973D01*
X164402588Y-82768701D01*
X164415763Y-82791668D01*
X164431155Y-82818413D01*
X164448494Y-82848476D01*
X164467513Y-82881393D01*
X164487943Y-82916702D01*
X164509515Y-82953943D01*
X164531960Y-82992653D01*
X164555011Y-83032371D01*
X164578399Y-83072634D01*
X164601855Y-83112981D01*
X164625110Y-83152950D01*
X164647897Y-83192080D01*
X164669947Y-83229907D01*
X164690990Y-83265972D01*
X164710759Y-83299811D01*
X164728986Y-83330963D01*
X164745400Y-83358966D01*
X164759735Y-83383359D01*
X164771722Y-83403679D01*
X164781091Y-83419465D01*
X164787575Y-83430255D01*
X164790905Y-83435587D01*
X164791296Y-83436088D01*
X164793699Y-83433142D01*
X164799131Y-83424814D01*
X164807136Y-83411856D01*
X164817259Y-83395021D01*
X164829042Y-83375062D01*
X164842031Y-83352731D01*
X164846659Y-83344699D01*
X164899192Y-83253326D01*
X164482692Y-82532048D01*
X164573217Y-82375224D01*
X164590726Y-82344936D01*
X164607150Y-82316607D01*
X164622159Y-82290805D01*
X164635418Y-82268095D01*
X164646597Y-82249047D01*
X164655362Y-82234227D01*
X164661382Y-82224203D01*
X164664323Y-82219542D01*
X164664561Y-82219277D01*
X164664561Y-81829811D01*
X164591142Y-81702452D01*
X164570066Y-81665881D01*
X164549951Y-81630962D01*
X164531088Y-81598197D01*
X164513764Y-81568086D01*
X164498266Y-81541132D01*
X164484885Y-81517836D01*
X164473908Y-81498701D01*
X164465623Y-81484227D01*
X164460320Y-81474918D01*
X164458340Y-81471382D01*
X164454169Y-81463445D01*
X165482848Y-81463445D01*
X165482848Y-81276473D01*
X164288036Y-81276473D01*
X164288036Y-81572242D01*
X164290083Y-81574858D01*
X164295294Y-81583022D01*
X164303337Y-81596155D01*
X164313874Y-81613678D01*
X164326570Y-81635015D01*
X164341090Y-81659585D01*
X164357098Y-81686812D01*
X164374259Y-81716117D01*
X164392237Y-81746922D01*
X164410697Y-81778648D01*
X164429303Y-81810717D01*
X164447720Y-81842551D01*
X164465612Y-81873572D01*
X164482643Y-81903201D01*
X164498480Y-81930861D01*
X164512784Y-81955973D01*
X164525223Y-81977959D01*
X164535458Y-81996240D01*
X164543156Y-82010239D01*
X164547981Y-82019376D01*
X164549599Y-82023046D01*
X164547866Y-82026438D01*
X164542762Y-82035657D01*
X164534449Y-82050422D01*
X164523086Y-82070454D01*
X164508835Y-82095472D01*
X164491856Y-82125195D01*
X164472312Y-82159343D01*
X164450363Y-82197634D01*
X164426169Y-82239790D01*
X164399893Y-82285528D01*
X164371694Y-82334569D01*
X164341734Y-82386633D01*
X164310174Y-82441437D01*
X164277175Y-82498703D01*
X164242898Y-82558150D01*
X164207504Y-82619496D01*
X164171153Y-82682462D01*
X164168955Y-82686268D01*
X163788244Y-83345514D01*
X163524834Y-83346419D01*
X163522857Y-83346425D01*
X163522857Y-83534250D01*
X163786805Y-83534250D01*
X164168236Y-84194617D01*
X164204674Y-84257718D01*
X164240166Y-84319212D01*
X164274552Y-84378820D01*
X164307670Y-84436261D01*
X164339360Y-84491256D01*
X164369460Y-84543525D01*
X164397810Y-84592787D01*
X164424249Y-84638763D01*
X164448617Y-84681172D01*
X164470751Y-84719734D01*
X164490491Y-84754170D01*
X164507677Y-84784199D01*
X164522148Y-84809542D01*
X164533742Y-84829918D01*
X164542299Y-84845048D01*
X164547657Y-84854651D01*
X164549657Y-84858447D01*
X164549667Y-84858490D01*
X164547946Y-84862044D01*
X164542969Y-84871219D01*
X164535011Y-84885528D01*
X164524349Y-84904487D01*
X164511257Y-84927607D01*
X164496013Y-84954402D01*
X164478893Y-84984387D01*
X164460172Y-85017075D01*
X164440127Y-85051980D01*
X164420021Y-85086901D01*
X164398972Y-85123328D01*
X164378919Y-85157862D01*
X164360143Y-85190029D01*
X164342923Y-85219359D01*
X164327539Y-85245381D01*
X164314271Y-85267623D01*
X164303398Y-85285614D01*
X164295200Y-85298883D01*
X164289957Y-85306958D01*
X164287959Y-85309382D01*
X164286017Y-85306164D01*
X164280687Y-85297078D01*
X164272110Y-85282363D01*
X164260423Y-85262263D01*
X164245769Y-85237017D01*
X164228285Y-85206868D01*
X164208112Y-85172057D01*
X164185389Y-85132825D01*
X164160257Y-85089413D01*
X164132854Y-85042063D01*
X164103321Y-84991017D01*
X164071797Y-84936516D01*
X164038422Y-84878801D01*
X164003335Y-84818113D01*
X163966677Y-84754695D01*
X163928586Y-84688786D01*
X163889204Y-84620630D01*
X163848668Y-84550466D01*
X163807119Y-84478538D01*
X163775188Y-84423250D01*
X163732971Y-84350150D01*
X163691667Y-84278632D01*
X163651416Y-84208937D01*
X163612357Y-84141306D01*
X163574628Y-84075982D01*
X163538371Y-84013205D01*
X163503724Y-83953217D01*
X163470826Y-83896260D01*
X163439818Y-83842574D01*
X163410838Y-83792402D01*
X163384027Y-83745985D01*
X163359523Y-83703563D01*
X163337465Y-83665379D01*
X163317995Y-83631675D01*
X163301250Y-83602690D01*
X163287371Y-83578668D01*
X163276496Y-83559849D01*
X163268765Y-83546475D01*
X163264319Y-83538787D01*
X163263222Y-83536896D01*
X163266394Y-83536470D01*
X163276079Y-83536065D01*
X163291734Y-83535686D01*
X163312815Y-83535340D01*
X163338780Y-83535032D01*
X163369086Y-83534767D01*
X163403189Y-83534551D01*
X163440548Y-83534389D01*
X163480618Y-83534287D01*
X163522857Y-83534250D01*
X163522857Y-83346425D01*
X163261425Y-83347323D01*
X163268480Y-83335835D01*
X163270813Y-83331855D01*
X163276531Y-83322011D01*
X163285492Y-83306548D01*
X163297553Y-83285712D01*
X163312573Y-83259749D01*
X163330409Y-83228905D01*
X163350920Y-83193427D01*
X163373963Y-83153560D01*
X163399396Y-83109550D01*
X163427077Y-83061643D01*
X163456864Y-83010085D01*
X163488615Y-82955123D01*
X163522187Y-82897001D01*
X163557439Y-82835967D01*
X163594228Y-82772265D01*
X163632412Y-82706143D01*
X163671850Y-82637845D01*
X163712398Y-82567619D01*
X163753915Y-82495709D01*
X163780617Y-82449459D01*
X163822610Y-82376725D01*
X163863695Y-82305576D01*
X163903731Y-82236255D01*
X163942578Y-82169005D01*
X163980095Y-82104067D01*
X164016143Y-82041685D01*
X164050581Y-81982101D01*
X164083268Y-81925559D01*
X164114064Y-81872299D01*
X164142829Y-81822566D01*
X164169423Y-81776601D01*
X164193704Y-81734648D01*
X164215534Y-81696948D01*
X164234771Y-81663745D01*
X164251276Y-81635281D01*
X164264907Y-81611799D01*
X164275524Y-81593541D01*
X164282988Y-81580750D01*
X164287158Y-81573669D01*
X164288036Y-81572242D01*
X164288036Y-81276473D01*
X164233228Y-81276473D01*
X163609457Y-82356850D01*
X163562750Y-82437757D01*
X163516954Y-82517109D01*
X163472194Y-82594687D01*
X163428595Y-82670274D01*
X163386283Y-82743650D01*
X163345385Y-82814597D01*
X163306024Y-82882897D01*
X163268329Y-82948330D01*
X163232423Y-83010680D01*
X163198433Y-83069726D01*
X163166484Y-83125251D01*
X163136702Y-83177036D01*
X163109214Y-83224863D01*
X163084143Y-83268513D01*
X163061617Y-83307767D01*
X163041761Y-83342408D01*
X163024700Y-83372216D01*
X163010560Y-83396973D01*
X162999468Y-83416461D01*
X162991548Y-83430461D01*
X162986927Y-83438755D01*
X162985685Y-83441153D01*
X162987424Y-83444549D01*
D11*
X133537000Y-79442000D02*
X130937000Y-79442000D01*
X133537000Y-130362000D02*
X128337000Y-130362000D01*
X130937000Y-82042000D02*
X128337000Y-82042000D01*
X130937000Y-79442000D02*
X130937000Y-82042000D01*
X129667000Y-79442000D02*
X128337000Y-79442000D01*
X133537000Y-124968000D02*
X133537000Y-125476000D01*
X133537000Y-122428000D02*
X133537000Y-122936000D01*
X128337000Y-79756000D02*
X126977000Y-79756000D01*
X133537000Y-130048000D02*
X133537000Y-130362000D01*
X133537000Y-127508000D02*
X133537000Y-128016000D01*
X133537000Y-119888000D02*
X133537000Y-120396000D01*
X133537000Y-91948000D02*
X133537000Y-92456000D01*
X133537000Y-97028000D02*
X133537000Y-97536000D01*
X133537000Y-94488000D02*
X133537000Y-94996000D01*
X133537000Y-89408000D02*
X133537000Y-89916000D01*
X133537000Y-81788000D02*
X133537000Y-82296000D01*
X133537000Y-79442000D02*
X133537000Y-79756000D01*
X133537000Y-130362000D02*
X128337000Y-130362000D01*
X128337000Y-114808000D02*
X128337000Y-115316000D01*
X128337000Y-130048000D02*
X128337000Y-130362000D01*
X128337000Y-124968000D02*
X128337000Y-125476000D01*
X128337000Y-99568000D02*
X128337000Y-100076000D01*
X128337000Y-122428000D02*
X128337000Y-122936000D01*
X128337000Y-119888000D02*
X128337000Y-120396000D01*
X128337000Y-117348000D02*
X128337000Y-117856000D01*
X128337000Y-109728000D02*
X128337000Y-110236000D01*
X128337000Y-107188000D02*
X128337000Y-107696000D01*
X133537000Y-79442000D02*
X128337000Y-79442000D01*
X128337000Y-104648000D02*
X128337000Y-105156000D01*
X128337000Y-102108000D02*
X128337000Y-102616000D01*
X128337000Y-97028000D02*
X128337000Y-97536000D01*
X128337000Y-94488000D02*
X128337000Y-94996000D01*
X128337000Y-86868000D02*
X128337000Y-87376000D01*
X128337000Y-84328000D02*
X128337000Y-84836000D01*
X128337000Y-79442000D02*
X128337000Y-79756000D01*
X133537000Y-117348000D02*
X133537000Y-117856000D01*
X133537000Y-114808000D02*
X133537000Y-115316000D01*
X128337000Y-112268000D02*
X128337000Y-112776000D01*
X133537000Y-112268000D02*
X133537000Y-112776000D01*
X128337000Y-89408000D02*
X128337000Y-89916000D01*
X128337000Y-91948000D02*
X128337000Y-92456000D01*
X133537000Y-109728000D02*
X133537000Y-110236000D01*
X133537000Y-107188000D02*
X133537000Y-107696000D01*
X133537000Y-104648000D02*
X133537000Y-105156000D01*
X133537000Y-102108000D02*
X133537000Y-102616000D01*
X133537000Y-86868000D02*
X133537000Y-87376000D01*
X133537000Y-99568000D02*
X133537000Y-100076000D01*
X128337000Y-81788000D02*
X128337000Y-82296000D01*
X133537000Y-84328000D02*
X133537000Y-84836000D01*
X128337000Y-127508000D02*
X128337000Y-128016000D01*
X156685064Y-95652000D02*
X155480936Y-95652000D01*
X156685064Y-93832000D02*
X155480936Y-93832000D01*
X155480936Y-79862000D02*
X156685064Y-79862000D01*
X155480936Y-81682000D02*
X156685064Y-81682000D01*
X150273936Y-79862000D02*
X151478064Y-79862000D01*
X150273936Y-81682000D02*
X151478064Y-81682000D01*
D13*
X145482000Y-122915000D02*
X139507000Y-122915000D01*
X143957000Y-129815000D02*
X139507000Y-129815000D01*
X145482000Y-113263000D02*
X139507000Y-113263000D01*
X143957000Y-120163000D02*
X139507000Y-120163000D01*
X145482000Y-101960000D02*
X139507000Y-101960000D01*
X143957000Y-108860000D02*
X139507000Y-108860000D01*
X144974000Y-85185000D02*
X138999000Y-85185000D01*
X143449000Y-92085000D02*
X138999000Y-92085000D01*
D11*
X155480936Y-115422000D02*
X156685064Y-115422000D01*
X155480936Y-117242000D02*
X156685064Y-117242000D01*
X150273936Y-117962000D02*
X151478064Y-117962000D01*
X150273936Y-119782000D02*
X151478064Y-119782000D01*
X150273936Y-115422000D02*
X151478064Y-115422000D01*
X150273936Y-117242000D02*
X151478064Y-117242000D01*
X155480936Y-112882000D02*
X156685064Y-112882000D01*
X155480936Y-114702000D02*
X156685064Y-114702000D01*
X150273936Y-112882000D02*
X151478064Y-112882000D01*
X150273936Y-114702000D02*
X151478064Y-114702000D01*
X160803000Y-106876436D02*
X160803000Y-108080564D01*
X158983000Y-106876436D02*
X158983000Y-108080564D01*
X150273936Y-123042000D02*
X151478064Y-123042000D01*
X150273936Y-124862000D02*
X151478064Y-124862000D01*
X155480936Y-107802000D02*
X156685064Y-107802000D01*
X155480936Y-109622000D02*
X156685064Y-109622000D01*
X150273936Y-107802000D02*
X151478064Y-107802000D01*
X150273936Y-109622000D02*
X151478064Y-109622000D01*
X155480936Y-105262000D02*
X156685064Y-105262000D01*
X155480936Y-107082000D02*
X156685064Y-107082000D01*
X150273936Y-105262000D02*
X151478064Y-105262000D01*
X150273936Y-107082000D02*
X151478064Y-107082000D01*
X155480936Y-125582000D02*
X156685064Y-125582000D01*
X155480936Y-127402000D02*
X156685064Y-127402000D01*
X150273936Y-102722000D02*
X151478064Y-102722000D01*
X150273936Y-104542000D02*
X151478064Y-104542000D01*
X155480936Y-102722000D02*
X156685064Y-102722000D01*
X155480936Y-104542000D02*
X156685064Y-104542000D01*
X150273936Y-125582000D02*
X151478064Y-125582000D01*
X150273936Y-127402000D02*
X151478064Y-127402000D01*
X155480936Y-97642000D02*
X156685064Y-97642000D01*
X155480936Y-99462000D02*
X156685064Y-99462000D01*
X150273936Y-97642000D02*
X151478064Y-97642000D01*
X150273936Y-99462000D02*
X151478064Y-99462000D01*
X155480936Y-123042000D02*
X156685064Y-123042000D01*
X155480936Y-124862000D02*
X156685064Y-124862000D01*
X161892064Y-95652000D02*
X160687936Y-95652000D01*
X161892064Y-93832000D02*
X160687936Y-93832000D01*
X150273936Y-92562000D02*
X151478064Y-92562000D01*
X150273936Y-94382000D02*
X151478064Y-94382000D01*
X155480936Y-88752000D02*
X156685064Y-88752000D01*
X155480936Y-90572000D02*
X156685064Y-90572000D01*
X155480936Y-117962000D02*
X156685064Y-117962000D01*
X155480936Y-119782000D02*
X156685064Y-119782000D01*
X155480936Y-86212000D02*
X156685064Y-86212000D01*
X155480936Y-88032000D02*
X156685064Y-88032000D01*
X150273936Y-87482000D02*
X151478064Y-87482000D01*
X150273936Y-89302000D02*
X151478064Y-89302000D01*
X156685064Y-84222000D02*
X155480936Y-84222000D01*
X156685064Y-82402000D02*
X155480936Y-82402000D01*
X158856000Y-125824064D02*
X158856000Y-124619936D01*
X160676000Y-125824064D02*
X160676000Y-124619936D01*
X150273936Y-82402000D02*
X151478064Y-82402000D01*
X150273936Y-84222000D02*
X151478064Y-84222000D01*
X157972000Y-132399000D02*
X157972000Y-130999000D01*
X157272000Y-130299000D02*
X156672000Y-130299000D01*
X155972000Y-130999000D02*
X155972000Y-132399000D01*
X156672000Y-133099000D02*
X157272000Y-133099000D01*
X157272000Y-133099000D02*
G75*
G03X157972000Y-132399000I0J700000D01*
G01*
X155972000Y-132399000D02*
G75*
G03X156672000Y-133099000I700000J0D01*
G01*
X156672000Y-130299000D02*
G75*
G03X155972000Y-130999000I0J-700000D01*
G01*
X157972000Y-130999000D02*
G75*
G03X157272000Y-130299000I-700000J0D01*
G01*
X152638000Y-132399000D02*
X152638000Y-130999000D01*
X151938000Y-130299000D02*
X151338000Y-130299000D01*
X150638000Y-130999000D02*
X150638000Y-132399000D01*
X151338000Y-133099000D02*
X151938000Y-133099000D01*
X151938000Y-133099000D02*
G75*
G03X152638000Y-132399000I0J700000D01*
G01*
X150638000Y-132399000D02*
G75*
G03X151338000Y-133099000I700000J0D01*
G01*
X151338000Y-130299000D02*
G75*
G03X150638000Y-130999000I0J-700000D01*
G01*
X152638000Y-130999000D02*
G75*
G03X151938000Y-130299000I-700000J0D01*
G01*
X149971000Y-132399000D02*
X149971000Y-130999000D01*
X149271000Y-130299000D02*
X148671000Y-130299000D01*
X147971000Y-130999000D02*
X147971000Y-132399000D01*
X148671000Y-133099000D02*
X149271000Y-133099000D01*
X149271000Y-133099000D02*
G75*
G03X149971000Y-132399000I0J700000D01*
G01*
X147971000Y-132399000D02*
G75*
G03X148671000Y-133099000I700000J0D01*
G01*
X148671000Y-130299000D02*
G75*
G03X147971000Y-130999000I0J-700000D01*
G01*
X149971000Y-130999000D02*
G75*
G03X149271000Y-130299000I-700000J0D01*
G01*
X155305000Y-132399000D02*
X155305000Y-130999000D01*
X154605000Y-130299000D02*
X154005000Y-130299000D01*
X153305000Y-130999000D02*
X153305000Y-132399000D01*
X154005000Y-133099000D02*
X154605000Y-133099000D01*
X154605000Y-133099000D02*
G75*
G03X155305000Y-132399000I0J700000D01*
G01*
X153305000Y-132399000D02*
G75*
G03X154005000Y-133099000I700000J0D01*
G01*
X154005000Y-130299000D02*
G75*
G03X153305000Y-130999000I0J-700000D01*
G01*
X155305000Y-130999000D02*
G75*
G03X154605000Y-130299000I-700000J0D01*
G01*
X140748936Y-120629000D02*
X141953064Y-120629000D01*
X140748936Y-122449000D02*
X141953064Y-122449000D01*
X140748936Y-110723000D02*
X141953064Y-110723000D01*
X140748936Y-112543000D02*
X141953064Y-112543000D01*
X140748936Y-99547000D02*
X141953064Y-99547000D01*
X140748936Y-101367000D02*
X141953064Y-101367000D01*
X140748936Y-82910000D02*
X141953064Y-82910000D01*
X140748936Y-84730000D02*
X141953064Y-84730000D01*
D13*
X145541904Y-121626380D02*
X145541904Y-122435904D01*
X145494285Y-122531142D01*
X145446666Y-122578761D01*
X145351428Y-122626380D01*
X145160952Y-122626380D01*
X145065714Y-122578761D01*
X145018095Y-122531142D01*
X144970476Y-122435904D01*
X144970476Y-121626380D01*
X144065714Y-121959714D02*
X144065714Y-122626380D01*
X144303809Y-121578761D02*
X144541904Y-122293047D01*
X143922857Y-122293047D01*
X141311380Y-123103095D02*
X141311380Y-123769761D01*
X142311380Y-123341190D01*
X141644714Y-124579285D02*
X142311380Y-124579285D01*
X141263761Y-124341190D02*
X141978047Y-124103095D01*
X141978047Y-124722142D01*
X142311380Y-125103095D02*
X141311380Y-125103095D01*
X141787571Y-125103095D02*
X141787571Y-125674523D01*
X142311380Y-125674523D02*
X141311380Y-125674523D01*
X142216142Y-126722142D02*
X142263761Y-126674523D01*
X142311380Y-126531666D01*
X142311380Y-126436428D01*
X142263761Y-126293571D01*
X142168523Y-126198333D01*
X142073285Y-126150714D01*
X141882809Y-126103095D01*
X141739952Y-126103095D01*
X141549476Y-126150714D01*
X141454238Y-126198333D01*
X141359000Y-126293571D01*
X141311380Y-126436428D01*
X141311380Y-126531666D01*
X141359000Y-126674523D01*
X141406619Y-126722142D01*
X141406619Y-127103095D02*
X141359000Y-127150714D01*
X141311380Y-127245952D01*
X141311380Y-127484047D01*
X141359000Y-127579285D01*
X141406619Y-127626904D01*
X141501857Y-127674523D01*
X141597095Y-127674523D01*
X141739952Y-127626904D01*
X142311380Y-127055476D01*
X142311380Y-127674523D01*
X141644714Y-128531666D02*
X142311380Y-128531666D01*
X141263761Y-128293571D02*
X141978047Y-128055476D01*
X141978047Y-128674523D01*
X141311380Y-129531666D02*
X141311380Y-129055476D01*
X141787571Y-129007857D01*
X141739952Y-129055476D01*
X141692333Y-129150714D01*
X141692333Y-129388809D01*
X141739952Y-129484047D01*
X141787571Y-129531666D01*
X141882809Y-129579285D01*
X142120904Y-129579285D01*
X142216142Y-129531666D01*
X142263761Y-129484047D01*
X142311380Y-129388809D01*
X142311380Y-129150714D01*
X142263761Y-129055476D01*
X142216142Y-129007857D01*
X145541904Y-111847380D02*
X145541904Y-112656904D01*
X145494285Y-112752142D01*
X145446666Y-112799761D01*
X145351428Y-112847380D01*
X145160952Y-112847380D01*
X145065714Y-112799761D01*
X145018095Y-112752142D01*
X144970476Y-112656904D01*
X144970476Y-111847380D01*
X144589523Y-111847380D02*
X143970476Y-111847380D01*
X144303809Y-112228333D01*
X144160952Y-112228333D01*
X144065714Y-112275952D01*
X144018095Y-112323571D01*
X143970476Y-112418809D01*
X143970476Y-112656904D01*
X144018095Y-112752142D01*
X144065714Y-112799761D01*
X144160952Y-112847380D01*
X144446666Y-112847380D01*
X144541904Y-112799761D01*
X144589523Y-112752142D01*
X141438380Y-113451095D02*
X141438380Y-114117761D01*
X142438380Y-113689190D01*
X141771714Y-114927285D02*
X142438380Y-114927285D01*
X141390761Y-114689190D02*
X142105047Y-114451095D01*
X142105047Y-115070142D01*
X142438380Y-115451095D02*
X141438380Y-115451095D01*
X141914571Y-115451095D02*
X141914571Y-116022523D01*
X142438380Y-116022523D02*
X141438380Y-116022523D01*
X142343142Y-117070142D02*
X142390761Y-117022523D01*
X142438380Y-116879666D01*
X142438380Y-116784428D01*
X142390761Y-116641571D01*
X142295523Y-116546333D01*
X142200285Y-116498714D01*
X142009809Y-116451095D01*
X141866952Y-116451095D01*
X141676476Y-116498714D01*
X141581238Y-116546333D01*
X141486000Y-116641571D01*
X141438380Y-116784428D01*
X141438380Y-116879666D01*
X141486000Y-117022523D01*
X141533619Y-117070142D01*
X141533619Y-117451095D02*
X141486000Y-117498714D01*
X141438380Y-117593952D01*
X141438380Y-117832047D01*
X141486000Y-117927285D01*
X141533619Y-117974904D01*
X141628857Y-118022523D01*
X141724095Y-118022523D01*
X141866952Y-117974904D01*
X142438380Y-117403476D01*
X142438380Y-118022523D01*
X141771714Y-118879666D02*
X142438380Y-118879666D01*
X141390761Y-118641571D02*
X142105047Y-118403476D01*
X142105047Y-119022523D01*
X141438380Y-119879666D02*
X141438380Y-119403476D01*
X141914571Y-119355857D01*
X141866952Y-119403476D01*
X141819333Y-119498714D01*
X141819333Y-119736809D01*
X141866952Y-119832047D01*
X141914571Y-119879666D01*
X142009809Y-119927285D01*
X142247904Y-119927285D01*
X142343142Y-119879666D01*
X142390761Y-119832047D01*
X142438380Y-119736809D01*
X142438380Y-119498714D01*
X142390761Y-119403476D01*
X142343142Y-119355857D01*
X145668904Y-100562380D02*
X145668904Y-101371904D01*
X145621285Y-101467142D01*
X145573666Y-101514761D01*
X145478428Y-101562380D01*
X145287952Y-101562380D01*
X145192714Y-101514761D01*
X145145095Y-101467142D01*
X145097476Y-101371904D01*
X145097476Y-100562380D01*
X144668904Y-100657619D02*
X144621285Y-100610000D01*
X144526047Y-100562380D01*
X144287952Y-100562380D01*
X144192714Y-100610000D01*
X144145095Y-100657619D01*
X144097476Y-100752857D01*
X144097476Y-100848095D01*
X144145095Y-100990952D01*
X144716523Y-101562380D01*
X144097476Y-101562380D01*
X141438380Y-102021095D02*
X141438380Y-102687761D01*
X142438380Y-102259190D01*
X141771714Y-103497285D02*
X142438380Y-103497285D01*
X141390761Y-103259190D02*
X142105047Y-103021095D01*
X142105047Y-103640142D01*
X142438380Y-104021095D02*
X141438380Y-104021095D01*
X141914571Y-104021095D02*
X141914571Y-104592523D01*
X142438380Y-104592523D02*
X141438380Y-104592523D01*
X142343142Y-105640142D02*
X142390761Y-105592523D01*
X142438380Y-105449666D01*
X142438380Y-105354428D01*
X142390761Y-105211571D01*
X142295523Y-105116333D01*
X142200285Y-105068714D01*
X142009809Y-105021095D01*
X141866952Y-105021095D01*
X141676476Y-105068714D01*
X141581238Y-105116333D01*
X141486000Y-105211571D01*
X141438380Y-105354428D01*
X141438380Y-105449666D01*
X141486000Y-105592523D01*
X141533619Y-105640142D01*
X141533619Y-106021095D02*
X141486000Y-106068714D01*
X141438380Y-106163952D01*
X141438380Y-106402047D01*
X141486000Y-106497285D01*
X141533619Y-106544904D01*
X141628857Y-106592523D01*
X141724095Y-106592523D01*
X141866952Y-106544904D01*
X142438380Y-105973476D01*
X142438380Y-106592523D01*
X141771714Y-107449666D02*
X142438380Y-107449666D01*
X141390761Y-107211571D02*
X142105047Y-106973476D01*
X142105047Y-107592523D01*
X141438380Y-108449666D02*
X141438380Y-107973476D01*
X141914571Y-107925857D01*
X141866952Y-107973476D01*
X141819333Y-108068714D01*
X141819333Y-108306809D01*
X141866952Y-108402047D01*
X141914571Y-108449666D01*
X142009809Y-108497285D01*
X142247904Y-108497285D01*
X142343142Y-108449666D01*
X142390761Y-108402047D01*
X142438380Y-108306809D01*
X142438380Y-108068714D01*
X142390761Y-107973476D01*
X142343142Y-107925857D01*
X145414904Y-83780380D02*
X145414904Y-84589904D01*
X145367285Y-84685142D01*
X145319666Y-84732761D01*
X145224428Y-84780380D01*
X145033952Y-84780380D01*
X144938714Y-84732761D01*
X144891095Y-84685142D01*
X144843476Y-84589904D01*
X144843476Y-83780380D01*
X143843476Y-84780380D02*
X144414904Y-84780380D01*
X144129190Y-84780380D02*
X144129190Y-83780380D01*
X144224428Y-83923238D01*
X144319666Y-84018476D01*
X144414904Y-84066095D01*
X144485904Y-92387380D02*
X143819238Y-92387380D01*
X144247809Y-93387380D01*
X143009714Y-92720714D02*
X143009714Y-93387380D01*
X143247809Y-92339761D02*
X143485904Y-93054047D01*
X142866857Y-93054047D01*
X142485904Y-93387380D02*
X142485904Y-92387380D01*
X142485904Y-92863571D02*
X141914476Y-92863571D01*
X141914476Y-93387380D02*
X141914476Y-92387380D01*
X140866857Y-93292142D02*
X140914476Y-93339761D01*
X141057333Y-93387380D01*
X141152571Y-93387380D01*
X141295428Y-93339761D01*
X141390666Y-93244523D01*
X141438285Y-93149285D01*
X141485904Y-92958809D01*
X141485904Y-92815952D01*
X141438285Y-92625476D01*
X141390666Y-92530238D01*
X141295428Y-92435000D01*
X141152571Y-92387380D01*
X141057333Y-92387380D01*
X140914476Y-92435000D01*
X140866857Y-92482619D01*
X140485904Y-92482619D02*
X140438285Y-92435000D01*
X140343047Y-92387380D01*
X140104952Y-92387380D01*
X140009714Y-92435000D01*
X139962095Y-92482619D01*
X139914476Y-92577857D01*
X139914476Y-92673095D01*
X139962095Y-92815952D01*
X140533523Y-93387380D01*
X139914476Y-93387380D01*
X139057333Y-92720714D02*
X139057333Y-93387380D01*
X139295428Y-92339761D02*
X139533523Y-93054047D01*
X138914476Y-93054047D01*
X138057333Y-92387380D02*
X138533523Y-92387380D01*
X138581142Y-92863571D01*
X138533523Y-92815952D01*
X138438285Y-92768333D01*
X138200190Y-92768333D01*
X138104952Y-92815952D01*
X138057333Y-92863571D01*
X138009714Y-92958809D01*
X138009714Y-93196904D01*
X138057333Y-93292142D01*
X138104952Y-93339761D01*
X138200190Y-93387380D01*
X138438285Y-93387380D01*
X138533523Y-93339761D01*
X138581142Y-93292142D01*
X144946666Y-121388142D02*
X144994285Y-121435761D01*
X145137142Y-121483380D01*
X145232380Y-121483380D01*
X145375238Y-121435761D01*
X145470476Y-121340523D01*
X145518095Y-121245285D01*
X145565714Y-121054809D01*
X145565714Y-120911952D01*
X145518095Y-120721476D01*
X145470476Y-120626238D01*
X145375238Y-120531000D01*
X145232380Y-120483380D01*
X145137142Y-120483380D01*
X144994285Y-120531000D01*
X144946666Y-120578619D01*
X144089523Y-120816714D02*
X144089523Y-121483380D01*
X144327619Y-120435761D02*
X144565714Y-121150047D01*
X143946666Y-121150047D01*
D10*
X138525095Y-121773904D02*
X138982238Y-121773904D01*
X138753666Y-121773904D02*
X138753666Y-120973904D01*
X138829857Y-121088190D01*
X138906047Y-121164380D01*
X138982238Y-121202476D01*
X138029857Y-120973904D02*
X137953666Y-120973904D01*
X137877476Y-121012000D01*
X137839380Y-121050095D01*
X137801285Y-121126285D01*
X137763190Y-121278666D01*
X137763190Y-121469142D01*
X137801285Y-121621523D01*
X137839380Y-121697714D01*
X137877476Y-121735809D01*
X137953666Y-121773904D01*
X138029857Y-121773904D01*
X138106047Y-121735809D01*
X138144142Y-121697714D01*
X138182238Y-121621523D01*
X138220333Y-121469142D01*
X138220333Y-121278666D01*
X138182238Y-121126285D01*
X138144142Y-121050095D01*
X138106047Y-121012000D01*
X138029857Y-120973904D01*
X137267952Y-120973904D02*
X137191761Y-120973904D01*
X137115571Y-121012000D01*
X137077476Y-121050095D01*
X137039380Y-121126285D01*
X137001285Y-121278666D01*
X137001285Y-121469142D01*
X137039380Y-121621523D01*
X137077476Y-121697714D01*
X137115571Y-121735809D01*
X137191761Y-121773904D01*
X137267952Y-121773904D01*
X137344142Y-121735809D01*
X137382238Y-121697714D01*
X137420333Y-121621523D01*
X137458428Y-121469142D01*
X137458428Y-121278666D01*
X137420333Y-121126285D01*
X137382238Y-121050095D01*
X137344142Y-121012000D01*
X137267952Y-120973904D01*
X136658428Y-121240571D02*
X136658428Y-121773904D01*
X136658428Y-121316761D02*
X136620333Y-121278666D01*
X136544142Y-121240571D01*
X136429857Y-121240571D01*
X136353666Y-121278666D01*
X136315571Y-121354857D01*
X136315571Y-121773904D01*
X135667952Y-121354857D02*
X135934619Y-121354857D01*
X135934619Y-121773904D02*
X135934619Y-120973904D01*
X135553666Y-120973904D01*
D13*
X144946666Y-111482142D02*
X144994285Y-111529761D01*
X145137142Y-111577380D01*
X145232380Y-111577380D01*
X145375238Y-111529761D01*
X145470476Y-111434523D01*
X145518095Y-111339285D01*
X145565714Y-111148809D01*
X145565714Y-111005952D01*
X145518095Y-110815476D01*
X145470476Y-110720238D01*
X145375238Y-110625000D01*
X145232380Y-110577380D01*
X145137142Y-110577380D01*
X144994285Y-110625000D01*
X144946666Y-110672619D01*
X144613333Y-110577380D02*
X143994285Y-110577380D01*
X144327619Y-110958333D01*
X144184761Y-110958333D01*
X144089523Y-111005952D01*
X144041904Y-111053571D01*
X143994285Y-111148809D01*
X143994285Y-111386904D01*
X144041904Y-111482142D01*
X144089523Y-111529761D01*
X144184761Y-111577380D01*
X144470476Y-111577380D01*
X144565714Y-111529761D01*
X144613333Y-111482142D01*
X142898619Y-110265380D02*
X143470047Y-110265380D01*
X143184333Y-110265380D02*
X143184333Y-109265380D01*
X143279571Y-109408238D01*
X143374809Y-109503476D01*
X143470047Y-109551095D01*
X142279571Y-109265380D02*
X142184333Y-109265380D01*
X142089095Y-109313000D01*
X142041476Y-109360619D01*
X141993857Y-109455857D01*
X141946238Y-109646333D01*
X141946238Y-109884428D01*
X141993857Y-110074904D01*
X142041476Y-110170142D01*
X142089095Y-110217761D01*
X142184333Y-110265380D01*
X142279571Y-110265380D01*
X142374809Y-110217761D01*
X142422428Y-110170142D01*
X142470047Y-110074904D01*
X142517666Y-109884428D01*
X142517666Y-109646333D01*
X142470047Y-109455857D01*
X142422428Y-109360619D01*
X142374809Y-109313000D01*
X142279571Y-109265380D01*
X141327190Y-109265380D02*
X141231952Y-109265380D01*
X141136714Y-109313000D01*
X141089095Y-109360619D01*
X141041476Y-109455857D01*
X140993857Y-109646333D01*
X140993857Y-109884428D01*
X141041476Y-110074904D01*
X141089095Y-110170142D01*
X141136714Y-110217761D01*
X141231952Y-110265380D01*
X141327190Y-110265380D01*
X141422428Y-110217761D01*
X141470047Y-110170142D01*
X141517666Y-110074904D01*
X141565285Y-109884428D01*
X141565285Y-109646333D01*
X141517666Y-109455857D01*
X141470047Y-109360619D01*
X141422428Y-109313000D01*
X141327190Y-109265380D01*
X140565285Y-109598714D02*
X140565285Y-110265380D01*
X140565285Y-109693952D02*
X140517666Y-109646333D01*
X140422428Y-109598714D01*
X140279571Y-109598714D01*
X140184333Y-109646333D01*
X140136714Y-109741571D01*
X140136714Y-110265380D01*
X139327190Y-109741571D02*
X139660523Y-109741571D01*
X139660523Y-110265380D02*
X139660523Y-109265380D01*
X139184333Y-109265380D01*
X145073666Y-100179142D02*
X145121285Y-100226761D01*
X145264142Y-100274380D01*
X145359380Y-100274380D01*
X145502238Y-100226761D01*
X145597476Y-100131523D01*
X145645095Y-100036285D01*
X145692714Y-99845809D01*
X145692714Y-99702952D01*
X145645095Y-99512476D01*
X145597476Y-99417238D01*
X145502238Y-99322000D01*
X145359380Y-99274380D01*
X145264142Y-99274380D01*
X145121285Y-99322000D01*
X145073666Y-99369619D01*
X144692714Y-99369619D02*
X144645095Y-99322000D01*
X144549857Y-99274380D01*
X144311761Y-99274380D01*
X144216523Y-99322000D01*
X144168904Y-99369619D01*
X144121285Y-99464857D01*
X144121285Y-99560095D01*
X144168904Y-99702952D01*
X144740333Y-100274380D01*
X144121285Y-100274380D01*
X142898619Y-99089380D02*
X143470047Y-99089380D01*
X143184333Y-99089380D02*
X143184333Y-98089380D01*
X143279571Y-98232238D01*
X143374809Y-98327476D01*
X143470047Y-98375095D01*
X142279571Y-98089380D02*
X142184333Y-98089380D01*
X142089095Y-98137000D01*
X142041476Y-98184619D01*
X141993857Y-98279857D01*
X141946238Y-98470333D01*
X141946238Y-98708428D01*
X141993857Y-98898904D01*
X142041476Y-98994142D01*
X142089095Y-99041761D01*
X142184333Y-99089380D01*
X142279571Y-99089380D01*
X142374809Y-99041761D01*
X142422428Y-98994142D01*
X142470047Y-98898904D01*
X142517666Y-98708428D01*
X142517666Y-98470333D01*
X142470047Y-98279857D01*
X142422428Y-98184619D01*
X142374809Y-98137000D01*
X142279571Y-98089380D01*
X141327190Y-98089380D02*
X141231952Y-98089380D01*
X141136714Y-98137000D01*
X141089095Y-98184619D01*
X141041476Y-98279857D01*
X140993857Y-98470333D01*
X140993857Y-98708428D01*
X141041476Y-98898904D01*
X141089095Y-98994142D01*
X141136714Y-99041761D01*
X141231952Y-99089380D01*
X141327190Y-99089380D01*
X141422428Y-99041761D01*
X141470047Y-98994142D01*
X141517666Y-98898904D01*
X141565285Y-98708428D01*
X141565285Y-98470333D01*
X141517666Y-98279857D01*
X141470047Y-98184619D01*
X141422428Y-98137000D01*
X141327190Y-98089380D01*
X140565285Y-98422714D02*
X140565285Y-99089380D01*
X140565285Y-98517952D02*
X140517666Y-98470333D01*
X140422428Y-98422714D01*
X140279571Y-98422714D01*
X140184333Y-98470333D01*
X140136714Y-98565571D01*
X140136714Y-99089380D01*
X139327190Y-98565571D02*
X139660523Y-98565571D01*
X139660523Y-99089380D02*
X139660523Y-98089380D01*
X139184333Y-98089380D01*
X144819666Y-83415142D02*
X144867285Y-83462761D01*
X145010142Y-83510380D01*
X145105380Y-83510380D01*
X145248238Y-83462761D01*
X145343476Y-83367523D01*
X145391095Y-83272285D01*
X145438714Y-83081809D01*
X145438714Y-82938952D01*
X145391095Y-82748476D01*
X145343476Y-82653238D01*
X145248238Y-82558000D01*
X145105380Y-82510380D01*
X145010142Y-82510380D01*
X144867285Y-82558000D01*
X144819666Y-82605619D01*
X143867285Y-83510380D02*
X144438714Y-83510380D01*
X144153000Y-83510380D02*
X144153000Y-82510380D01*
X144248238Y-82653238D01*
X144343476Y-82748476D01*
X144438714Y-82796095D01*
X138501380Y-81383380D02*
X138501380Y-80811952D01*
X138501380Y-81097666D02*
X137501380Y-81097666D01*
X137644238Y-81002428D01*
X137739476Y-80907190D01*
X137787095Y-80811952D01*
X137501380Y-82002428D02*
X137501380Y-82097666D01*
X137549000Y-82192904D01*
X137596619Y-82240523D01*
X137691857Y-82288142D01*
X137882333Y-82335761D01*
X138120428Y-82335761D01*
X138310904Y-82288142D01*
X138406142Y-82240523D01*
X138453761Y-82192904D01*
X138501380Y-82097666D01*
X138501380Y-82002428D01*
X138453761Y-81907190D01*
X138406142Y-81859571D01*
X138310904Y-81811952D01*
X138120428Y-81764333D01*
X137882333Y-81764333D01*
X137691857Y-81811952D01*
X137596619Y-81859571D01*
X137549000Y-81907190D01*
X137501380Y-82002428D01*
X137501380Y-82954809D02*
X137501380Y-83050047D01*
X137549000Y-83145285D01*
X137596619Y-83192904D01*
X137691857Y-83240523D01*
X137882333Y-83288142D01*
X138120428Y-83288142D01*
X138310904Y-83240523D01*
X138406142Y-83192904D01*
X138453761Y-83145285D01*
X138501380Y-83050047D01*
X138501380Y-82954809D01*
X138453761Y-82859571D01*
X138406142Y-82811952D01*
X138310904Y-82764333D01*
X138120428Y-82716714D01*
X137882333Y-82716714D01*
X137691857Y-82764333D01*
X137596619Y-82811952D01*
X137549000Y-82859571D01*
X137501380Y-82954809D01*
X137834714Y-83716714D02*
X138501380Y-83716714D01*
X137929952Y-83716714D02*
X137882333Y-83764333D01*
X137834714Y-83859571D01*
X137834714Y-84002428D01*
X137882333Y-84097666D01*
X137977571Y-84145285D01*
X138501380Y-84145285D01*
X137977571Y-84954809D02*
X137977571Y-84621476D01*
X138501380Y-84621476D02*
X137501380Y-84621476D01*
X137501380Y-85097666D01*
M02*
