G04 #@! TF.GenerationSoftware,KiCad,Pcbnew,(5.1.2)-2*
G04 #@! TF.CreationDate,2021-05-12T22:03:05+02:00*
G04 #@! TF.ProjectId,BeagleV Chew Toy,42656167-6c65-4562-9043-68657720546f,rev?*
G04 #@! TF.SameCoordinates,Original*
G04 #@! TF.FileFunction,Paste,Bot*
G04 #@! TF.FilePolarity,Positive*
%FSLAX46Y46*%
G04 Gerber Fmt 4.6, Leading zero omitted, Abs format (unit mm)*
G04 Created by KiCad (PCBNEW (5.1.2)-2) date 2021-05-12 22:03:05*
%MOMM*%
%LPD*%
G04 APERTURE LIST*
%ADD10C,0.100000*%
%ADD11C,1.425000*%
%ADD12R,1.450000X0.450000*%
G04 APERTURE END LIST*
D10*
G36*
X155082504Y-93868204D02*
G01*
X155106773Y-93871804D01*
X155130571Y-93877765D01*
X155153671Y-93886030D01*
X155175849Y-93896520D01*
X155196893Y-93909133D01*
X155216598Y-93923747D01*
X155234777Y-93940223D01*
X155251253Y-93958402D01*
X155265867Y-93978107D01*
X155278480Y-93999151D01*
X155288970Y-94021329D01*
X155297235Y-94044429D01*
X155303196Y-94068227D01*
X155306796Y-94092496D01*
X155308000Y-94117000D01*
X155308000Y-95367000D01*
X155306796Y-95391504D01*
X155303196Y-95415773D01*
X155297235Y-95439571D01*
X155288970Y-95462671D01*
X155278480Y-95484849D01*
X155265867Y-95505893D01*
X155251253Y-95525598D01*
X155234777Y-95543777D01*
X155216598Y-95560253D01*
X155196893Y-95574867D01*
X155175849Y-95587480D01*
X155153671Y-95597970D01*
X155130571Y-95606235D01*
X155106773Y-95612196D01*
X155082504Y-95615796D01*
X155058000Y-95617000D01*
X154133000Y-95617000D01*
X154108496Y-95615796D01*
X154084227Y-95612196D01*
X154060429Y-95606235D01*
X154037329Y-95597970D01*
X154015151Y-95587480D01*
X153994107Y-95574867D01*
X153974402Y-95560253D01*
X153956223Y-95543777D01*
X153939747Y-95525598D01*
X153925133Y-95505893D01*
X153912520Y-95484849D01*
X153902030Y-95462671D01*
X153893765Y-95439571D01*
X153887804Y-95415773D01*
X153884204Y-95391504D01*
X153883000Y-95367000D01*
X153883000Y-94117000D01*
X153884204Y-94092496D01*
X153887804Y-94068227D01*
X153893765Y-94044429D01*
X153902030Y-94021329D01*
X153912520Y-93999151D01*
X153925133Y-93978107D01*
X153939747Y-93958402D01*
X153956223Y-93940223D01*
X153974402Y-93923747D01*
X153994107Y-93909133D01*
X154015151Y-93896520D01*
X154037329Y-93886030D01*
X154060429Y-93877765D01*
X154084227Y-93871804D01*
X154108496Y-93868204D01*
X154133000Y-93867000D01*
X155058000Y-93867000D01*
X155082504Y-93868204D01*
X155082504Y-93868204D01*
G37*
D11*
X154595500Y-94742000D03*
D10*
G36*
X158057504Y-93868204D02*
G01*
X158081773Y-93871804D01*
X158105571Y-93877765D01*
X158128671Y-93886030D01*
X158150849Y-93896520D01*
X158171893Y-93909133D01*
X158191598Y-93923747D01*
X158209777Y-93940223D01*
X158226253Y-93958402D01*
X158240867Y-93978107D01*
X158253480Y-93999151D01*
X158263970Y-94021329D01*
X158272235Y-94044429D01*
X158278196Y-94068227D01*
X158281796Y-94092496D01*
X158283000Y-94117000D01*
X158283000Y-95367000D01*
X158281796Y-95391504D01*
X158278196Y-95415773D01*
X158272235Y-95439571D01*
X158263970Y-95462671D01*
X158253480Y-95484849D01*
X158240867Y-95505893D01*
X158226253Y-95525598D01*
X158209777Y-95543777D01*
X158191598Y-95560253D01*
X158171893Y-95574867D01*
X158150849Y-95587480D01*
X158128671Y-95597970D01*
X158105571Y-95606235D01*
X158081773Y-95612196D01*
X158057504Y-95615796D01*
X158033000Y-95617000D01*
X157108000Y-95617000D01*
X157083496Y-95615796D01*
X157059227Y-95612196D01*
X157035429Y-95606235D01*
X157012329Y-95597970D01*
X156990151Y-95587480D01*
X156969107Y-95574867D01*
X156949402Y-95560253D01*
X156931223Y-95543777D01*
X156914747Y-95525598D01*
X156900133Y-95505893D01*
X156887520Y-95484849D01*
X156877030Y-95462671D01*
X156868765Y-95439571D01*
X156862804Y-95415773D01*
X156859204Y-95391504D01*
X156858000Y-95367000D01*
X156858000Y-94117000D01*
X156859204Y-94092496D01*
X156862804Y-94068227D01*
X156868765Y-94044429D01*
X156877030Y-94021329D01*
X156887520Y-93999151D01*
X156900133Y-93978107D01*
X156914747Y-93958402D01*
X156931223Y-93940223D01*
X156949402Y-93923747D01*
X156969107Y-93909133D01*
X156990151Y-93896520D01*
X157012329Y-93886030D01*
X157035429Y-93877765D01*
X157059227Y-93871804D01*
X157083496Y-93868204D01*
X157108000Y-93867000D01*
X158033000Y-93867000D01*
X158057504Y-93868204D01*
X158057504Y-93868204D01*
G37*
D11*
X157570500Y-94742000D03*
D10*
G36*
X158057504Y-79898204D02*
G01*
X158081773Y-79901804D01*
X158105571Y-79907765D01*
X158128671Y-79916030D01*
X158150849Y-79926520D01*
X158171893Y-79939133D01*
X158191598Y-79953747D01*
X158209777Y-79970223D01*
X158226253Y-79988402D01*
X158240867Y-80008107D01*
X158253480Y-80029151D01*
X158263970Y-80051329D01*
X158272235Y-80074429D01*
X158278196Y-80098227D01*
X158281796Y-80122496D01*
X158283000Y-80147000D01*
X158283000Y-81397000D01*
X158281796Y-81421504D01*
X158278196Y-81445773D01*
X158272235Y-81469571D01*
X158263970Y-81492671D01*
X158253480Y-81514849D01*
X158240867Y-81535893D01*
X158226253Y-81555598D01*
X158209777Y-81573777D01*
X158191598Y-81590253D01*
X158171893Y-81604867D01*
X158150849Y-81617480D01*
X158128671Y-81627970D01*
X158105571Y-81636235D01*
X158081773Y-81642196D01*
X158057504Y-81645796D01*
X158033000Y-81647000D01*
X157108000Y-81647000D01*
X157083496Y-81645796D01*
X157059227Y-81642196D01*
X157035429Y-81636235D01*
X157012329Y-81627970D01*
X156990151Y-81617480D01*
X156969107Y-81604867D01*
X156949402Y-81590253D01*
X156931223Y-81573777D01*
X156914747Y-81555598D01*
X156900133Y-81535893D01*
X156887520Y-81514849D01*
X156877030Y-81492671D01*
X156868765Y-81469571D01*
X156862804Y-81445773D01*
X156859204Y-81421504D01*
X156858000Y-81397000D01*
X156858000Y-80147000D01*
X156859204Y-80122496D01*
X156862804Y-80098227D01*
X156868765Y-80074429D01*
X156877030Y-80051329D01*
X156887520Y-80029151D01*
X156900133Y-80008107D01*
X156914747Y-79988402D01*
X156931223Y-79970223D01*
X156949402Y-79953747D01*
X156969107Y-79939133D01*
X156990151Y-79926520D01*
X157012329Y-79916030D01*
X157035429Y-79907765D01*
X157059227Y-79901804D01*
X157083496Y-79898204D01*
X157108000Y-79897000D01*
X158033000Y-79897000D01*
X158057504Y-79898204D01*
X158057504Y-79898204D01*
G37*
D11*
X157570500Y-80772000D03*
D10*
G36*
X155082504Y-79898204D02*
G01*
X155106773Y-79901804D01*
X155130571Y-79907765D01*
X155153671Y-79916030D01*
X155175849Y-79926520D01*
X155196893Y-79939133D01*
X155216598Y-79953747D01*
X155234777Y-79970223D01*
X155251253Y-79988402D01*
X155265867Y-80008107D01*
X155278480Y-80029151D01*
X155288970Y-80051329D01*
X155297235Y-80074429D01*
X155303196Y-80098227D01*
X155306796Y-80122496D01*
X155308000Y-80147000D01*
X155308000Y-81397000D01*
X155306796Y-81421504D01*
X155303196Y-81445773D01*
X155297235Y-81469571D01*
X155288970Y-81492671D01*
X155278480Y-81514849D01*
X155265867Y-81535893D01*
X155251253Y-81555598D01*
X155234777Y-81573777D01*
X155216598Y-81590253D01*
X155196893Y-81604867D01*
X155175849Y-81617480D01*
X155153671Y-81627970D01*
X155130571Y-81636235D01*
X155106773Y-81642196D01*
X155082504Y-81645796D01*
X155058000Y-81647000D01*
X154133000Y-81647000D01*
X154108496Y-81645796D01*
X154084227Y-81642196D01*
X154060429Y-81636235D01*
X154037329Y-81627970D01*
X154015151Y-81617480D01*
X153994107Y-81604867D01*
X153974402Y-81590253D01*
X153956223Y-81573777D01*
X153939747Y-81555598D01*
X153925133Y-81535893D01*
X153912520Y-81514849D01*
X153902030Y-81492671D01*
X153893765Y-81469571D01*
X153887804Y-81445773D01*
X153884204Y-81421504D01*
X153883000Y-81397000D01*
X153883000Y-80147000D01*
X153884204Y-80122496D01*
X153887804Y-80098227D01*
X153893765Y-80074429D01*
X153902030Y-80051329D01*
X153912520Y-80029151D01*
X153925133Y-80008107D01*
X153939747Y-79988402D01*
X153956223Y-79970223D01*
X153974402Y-79953747D01*
X153994107Y-79939133D01*
X154015151Y-79926520D01*
X154037329Y-79916030D01*
X154060429Y-79907765D01*
X154084227Y-79901804D01*
X154108496Y-79898204D01*
X154133000Y-79897000D01*
X155058000Y-79897000D01*
X155082504Y-79898204D01*
X155082504Y-79898204D01*
G37*
D11*
X154595500Y-80772000D03*
D10*
G36*
X152850504Y-79898204D02*
G01*
X152874773Y-79901804D01*
X152898571Y-79907765D01*
X152921671Y-79916030D01*
X152943849Y-79926520D01*
X152964893Y-79939133D01*
X152984598Y-79953747D01*
X153002777Y-79970223D01*
X153019253Y-79988402D01*
X153033867Y-80008107D01*
X153046480Y-80029151D01*
X153056970Y-80051329D01*
X153065235Y-80074429D01*
X153071196Y-80098227D01*
X153074796Y-80122496D01*
X153076000Y-80147000D01*
X153076000Y-81397000D01*
X153074796Y-81421504D01*
X153071196Y-81445773D01*
X153065235Y-81469571D01*
X153056970Y-81492671D01*
X153046480Y-81514849D01*
X153033867Y-81535893D01*
X153019253Y-81555598D01*
X153002777Y-81573777D01*
X152984598Y-81590253D01*
X152964893Y-81604867D01*
X152943849Y-81617480D01*
X152921671Y-81627970D01*
X152898571Y-81636235D01*
X152874773Y-81642196D01*
X152850504Y-81645796D01*
X152826000Y-81647000D01*
X151901000Y-81647000D01*
X151876496Y-81645796D01*
X151852227Y-81642196D01*
X151828429Y-81636235D01*
X151805329Y-81627970D01*
X151783151Y-81617480D01*
X151762107Y-81604867D01*
X151742402Y-81590253D01*
X151724223Y-81573777D01*
X151707747Y-81555598D01*
X151693133Y-81535893D01*
X151680520Y-81514849D01*
X151670030Y-81492671D01*
X151661765Y-81469571D01*
X151655804Y-81445773D01*
X151652204Y-81421504D01*
X151651000Y-81397000D01*
X151651000Y-80147000D01*
X151652204Y-80122496D01*
X151655804Y-80098227D01*
X151661765Y-80074429D01*
X151670030Y-80051329D01*
X151680520Y-80029151D01*
X151693133Y-80008107D01*
X151707747Y-79988402D01*
X151724223Y-79970223D01*
X151742402Y-79953747D01*
X151762107Y-79939133D01*
X151783151Y-79926520D01*
X151805329Y-79916030D01*
X151828429Y-79907765D01*
X151852227Y-79901804D01*
X151876496Y-79898204D01*
X151901000Y-79897000D01*
X152826000Y-79897000D01*
X152850504Y-79898204D01*
X152850504Y-79898204D01*
G37*
D11*
X152363500Y-80772000D03*
D10*
G36*
X149875504Y-79898204D02*
G01*
X149899773Y-79901804D01*
X149923571Y-79907765D01*
X149946671Y-79916030D01*
X149968849Y-79926520D01*
X149989893Y-79939133D01*
X150009598Y-79953747D01*
X150027777Y-79970223D01*
X150044253Y-79988402D01*
X150058867Y-80008107D01*
X150071480Y-80029151D01*
X150081970Y-80051329D01*
X150090235Y-80074429D01*
X150096196Y-80098227D01*
X150099796Y-80122496D01*
X150101000Y-80147000D01*
X150101000Y-81397000D01*
X150099796Y-81421504D01*
X150096196Y-81445773D01*
X150090235Y-81469571D01*
X150081970Y-81492671D01*
X150071480Y-81514849D01*
X150058867Y-81535893D01*
X150044253Y-81555598D01*
X150027777Y-81573777D01*
X150009598Y-81590253D01*
X149989893Y-81604867D01*
X149968849Y-81617480D01*
X149946671Y-81627970D01*
X149923571Y-81636235D01*
X149899773Y-81642196D01*
X149875504Y-81645796D01*
X149851000Y-81647000D01*
X148926000Y-81647000D01*
X148901496Y-81645796D01*
X148877227Y-81642196D01*
X148853429Y-81636235D01*
X148830329Y-81627970D01*
X148808151Y-81617480D01*
X148787107Y-81604867D01*
X148767402Y-81590253D01*
X148749223Y-81573777D01*
X148732747Y-81555598D01*
X148718133Y-81535893D01*
X148705520Y-81514849D01*
X148695030Y-81492671D01*
X148686765Y-81469571D01*
X148680804Y-81445773D01*
X148677204Y-81421504D01*
X148676000Y-81397000D01*
X148676000Y-80147000D01*
X148677204Y-80122496D01*
X148680804Y-80098227D01*
X148686765Y-80074429D01*
X148695030Y-80051329D01*
X148705520Y-80029151D01*
X148718133Y-80008107D01*
X148732747Y-79988402D01*
X148749223Y-79970223D01*
X148767402Y-79953747D01*
X148787107Y-79939133D01*
X148808151Y-79926520D01*
X148830329Y-79916030D01*
X148853429Y-79907765D01*
X148877227Y-79901804D01*
X148901496Y-79898204D01*
X148926000Y-79897000D01*
X149851000Y-79897000D01*
X149875504Y-79898204D01*
X149875504Y-79898204D01*
G37*
D11*
X149388500Y-80772000D03*
D12*
X138782000Y-123440000D03*
X138782000Y-124090000D03*
X138782000Y-124740000D03*
X138782000Y-125390000D03*
X138782000Y-126040000D03*
X138782000Y-126690000D03*
X138782000Y-127340000D03*
X138782000Y-127990000D03*
X138782000Y-128640000D03*
X138782000Y-129290000D03*
X144682000Y-129290000D03*
X144682000Y-128640000D03*
X144682000Y-127990000D03*
X144682000Y-127340000D03*
X144682000Y-126690000D03*
X144682000Y-126040000D03*
X144682000Y-125390000D03*
X144682000Y-124740000D03*
X144682000Y-124090000D03*
X144682000Y-123440000D03*
X138782000Y-113788000D03*
X138782000Y-114438000D03*
X138782000Y-115088000D03*
X138782000Y-115738000D03*
X138782000Y-116388000D03*
X138782000Y-117038000D03*
X138782000Y-117688000D03*
X138782000Y-118338000D03*
X138782000Y-118988000D03*
X138782000Y-119638000D03*
X144682000Y-119638000D03*
X144682000Y-118988000D03*
X144682000Y-118338000D03*
X144682000Y-117688000D03*
X144682000Y-117038000D03*
X144682000Y-116388000D03*
X144682000Y-115738000D03*
X144682000Y-115088000D03*
X144682000Y-114438000D03*
X144682000Y-113788000D03*
X138782000Y-102485000D03*
X138782000Y-103135000D03*
X138782000Y-103785000D03*
X138782000Y-104435000D03*
X138782000Y-105085000D03*
X138782000Y-105735000D03*
X138782000Y-106385000D03*
X138782000Y-107035000D03*
X138782000Y-107685000D03*
X138782000Y-108335000D03*
X144682000Y-108335000D03*
X144682000Y-107685000D03*
X144682000Y-107035000D03*
X144682000Y-106385000D03*
X144682000Y-105735000D03*
X144682000Y-105085000D03*
X144682000Y-104435000D03*
X144682000Y-103785000D03*
X144682000Y-103135000D03*
X144682000Y-102485000D03*
X138274000Y-85710000D03*
X138274000Y-86360000D03*
X138274000Y-87010000D03*
X138274000Y-87660000D03*
X138274000Y-88310000D03*
X138274000Y-88960000D03*
X138274000Y-89610000D03*
X138274000Y-90260000D03*
X138274000Y-90910000D03*
X138274000Y-91560000D03*
X144174000Y-91560000D03*
X144174000Y-90910000D03*
X144174000Y-90260000D03*
X144174000Y-89610000D03*
X144174000Y-88960000D03*
X144174000Y-88310000D03*
X144174000Y-87660000D03*
X144174000Y-87010000D03*
X144174000Y-86360000D03*
X144174000Y-85710000D03*
D10*
G36*
X158057504Y-115458204D02*
G01*
X158081773Y-115461804D01*
X158105571Y-115467765D01*
X158128671Y-115476030D01*
X158150849Y-115486520D01*
X158171893Y-115499133D01*
X158191598Y-115513747D01*
X158209777Y-115530223D01*
X158226253Y-115548402D01*
X158240867Y-115568107D01*
X158253480Y-115589151D01*
X158263970Y-115611329D01*
X158272235Y-115634429D01*
X158278196Y-115658227D01*
X158281796Y-115682496D01*
X158283000Y-115707000D01*
X158283000Y-116957000D01*
X158281796Y-116981504D01*
X158278196Y-117005773D01*
X158272235Y-117029571D01*
X158263970Y-117052671D01*
X158253480Y-117074849D01*
X158240867Y-117095893D01*
X158226253Y-117115598D01*
X158209777Y-117133777D01*
X158191598Y-117150253D01*
X158171893Y-117164867D01*
X158150849Y-117177480D01*
X158128671Y-117187970D01*
X158105571Y-117196235D01*
X158081773Y-117202196D01*
X158057504Y-117205796D01*
X158033000Y-117207000D01*
X157108000Y-117207000D01*
X157083496Y-117205796D01*
X157059227Y-117202196D01*
X157035429Y-117196235D01*
X157012329Y-117187970D01*
X156990151Y-117177480D01*
X156969107Y-117164867D01*
X156949402Y-117150253D01*
X156931223Y-117133777D01*
X156914747Y-117115598D01*
X156900133Y-117095893D01*
X156887520Y-117074849D01*
X156877030Y-117052671D01*
X156868765Y-117029571D01*
X156862804Y-117005773D01*
X156859204Y-116981504D01*
X156858000Y-116957000D01*
X156858000Y-115707000D01*
X156859204Y-115682496D01*
X156862804Y-115658227D01*
X156868765Y-115634429D01*
X156877030Y-115611329D01*
X156887520Y-115589151D01*
X156900133Y-115568107D01*
X156914747Y-115548402D01*
X156931223Y-115530223D01*
X156949402Y-115513747D01*
X156969107Y-115499133D01*
X156990151Y-115486520D01*
X157012329Y-115476030D01*
X157035429Y-115467765D01*
X157059227Y-115461804D01*
X157083496Y-115458204D01*
X157108000Y-115457000D01*
X158033000Y-115457000D01*
X158057504Y-115458204D01*
X158057504Y-115458204D01*
G37*
D11*
X157570500Y-116332000D03*
D10*
G36*
X155082504Y-115458204D02*
G01*
X155106773Y-115461804D01*
X155130571Y-115467765D01*
X155153671Y-115476030D01*
X155175849Y-115486520D01*
X155196893Y-115499133D01*
X155216598Y-115513747D01*
X155234777Y-115530223D01*
X155251253Y-115548402D01*
X155265867Y-115568107D01*
X155278480Y-115589151D01*
X155288970Y-115611329D01*
X155297235Y-115634429D01*
X155303196Y-115658227D01*
X155306796Y-115682496D01*
X155308000Y-115707000D01*
X155308000Y-116957000D01*
X155306796Y-116981504D01*
X155303196Y-117005773D01*
X155297235Y-117029571D01*
X155288970Y-117052671D01*
X155278480Y-117074849D01*
X155265867Y-117095893D01*
X155251253Y-117115598D01*
X155234777Y-117133777D01*
X155216598Y-117150253D01*
X155196893Y-117164867D01*
X155175849Y-117177480D01*
X155153671Y-117187970D01*
X155130571Y-117196235D01*
X155106773Y-117202196D01*
X155082504Y-117205796D01*
X155058000Y-117207000D01*
X154133000Y-117207000D01*
X154108496Y-117205796D01*
X154084227Y-117202196D01*
X154060429Y-117196235D01*
X154037329Y-117187970D01*
X154015151Y-117177480D01*
X153994107Y-117164867D01*
X153974402Y-117150253D01*
X153956223Y-117133777D01*
X153939747Y-117115598D01*
X153925133Y-117095893D01*
X153912520Y-117074849D01*
X153902030Y-117052671D01*
X153893765Y-117029571D01*
X153887804Y-117005773D01*
X153884204Y-116981504D01*
X153883000Y-116957000D01*
X153883000Y-115707000D01*
X153884204Y-115682496D01*
X153887804Y-115658227D01*
X153893765Y-115634429D01*
X153902030Y-115611329D01*
X153912520Y-115589151D01*
X153925133Y-115568107D01*
X153939747Y-115548402D01*
X153956223Y-115530223D01*
X153974402Y-115513747D01*
X153994107Y-115499133D01*
X154015151Y-115486520D01*
X154037329Y-115476030D01*
X154060429Y-115467765D01*
X154084227Y-115461804D01*
X154108496Y-115458204D01*
X154133000Y-115457000D01*
X155058000Y-115457000D01*
X155082504Y-115458204D01*
X155082504Y-115458204D01*
G37*
D11*
X154595500Y-116332000D03*
D10*
G36*
X152850504Y-117998204D02*
G01*
X152874773Y-118001804D01*
X152898571Y-118007765D01*
X152921671Y-118016030D01*
X152943849Y-118026520D01*
X152964893Y-118039133D01*
X152984598Y-118053747D01*
X153002777Y-118070223D01*
X153019253Y-118088402D01*
X153033867Y-118108107D01*
X153046480Y-118129151D01*
X153056970Y-118151329D01*
X153065235Y-118174429D01*
X153071196Y-118198227D01*
X153074796Y-118222496D01*
X153076000Y-118247000D01*
X153076000Y-119497000D01*
X153074796Y-119521504D01*
X153071196Y-119545773D01*
X153065235Y-119569571D01*
X153056970Y-119592671D01*
X153046480Y-119614849D01*
X153033867Y-119635893D01*
X153019253Y-119655598D01*
X153002777Y-119673777D01*
X152984598Y-119690253D01*
X152964893Y-119704867D01*
X152943849Y-119717480D01*
X152921671Y-119727970D01*
X152898571Y-119736235D01*
X152874773Y-119742196D01*
X152850504Y-119745796D01*
X152826000Y-119747000D01*
X151901000Y-119747000D01*
X151876496Y-119745796D01*
X151852227Y-119742196D01*
X151828429Y-119736235D01*
X151805329Y-119727970D01*
X151783151Y-119717480D01*
X151762107Y-119704867D01*
X151742402Y-119690253D01*
X151724223Y-119673777D01*
X151707747Y-119655598D01*
X151693133Y-119635893D01*
X151680520Y-119614849D01*
X151670030Y-119592671D01*
X151661765Y-119569571D01*
X151655804Y-119545773D01*
X151652204Y-119521504D01*
X151651000Y-119497000D01*
X151651000Y-118247000D01*
X151652204Y-118222496D01*
X151655804Y-118198227D01*
X151661765Y-118174429D01*
X151670030Y-118151329D01*
X151680520Y-118129151D01*
X151693133Y-118108107D01*
X151707747Y-118088402D01*
X151724223Y-118070223D01*
X151742402Y-118053747D01*
X151762107Y-118039133D01*
X151783151Y-118026520D01*
X151805329Y-118016030D01*
X151828429Y-118007765D01*
X151852227Y-118001804D01*
X151876496Y-117998204D01*
X151901000Y-117997000D01*
X152826000Y-117997000D01*
X152850504Y-117998204D01*
X152850504Y-117998204D01*
G37*
D11*
X152363500Y-118872000D03*
D10*
G36*
X149875504Y-117998204D02*
G01*
X149899773Y-118001804D01*
X149923571Y-118007765D01*
X149946671Y-118016030D01*
X149968849Y-118026520D01*
X149989893Y-118039133D01*
X150009598Y-118053747D01*
X150027777Y-118070223D01*
X150044253Y-118088402D01*
X150058867Y-118108107D01*
X150071480Y-118129151D01*
X150081970Y-118151329D01*
X150090235Y-118174429D01*
X150096196Y-118198227D01*
X150099796Y-118222496D01*
X150101000Y-118247000D01*
X150101000Y-119497000D01*
X150099796Y-119521504D01*
X150096196Y-119545773D01*
X150090235Y-119569571D01*
X150081970Y-119592671D01*
X150071480Y-119614849D01*
X150058867Y-119635893D01*
X150044253Y-119655598D01*
X150027777Y-119673777D01*
X150009598Y-119690253D01*
X149989893Y-119704867D01*
X149968849Y-119717480D01*
X149946671Y-119727970D01*
X149923571Y-119736235D01*
X149899773Y-119742196D01*
X149875504Y-119745796D01*
X149851000Y-119747000D01*
X148926000Y-119747000D01*
X148901496Y-119745796D01*
X148877227Y-119742196D01*
X148853429Y-119736235D01*
X148830329Y-119727970D01*
X148808151Y-119717480D01*
X148787107Y-119704867D01*
X148767402Y-119690253D01*
X148749223Y-119673777D01*
X148732747Y-119655598D01*
X148718133Y-119635893D01*
X148705520Y-119614849D01*
X148695030Y-119592671D01*
X148686765Y-119569571D01*
X148680804Y-119545773D01*
X148677204Y-119521504D01*
X148676000Y-119497000D01*
X148676000Y-118247000D01*
X148677204Y-118222496D01*
X148680804Y-118198227D01*
X148686765Y-118174429D01*
X148695030Y-118151329D01*
X148705520Y-118129151D01*
X148718133Y-118108107D01*
X148732747Y-118088402D01*
X148749223Y-118070223D01*
X148767402Y-118053747D01*
X148787107Y-118039133D01*
X148808151Y-118026520D01*
X148830329Y-118016030D01*
X148853429Y-118007765D01*
X148877227Y-118001804D01*
X148901496Y-117998204D01*
X148926000Y-117997000D01*
X149851000Y-117997000D01*
X149875504Y-117998204D01*
X149875504Y-117998204D01*
G37*
D11*
X149388500Y-118872000D03*
D10*
G36*
X152850504Y-115458204D02*
G01*
X152874773Y-115461804D01*
X152898571Y-115467765D01*
X152921671Y-115476030D01*
X152943849Y-115486520D01*
X152964893Y-115499133D01*
X152984598Y-115513747D01*
X153002777Y-115530223D01*
X153019253Y-115548402D01*
X153033867Y-115568107D01*
X153046480Y-115589151D01*
X153056970Y-115611329D01*
X153065235Y-115634429D01*
X153071196Y-115658227D01*
X153074796Y-115682496D01*
X153076000Y-115707000D01*
X153076000Y-116957000D01*
X153074796Y-116981504D01*
X153071196Y-117005773D01*
X153065235Y-117029571D01*
X153056970Y-117052671D01*
X153046480Y-117074849D01*
X153033867Y-117095893D01*
X153019253Y-117115598D01*
X153002777Y-117133777D01*
X152984598Y-117150253D01*
X152964893Y-117164867D01*
X152943849Y-117177480D01*
X152921671Y-117187970D01*
X152898571Y-117196235D01*
X152874773Y-117202196D01*
X152850504Y-117205796D01*
X152826000Y-117207000D01*
X151901000Y-117207000D01*
X151876496Y-117205796D01*
X151852227Y-117202196D01*
X151828429Y-117196235D01*
X151805329Y-117187970D01*
X151783151Y-117177480D01*
X151762107Y-117164867D01*
X151742402Y-117150253D01*
X151724223Y-117133777D01*
X151707747Y-117115598D01*
X151693133Y-117095893D01*
X151680520Y-117074849D01*
X151670030Y-117052671D01*
X151661765Y-117029571D01*
X151655804Y-117005773D01*
X151652204Y-116981504D01*
X151651000Y-116957000D01*
X151651000Y-115707000D01*
X151652204Y-115682496D01*
X151655804Y-115658227D01*
X151661765Y-115634429D01*
X151670030Y-115611329D01*
X151680520Y-115589151D01*
X151693133Y-115568107D01*
X151707747Y-115548402D01*
X151724223Y-115530223D01*
X151742402Y-115513747D01*
X151762107Y-115499133D01*
X151783151Y-115486520D01*
X151805329Y-115476030D01*
X151828429Y-115467765D01*
X151852227Y-115461804D01*
X151876496Y-115458204D01*
X151901000Y-115457000D01*
X152826000Y-115457000D01*
X152850504Y-115458204D01*
X152850504Y-115458204D01*
G37*
D11*
X152363500Y-116332000D03*
D10*
G36*
X149875504Y-115458204D02*
G01*
X149899773Y-115461804D01*
X149923571Y-115467765D01*
X149946671Y-115476030D01*
X149968849Y-115486520D01*
X149989893Y-115499133D01*
X150009598Y-115513747D01*
X150027777Y-115530223D01*
X150044253Y-115548402D01*
X150058867Y-115568107D01*
X150071480Y-115589151D01*
X150081970Y-115611329D01*
X150090235Y-115634429D01*
X150096196Y-115658227D01*
X150099796Y-115682496D01*
X150101000Y-115707000D01*
X150101000Y-116957000D01*
X150099796Y-116981504D01*
X150096196Y-117005773D01*
X150090235Y-117029571D01*
X150081970Y-117052671D01*
X150071480Y-117074849D01*
X150058867Y-117095893D01*
X150044253Y-117115598D01*
X150027777Y-117133777D01*
X150009598Y-117150253D01*
X149989893Y-117164867D01*
X149968849Y-117177480D01*
X149946671Y-117187970D01*
X149923571Y-117196235D01*
X149899773Y-117202196D01*
X149875504Y-117205796D01*
X149851000Y-117207000D01*
X148926000Y-117207000D01*
X148901496Y-117205796D01*
X148877227Y-117202196D01*
X148853429Y-117196235D01*
X148830329Y-117187970D01*
X148808151Y-117177480D01*
X148787107Y-117164867D01*
X148767402Y-117150253D01*
X148749223Y-117133777D01*
X148732747Y-117115598D01*
X148718133Y-117095893D01*
X148705520Y-117074849D01*
X148695030Y-117052671D01*
X148686765Y-117029571D01*
X148680804Y-117005773D01*
X148677204Y-116981504D01*
X148676000Y-116957000D01*
X148676000Y-115707000D01*
X148677204Y-115682496D01*
X148680804Y-115658227D01*
X148686765Y-115634429D01*
X148695030Y-115611329D01*
X148705520Y-115589151D01*
X148718133Y-115568107D01*
X148732747Y-115548402D01*
X148749223Y-115530223D01*
X148767402Y-115513747D01*
X148787107Y-115499133D01*
X148808151Y-115486520D01*
X148830329Y-115476030D01*
X148853429Y-115467765D01*
X148877227Y-115461804D01*
X148901496Y-115458204D01*
X148926000Y-115457000D01*
X149851000Y-115457000D01*
X149875504Y-115458204D01*
X149875504Y-115458204D01*
G37*
D11*
X149388500Y-116332000D03*
D10*
G36*
X158057504Y-112918204D02*
G01*
X158081773Y-112921804D01*
X158105571Y-112927765D01*
X158128671Y-112936030D01*
X158150849Y-112946520D01*
X158171893Y-112959133D01*
X158191598Y-112973747D01*
X158209777Y-112990223D01*
X158226253Y-113008402D01*
X158240867Y-113028107D01*
X158253480Y-113049151D01*
X158263970Y-113071329D01*
X158272235Y-113094429D01*
X158278196Y-113118227D01*
X158281796Y-113142496D01*
X158283000Y-113167000D01*
X158283000Y-114417000D01*
X158281796Y-114441504D01*
X158278196Y-114465773D01*
X158272235Y-114489571D01*
X158263970Y-114512671D01*
X158253480Y-114534849D01*
X158240867Y-114555893D01*
X158226253Y-114575598D01*
X158209777Y-114593777D01*
X158191598Y-114610253D01*
X158171893Y-114624867D01*
X158150849Y-114637480D01*
X158128671Y-114647970D01*
X158105571Y-114656235D01*
X158081773Y-114662196D01*
X158057504Y-114665796D01*
X158033000Y-114667000D01*
X157108000Y-114667000D01*
X157083496Y-114665796D01*
X157059227Y-114662196D01*
X157035429Y-114656235D01*
X157012329Y-114647970D01*
X156990151Y-114637480D01*
X156969107Y-114624867D01*
X156949402Y-114610253D01*
X156931223Y-114593777D01*
X156914747Y-114575598D01*
X156900133Y-114555893D01*
X156887520Y-114534849D01*
X156877030Y-114512671D01*
X156868765Y-114489571D01*
X156862804Y-114465773D01*
X156859204Y-114441504D01*
X156858000Y-114417000D01*
X156858000Y-113167000D01*
X156859204Y-113142496D01*
X156862804Y-113118227D01*
X156868765Y-113094429D01*
X156877030Y-113071329D01*
X156887520Y-113049151D01*
X156900133Y-113028107D01*
X156914747Y-113008402D01*
X156931223Y-112990223D01*
X156949402Y-112973747D01*
X156969107Y-112959133D01*
X156990151Y-112946520D01*
X157012329Y-112936030D01*
X157035429Y-112927765D01*
X157059227Y-112921804D01*
X157083496Y-112918204D01*
X157108000Y-112917000D01*
X158033000Y-112917000D01*
X158057504Y-112918204D01*
X158057504Y-112918204D01*
G37*
D11*
X157570500Y-113792000D03*
D10*
G36*
X155082504Y-112918204D02*
G01*
X155106773Y-112921804D01*
X155130571Y-112927765D01*
X155153671Y-112936030D01*
X155175849Y-112946520D01*
X155196893Y-112959133D01*
X155216598Y-112973747D01*
X155234777Y-112990223D01*
X155251253Y-113008402D01*
X155265867Y-113028107D01*
X155278480Y-113049151D01*
X155288970Y-113071329D01*
X155297235Y-113094429D01*
X155303196Y-113118227D01*
X155306796Y-113142496D01*
X155308000Y-113167000D01*
X155308000Y-114417000D01*
X155306796Y-114441504D01*
X155303196Y-114465773D01*
X155297235Y-114489571D01*
X155288970Y-114512671D01*
X155278480Y-114534849D01*
X155265867Y-114555893D01*
X155251253Y-114575598D01*
X155234777Y-114593777D01*
X155216598Y-114610253D01*
X155196893Y-114624867D01*
X155175849Y-114637480D01*
X155153671Y-114647970D01*
X155130571Y-114656235D01*
X155106773Y-114662196D01*
X155082504Y-114665796D01*
X155058000Y-114667000D01*
X154133000Y-114667000D01*
X154108496Y-114665796D01*
X154084227Y-114662196D01*
X154060429Y-114656235D01*
X154037329Y-114647970D01*
X154015151Y-114637480D01*
X153994107Y-114624867D01*
X153974402Y-114610253D01*
X153956223Y-114593777D01*
X153939747Y-114575598D01*
X153925133Y-114555893D01*
X153912520Y-114534849D01*
X153902030Y-114512671D01*
X153893765Y-114489571D01*
X153887804Y-114465773D01*
X153884204Y-114441504D01*
X153883000Y-114417000D01*
X153883000Y-113167000D01*
X153884204Y-113142496D01*
X153887804Y-113118227D01*
X153893765Y-113094429D01*
X153902030Y-113071329D01*
X153912520Y-113049151D01*
X153925133Y-113028107D01*
X153939747Y-113008402D01*
X153956223Y-112990223D01*
X153974402Y-112973747D01*
X153994107Y-112959133D01*
X154015151Y-112946520D01*
X154037329Y-112936030D01*
X154060429Y-112927765D01*
X154084227Y-112921804D01*
X154108496Y-112918204D01*
X154133000Y-112917000D01*
X155058000Y-112917000D01*
X155082504Y-112918204D01*
X155082504Y-112918204D01*
G37*
D11*
X154595500Y-113792000D03*
D10*
G36*
X152850504Y-112918204D02*
G01*
X152874773Y-112921804D01*
X152898571Y-112927765D01*
X152921671Y-112936030D01*
X152943849Y-112946520D01*
X152964893Y-112959133D01*
X152984598Y-112973747D01*
X153002777Y-112990223D01*
X153019253Y-113008402D01*
X153033867Y-113028107D01*
X153046480Y-113049151D01*
X153056970Y-113071329D01*
X153065235Y-113094429D01*
X153071196Y-113118227D01*
X153074796Y-113142496D01*
X153076000Y-113167000D01*
X153076000Y-114417000D01*
X153074796Y-114441504D01*
X153071196Y-114465773D01*
X153065235Y-114489571D01*
X153056970Y-114512671D01*
X153046480Y-114534849D01*
X153033867Y-114555893D01*
X153019253Y-114575598D01*
X153002777Y-114593777D01*
X152984598Y-114610253D01*
X152964893Y-114624867D01*
X152943849Y-114637480D01*
X152921671Y-114647970D01*
X152898571Y-114656235D01*
X152874773Y-114662196D01*
X152850504Y-114665796D01*
X152826000Y-114667000D01*
X151901000Y-114667000D01*
X151876496Y-114665796D01*
X151852227Y-114662196D01*
X151828429Y-114656235D01*
X151805329Y-114647970D01*
X151783151Y-114637480D01*
X151762107Y-114624867D01*
X151742402Y-114610253D01*
X151724223Y-114593777D01*
X151707747Y-114575598D01*
X151693133Y-114555893D01*
X151680520Y-114534849D01*
X151670030Y-114512671D01*
X151661765Y-114489571D01*
X151655804Y-114465773D01*
X151652204Y-114441504D01*
X151651000Y-114417000D01*
X151651000Y-113167000D01*
X151652204Y-113142496D01*
X151655804Y-113118227D01*
X151661765Y-113094429D01*
X151670030Y-113071329D01*
X151680520Y-113049151D01*
X151693133Y-113028107D01*
X151707747Y-113008402D01*
X151724223Y-112990223D01*
X151742402Y-112973747D01*
X151762107Y-112959133D01*
X151783151Y-112946520D01*
X151805329Y-112936030D01*
X151828429Y-112927765D01*
X151852227Y-112921804D01*
X151876496Y-112918204D01*
X151901000Y-112917000D01*
X152826000Y-112917000D01*
X152850504Y-112918204D01*
X152850504Y-112918204D01*
G37*
D11*
X152363500Y-113792000D03*
D10*
G36*
X149875504Y-112918204D02*
G01*
X149899773Y-112921804D01*
X149923571Y-112927765D01*
X149946671Y-112936030D01*
X149968849Y-112946520D01*
X149989893Y-112959133D01*
X150009598Y-112973747D01*
X150027777Y-112990223D01*
X150044253Y-113008402D01*
X150058867Y-113028107D01*
X150071480Y-113049151D01*
X150081970Y-113071329D01*
X150090235Y-113094429D01*
X150096196Y-113118227D01*
X150099796Y-113142496D01*
X150101000Y-113167000D01*
X150101000Y-114417000D01*
X150099796Y-114441504D01*
X150096196Y-114465773D01*
X150090235Y-114489571D01*
X150081970Y-114512671D01*
X150071480Y-114534849D01*
X150058867Y-114555893D01*
X150044253Y-114575598D01*
X150027777Y-114593777D01*
X150009598Y-114610253D01*
X149989893Y-114624867D01*
X149968849Y-114637480D01*
X149946671Y-114647970D01*
X149923571Y-114656235D01*
X149899773Y-114662196D01*
X149875504Y-114665796D01*
X149851000Y-114667000D01*
X148926000Y-114667000D01*
X148901496Y-114665796D01*
X148877227Y-114662196D01*
X148853429Y-114656235D01*
X148830329Y-114647970D01*
X148808151Y-114637480D01*
X148787107Y-114624867D01*
X148767402Y-114610253D01*
X148749223Y-114593777D01*
X148732747Y-114575598D01*
X148718133Y-114555893D01*
X148705520Y-114534849D01*
X148695030Y-114512671D01*
X148686765Y-114489571D01*
X148680804Y-114465773D01*
X148677204Y-114441504D01*
X148676000Y-114417000D01*
X148676000Y-113167000D01*
X148677204Y-113142496D01*
X148680804Y-113118227D01*
X148686765Y-113094429D01*
X148695030Y-113071329D01*
X148705520Y-113049151D01*
X148718133Y-113028107D01*
X148732747Y-113008402D01*
X148749223Y-112990223D01*
X148767402Y-112973747D01*
X148787107Y-112959133D01*
X148808151Y-112946520D01*
X148830329Y-112936030D01*
X148853429Y-112927765D01*
X148877227Y-112921804D01*
X148901496Y-112918204D01*
X148926000Y-112917000D01*
X149851000Y-112917000D01*
X149875504Y-112918204D01*
X149875504Y-112918204D01*
G37*
D11*
X149388500Y-113792000D03*
D10*
G36*
X160542504Y-108254704D02*
G01*
X160566773Y-108258304D01*
X160590571Y-108264265D01*
X160613671Y-108272530D01*
X160635849Y-108283020D01*
X160656893Y-108295633D01*
X160676598Y-108310247D01*
X160694777Y-108326723D01*
X160711253Y-108344902D01*
X160725867Y-108364607D01*
X160738480Y-108385651D01*
X160748970Y-108407829D01*
X160757235Y-108430929D01*
X160763196Y-108454727D01*
X160766796Y-108478996D01*
X160768000Y-108503500D01*
X160768000Y-109428500D01*
X160766796Y-109453004D01*
X160763196Y-109477273D01*
X160757235Y-109501071D01*
X160748970Y-109524171D01*
X160738480Y-109546349D01*
X160725867Y-109567393D01*
X160711253Y-109587098D01*
X160694777Y-109605277D01*
X160676598Y-109621753D01*
X160656893Y-109636367D01*
X160635849Y-109648980D01*
X160613671Y-109659470D01*
X160590571Y-109667735D01*
X160566773Y-109673696D01*
X160542504Y-109677296D01*
X160518000Y-109678500D01*
X159268000Y-109678500D01*
X159243496Y-109677296D01*
X159219227Y-109673696D01*
X159195429Y-109667735D01*
X159172329Y-109659470D01*
X159150151Y-109648980D01*
X159129107Y-109636367D01*
X159109402Y-109621753D01*
X159091223Y-109605277D01*
X159074747Y-109587098D01*
X159060133Y-109567393D01*
X159047520Y-109546349D01*
X159037030Y-109524171D01*
X159028765Y-109501071D01*
X159022804Y-109477273D01*
X159019204Y-109453004D01*
X159018000Y-109428500D01*
X159018000Y-108503500D01*
X159019204Y-108478996D01*
X159022804Y-108454727D01*
X159028765Y-108430929D01*
X159037030Y-108407829D01*
X159047520Y-108385651D01*
X159060133Y-108364607D01*
X159074747Y-108344902D01*
X159091223Y-108326723D01*
X159109402Y-108310247D01*
X159129107Y-108295633D01*
X159150151Y-108283020D01*
X159172329Y-108272530D01*
X159195429Y-108264265D01*
X159219227Y-108258304D01*
X159243496Y-108254704D01*
X159268000Y-108253500D01*
X160518000Y-108253500D01*
X160542504Y-108254704D01*
X160542504Y-108254704D01*
G37*
D11*
X159893000Y-108966000D03*
D10*
G36*
X160542504Y-105279704D02*
G01*
X160566773Y-105283304D01*
X160590571Y-105289265D01*
X160613671Y-105297530D01*
X160635849Y-105308020D01*
X160656893Y-105320633D01*
X160676598Y-105335247D01*
X160694777Y-105351723D01*
X160711253Y-105369902D01*
X160725867Y-105389607D01*
X160738480Y-105410651D01*
X160748970Y-105432829D01*
X160757235Y-105455929D01*
X160763196Y-105479727D01*
X160766796Y-105503996D01*
X160768000Y-105528500D01*
X160768000Y-106453500D01*
X160766796Y-106478004D01*
X160763196Y-106502273D01*
X160757235Y-106526071D01*
X160748970Y-106549171D01*
X160738480Y-106571349D01*
X160725867Y-106592393D01*
X160711253Y-106612098D01*
X160694777Y-106630277D01*
X160676598Y-106646753D01*
X160656893Y-106661367D01*
X160635849Y-106673980D01*
X160613671Y-106684470D01*
X160590571Y-106692735D01*
X160566773Y-106698696D01*
X160542504Y-106702296D01*
X160518000Y-106703500D01*
X159268000Y-106703500D01*
X159243496Y-106702296D01*
X159219227Y-106698696D01*
X159195429Y-106692735D01*
X159172329Y-106684470D01*
X159150151Y-106673980D01*
X159129107Y-106661367D01*
X159109402Y-106646753D01*
X159091223Y-106630277D01*
X159074747Y-106612098D01*
X159060133Y-106592393D01*
X159047520Y-106571349D01*
X159037030Y-106549171D01*
X159028765Y-106526071D01*
X159022804Y-106502273D01*
X159019204Y-106478004D01*
X159018000Y-106453500D01*
X159018000Y-105528500D01*
X159019204Y-105503996D01*
X159022804Y-105479727D01*
X159028765Y-105455929D01*
X159037030Y-105432829D01*
X159047520Y-105410651D01*
X159060133Y-105389607D01*
X159074747Y-105369902D01*
X159091223Y-105351723D01*
X159109402Y-105335247D01*
X159129107Y-105320633D01*
X159150151Y-105308020D01*
X159172329Y-105297530D01*
X159195429Y-105289265D01*
X159219227Y-105283304D01*
X159243496Y-105279704D01*
X159268000Y-105278500D01*
X160518000Y-105278500D01*
X160542504Y-105279704D01*
X160542504Y-105279704D01*
G37*
D11*
X159893000Y-105991000D03*
D10*
G36*
X152850504Y-123078204D02*
G01*
X152874773Y-123081804D01*
X152898571Y-123087765D01*
X152921671Y-123096030D01*
X152943849Y-123106520D01*
X152964893Y-123119133D01*
X152984598Y-123133747D01*
X153002777Y-123150223D01*
X153019253Y-123168402D01*
X153033867Y-123188107D01*
X153046480Y-123209151D01*
X153056970Y-123231329D01*
X153065235Y-123254429D01*
X153071196Y-123278227D01*
X153074796Y-123302496D01*
X153076000Y-123327000D01*
X153076000Y-124577000D01*
X153074796Y-124601504D01*
X153071196Y-124625773D01*
X153065235Y-124649571D01*
X153056970Y-124672671D01*
X153046480Y-124694849D01*
X153033867Y-124715893D01*
X153019253Y-124735598D01*
X153002777Y-124753777D01*
X152984598Y-124770253D01*
X152964893Y-124784867D01*
X152943849Y-124797480D01*
X152921671Y-124807970D01*
X152898571Y-124816235D01*
X152874773Y-124822196D01*
X152850504Y-124825796D01*
X152826000Y-124827000D01*
X151901000Y-124827000D01*
X151876496Y-124825796D01*
X151852227Y-124822196D01*
X151828429Y-124816235D01*
X151805329Y-124807970D01*
X151783151Y-124797480D01*
X151762107Y-124784867D01*
X151742402Y-124770253D01*
X151724223Y-124753777D01*
X151707747Y-124735598D01*
X151693133Y-124715893D01*
X151680520Y-124694849D01*
X151670030Y-124672671D01*
X151661765Y-124649571D01*
X151655804Y-124625773D01*
X151652204Y-124601504D01*
X151651000Y-124577000D01*
X151651000Y-123327000D01*
X151652204Y-123302496D01*
X151655804Y-123278227D01*
X151661765Y-123254429D01*
X151670030Y-123231329D01*
X151680520Y-123209151D01*
X151693133Y-123188107D01*
X151707747Y-123168402D01*
X151724223Y-123150223D01*
X151742402Y-123133747D01*
X151762107Y-123119133D01*
X151783151Y-123106520D01*
X151805329Y-123096030D01*
X151828429Y-123087765D01*
X151852227Y-123081804D01*
X151876496Y-123078204D01*
X151901000Y-123077000D01*
X152826000Y-123077000D01*
X152850504Y-123078204D01*
X152850504Y-123078204D01*
G37*
D11*
X152363500Y-123952000D03*
D10*
G36*
X149875504Y-123078204D02*
G01*
X149899773Y-123081804D01*
X149923571Y-123087765D01*
X149946671Y-123096030D01*
X149968849Y-123106520D01*
X149989893Y-123119133D01*
X150009598Y-123133747D01*
X150027777Y-123150223D01*
X150044253Y-123168402D01*
X150058867Y-123188107D01*
X150071480Y-123209151D01*
X150081970Y-123231329D01*
X150090235Y-123254429D01*
X150096196Y-123278227D01*
X150099796Y-123302496D01*
X150101000Y-123327000D01*
X150101000Y-124577000D01*
X150099796Y-124601504D01*
X150096196Y-124625773D01*
X150090235Y-124649571D01*
X150081970Y-124672671D01*
X150071480Y-124694849D01*
X150058867Y-124715893D01*
X150044253Y-124735598D01*
X150027777Y-124753777D01*
X150009598Y-124770253D01*
X149989893Y-124784867D01*
X149968849Y-124797480D01*
X149946671Y-124807970D01*
X149923571Y-124816235D01*
X149899773Y-124822196D01*
X149875504Y-124825796D01*
X149851000Y-124827000D01*
X148926000Y-124827000D01*
X148901496Y-124825796D01*
X148877227Y-124822196D01*
X148853429Y-124816235D01*
X148830329Y-124807970D01*
X148808151Y-124797480D01*
X148787107Y-124784867D01*
X148767402Y-124770253D01*
X148749223Y-124753777D01*
X148732747Y-124735598D01*
X148718133Y-124715893D01*
X148705520Y-124694849D01*
X148695030Y-124672671D01*
X148686765Y-124649571D01*
X148680804Y-124625773D01*
X148677204Y-124601504D01*
X148676000Y-124577000D01*
X148676000Y-123327000D01*
X148677204Y-123302496D01*
X148680804Y-123278227D01*
X148686765Y-123254429D01*
X148695030Y-123231329D01*
X148705520Y-123209151D01*
X148718133Y-123188107D01*
X148732747Y-123168402D01*
X148749223Y-123150223D01*
X148767402Y-123133747D01*
X148787107Y-123119133D01*
X148808151Y-123106520D01*
X148830329Y-123096030D01*
X148853429Y-123087765D01*
X148877227Y-123081804D01*
X148901496Y-123078204D01*
X148926000Y-123077000D01*
X149851000Y-123077000D01*
X149875504Y-123078204D01*
X149875504Y-123078204D01*
G37*
D11*
X149388500Y-123952000D03*
D10*
G36*
X158057504Y-107838204D02*
G01*
X158081773Y-107841804D01*
X158105571Y-107847765D01*
X158128671Y-107856030D01*
X158150849Y-107866520D01*
X158171893Y-107879133D01*
X158191598Y-107893747D01*
X158209777Y-107910223D01*
X158226253Y-107928402D01*
X158240867Y-107948107D01*
X158253480Y-107969151D01*
X158263970Y-107991329D01*
X158272235Y-108014429D01*
X158278196Y-108038227D01*
X158281796Y-108062496D01*
X158283000Y-108087000D01*
X158283000Y-109337000D01*
X158281796Y-109361504D01*
X158278196Y-109385773D01*
X158272235Y-109409571D01*
X158263970Y-109432671D01*
X158253480Y-109454849D01*
X158240867Y-109475893D01*
X158226253Y-109495598D01*
X158209777Y-109513777D01*
X158191598Y-109530253D01*
X158171893Y-109544867D01*
X158150849Y-109557480D01*
X158128671Y-109567970D01*
X158105571Y-109576235D01*
X158081773Y-109582196D01*
X158057504Y-109585796D01*
X158033000Y-109587000D01*
X157108000Y-109587000D01*
X157083496Y-109585796D01*
X157059227Y-109582196D01*
X157035429Y-109576235D01*
X157012329Y-109567970D01*
X156990151Y-109557480D01*
X156969107Y-109544867D01*
X156949402Y-109530253D01*
X156931223Y-109513777D01*
X156914747Y-109495598D01*
X156900133Y-109475893D01*
X156887520Y-109454849D01*
X156877030Y-109432671D01*
X156868765Y-109409571D01*
X156862804Y-109385773D01*
X156859204Y-109361504D01*
X156858000Y-109337000D01*
X156858000Y-108087000D01*
X156859204Y-108062496D01*
X156862804Y-108038227D01*
X156868765Y-108014429D01*
X156877030Y-107991329D01*
X156887520Y-107969151D01*
X156900133Y-107948107D01*
X156914747Y-107928402D01*
X156931223Y-107910223D01*
X156949402Y-107893747D01*
X156969107Y-107879133D01*
X156990151Y-107866520D01*
X157012329Y-107856030D01*
X157035429Y-107847765D01*
X157059227Y-107841804D01*
X157083496Y-107838204D01*
X157108000Y-107837000D01*
X158033000Y-107837000D01*
X158057504Y-107838204D01*
X158057504Y-107838204D01*
G37*
D11*
X157570500Y-108712000D03*
D10*
G36*
X155082504Y-107838204D02*
G01*
X155106773Y-107841804D01*
X155130571Y-107847765D01*
X155153671Y-107856030D01*
X155175849Y-107866520D01*
X155196893Y-107879133D01*
X155216598Y-107893747D01*
X155234777Y-107910223D01*
X155251253Y-107928402D01*
X155265867Y-107948107D01*
X155278480Y-107969151D01*
X155288970Y-107991329D01*
X155297235Y-108014429D01*
X155303196Y-108038227D01*
X155306796Y-108062496D01*
X155308000Y-108087000D01*
X155308000Y-109337000D01*
X155306796Y-109361504D01*
X155303196Y-109385773D01*
X155297235Y-109409571D01*
X155288970Y-109432671D01*
X155278480Y-109454849D01*
X155265867Y-109475893D01*
X155251253Y-109495598D01*
X155234777Y-109513777D01*
X155216598Y-109530253D01*
X155196893Y-109544867D01*
X155175849Y-109557480D01*
X155153671Y-109567970D01*
X155130571Y-109576235D01*
X155106773Y-109582196D01*
X155082504Y-109585796D01*
X155058000Y-109587000D01*
X154133000Y-109587000D01*
X154108496Y-109585796D01*
X154084227Y-109582196D01*
X154060429Y-109576235D01*
X154037329Y-109567970D01*
X154015151Y-109557480D01*
X153994107Y-109544867D01*
X153974402Y-109530253D01*
X153956223Y-109513777D01*
X153939747Y-109495598D01*
X153925133Y-109475893D01*
X153912520Y-109454849D01*
X153902030Y-109432671D01*
X153893765Y-109409571D01*
X153887804Y-109385773D01*
X153884204Y-109361504D01*
X153883000Y-109337000D01*
X153883000Y-108087000D01*
X153884204Y-108062496D01*
X153887804Y-108038227D01*
X153893765Y-108014429D01*
X153902030Y-107991329D01*
X153912520Y-107969151D01*
X153925133Y-107948107D01*
X153939747Y-107928402D01*
X153956223Y-107910223D01*
X153974402Y-107893747D01*
X153994107Y-107879133D01*
X154015151Y-107866520D01*
X154037329Y-107856030D01*
X154060429Y-107847765D01*
X154084227Y-107841804D01*
X154108496Y-107838204D01*
X154133000Y-107837000D01*
X155058000Y-107837000D01*
X155082504Y-107838204D01*
X155082504Y-107838204D01*
G37*
D11*
X154595500Y-108712000D03*
D10*
G36*
X152850504Y-107838204D02*
G01*
X152874773Y-107841804D01*
X152898571Y-107847765D01*
X152921671Y-107856030D01*
X152943849Y-107866520D01*
X152964893Y-107879133D01*
X152984598Y-107893747D01*
X153002777Y-107910223D01*
X153019253Y-107928402D01*
X153033867Y-107948107D01*
X153046480Y-107969151D01*
X153056970Y-107991329D01*
X153065235Y-108014429D01*
X153071196Y-108038227D01*
X153074796Y-108062496D01*
X153076000Y-108087000D01*
X153076000Y-109337000D01*
X153074796Y-109361504D01*
X153071196Y-109385773D01*
X153065235Y-109409571D01*
X153056970Y-109432671D01*
X153046480Y-109454849D01*
X153033867Y-109475893D01*
X153019253Y-109495598D01*
X153002777Y-109513777D01*
X152984598Y-109530253D01*
X152964893Y-109544867D01*
X152943849Y-109557480D01*
X152921671Y-109567970D01*
X152898571Y-109576235D01*
X152874773Y-109582196D01*
X152850504Y-109585796D01*
X152826000Y-109587000D01*
X151901000Y-109587000D01*
X151876496Y-109585796D01*
X151852227Y-109582196D01*
X151828429Y-109576235D01*
X151805329Y-109567970D01*
X151783151Y-109557480D01*
X151762107Y-109544867D01*
X151742402Y-109530253D01*
X151724223Y-109513777D01*
X151707747Y-109495598D01*
X151693133Y-109475893D01*
X151680520Y-109454849D01*
X151670030Y-109432671D01*
X151661765Y-109409571D01*
X151655804Y-109385773D01*
X151652204Y-109361504D01*
X151651000Y-109337000D01*
X151651000Y-108087000D01*
X151652204Y-108062496D01*
X151655804Y-108038227D01*
X151661765Y-108014429D01*
X151670030Y-107991329D01*
X151680520Y-107969151D01*
X151693133Y-107948107D01*
X151707747Y-107928402D01*
X151724223Y-107910223D01*
X151742402Y-107893747D01*
X151762107Y-107879133D01*
X151783151Y-107866520D01*
X151805329Y-107856030D01*
X151828429Y-107847765D01*
X151852227Y-107841804D01*
X151876496Y-107838204D01*
X151901000Y-107837000D01*
X152826000Y-107837000D01*
X152850504Y-107838204D01*
X152850504Y-107838204D01*
G37*
D11*
X152363500Y-108712000D03*
D10*
G36*
X149875504Y-107838204D02*
G01*
X149899773Y-107841804D01*
X149923571Y-107847765D01*
X149946671Y-107856030D01*
X149968849Y-107866520D01*
X149989893Y-107879133D01*
X150009598Y-107893747D01*
X150027777Y-107910223D01*
X150044253Y-107928402D01*
X150058867Y-107948107D01*
X150071480Y-107969151D01*
X150081970Y-107991329D01*
X150090235Y-108014429D01*
X150096196Y-108038227D01*
X150099796Y-108062496D01*
X150101000Y-108087000D01*
X150101000Y-109337000D01*
X150099796Y-109361504D01*
X150096196Y-109385773D01*
X150090235Y-109409571D01*
X150081970Y-109432671D01*
X150071480Y-109454849D01*
X150058867Y-109475893D01*
X150044253Y-109495598D01*
X150027777Y-109513777D01*
X150009598Y-109530253D01*
X149989893Y-109544867D01*
X149968849Y-109557480D01*
X149946671Y-109567970D01*
X149923571Y-109576235D01*
X149899773Y-109582196D01*
X149875504Y-109585796D01*
X149851000Y-109587000D01*
X148926000Y-109587000D01*
X148901496Y-109585796D01*
X148877227Y-109582196D01*
X148853429Y-109576235D01*
X148830329Y-109567970D01*
X148808151Y-109557480D01*
X148787107Y-109544867D01*
X148767402Y-109530253D01*
X148749223Y-109513777D01*
X148732747Y-109495598D01*
X148718133Y-109475893D01*
X148705520Y-109454849D01*
X148695030Y-109432671D01*
X148686765Y-109409571D01*
X148680804Y-109385773D01*
X148677204Y-109361504D01*
X148676000Y-109337000D01*
X148676000Y-108087000D01*
X148677204Y-108062496D01*
X148680804Y-108038227D01*
X148686765Y-108014429D01*
X148695030Y-107991329D01*
X148705520Y-107969151D01*
X148718133Y-107948107D01*
X148732747Y-107928402D01*
X148749223Y-107910223D01*
X148767402Y-107893747D01*
X148787107Y-107879133D01*
X148808151Y-107866520D01*
X148830329Y-107856030D01*
X148853429Y-107847765D01*
X148877227Y-107841804D01*
X148901496Y-107838204D01*
X148926000Y-107837000D01*
X149851000Y-107837000D01*
X149875504Y-107838204D01*
X149875504Y-107838204D01*
G37*
D11*
X149388500Y-108712000D03*
D10*
G36*
X158057504Y-105298204D02*
G01*
X158081773Y-105301804D01*
X158105571Y-105307765D01*
X158128671Y-105316030D01*
X158150849Y-105326520D01*
X158171893Y-105339133D01*
X158191598Y-105353747D01*
X158209777Y-105370223D01*
X158226253Y-105388402D01*
X158240867Y-105408107D01*
X158253480Y-105429151D01*
X158263970Y-105451329D01*
X158272235Y-105474429D01*
X158278196Y-105498227D01*
X158281796Y-105522496D01*
X158283000Y-105547000D01*
X158283000Y-106797000D01*
X158281796Y-106821504D01*
X158278196Y-106845773D01*
X158272235Y-106869571D01*
X158263970Y-106892671D01*
X158253480Y-106914849D01*
X158240867Y-106935893D01*
X158226253Y-106955598D01*
X158209777Y-106973777D01*
X158191598Y-106990253D01*
X158171893Y-107004867D01*
X158150849Y-107017480D01*
X158128671Y-107027970D01*
X158105571Y-107036235D01*
X158081773Y-107042196D01*
X158057504Y-107045796D01*
X158033000Y-107047000D01*
X157108000Y-107047000D01*
X157083496Y-107045796D01*
X157059227Y-107042196D01*
X157035429Y-107036235D01*
X157012329Y-107027970D01*
X156990151Y-107017480D01*
X156969107Y-107004867D01*
X156949402Y-106990253D01*
X156931223Y-106973777D01*
X156914747Y-106955598D01*
X156900133Y-106935893D01*
X156887520Y-106914849D01*
X156877030Y-106892671D01*
X156868765Y-106869571D01*
X156862804Y-106845773D01*
X156859204Y-106821504D01*
X156858000Y-106797000D01*
X156858000Y-105547000D01*
X156859204Y-105522496D01*
X156862804Y-105498227D01*
X156868765Y-105474429D01*
X156877030Y-105451329D01*
X156887520Y-105429151D01*
X156900133Y-105408107D01*
X156914747Y-105388402D01*
X156931223Y-105370223D01*
X156949402Y-105353747D01*
X156969107Y-105339133D01*
X156990151Y-105326520D01*
X157012329Y-105316030D01*
X157035429Y-105307765D01*
X157059227Y-105301804D01*
X157083496Y-105298204D01*
X157108000Y-105297000D01*
X158033000Y-105297000D01*
X158057504Y-105298204D01*
X158057504Y-105298204D01*
G37*
D11*
X157570500Y-106172000D03*
D10*
G36*
X155082504Y-105298204D02*
G01*
X155106773Y-105301804D01*
X155130571Y-105307765D01*
X155153671Y-105316030D01*
X155175849Y-105326520D01*
X155196893Y-105339133D01*
X155216598Y-105353747D01*
X155234777Y-105370223D01*
X155251253Y-105388402D01*
X155265867Y-105408107D01*
X155278480Y-105429151D01*
X155288970Y-105451329D01*
X155297235Y-105474429D01*
X155303196Y-105498227D01*
X155306796Y-105522496D01*
X155308000Y-105547000D01*
X155308000Y-106797000D01*
X155306796Y-106821504D01*
X155303196Y-106845773D01*
X155297235Y-106869571D01*
X155288970Y-106892671D01*
X155278480Y-106914849D01*
X155265867Y-106935893D01*
X155251253Y-106955598D01*
X155234777Y-106973777D01*
X155216598Y-106990253D01*
X155196893Y-107004867D01*
X155175849Y-107017480D01*
X155153671Y-107027970D01*
X155130571Y-107036235D01*
X155106773Y-107042196D01*
X155082504Y-107045796D01*
X155058000Y-107047000D01*
X154133000Y-107047000D01*
X154108496Y-107045796D01*
X154084227Y-107042196D01*
X154060429Y-107036235D01*
X154037329Y-107027970D01*
X154015151Y-107017480D01*
X153994107Y-107004867D01*
X153974402Y-106990253D01*
X153956223Y-106973777D01*
X153939747Y-106955598D01*
X153925133Y-106935893D01*
X153912520Y-106914849D01*
X153902030Y-106892671D01*
X153893765Y-106869571D01*
X153887804Y-106845773D01*
X153884204Y-106821504D01*
X153883000Y-106797000D01*
X153883000Y-105547000D01*
X153884204Y-105522496D01*
X153887804Y-105498227D01*
X153893765Y-105474429D01*
X153902030Y-105451329D01*
X153912520Y-105429151D01*
X153925133Y-105408107D01*
X153939747Y-105388402D01*
X153956223Y-105370223D01*
X153974402Y-105353747D01*
X153994107Y-105339133D01*
X154015151Y-105326520D01*
X154037329Y-105316030D01*
X154060429Y-105307765D01*
X154084227Y-105301804D01*
X154108496Y-105298204D01*
X154133000Y-105297000D01*
X155058000Y-105297000D01*
X155082504Y-105298204D01*
X155082504Y-105298204D01*
G37*
D11*
X154595500Y-106172000D03*
D10*
G36*
X152850504Y-105298204D02*
G01*
X152874773Y-105301804D01*
X152898571Y-105307765D01*
X152921671Y-105316030D01*
X152943849Y-105326520D01*
X152964893Y-105339133D01*
X152984598Y-105353747D01*
X153002777Y-105370223D01*
X153019253Y-105388402D01*
X153033867Y-105408107D01*
X153046480Y-105429151D01*
X153056970Y-105451329D01*
X153065235Y-105474429D01*
X153071196Y-105498227D01*
X153074796Y-105522496D01*
X153076000Y-105547000D01*
X153076000Y-106797000D01*
X153074796Y-106821504D01*
X153071196Y-106845773D01*
X153065235Y-106869571D01*
X153056970Y-106892671D01*
X153046480Y-106914849D01*
X153033867Y-106935893D01*
X153019253Y-106955598D01*
X153002777Y-106973777D01*
X152984598Y-106990253D01*
X152964893Y-107004867D01*
X152943849Y-107017480D01*
X152921671Y-107027970D01*
X152898571Y-107036235D01*
X152874773Y-107042196D01*
X152850504Y-107045796D01*
X152826000Y-107047000D01*
X151901000Y-107047000D01*
X151876496Y-107045796D01*
X151852227Y-107042196D01*
X151828429Y-107036235D01*
X151805329Y-107027970D01*
X151783151Y-107017480D01*
X151762107Y-107004867D01*
X151742402Y-106990253D01*
X151724223Y-106973777D01*
X151707747Y-106955598D01*
X151693133Y-106935893D01*
X151680520Y-106914849D01*
X151670030Y-106892671D01*
X151661765Y-106869571D01*
X151655804Y-106845773D01*
X151652204Y-106821504D01*
X151651000Y-106797000D01*
X151651000Y-105547000D01*
X151652204Y-105522496D01*
X151655804Y-105498227D01*
X151661765Y-105474429D01*
X151670030Y-105451329D01*
X151680520Y-105429151D01*
X151693133Y-105408107D01*
X151707747Y-105388402D01*
X151724223Y-105370223D01*
X151742402Y-105353747D01*
X151762107Y-105339133D01*
X151783151Y-105326520D01*
X151805329Y-105316030D01*
X151828429Y-105307765D01*
X151852227Y-105301804D01*
X151876496Y-105298204D01*
X151901000Y-105297000D01*
X152826000Y-105297000D01*
X152850504Y-105298204D01*
X152850504Y-105298204D01*
G37*
D11*
X152363500Y-106172000D03*
D10*
G36*
X149875504Y-105298204D02*
G01*
X149899773Y-105301804D01*
X149923571Y-105307765D01*
X149946671Y-105316030D01*
X149968849Y-105326520D01*
X149989893Y-105339133D01*
X150009598Y-105353747D01*
X150027777Y-105370223D01*
X150044253Y-105388402D01*
X150058867Y-105408107D01*
X150071480Y-105429151D01*
X150081970Y-105451329D01*
X150090235Y-105474429D01*
X150096196Y-105498227D01*
X150099796Y-105522496D01*
X150101000Y-105547000D01*
X150101000Y-106797000D01*
X150099796Y-106821504D01*
X150096196Y-106845773D01*
X150090235Y-106869571D01*
X150081970Y-106892671D01*
X150071480Y-106914849D01*
X150058867Y-106935893D01*
X150044253Y-106955598D01*
X150027777Y-106973777D01*
X150009598Y-106990253D01*
X149989893Y-107004867D01*
X149968849Y-107017480D01*
X149946671Y-107027970D01*
X149923571Y-107036235D01*
X149899773Y-107042196D01*
X149875504Y-107045796D01*
X149851000Y-107047000D01*
X148926000Y-107047000D01*
X148901496Y-107045796D01*
X148877227Y-107042196D01*
X148853429Y-107036235D01*
X148830329Y-107027970D01*
X148808151Y-107017480D01*
X148787107Y-107004867D01*
X148767402Y-106990253D01*
X148749223Y-106973777D01*
X148732747Y-106955598D01*
X148718133Y-106935893D01*
X148705520Y-106914849D01*
X148695030Y-106892671D01*
X148686765Y-106869571D01*
X148680804Y-106845773D01*
X148677204Y-106821504D01*
X148676000Y-106797000D01*
X148676000Y-105547000D01*
X148677204Y-105522496D01*
X148680804Y-105498227D01*
X148686765Y-105474429D01*
X148695030Y-105451329D01*
X148705520Y-105429151D01*
X148718133Y-105408107D01*
X148732747Y-105388402D01*
X148749223Y-105370223D01*
X148767402Y-105353747D01*
X148787107Y-105339133D01*
X148808151Y-105326520D01*
X148830329Y-105316030D01*
X148853429Y-105307765D01*
X148877227Y-105301804D01*
X148901496Y-105298204D01*
X148926000Y-105297000D01*
X149851000Y-105297000D01*
X149875504Y-105298204D01*
X149875504Y-105298204D01*
G37*
D11*
X149388500Y-106172000D03*
D10*
G36*
X158057504Y-125618204D02*
G01*
X158081773Y-125621804D01*
X158105571Y-125627765D01*
X158128671Y-125636030D01*
X158150849Y-125646520D01*
X158171893Y-125659133D01*
X158191598Y-125673747D01*
X158209777Y-125690223D01*
X158226253Y-125708402D01*
X158240867Y-125728107D01*
X158253480Y-125749151D01*
X158263970Y-125771329D01*
X158272235Y-125794429D01*
X158278196Y-125818227D01*
X158281796Y-125842496D01*
X158283000Y-125867000D01*
X158283000Y-127117000D01*
X158281796Y-127141504D01*
X158278196Y-127165773D01*
X158272235Y-127189571D01*
X158263970Y-127212671D01*
X158253480Y-127234849D01*
X158240867Y-127255893D01*
X158226253Y-127275598D01*
X158209777Y-127293777D01*
X158191598Y-127310253D01*
X158171893Y-127324867D01*
X158150849Y-127337480D01*
X158128671Y-127347970D01*
X158105571Y-127356235D01*
X158081773Y-127362196D01*
X158057504Y-127365796D01*
X158033000Y-127367000D01*
X157108000Y-127367000D01*
X157083496Y-127365796D01*
X157059227Y-127362196D01*
X157035429Y-127356235D01*
X157012329Y-127347970D01*
X156990151Y-127337480D01*
X156969107Y-127324867D01*
X156949402Y-127310253D01*
X156931223Y-127293777D01*
X156914747Y-127275598D01*
X156900133Y-127255893D01*
X156887520Y-127234849D01*
X156877030Y-127212671D01*
X156868765Y-127189571D01*
X156862804Y-127165773D01*
X156859204Y-127141504D01*
X156858000Y-127117000D01*
X156858000Y-125867000D01*
X156859204Y-125842496D01*
X156862804Y-125818227D01*
X156868765Y-125794429D01*
X156877030Y-125771329D01*
X156887520Y-125749151D01*
X156900133Y-125728107D01*
X156914747Y-125708402D01*
X156931223Y-125690223D01*
X156949402Y-125673747D01*
X156969107Y-125659133D01*
X156990151Y-125646520D01*
X157012329Y-125636030D01*
X157035429Y-125627765D01*
X157059227Y-125621804D01*
X157083496Y-125618204D01*
X157108000Y-125617000D01*
X158033000Y-125617000D01*
X158057504Y-125618204D01*
X158057504Y-125618204D01*
G37*
D11*
X157570500Y-126492000D03*
D10*
G36*
X155082504Y-125618204D02*
G01*
X155106773Y-125621804D01*
X155130571Y-125627765D01*
X155153671Y-125636030D01*
X155175849Y-125646520D01*
X155196893Y-125659133D01*
X155216598Y-125673747D01*
X155234777Y-125690223D01*
X155251253Y-125708402D01*
X155265867Y-125728107D01*
X155278480Y-125749151D01*
X155288970Y-125771329D01*
X155297235Y-125794429D01*
X155303196Y-125818227D01*
X155306796Y-125842496D01*
X155308000Y-125867000D01*
X155308000Y-127117000D01*
X155306796Y-127141504D01*
X155303196Y-127165773D01*
X155297235Y-127189571D01*
X155288970Y-127212671D01*
X155278480Y-127234849D01*
X155265867Y-127255893D01*
X155251253Y-127275598D01*
X155234777Y-127293777D01*
X155216598Y-127310253D01*
X155196893Y-127324867D01*
X155175849Y-127337480D01*
X155153671Y-127347970D01*
X155130571Y-127356235D01*
X155106773Y-127362196D01*
X155082504Y-127365796D01*
X155058000Y-127367000D01*
X154133000Y-127367000D01*
X154108496Y-127365796D01*
X154084227Y-127362196D01*
X154060429Y-127356235D01*
X154037329Y-127347970D01*
X154015151Y-127337480D01*
X153994107Y-127324867D01*
X153974402Y-127310253D01*
X153956223Y-127293777D01*
X153939747Y-127275598D01*
X153925133Y-127255893D01*
X153912520Y-127234849D01*
X153902030Y-127212671D01*
X153893765Y-127189571D01*
X153887804Y-127165773D01*
X153884204Y-127141504D01*
X153883000Y-127117000D01*
X153883000Y-125867000D01*
X153884204Y-125842496D01*
X153887804Y-125818227D01*
X153893765Y-125794429D01*
X153902030Y-125771329D01*
X153912520Y-125749151D01*
X153925133Y-125728107D01*
X153939747Y-125708402D01*
X153956223Y-125690223D01*
X153974402Y-125673747D01*
X153994107Y-125659133D01*
X154015151Y-125646520D01*
X154037329Y-125636030D01*
X154060429Y-125627765D01*
X154084227Y-125621804D01*
X154108496Y-125618204D01*
X154133000Y-125617000D01*
X155058000Y-125617000D01*
X155082504Y-125618204D01*
X155082504Y-125618204D01*
G37*
D11*
X154595500Y-126492000D03*
D10*
G36*
X152850504Y-102758204D02*
G01*
X152874773Y-102761804D01*
X152898571Y-102767765D01*
X152921671Y-102776030D01*
X152943849Y-102786520D01*
X152964893Y-102799133D01*
X152984598Y-102813747D01*
X153002777Y-102830223D01*
X153019253Y-102848402D01*
X153033867Y-102868107D01*
X153046480Y-102889151D01*
X153056970Y-102911329D01*
X153065235Y-102934429D01*
X153071196Y-102958227D01*
X153074796Y-102982496D01*
X153076000Y-103007000D01*
X153076000Y-104257000D01*
X153074796Y-104281504D01*
X153071196Y-104305773D01*
X153065235Y-104329571D01*
X153056970Y-104352671D01*
X153046480Y-104374849D01*
X153033867Y-104395893D01*
X153019253Y-104415598D01*
X153002777Y-104433777D01*
X152984598Y-104450253D01*
X152964893Y-104464867D01*
X152943849Y-104477480D01*
X152921671Y-104487970D01*
X152898571Y-104496235D01*
X152874773Y-104502196D01*
X152850504Y-104505796D01*
X152826000Y-104507000D01*
X151901000Y-104507000D01*
X151876496Y-104505796D01*
X151852227Y-104502196D01*
X151828429Y-104496235D01*
X151805329Y-104487970D01*
X151783151Y-104477480D01*
X151762107Y-104464867D01*
X151742402Y-104450253D01*
X151724223Y-104433777D01*
X151707747Y-104415598D01*
X151693133Y-104395893D01*
X151680520Y-104374849D01*
X151670030Y-104352671D01*
X151661765Y-104329571D01*
X151655804Y-104305773D01*
X151652204Y-104281504D01*
X151651000Y-104257000D01*
X151651000Y-103007000D01*
X151652204Y-102982496D01*
X151655804Y-102958227D01*
X151661765Y-102934429D01*
X151670030Y-102911329D01*
X151680520Y-102889151D01*
X151693133Y-102868107D01*
X151707747Y-102848402D01*
X151724223Y-102830223D01*
X151742402Y-102813747D01*
X151762107Y-102799133D01*
X151783151Y-102786520D01*
X151805329Y-102776030D01*
X151828429Y-102767765D01*
X151852227Y-102761804D01*
X151876496Y-102758204D01*
X151901000Y-102757000D01*
X152826000Y-102757000D01*
X152850504Y-102758204D01*
X152850504Y-102758204D01*
G37*
D11*
X152363500Y-103632000D03*
D10*
G36*
X149875504Y-102758204D02*
G01*
X149899773Y-102761804D01*
X149923571Y-102767765D01*
X149946671Y-102776030D01*
X149968849Y-102786520D01*
X149989893Y-102799133D01*
X150009598Y-102813747D01*
X150027777Y-102830223D01*
X150044253Y-102848402D01*
X150058867Y-102868107D01*
X150071480Y-102889151D01*
X150081970Y-102911329D01*
X150090235Y-102934429D01*
X150096196Y-102958227D01*
X150099796Y-102982496D01*
X150101000Y-103007000D01*
X150101000Y-104257000D01*
X150099796Y-104281504D01*
X150096196Y-104305773D01*
X150090235Y-104329571D01*
X150081970Y-104352671D01*
X150071480Y-104374849D01*
X150058867Y-104395893D01*
X150044253Y-104415598D01*
X150027777Y-104433777D01*
X150009598Y-104450253D01*
X149989893Y-104464867D01*
X149968849Y-104477480D01*
X149946671Y-104487970D01*
X149923571Y-104496235D01*
X149899773Y-104502196D01*
X149875504Y-104505796D01*
X149851000Y-104507000D01*
X148926000Y-104507000D01*
X148901496Y-104505796D01*
X148877227Y-104502196D01*
X148853429Y-104496235D01*
X148830329Y-104487970D01*
X148808151Y-104477480D01*
X148787107Y-104464867D01*
X148767402Y-104450253D01*
X148749223Y-104433777D01*
X148732747Y-104415598D01*
X148718133Y-104395893D01*
X148705520Y-104374849D01*
X148695030Y-104352671D01*
X148686765Y-104329571D01*
X148680804Y-104305773D01*
X148677204Y-104281504D01*
X148676000Y-104257000D01*
X148676000Y-103007000D01*
X148677204Y-102982496D01*
X148680804Y-102958227D01*
X148686765Y-102934429D01*
X148695030Y-102911329D01*
X148705520Y-102889151D01*
X148718133Y-102868107D01*
X148732747Y-102848402D01*
X148749223Y-102830223D01*
X148767402Y-102813747D01*
X148787107Y-102799133D01*
X148808151Y-102786520D01*
X148830329Y-102776030D01*
X148853429Y-102767765D01*
X148877227Y-102761804D01*
X148901496Y-102758204D01*
X148926000Y-102757000D01*
X149851000Y-102757000D01*
X149875504Y-102758204D01*
X149875504Y-102758204D01*
G37*
D11*
X149388500Y-103632000D03*
D10*
G36*
X158057504Y-102758204D02*
G01*
X158081773Y-102761804D01*
X158105571Y-102767765D01*
X158128671Y-102776030D01*
X158150849Y-102786520D01*
X158171893Y-102799133D01*
X158191598Y-102813747D01*
X158209777Y-102830223D01*
X158226253Y-102848402D01*
X158240867Y-102868107D01*
X158253480Y-102889151D01*
X158263970Y-102911329D01*
X158272235Y-102934429D01*
X158278196Y-102958227D01*
X158281796Y-102982496D01*
X158283000Y-103007000D01*
X158283000Y-104257000D01*
X158281796Y-104281504D01*
X158278196Y-104305773D01*
X158272235Y-104329571D01*
X158263970Y-104352671D01*
X158253480Y-104374849D01*
X158240867Y-104395893D01*
X158226253Y-104415598D01*
X158209777Y-104433777D01*
X158191598Y-104450253D01*
X158171893Y-104464867D01*
X158150849Y-104477480D01*
X158128671Y-104487970D01*
X158105571Y-104496235D01*
X158081773Y-104502196D01*
X158057504Y-104505796D01*
X158033000Y-104507000D01*
X157108000Y-104507000D01*
X157083496Y-104505796D01*
X157059227Y-104502196D01*
X157035429Y-104496235D01*
X157012329Y-104487970D01*
X156990151Y-104477480D01*
X156969107Y-104464867D01*
X156949402Y-104450253D01*
X156931223Y-104433777D01*
X156914747Y-104415598D01*
X156900133Y-104395893D01*
X156887520Y-104374849D01*
X156877030Y-104352671D01*
X156868765Y-104329571D01*
X156862804Y-104305773D01*
X156859204Y-104281504D01*
X156858000Y-104257000D01*
X156858000Y-103007000D01*
X156859204Y-102982496D01*
X156862804Y-102958227D01*
X156868765Y-102934429D01*
X156877030Y-102911329D01*
X156887520Y-102889151D01*
X156900133Y-102868107D01*
X156914747Y-102848402D01*
X156931223Y-102830223D01*
X156949402Y-102813747D01*
X156969107Y-102799133D01*
X156990151Y-102786520D01*
X157012329Y-102776030D01*
X157035429Y-102767765D01*
X157059227Y-102761804D01*
X157083496Y-102758204D01*
X157108000Y-102757000D01*
X158033000Y-102757000D01*
X158057504Y-102758204D01*
X158057504Y-102758204D01*
G37*
D11*
X157570500Y-103632000D03*
D10*
G36*
X155082504Y-102758204D02*
G01*
X155106773Y-102761804D01*
X155130571Y-102767765D01*
X155153671Y-102776030D01*
X155175849Y-102786520D01*
X155196893Y-102799133D01*
X155216598Y-102813747D01*
X155234777Y-102830223D01*
X155251253Y-102848402D01*
X155265867Y-102868107D01*
X155278480Y-102889151D01*
X155288970Y-102911329D01*
X155297235Y-102934429D01*
X155303196Y-102958227D01*
X155306796Y-102982496D01*
X155308000Y-103007000D01*
X155308000Y-104257000D01*
X155306796Y-104281504D01*
X155303196Y-104305773D01*
X155297235Y-104329571D01*
X155288970Y-104352671D01*
X155278480Y-104374849D01*
X155265867Y-104395893D01*
X155251253Y-104415598D01*
X155234777Y-104433777D01*
X155216598Y-104450253D01*
X155196893Y-104464867D01*
X155175849Y-104477480D01*
X155153671Y-104487970D01*
X155130571Y-104496235D01*
X155106773Y-104502196D01*
X155082504Y-104505796D01*
X155058000Y-104507000D01*
X154133000Y-104507000D01*
X154108496Y-104505796D01*
X154084227Y-104502196D01*
X154060429Y-104496235D01*
X154037329Y-104487970D01*
X154015151Y-104477480D01*
X153994107Y-104464867D01*
X153974402Y-104450253D01*
X153956223Y-104433777D01*
X153939747Y-104415598D01*
X153925133Y-104395893D01*
X153912520Y-104374849D01*
X153902030Y-104352671D01*
X153893765Y-104329571D01*
X153887804Y-104305773D01*
X153884204Y-104281504D01*
X153883000Y-104257000D01*
X153883000Y-103007000D01*
X153884204Y-102982496D01*
X153887804Y-102958227D01*
X153893765Y-102934429D01*
X153902030Y-102911329D01*
X153912520Y-102889151D01*
X153925133Y-102868107D01*
X153939747Y-102848402D01*
X153956223Y-102830223D01*
X153974402Y-102813747D01*
X153994107Y-102799133D01*
X154015151Y-102786520D01*
X154037329Y-102776030D01*
X154060429Y-102767765D01*
X154084227Y-102761804D01*
X154108496Y-102758204D01*
X154133000Y-102757000D01*
X155058000Y-102757000D01*
X155082504Y-102758204D01*
X155082504Y-102758204D01*
G37*
D11*
X154595500Y-103632000D03*
D10*
G36*
X152850504Y-125618204D02*
G01*
X152874773Y-125621804D01*
X152898571Y-125627765D01*
X152921671Y-125636030D01*
X152943849Y-125646520D01*
X152964893Y-125659133D01*
X152984598Y-125673747D01*
X153002777Y-125690223D01*
X153019253Y-125708402D01*
X153033867Y-125728107D01*
X153046480Y-125749151D01*
X153056970Y-125771329D01*
X153065235Y-125794429D01*
X153071196Y-125818227D01*
X153074796Y-125842496D01*
X153076000Y-125867000D01*
X153076000Y-127117000D01*
X153074796Y-127141504D01*
X153071196Y-127165773D01*
X153065235Y-127189571D01*
X153056970Y-127212671D01*
X153046480Y-127234849D01*
X153033867Y-127255893D01*
X153019253Y-127275598D01*
X153002777Y-127293777D01*
X152984598Y-127310253D01*
X152964893Y-127324867D01*
X152943849Y-127337480D01*
X152921671Y-127347970D01*
X152898571Y-127356235D01*
X152874773Y-127362196D01*
X152850504Y-127365796D01*
X152826000Y-127367000D01*
X151901000Y-127367000D01*
X151876496Y-127365796D01*
X151852227Y-127362196D01*
X151828429Y-127356235D01*
X151805329Y-127347970D01*
X151783151Y-127337480D01*
X151762107Y-127324867D01*
X151742402Y-127310253D01*
X151724223Y-127293777D01*
X151707747Y-127275598D01*
X151693133Y-127255893D01*
X151680520Y-127234849D01*
X151670030Y-127212671D01*
X151661765Y-127189571D01*
X151655804Y-127165773D01*
X151652204Y-127141504D01*
X151651000Y-127117000D01*
X151651000Y-125867000D01*
X151652204Y-125842496D01*
X151655804Y-125818227D01*
X151661765Y-125794429D01*
X151670030Y-125771329D01*
X151680520Y-125749151D01*
X151693133Y-125728107D01*
X151707747Y-125708402D01*
X151724223Y-125690223D01*
X151742402Y-125673747D01*
X151762107Y-125659133D01*
X151783151Y-125646520D01*
X151805329Y-125636030D01*
X151828429Y-125627765D01*
X151852227Y-125621804D01*
X151876496Y-125618204D01*
X151901000Y-125617000D01*
X152826000Y-125617000D01*
X152850504Y-125618204D01*
X152850504Y-125618204D01*
G37*
D11*
X152363500Y-126492000D03*
D10*
G36*
X149875504Y-125618204D02*
G01*
X149899773Y-125621804D01*
X149923571Y-125627765D01*
X149946671Y-125636030D01*
X149968849Y-125646520D01*
X149989893Y-125659133D01*
X150009598Y-125673747D01*
X150027777Y-125690223D01*
X150044253Y-125708402D01*
X150058867Y-125728107D01*
X150071480Y-125749151D01*
X150081970Y-125771329D01*
X150090235Y-125794429D01*
X150096196Y-125818227D01*
X150099796Y-125842496D01*
X150101000Y-125867000D01*
X150101000Y-127117000D01*
X150099796Y-127141504D01*
X150096196Y-127165773D01*
X150090235Y-127189571D01*
X150081970Y-127212671D01*
X150071480Y-127234849D01*
X150058867Y-127255893D01*
X150044253Y-127275598D01*
X150027777Y-127293777D01*
X150009598Y-127310253D01*
X149989893Y-127324867D01*
X149968849Y-127337480D01*
X149946671Y-127347970D01*
X149923571Y-127356235D01*
X149899773Y-127362196D01*
X149875504Y-127365796D01*
X149851000Y-127367000D01*
X148926000Y-127367000D01*
X148901496Y-127365796D01*
X148877227Y-127362196D01*
X148853429Y-127356235D01*
X148830329Y-127347970D01*
X148808151Y-127337480D01*
X148787107Y-127324867D01*
X148767402Y-127310253D01*
X148749223Y-127293777D01*
X148732747Y-127275598D01*
X148718133Y-127255893D01*
X148705520Y-127234849D01*
X148695030Y-127212671D01*
X148686765Y-127189571D01*
X148680804Y-127165773D01*
X148677204Y-127141504D01*
X148676000Y-127117000D01*
X148676000Y-125867000D01*
X148677204Y-125842496D01*
X148680804Y-125818227D01*
X148686765Y-125794429D01*
X148695030Y-125771329D01*
X148705520Y-125749151D01*
X148718133Y-125728107D01*
X148732747Y-125708402D01*
X148749223Y-125690223D01*
X148767402Y-125673747D01*
X148787107Y-125659133D01*
X148808151Y-125646520D01*
X148830329Y-125636030D01*
X148853429Y-125627765D01*
X148877227Y-125621804D01*
X148901496Y-125618204D01*
X148926000Y-125617000D01*
X149851000Y-125617000D01*
X149875504Y-125618204D01*
X149875504Y-125618204D01*
G37*
D11*
X149388500Y-126492000D03*
D10*
G36*
X158057504Y-97678204D02*
G01*
X158081773Y-97681804D01*
X158105571Y-97687765D01*
X158128671Y-97696030D01*
X158150849Y-97706520D01*
X158171893Y-97719133D01*
X158191598Y-97733747D01*
X158209777Y-97750223D01*
X158226253Y-97768402D01*
X158240867Y-97788107D01*
X158253480Y-97809151D01*
X158263970Y-97831329D01*
X158272235Y-97854429D01*
X158278196Y-97878227D01*
X158281796Y-97902496D01*
X158283000Y-97927000D01*
X158283000Y-99177000D01*
X158281796Y-99201504D01*
X158278196Y-99225773D01*
X158272235Y-99249571D01*
X158263970Y-99272671D01*
X158253480Y-99294849D01*
X158240867Y-99315893D01*
X158226253Y-99335598D01*
X158209777Y-99353777D01*
X158191598Y-99370253D01*
X158171893Y-99384867D01*
X158150849Y-99397480D01*
X158128671Y-99407970D01*
X158105571Y-99416235D01*
X158081773Y-99422196D01*
X158057504Y-99425796D01*
X158033000Y-99427000D01*
X157108000Y-99427000D01*
X157083496Y-99425796D01*
X157059227Y-99422196D01*
X157035429Y-99416235D01*
X157012329Y-99407970D01*
X156990151Y-99397480D01*
X156969107Y-99384867D01*
X156949402Y-99370253D01*
X156931223Y-99353777D01*
X156914747Y-99335598D01*
X156900133Y-99315893D01*
X156887520Y-99294849D01*
X156877030Y-99272671D01*
X156868765Y-99249571D01*
X156862804Y-99225773D01*
X156859204Y-99201504D01*
X156858000Y-99177000D01*
X156858000Y-97927000D01*
X156859204Y-97902496D01*
X156862804Y-97878227D01*
X156868765Y-97854429D01*
X156877030Y-97831329D01*
X156887520Y-97809151D01*
X156900133Y-97788107D01*
X156914747Y-97768402D01*
X156931223Y-97750223D01*
X156949402Y-97733747D01*
X156969107Y-97719133D01*
X156990151Y-97706520D01*
X157012329Y-97696030D01*
X157035429Y-97687765D01*
X157059227Y-97681804D01*
X157083496Y-97678204D01*
X157108000Y-97677000D01*
X158033000Y-97677000D01*
X158057504Y-97678204D01*
X158057504Y-97678204D01*
G37*
D11*
X157570500Y-98552000D03*
D10*
G36*
X155082504Y-97678204D02*
G01*
X155106773Y-97681804D01*
X155130571Y-97687765D01*
X155153671Y-97696030D01*
X155175849Y-97706520D01*
X155196893Y-97719133D01*
X155216598Y-97733747D01*
X155234777Y-97750223D01*
X155251253Y-97768402D01*
X155265867Y-97788107D01*
X155278480Y-97809151D01*
X155288970Y-97831329D01*
X155297235Y-97854429D01*
X155303196Y-97878227D01*
X155306796Y-97902496D01*
X155308000Y-97927000D01*
X155308000Y-99177000D01*
X155306796Y-99201504D01*
X155303196Y-99225773D01*
X155297235Y-99249571D01*
X155288970Y-99272671D01*
X155278480Y-99294849D01*
X155265867Y-99315893D01*
X155251253Y-99335598D01*
X155234777Y-99353777D01*
X155216598Y-99370253D01*
X155196893Y-99384867D01*
X155175849Y-99397480D01*
X155153671Y-99407970D01*
X155130571Y-99416235D01*
X155106773Y-99422196D01*
X155082504Y-99425796D01*
X155058000Y-99427000D01*
X154133000Y-99427000D01*
X154108496Y-99425796D01*
X154084227Y-99422196D01*
X154060429Y-99416235D01*
X154037329Y-99407970D01*
X154015151Y-99397480D01*
X153994107Y-99384867D01*
X153974402Y-99370253D01*
X153956223Y-99353777D01*
X153939747Y-99335598D01*
X153925133Y-99315893D01*
X153912520Y-99294849D01*
X153902030Y-99272671D01*
X153893765Y-99249571D01*
X153887804Y-99225773D01*
X153884204Y-99201504D01*
X153883000Y-99177000D01*
X153883000Y-97927000D01*
X153884204Y-97902496D01*
X153887804Y-97878227D01*
X153893765Y-97854429D01*
X153902030Y-97831329D01*
X153912520Y-97809151D01*
X153925133Y-97788107D01*
X153939747Y-97768402D01*
X153956223Y-97750223D01*
X153974402Y-97733747D01*
X153994107Y-97719133D01*
X154015151Y-97706520D01*
X154037329Y-97696030D01*
X154060429Y-97687765D01*
X154084227Y-97681804D01*
X154108496Y-97678204D01*
X154133000Y-97677000D01*
X155058000Y-97677000D01*
X155082504Y-97678204D01*
X155082504Y-97678204D01*
G37*
D11*
X154595500Y-98552000D03*
D10*
G36*
X152850504Y-97678204D02*
G01*
X152874773Y-97681804D01*
X152898571Y-97687765D01*
X152921671Y-97696030D01*
X152943849Y-97706520D01*
X152964893Y-97719133D01*
X152984598Y-97733747D01*
X153002777Y-97750223D01*
X153019253Y-97768402D01*
X153033867Y-97788107D01*
X153046480Y-97809151D01*
X153056970Y-97831329D01*
X153065235Y-97854429D01*
X153071196Y-97878227D01*
X153074796Y-97902496D01*
X153076000Y-97927000D01*
X153076000Y-99177000D01*
X153074796Y-99201504D01*
X153071196Y-99225773D01*
X153065235Y-99249571D01*
X153056970Y-99272671D01*
X153046480Y-99294849D01*
X153033867Y-99315893D01*
X153019253Y-99335598D01*
X153002777Y-99353777D01*
X152984598Y-99370253D01*
X152964893Y-99384867D01*
X152943849Y-99397480D01*
X152921671Y-99407970D01*
X152898571Y-99416235D01*
X152874773Y-99422196D01*
X152850504Y-99425796D01*
X152826000Y-99427000D01*
X151901000Y-99427000D01*
X151876496Y-99425796D01*
X151852227Y-99422196D01*
X151828429Y-99416235D01*
X151805329Y-99407970D01*
X151783151Y-99397480D01*
X151762107Y-99384867D01*
X151742402Y-99370253D01*
X151724223Y-99353777D01*
X151707747Y-99335598D01*
X151693133Y-99315893D01*
X151680520Y-99294849D01*
X151670030Y-99272671D01*
X151661765Y-99249571D01*
X151655804Y-99225773D01*
X151652204Y-99201504D01*
X151651000Y-99177000D01*
X151651000Y-97927000D01*
X151652204Y-97902496D01*
X151655804Y-97878227D01*
X151661765Y-97854429D01*
X151670030Y-97831329D01*
X151680520Y-97809151D01*
X151693133Y-97788107D01*
X151707747Y-97768402D01*
X151724223Y-97750223D01*
X151742402Y-97733747D01*
X151762107Y-97719133D01*
X151783151Y-97706520D01*
X151805329Y-97696030D01*
X151828429Y-97687765D01*
X151852227Y-97681804D01*
X151876496Y-97678204D01*
X151901000Y-97677000D01*
X152826000Y-97677000D01*
X152850504Y-97678204D01*
X152850504Y-97678204D01*
G37*
D11*
X152363500Y-98552000D03*
D10*
G36*
X149875504Y-97678204D02*
G01*
X149899773Y-97681804D01*
X149923571Y-97687765D01*
X149946671Y-97696030D01*
X149968849Y-97706520D01*
X149989893Y-97719133D01*
X150009598Y-97733747D01*
X150027777Y-97750223D01*
X150044253Y-97768402D01*
X150058867Y-97788107D01*
X150071480Y-97809151D01*
X150081970Y-97831329D01*
X150090235Y-97854429D01*
X150096196Y-97878227D01*
X150099796Y-97902496D01*
X150101000Y-97927000D01*
X150101000Y-99177000D01*
X150099796Y-99201504D01*
X150096196Y-99225773D01*
X150090235Y-99249571D01*
X150081970Y-99272671D01*
X150071480Y-99294849D01*
X150058867Y-99315893D01*
X150044253Y-99335598D01*
X150027777Y-99353777D01*
X150009598Y-99370253D01*
X149989893Y-99384867D01*
X149968849Y-99397480D01*
X149946671Y-99407970D01*
X149923571Y-99416235D01*
X149899773Y-99422196D01*
X149875504Y-99425796D01*
X149851000Y-99427000D01*
X148926000Y-99427000D01*
X148901496Y-99425796D01*
X148877227Y-99422196D01*
X148853429Y-99416235D01*
X148830329Y-99407970D01*
X148808151Y-99397480D01*
X148787107Y-99384867D01*
X148767402Y-99370253D01*
X148749223Y-99353777D01*
X148732747Y-99335598D01*
X148718133Y-99315893D01*
X148705520Y-99294849D01*
X148695030Y-99272671D01*
X148686765Y-99249571D01*
X148680804Y-99225773D01*
X148677204Y-99201504D01*
X148676000Y-99177000D01*
X148676000Y-97927000D01*
X148677204Y-97902496D01*
X148680804Y-97878227D01*
X148686765Y-97854429D01*
X148695030Y-97831329D01*
X148705520Y-97809151D01*
X148718133Y-97788107D01*
X148732747Y-97768402D01*
X148749223Y-97750223D01*
X148767402Y-97733747D01*
X148787107Y-97719133D01*
X148808151Y-97706520D01*
X148830329Y-97696030D01*
X148853429Y-97687765D01*
X148877227Y-97681804D01*
X148901496Y-97678204D01*
X148926000Y-97677000D01*
X149851000Y-97677000D01*
X149875504Y-97678204D01*
X149875504Y-97678204D01*
G37*
D11*
X149388500Y-98552000D03*
D10*
G36*
X158057504Y-123078204D02*
G01*
X158081773Y-123081804D01*
X158105571Y-123087765D01*
X158128671Y-123096030D01*
X158150849Y-123106520D01*
X158171893Y-123119133D01*
X158191598Y-123133747D01*
X158209777Y-123150223D01*
X158226253Y-123168402D01*
X158240867Y-123188107D01*
X158253480Y-123209151D01*
X158263970Y-123231329D01*
X158272235Y-123254429D01*
X158278196Y-123278227D01*
X158281796Y-123302496D01*
X158283000Y-123327000D01*
X158283000Y-124577000D01*
X158281796Y-124601504D01*
X158278196Y-124625773D01*
X158272235Y-124649571D01*
X158263970Y-124672671D01*
X158253480Y-124694849D01*
X158240867Y-124715893D01*
X158226253Y-124735598D01*
X158209777Y-124753777D01*
X158191598Y-124770253D01*
X158171893Y-124784867D01*
X158150849Y-124797480D01*
X158128671Y-124807970D01*
X158105571Y-124816235D01*
X158081773Y-124822196D01*
X158057504Y-124825796D01*
X158033000Y-124827000D01*
X157108000Y-124827000D01*
X157083496Y-124825796D01*
X157059227Y-124822196D01*
X157035429Y-124816235D01*
X157012329Y-124807970D01*
X156990151Y-124797480D01*
X156969107Y-124784867D01*
X156949402Y-124770253D01*
X156931223Y-124753777D01*
X156914747Y-124735598D01*
X156900133Y-124715893D01*
X156887520Y-124694849D01*
X156877030Y-124672671D01*
X156868765Y-124649571D01*
X156862804Y-124625773D01*
X156859204Y-124601504D01*
X156858000Y-124577000D01*
X156858000Y-123327000D01*
X156859204Y-123302496D01*
X156862804Y-123278227D01*
X156868765Y-123254429D01*
X156877030Y-123231329D01*
X156887520Y-123209151D01*
X156900133Y-123188107D01*
X156914747Y-123168402D01*
X156931223Y-123150223D01*
X156949402Y-123133747D01*
X156969107Y-123119133D01*
X156990151Y-123106520D01*
X157012329Y-123096030D01*
X157035429Y-123087765D01*
X157059227Y-123081804D01*
X157083496Y-123078204D01*
X157108000Y-123077000D01*
X158033000Y-123077000D01*
X158057504Y-123078204D01*
X158057504Y-123078204D01*
G37*
D11*
X157570500Y-123952000D03*
D10*
G36*
X155082504Y-123078204D02*
G01*
X155106773Y-123081804D01*
X155130571Y-123087765D01*
X155153671Y-123096030D01*
X155175849Y-123106520D01*
X155196893Y-123119133D01*
X155216598Y-123133747D01*
X155234777Y-123150223D01*
X155251253Y-123168402D01*
X155265867Y-123188107D01*
X155278480Y-123209151D01*
X155288970Y-123231329D01*
X155297235Y-123254429D01*
X155303196Y-123278227D01*
X155306796Y-123302496D01*
X155308000Y-123327000D01*
X155308000Y-124577000D01*
X155306796Y-124601504D01*
X155303196Y-124625773D01*
X155297235Y-124649571D01*
X155288970Y-124672671D01*
X155278480Y-124694849D01*
X155265867Y-124715893D01*
X155251253Y-124735598D01*
X155234777Y-124753777D01*
X155216598Y-124770253D01*
X155196893Y-124784867D01*
X155175849Y-124797480D01*
X155153671Y-124807970D01*
X155130571Y-124816235D01*
X155106773Y-124822196D01*
X155082504Y-124825796D01*
X155058000Y-124827000D01*
X154133000Y-124827000D01*
X154108496Y-124825796D01*
X154084227Y-124822196D01*
X154060429Y-124816235D01*
X154037329Y-124807970D01*
X154015151Y-124797480D01*
X153994107Y-124784867D01*
X153974402Y-124770253D01*
X153956223Y-124753777D01*
X153939747Y-124735598D01*
X153925133Y-124715893D01*
X153912520Y-124694849D01*
X153902030Y-124672671D01*
X153893765Y-124649571D01*
X153887804Y-124625773D01*
X153884204Y-124601504D01*
X153883000Y-124577000D01*
X153883000Y-123327000D01*
X153884204Y-123302496D01*
X153887804Y-123278227D01*
X153893765Y-123254429D01*
X153902030Y-123231329D01*
X153912520Y-123209151D01*
X153925133Y-123188107D01*
X153939747Y-123168402D01*
X153956223Y-123150223D01*
X153974402Y-123133747D01*
X153994107Y-123119133D01*
X154015151Y-123106520D01*
X154037329Y-123096030D01*
X154060429Y-123087765D01*
X154084227Y-123081804D01*
X154108496Y-123078204D01*
X154133000Y-123077000D01*
X155058000Y-123077000D01*
X155082504Y-123078204D01*
X155082504Y-123078204D01*
G37*
D11*
X154595500Y-123952000D03*
D10*
G36*
X160289504Y-93868204D02*
G01*
X160313773Y-93871804D01*
X160337571Y-93877765D01*
X160360671Y-93886030D01*
X160382849Y-93896520D01*
X160403893Y-93909133D01*
X160423598Y-93923747D01*
X160441777Y-93940223D01*
X160458253Y-93958402D01*
X160472867Y-93978107D01*
X160485480Y-93999151D01*
X160495970Y-94021329D01*
X160504235Y-94044429D01*
X160510196Y-94068227D01*
X160513796Y-94092496D01*
X160515000Y-94117000D01*
X160515000Y-95367000D01*
X160513796Y-95391504D01*
X160510196Y-95415773D01*
X160504235Y-95439571D01*
X160495970Y-95462671D01*
X160485480Y-95484849D01*
X160472867Y-95505893D01*
X160458253Y-95525598D01*
X160441777Y-95543777D01*
X160423598Y-95560253D01*
X160403893Y-95574867D01*
X160382849Y-95587480D01*
X160360671Y-95597970D01*
X160337571Y-95606235D01*
X160313773Y-95612196D01*
X160289504Y-95615796D01*
X160265000Y-95617000D01*
X159340000Y-95617000D01*
X159315496Y-95615796D01*
X159291227Y-95612196D01*
X159267429Y-95606235D01*
X159244329Y-95597970D01*
X159222151Y-95587480D01*
X159201107Y-95574867D01*
X159181402Y-95560253D01*
X159163223Y-95543777D01*
X159146747Y-95525598D01*
X159132133Y-95505893D01*
X159119520Y-95484849D01*
X159109030Y-95462671D01*
X159100765Y-95439571D01*
X159094804Y-95415773D01*
X159091204Y-95391504D01*
X159090000Y-95367000D01*
X159090000Y-94117000D01*
X159091204Y-94092496D01*
X159094804Y-94068227D01*
X159100765Y-94044429D01*
X159109030Y-94021329D01*
X159119520Y-93999151D01*
X159132133Y-93978107D01*
X159146747Y-93958402D01*
X159163223Y-93940223D01*
X159181402Y-93923747D01*
X159201107Y-93909133D01*
X159222151Y-93896520D01*
X159244329Y-93886030D01*
X159267429Y-93877765D01*
X159291227Y-93871804D01*
X159315496Y-93868204D01*
X159340000Y-93867000D01*
X160265000Y-93867000D01*
X160289504Y-93868204D01*
X160289504Y-93868204D01*
G37*
D11*
X159802500Y-94742000D03*
D10*
G36*
X163264504Y-93868204D02*
G01*
X163288773Y-93871804D01*
X163312571Y-93877765D01*
X163335671Y-93886030D01*
X163357849Y-93896520D01*
X163378893Y-93909133D01*
X163398598Y-93923747D01*
X163416777Y-93940223D01*
X163433253Y-93958402D01*
X163447867Y-93978107D01*
X163460480Y-93999151D01*
X163470970Y-94021329D01*
X163479235Y-94044429D01*
X163485196Y-94068227D01*
X163488796Y-94092496D01*
X163490000Y-94117000D01*
X163490000Y-95367000D01*
X163488796Y-95391504D01*
X163485196Y-95415773D01*
X163479235Y-95439571D01*
X163470970Y-95462671D01*
X163460480Y-95484849D01*
X163447867Y-95505893D01*
X163433253Y-95525598D01*
X163416777Y-95543777D01*
X163398598Y-95560253D01*
X163378893Y-95574867D01*
X163357849Y-95587480D01*
X163335671Y-95597970D01*
X163312571Y-95606235D01*
X163288773Y-95612196D01*
X163264504Y-95615796D01*
X163240000Y-95617000D01*
X162315000Y-95617000D01*
X162290496Y-95615796D01*
X162266227Y-95612196D01*
X162242429Y-95606235D01*
X162219329Y-95597970D01*
X162197151Y-95587480D01*
X162176107Y-95574867D01*
X162156402Y-95560253D01*
X162138223Y-95543777D01*
X162121747Y-95525598D01*
X162107133Y-95505893D01*
X162094520Y-95484849D01*
X162084030Y-95462671D01*
X162075765Y-95439571D01*
X162069804Y-95415773D01*
X162066204Y-95391504D01*
X162065000Y-95367000D01*
X162065000Y-94117000D01*
X162066204Y-94092496D01*
X162069804Y-94068227D01*
X162075765Y-94044429D01*
X162084030Y-94021329D01*
X162094520Y-93999151D01*
X162107133Y-93978107D01*
X162121747Y-93958402D01*
X162138223Y-93940223D01*
X162156402Y-93923747D01*
X162176107Y-93909133D01*
X162197151Y-93896520D01*
X162219329Y-93886030D01*
X162242429Y-93877765D01*
X162266227Y-93871804D01*
X162290496Y-93868204D01*
X162315000Y-93867000D01*
X163240000Y-93867000D01*
X163264504Y-93868204D01*
X163264504Y-93868204D01*
G37*
D11*
X162777500Y-94742000D03*
D10*
G36*
X152850504Y-92598204D02*
G01*
X152874773Y-92601804D01*
X152898571Y-92607765D01*
X152921671Y-92616030D01*
X152943849Y-92626520D01*
X152964893Y-92639133D01*
X152984598Y-92653747D01*
X153002777Y-92670223D01*
X153019253Y-92688402D01*
X153033867Y-92708107D01*
X153046480Y-92729151D01*
X153056970Y-92751329D01*
X153065235Y-92774429D01*
X153071196Y-92798227D01*
X153074796Y-92822496D01*
X153076000Y-92847000D01*
X153076000Y-94097000D01*
X153074796Y-94121504D01*
X153071196Y-94145773D01*
X153065235Y-94169571D01*
X153056970Y-94192671D01*
X153046480Y-94214849D01*
X153033867Y-94235893D01*
X153019253Y-94255598D01*
X153002777Y-94273777D01*
X152984598Y-94290253D01*
X152964893Y-94304867D01*
X152943849Y-94317480D01*
X152921671Y-94327970D01*
X152898571Y-94336235D01*
X152874773Y-94342196D01*
X152850504Y-94345796D01*
X152826000Y-94347000D01*
X151901000Y-94347000D01*
X151876496Y-94345796D01*
X151852227Y-94342196D01*
X151828429Y-94336235D01*
X151805329Y-94327970D01*
X151783151Y-94317480D01*
X151762107Y-94304867D01*
X151742402Y-94290253D01*
X151724223Y-94273777D01*
X151707747Y-94255598D01*
X151693133Y-94235893D01*
X151680520Y-94214849D01*
X151670030Y-94192671D01*
X151661765Y-94169571D01*
X151655804Y-94145773D01*
X151652204Y-94121504D01*
X151651000Y-94097000D01*
X151651000Y-92847000D01*
X151652204Y-92822496D01*
X151655804Y-92798227D01*
X151661765Y-92774429D01*
X151670030Y-92751329D01*
X151680520Y-92729151D01*
X151693133Y-92708107D01*
X151707747Y-92688402D01*
X151724223Y-92670223D01*
X151742402Y-92653747D01*
X151762107Y-92639133D01*
X151783151Y-92626520D01*
X151805329Y-92616030D01*
X151828429Y-92607765D01*
X151852227Y-92601804D01*
X151876496Y-92598204D01*
X151901000Y-92597000D01*
X152826000Y-92597000D01*
X152850504Y-92598204D01*
X152850504Y-92598204D01*
G37*
D11*
X152363500Y-93472000D03*
D10*
G36*
X149875504Y-92598204D02*
G01*
X149899773Y-92601804D01*
X149923571Y-92607765D01*
X149946671Y-92616030D01*
X149968849Y-92626520D01*
X149989893Y-92639133D01*
X150009598Y-92653747D01*
X150027777Y-92670223D01*
X150044253Y-92688402D01*
X150058867Y-92708107D01*
X150071480Y-92729151D01*
X150081970Y-92751329D01*
X150090235Y-92774429D01*
X150096196Y-92798227D01*
X150099796Y-92822496D01*
X150101000Y-92847000D01*
X150101000Y-94097000D01*
X150099796Y-94121504D01*
X150096196Y-94145773D01*
X150090235Y-94169571D01*
X150081970Y-94192671D01*
X150071480Y-94214849D01*
X150058867Y-94235893D01*
X150044253Y-94255598D01*
X150027777Y-94273777D01*
X150009598Y-94290253D01*
X149989893Y-94304867D01*
X149968849Y-94317480D01*
X149946671Y-94327970D01*
X149923571Y-94336235D01*
X149899773Y-94342196D01*
X149875504Y-94345796D01*
X149851000Y-94347000D01*
X148926000Y-94347000D01*
X148901496Y-94345796D01*
X148877227Y-94342196D01*
X148853429Y-94336235D01*
X148830329Y-94327970D01*
X148808151Y-94317480D01*
X148787107Y-94304867D01*
X148767402Y-94290253D01*
X148749223Y-94273777D01*
X148732747Y-94255598D01*
X148718133Y-94235893D01*
X148705520Y-94214849D01*
X148695030Y-94192671D01*
X148686765Y-94169571D01*
X148680804Y-94145773D01*
X148677204Y-94121504D01*
X148676000Y-94097000D01*
X148676000Y-92847000D01*
X148677204Y-92822496D01*
X148680804Y-92798227D01*
X148686765Y-92774429D01*
X148695030Y-92751329D01*
X148705520Y-92729151D01*
X148718133Y-92708107D01*
X148732747Y-92688402D01*
X148749223Y-92670223D01*
X148767402Y-92653747D01*
X148787107Y-92639133D01*
X148808151Y-92626520D01*
X148830329Y-92616030D01*
X148853429Y-92607765D01*
X148877227Y-92601804D01*
X148901496Y-92598204D01*
X148926000Y-92597000D01*
X149851000Y-92597000D01*
X149875504Y-92598204D01*
X149875504Y-92598204D01*
G37*
D11*
X149388500Y-93472000D03*
D10*
G36*
X158057504Y-88788204D02*
G01*
X158081773Y-88791804D01*
X158105571Y-88797765D01*
X158128671Y-88806030D01*
X158150849Y-88816520D01*
X158171893Y-88829133D01*
X158191598Y-88843747D01*
X158209777Y-88860223D01*
X158226253Y-88878402D01*
X158240867Y-88898107D01*
X158253480Y-88919151D01*
X158263970Y-88941329D01*
X158272235Y-88964429D01*
X158278196Y-88988227D01*
X158281796Y-89012496D01*
X158283000Y-89037000D01*
X158283000Y-90287000D01*
X158281796Y-90311504D01*
X158278196Y-90335773D01*
X158272235Y-90359571D01*
X158263970Y-90382671D01*
X158253480Y-90404849D01*
X158240867Y-90425893D01*
X158226253Y-90445598D01*
X158209777Y-90463777D01*
X158191598Y-90480253D01*
X158171893Y-90494867D01*
X158150849Y-90507480D01*
X158128671Y-90517970D01*
X158105571Y-90526235D01*
X158081773Y-90532196D01*
X158057504Y-90535796D01*
X158033000Y-90537000D01*
X157108000Y-90537000D01*
X157083496Y-90535796D01*
X157059227Y-90532196D01*
X157035429Y-90526235D01*
X157012329Y-90517970D01*
X156990151Y-90507480D01*
X156969107Y-90494867D01*
X156949402Y-90480253D01*
X156931223Y-90463777D01*
X156914747Y-90445598D01*
X156900133Y-90425893D01*
X156887520Y-90404849D01*
X156877030Y-90382671D01*
X156868765Y-90359571D01*
X156862804Y-90335773D01*
X156859204Y-90311504D01*
X156858000Y-90287000D01*
X156858000Y-89037000D01*
X156859204Y-89012496D01*
X156862804Y-88988227D01*
X156868765Y-88964429D01*
X156877030Y-88941329D01*
X156887520Y-88919151D01*
X156900133Y-88898107D01*
X156914747Y-88878402D01*
X156931223Y-88860223D01*
X156949402Y-88843747D01*
X156969107Y-88829133D01*
X156990151Y-88816520D01*
X157012329Y-88806030D01*
X157035429Y-88797765D01*
X157059227Y-88791804D01*
X157083496Y-88788204D01*
X157108000Y-88787000D01*
X158033000Y-88787000D01*
X158057504Y-88788204D01*
X158057504Y-88788204D01*
G37*
D11*
X157570500Y-89662000D03*
D10*
G36*
X155082504Y-88788204D02*
G01*
X155106773Y-88791804D01*
X155130571Y-88797765D01*
X155153671Y-88806030D01*
X155175849Y-88816520D01*
X155196893Y-88829133D01*
X155216598Y-88843747D01*
X155234777Y-88860223D01*
X155251253Y-88878402D01*
X155265867Y-88898107D01*
X155278480Y-88919151D01*
X155288970Y-88941329D01*
X155297235Y-88964429D01*
X155303196Y-88988227D01*
X155306796Y-89012496D01*
X155308000Y-89037000D01*
X155308000Y-90287000D01*
X155306796Y-90311504D01*
X155303196Y-90335773D01*
X155297235Y-90359571D01*
X155288970Y-90382671D01*
X155278480Y-90404849D01*
X155265867Y-90425893D01*
X155251253Y-90445598D01*
X155234777Y-90463777D01*
X155216598Y-90480253D01*
X155196893Y-90494867D01*
X155175849Y-90507480D01*
X155153671Y-90517970D01*
X155130571Y-90526235D01*
X155106773Y-90532196D01*
X155082504Y-90535796D01*
X155058000Y-90537000D01*
X154133000Y-90537000D01*
X154108496Y-90535796D01*
X154084227Y-90532196D01*
X154060429Y-90526235D01*
X154037329Y-90517970D01*
X154015151Y-90507480D01*
X153994107Y-90494867D01*
X153974402Y-90480253D01*
X153956223Y-90463777D01*
X153939747Y-90445598D01*
X153925133Y-90425893D01*
X153912520Y-90404849D01*
X153902030Y-90382671D01*
X153893765Y-90359571D01*
X153887804Y-90335773D01*
X153884204Y-90311504D01*
X153883000Y-90287000D01*
X153883000Y-89037000D01*
X153884204Y-89012496D01*
X153887804Y-88988227D01*
X153893765Y-88964429D01*
X153902030Y-88941329D01*
X153912520Y-88919151D01*
X153925133Y-88898107D01*
X153939747Y-88878402D01*
X153956223Y-88860223D01*
X153974402Y-88843747D01*
X153994107Y-88829133D01*
X154015151Y-88816520D01*
X154037329Y-88806030D01*
X154060429Y-88797765D01*
X154084227Y-88791804D01*
X154108496Y-88788204D01*
X154133000Y-88787000D01*
X155058000Y-88787000D01*
X155082504Y-88788204D01*
X155082504Y-88788204D01*
G37*
D11*
X154595500Y-89662000D03*
D10*
G36*
X158057504Y-117998204D02*
G01*
X158081773Y-118001804D01*
X158105571Y-118007765D01*
X158128671Y-118016030D01*
X158150849Y-118026520D01*
X158171893Y-118039133D01*
X158191598Y-118053747D01*
X158209777Y-118070223D01*
X158226253Y-118088402D01*
X158240867Y-118108107D01*
X158253480Y-118129151D01*
X158263970Y-118151329D01*
X158272235Y-118174429D01*
X158278196Y-118198227D01*
X158281796Y-118222496D01*
X158283000Y-118247000D01*
X158283000Y-119497000D01*
X158281796Y-119521504D01*
X158278196Y-119545773D01*
X158272235Y-119569571D01*
X158263970Y-119592671D01*
X158253480Y-119614849D01*
X158240867Y-119635893D01*
X158226253Y-119655598D01*
X158209777Y-119673777D01*
X158191598Y-119690253D01*
X158171893Y-119704867D01*
X158150849Y-119717480D01*
X158128671Y-119727970D01*
X158105571Y-119736235D01*
X158081773Y-119742196D01*
X158057504Y-119745796D01*
X158033000Y-119747000D01*
X157108000Y-119747000D01*
X157083496Y-119745796D01*
X157059227Y-119742196D01*
X157035429Y-119736235D01*
X157012329Y-119727970D01*
X156990151Y-119717480D01*
X156969107Y-119704867D01*
X156949402Y-119690253D01*
X156931223Y-119673777D01*
X156914747Y-119655598D01*
X156900133Y-119635893D01*
X156887520Y-119614849D01*
X156877030Y-119592671D01*
X156868765Y-119569571D01*
X156862804Y-119545773D01*
X156859204Y-119521504D01*
X156858000Y-119497000D01*
X156858000Y-118247000D01*
X156859204Y-118222496D01*
X156862804Y-118198227D01*
X156868765Y-118174429D01*
X156877030Y-118151329D01*
X156887520Y-118129151D01*
X156900133Y-118108107D01*
X156914747Y-118088402D01*
X156931223Y-118070223D01*
X156949402Y-118053747D01*
X156969107Y-118039133D01*
X156990151Y-118026520D01*
X157012329Y-118016030D01*
X157035429Y-118007765D01*
X157059227Y-118001804D01*
X157083496Y-117998204D01*
X157108000Y-117997000D01*
X158033000Y-117997000D01*
X158057504Y-117998204D01*
X158057504Y-117998204D01*
G37*
D11*
X157570500Y-118872000D03*
D10*
G36*
X155082504Y-117998204D02*
G01*
X155106773Y-118001804D01*
X155130571Y-118007765D01*
X155153671Y-118016030D01*
X155175849Y-118026520D01*
X155196893Y-118039133D01*
X155216598Y-118053747D01*
X155234777Y-118070223D01*
X155251253Y-118088402D01*
X155265867Y-118108107D01*
X155278480Y-118129151D01*
X155288970Y-118151329D01*
X155297235Y-118174429D01*
X155303196Y-118198227D01*
X155306796Y-118222496D01*
X155308000Y-118247000D01*
X155308000Y-119497000D01*
X155306796Y-119521504D01*
X155303196Y-119545773D01*
X155297235Y-119569571D01*
X155288970Y-119592671D01*
X155278480Y-119614849D01*
X155265867Y-119635893D01*
X155251253Y-119655598D01*
X155234777Y-119673777D01*
X155216598Y-119690253D01*
X155196893Y-119704867D01*
X155175849Y-119717480D01*
X155153671Y-119727970D01*
X155130571Y-119736235D01*
X155106773Y-119742196D01*
X155082504Y-119745796D01*
X155058000Y-119747000D01*
X154133000Y-119747000D01*
X154108496Y-119745796D01*
X154084227Y-119742196D01*
X154060429Y-119736235D01*
X154037329Y-119727970D01*
X154015151Y-119717480D01*
X153994107Y-119704867D01*
X153974402Y-119690253D01*
X153956223Y-119673777D01*
X153939747Y-119655598D01*
X153925133Y-119635893D01*
X153912520Y-119614849D01*
X153902030Y-119592671D01*
X153893765Y-119569571D01*
X153887804Y-119545773D01*
X153884204Y-119521504D01*
X153883000Y-119497000D01*
X153883000Y-118247000D01*
X153884204Y-118222496D01*
X153887804Y-118198227D01*
X153893765Y-118174429D01*
X153902030Y-118151329D01*
X153912520Y-118129151D01*
X153925133Y-118108107D01*
X153939747Y-118088402D01*
X153956223Y-118070223D01*
X153974402Y-118053747D01*
X153994107Y-118039133D01*
X154015151Y-118026520D01*
X154037329Y-118016030D01*
X154060429Y-118007765D01*
X154084227Y-118001804D01*
X154108496Y-117998204D01*
X154133000Y-117997000D01*
X155058000Y-117997000D01*
X155082504Y-117998204D01*
X155082504Y-117998204D01*
G37*
D11*
X154595500Y-118872000D03*
D10*
G36*
X158057504Y-86248204D02*
G01*
X158081773Y-86251804D01*
X158105571Y-86257765D01*
X158128671Y-86266030D01*
X158150849Y-86276520D01*
X158171893Y-86289133D01*
X158191598Y-86303747D01*
X158209777Y-86320223D01*
X158226253Y-86338402D01*
X158240867Y-86358107D01*
X158253480Y-86379151D01*
X158263970Y-86401329D01*
X158272235Y-86424429D01*
X158278196Y-86448227D01*
X158281796Y-86472496D01*
X158283000Y-86497000D01*
X158283000Y-87747000D01*
X158281796Y-87771504D01*
X158278196Y-87795773D01*
X158272235Y-87819571D01*
X158263970Y-87842671D01*
X158253480Y-87864849D01*
X158240867Y-87885893D01*
X158226253Y-87905598D01*
X158209777Y-87923777D01*
X158191598Y-87940253D01*
X158171893Y-87954867D01*
X158150849Y-87967480D01*
X158128671Y-87977970D01*
X158105571Y-87986235D01*
X158081773Y-87992196D01*
X158057504Y-87995796D01*
X158033000Y-87997000D01*
X157108000Y-87997000D01*
X157083496Y-87995796D01*
X157059227Y-87992196D01*
X157035429Y-87986235D01*
X157012329Y-87977970D01*
X156990151Y-87967480D01*
X156969107Y-87954867D01*
X156949402Y-87940253D01*
X156931223Y-87923777D01*
X156914747Y-87905598D01*
X156900133Y-87885893D01*
X156887520Y-87864849D01*
X156877030Y-87842671D01*
X156868765Y-87819571D01*
X156862804Y-87795773D01*
X156859204Y-87771504D01*
X156858000Y-87747000D01*
X156858000Y-86497000D01*
X156859204Y-86472496D01*
X156862804Y-86448227D01*
X156868765Y-86424429D01*
X156877030Y-86401329D01*
X156887520Y-86379151D01*
X156900133Y-86358107D01*
X156914747Y-86338402D01*
X156931223Y-86320223D01*
X156949402Y-86303747D01*
X156969107Y-86289133D01*
X156990151Y-86276520D01*
X157012329Y-86266030D01*
X157035429Y-86257765D01*
X157059227Y-86251804D01*
X157083496Y-86248204D01*
X157108000Y-86247000D01*
X158033000Y-86247000D01*
X158057504Y-86248204D01*
X158057504Y-86248204D01*
G37*
D11*
X157570500Y-87122000D03*
D10*
G36*
X155082504Y-86248204D02*
G01*
X155106773Y-86251804D01*
X155130571Y-86257765D01*
X155153671Y-86266030D01*
X155175849Y-86276520D01*
X155196893Y-86289133D01*
X155216598Y-86303747D01*
X155234777Y-86320223D01*
X155251253Y-86338402D01*
X155265867Y-86358107D01*
X155278480Y-86379151D01*
X155288970Y-86401329D01*
X155297235Y-86424429D01*
X155303196Y-86448227D01*
X155306796Y-86472496D01*
X155308000Y-86497000D01*
X155308000Y-87747000D01*
X155306796Y-87771504D01*
X155303196Y-87795773D01*
X155297235Y-87819571D01*
X155288970Y-87842671D01*
X155278480Y-87864849D01*
X155265867Y-87885893D01*
X155251253Y-87905598D01*
X155234777Y-87923777D01*
X155216598Y-87940253D01*
X155196893Y-87954867D01*
X155175849Y-87967480D01*
X155153671Y-87977970D01*
X155130571Y-87986235D01*
X155106773Y-87992196D01*
X155082504Y-87995796D01*
X155058000Y-87997000D01*
X154133000Y-87997000D01*
X154108496Y-87995796D01*
X154084227Y-87992196D01*
X154060429Y-87986235D01*
X154037329Y-87977970D01*
X154015151Y-87967480D01*
X153994107Y-87954867D01*
X153974402Y-87940253D01*
X153956223Y-87923777D01*
X153939747Y-87905598D01*
X153925133Y-87885893D01*
X153912520Y-87864849D01*
X153902030Y-87842671D01*
X153893765Y-87819571D01*
X153887804Y-87795773D01*
X153884204Y-87771504D01*
X153883000Y-87747000D01*
X153883000Y-86497000D01*
X153884204Y-86472496D01*
X153887804Y-86448227D01*
X153893765Y-86424429D01*
X153902030Y-86401329D01*
X153912520Y-86379151D01*
X153925133Y-86358107D01*
X153939747Y-86338402D01*
X153956223Y-86320223D01*
X153974402Y-86303747D01*
X153994107Y-86289133D01*
X154015151Y-86276520D01*
X154037329Y-86266030D01*
X154060429Y-86257765D01*
X154084227Y-86251804D01*
X154108496Y-86248204D01*
X154133000Y-86247000D01*
X155058000Y-86247000D01*
X155082504Y-86248204D01*
X155082504Y-86248204D01*
G37*
D11*
X154595500Y-87122000D03*
D10*
G36*
X152850504Y-87518204D02*
G01*
X152874773Y-87521804D01*
X152898571Y-87527765D01*
X152921671Y-87536030D01*
X152943849Y-87546520D01*
X152964893Y-87559133D01*
X152984598Y-87573747D01*
X153002777Y-87590223D01*
X153019253Y-87608402D01*
X153033867Y-87628107D01*
X153046480Y-87649151D01*
X153056970Y-87671329D01*
X153065235Y-87694429D01*
X153071196Y-87718227D01*
X153074796Y-87742496D01*
X153076000Y-87767000D01*
X153076000Y-89017000D01*
X153074796Y-89041504D01*
X153071196Y-89065773D01*
X153065235Y-89089571D01*
X153056970Y-89112671D01*
X153046480Y-89134849D01*
X153033867Y-89155893D01*
X153019253Y-89175598D01*
X153002777Y-89193777D01*
X152984598Y-89210253D01*
X152964893Y-89224867D01*
X152943849Y-89237480D01*
X152921671Y-89247970D01*
X152898571Y-89256235D01*
X152874773Y-89262196D01*
X152850504Y-89265796D01*
X152826000Y-89267000D01*
X151901000Y-89267000D01*
X151876496Y-89265796D01*
X151852227Y-89262196D01*
X151828429Y-89256235D01*
X151805329Y-89247970D01*
X151783151Y-89237480D01*
X151762107Y-89224867D01*
X151742402Y-89210253D01*
X151724223Y-89193777D01*
X151707747Y-89175598D01*
X151693133Y-89155893D01*
X151680520Y-89134849D01*
X151670030Y-89112671D01*
X151661765Y-89089571D01*
X151655804Y-89065773D01*
X151652204Y-89041504D01*
X151651000Y-89017000D01*
X151651000Y-87767000D01*
X151652204Y-87742496D01*
X151655804Y-87718227D01*
X151661765Y-87694429D01*
X151670030Y-87671329D01*
X151680520Y-87649151D01*
X151693133Y-87628107D01*
X151707747Y-87608402D01*
X151724223Y-87590223D01*
X151742402Y-87573747D01*
X151762107Y-87559133D01*
X151783151Y-87546520D01*
X151805329Y-87536030D01*
X151828429Y-87527765D01*
X151852227Y-87521804D01*
X151876496Y-87518204D01*
X151901000Y-87517000D01*
X152826000Y-87517000D01*
X152850504Y-87518204D01*
X152850504Y-87518204D01*
G37*
D11*
X152363500Y-88392000D03*
D10*
G36*
X149875504Y-87518204D02*
G01*
X149899773Y-87521804D01*
X149923571Y-87527765D01*
X149946671Y-87536030D01*
X149968849Y-87546520D01*
X149989893Y-87559133D01*
X150009598Y-87573747D01*
X150027777Y-87590223D01*
X150044253Y-87608402D01*
X150058867Y-87628107D01*
X150071480Y-87649151D01*
X150081970Y-87671329D01*
X150090235Y-87694429D01*
X150096196Y-87718227D01*
X150099796Y-87742496D01*
X150101000Y-87767000D01*
X150101000Y-89017000D01*
X150099796Y-89041504D01*
X150096196Y-89065773D01*
X150090235Y-89089571D01*
X150081970Y-89112671D01*
X150071480Y-89134849D01*
X150058867Y-89155893D01*
X150044253Y-89175598D01*
X150027777Y-89193777D01*
X150009598Y-89210253D01*
X149989893Y-89224867D01*
X149968849Y-89237480D01*
X149946671Y-89247970D01*
X149923571Y-89256235D01*
X149899773Y-89262196D01*
X149875504Y-89265796D01*
X149851000Y-89267000D01*
X148926000Y-89267000D01*
X148901496Y-89265796D01*
X148877227Y-89262196D01*
X148853429Y-89256235D01*
X148830329Y-89247970D01*
X148808151Y-89237480D01*
X148787107Y-89224867D01*
X148767402Y-89210253D01*
X148749223Y-89193777D01*
X148732747Y-89175598D01*
X148718133Y-89155893D01*
X148705520Y-89134849D01*
X148695030Y-89112671D01*
X148686765Y-89089571D01*
X148680804Y-89065773D01*
X148677204Y-89041504D01*
X148676000Y-89017000D01*
X148676000Y-87767000D01*
X148677204Y-87742496D01*
X148680804Y-87718227D01*
X148686765Y-87694429D01*
X148695030Y-87671329D01*
X148705520Y-87649151D01*
X148718133Y-87628107D01*
X148732747Y-87608402D01*
X148749223Y-87590223D01*
X148767402Y-87573747D01*
X148787107Y-87559133D01*
X148808151Y-87546520D01*
X148830329Y-87536030D01*
X148853429Y-87527765D01*
X148877227Y-87521804D01*
X148901496Y-87518204D01*
X148926000Y-87517000D01*
X149851000Y-87517000D01*
X149875504Y-87518204D01*
X149875504Y-87518204D01*
G37*
D11*
X149388500Y-88392000D03*
D10*
G36*
X155082504Y-82438204D02*
G01*
X155106773Y-82441804D01*
X155130571Y-82447765D01*
X155153671Y-82456030D01*
X155175849Y-82466520D01*
X155196893Y-82479133D01*
X155216598Y-82493747D01*
X155234777Y-82510223D01*
X155251253Y-82528402D01*
X155265867Y-82548107D01*
X155278480Y-82569151D01*
X155288970Y-82591329D01*
X155297235Y-82614429D01*
X155303196Y-82638227D01*
X155306796Y-82662496D01*
X155308000Y-82687000D01*
X155308000Y-83937000D01*
X155306796Y-83961504D01*
X155303196Y-83985773D01*
X155297235Y-84009571D01*
X155288970Y-84032671D01*
X155278480Y-84054849D01*
X155265867Y-84075893D01*
X155251253Y-84095598D01*
X155234777Y-84113777D01*
X155216598Y-84130253D01*
X155196893Y-84144867D01*
X155175849Y-84157480D01*
X155153671Y-84167970D01*
X155130571Y-84176235D01*
X155106773Y-84182196D01*
X155082504Y-84185796D01*
X155058000Y-84187000D01*
X154133000Y-84187000D01*
X154108496Y-84185796D01*
X154084227Y-84182196D01*
X154060429Y-84176235D01*
X154037329Y-84167970D01*
X154015151Y-84157480D01*
X153994107Y-84144867D01*
X153974402Y-84130253D01*
X153956223Y-84113777D01*
X153939747Y-84095598D01*
X153925133Y-84075893D01*
X153912520Y-84054849D01*
X153902030Y-84032671D01*
X153893765Y-84009571D01*
X153887804Y-83985773D01*
X153884204Y-83961504D01*
X153883000Y-83937000D01*
X153883000Y-82687000D01*
X153884204Y-82662496D01*
X153887804Y-82638227D01*
X153893765Y-82614429D01*
X153902030Y-82591329D01*
X153912520Y-82569151D01*
X153925133Y-82548107D01*
X153939747Y-82528402D01*
X153956223Y-82510223D01*
X153974402Y-82493747D01*
X153994107Y-82479133D01*
X154015151Y-82466520D01*
X154037329Y-82456030D01*
X154060429Y-82447765D01*
X154084227Y-82441804D01*
X154108496Y-82438204D01*
X154133000Y-82437000D01*
X155058000Y-82437000D01*
X155082504Y-82438204D01*
X155082504Y-82438204D01*
G37*
D11*
X154595500Y-83312000D03*
D10*
G36*
X158057504Y-82438204D02*
G01*
X158081773Y-82441804D01*
X158105571Y-82447765D01*
X158128671Y-82456030D01*
X158150849Y-82466520D01*
X158171893Y-82479133D01*
X158191598Y-82493747D01*
X158209777Y-82510223D01*
X158226253Y-82528402D01*
X158240867Y-82548107D01*
X158253480Y-82569151D01*
X158263970Y-82591329D01*
X158272235Y-82614429D01*
X158278196Y-82638227D01*
X158281796Y-82662496D01*
X158283000Y-82687000D01*
X158283000Y-83937000D01*
X158281796Y-83961504D01*
X158278196Y-83985773D01*
X158272235Y-84009571D01*
X158263970Y-84032671D01*
X158253480Y-84054849D01*
X158240867Y-84075893D01*
X158226253Y-84095598D01*
X158209777Y-84113777D01*
X158191598Y-84130253D01*
X158171893Y-84144867D01*
X158150849Y-84157480D01*
X158128671Y-84167970D01*
X158105571Y-84176235D01*
X158081773Y-84182196D01*
X158057504Y-84185796D01*
X158033000Y-84187000D01*
X157108000Y-84187000D01*
X157083496Y-84185796D01*
X157059227Y-84182196D01*
X157035429Y-84176235D01*
X157012329Y-84167970D01*
X156990151Y-84157480D01*
X156969107Y-84144867D01*
X156949402Y-84130253D01*
X156931223Y-84113777D01*
X156914747Y-84095598D01*
X156900133Y-84075893D01*
X156887520Y-84054849D01*
X156877030Y-84032671D01*
X156868765Y-84009571D01*
X156862804Y-83985773D01*
X156859204Y-83961504D01*
X156858000Y-83937000D01*
X156858000Y-82687000D01*
X156859204Y-82662496D01*
X156862804Y-82638227D01*
X156868765Y-82614429D01*
X156877030Y-82591329D01*
X156887520Y-82569151D01*
X156900133Y-82548107D01*
X156914747Y-82528402D01*
X156931223Y-82510223D01*
X156949402Y-82493747D01*
X156969107Y-82479133D01*
X156990151Y-82466520D01*
X157012329Y-82456030D01*
X157035429Y-82447765D01*
X157059227Y-82441804D01*
X157083496Y-82438204D01*
X157108000Y-82437000D01*
X158033000Y-82437000D01*
X158057504Y-82438204D01*
X158057504Y-82438204D01*
G37*
D11*
X157570500Y-83312000D03*
D10*
G36*
X160415504Y-123023204D02*
G01*
X160439773Y-123026804D01*
X160463571Y-123032765D01*
X160486671Y-123041030D01*
X160508849Y-123051520D01*
X160529893Y-123064133D01*
X160549598Y-123078747D01*
X160567777Y-123095223D01*
X160584253Y-123113402D01*
X160598867Y-123133107D01*
X160611480Y-123154151D01*
X160621970Y-123176329D01*
X160630235Y-123199429D01*
X160636196Y-123223227D01*
X160639796Y-123247496D01*
X160641000Y-123272000D01*
X160641000Y-124197000D01*
X160639796Y-124221504D01*
X160636196Y-124245773D01*
X160630235Y-124269571D01*
X160621970Y-124292671D01*
X160611480Y-124314849D01*
X160598867Y-124335893D01*
X160584253Y-124355598D01*
X160567777Y-124373777D01*
X160549598Y-124390253D01*
X160529893Y-124404867D01*
X160508849Y-124417480D01*
X160486671Y-124427970D01*
X160463571Y-124436235D01*
X160439773Y-124442196D01*
X160415504Y-124445796D01*
X160391000Y-124447000D01*
X159141000Y-124447000D01*
X159116496Y-124445796D01*
X159092227Y-124442196D01*
X159068429Y-124436235D01*
X159045329Y-124427970D01*
X159023151Y-124417480D01*
X159002107Y-124404867D01*
X158982402Y-124390253D01*
X158964223Y-124373777D01*
X158947747Y-124355598D01*
X158933133Y-124335893D01*
X158920520Y-124314849D01*
X158910030Y-124292671D01*
X158901765Y-124269571D01*
X158895804Y-124245773D01*
X158892204Y-124221504D01*
X158891000Y-124197000D01*
X158891000Y-123272000D01*
X158892204Y-123247496D01*
X158895804Y-123223227D01*
X158901765Y-123199429D01*
X158910030Y-123176329D01*
X158920520Y-123154151D01*
X158933133Y-123133107D01*
X158947747Y-123113402D01*
X158964223Y-123095223D01*
X158982402Y-123078747D01*
X159002107Y-123064133D01*
X159023151Y-123051520D01*
X159045329Y-123041030D01*
X159068429Y-123032765D01*
X159092227Y-123026804D01*
X159116496Y-123023204D01*
X159141000Y-123022000D01*
X160391000Y-123022000D01*
X160415504Y-123023204D01*
X160415504Y-123023204D01*
G37*
D11*
X159766000Y-123734500D03*
D10*
G36*
X160415504Y-125998204D02*
G01*
X160439773Y-126001804D01*
X160463571Y-126007765D01*
X160486671Y-126016030D01*
X160508849Y-126026520D01*
X160529893Y-126039133D01*
X160549598Y-126053747D01*
X160567777Y-126070223D01*
X160584253Y-126088402D01*
X160598867Y-126108107D01*
X160611480Y-126129151D01*
X160621970Y-126151329D01*
X160630235Y-126174429D01*
X160636196Y-126198227D01*
X160639796Y-126222496D01*
X160641000Y-126247000D01*
X160641000Y-127172000D01*
X160639796Y-127196504D01*
X160636196Y-127220773D01*
X160630235Y-127244571D01*
X160621970Y-127267671D01*
X160611480Y-127289849D01*
X160598867Y-127310893D01*
X160584253Y-127330598D01*
X160567777Y-127348777D01*
X160549598Y-127365253D01*
X160529893Y-127379867D01*
X160508849Y-127392480D01*
X160486671Y-127402970D01*
X160463571Y-127411235D01*
X160439773Y-127417196D01*
X160415504Y-127420796D01*
X160391000Y-127422000D01*
X159141000Y-127422000D01*
X159116496Y-127420796D01*
X159092227Y-127417196D01*
X159068429Y-127411235D01*
X159045329Y-127402970D01*
X159023151Y-127392480D01*
X159002107Y-127379867D01*
X158982402Y-127365253D01*
X158964223Y-127348777D01*
X158947747Y-127330598D01*
X158933133Y-127310893D01*
X158920520Y-127289849D01*
X158910030Y-127267671D01*
X158901765Y-127244571D01*
X158895804Y-127220773D01*
X158892204Y-127196504D01*
X158891000Y-127172000D01*
X158891000Y-126247000D01*
X158892204Y-126222496D01*
X158895804Y-126198227D01*
X158901765Y-126174429D01*
X158910030Y-126151329D01*
X158920520Y-126129151D01*
X158933133Y-126108107D01*
X158947747Y-126088402D01*
X158964223Y-126070223D01*
X158982402Y-126053747D01*
X159002107Y-126039133D01*
X159023151Y-126026520D01*
X159045329Y-126016030D01*
X159068429Y-126007765D01*
X159092227Y-126001804D01*
X159116496Y-125998204D01*
X159141000Y-125997000D01*
X160391000Y-125997000D01*
X160415504Y-125998204D01*
X160415504Y-125998204D01*
G37*
D11*
X159766000Y-126709500D03*
D10*
G36*
X152850504Y-82438204D02*
G01*
X152874773Y-82441804D01*
X152898571Y-82447765D01*
X152921671Y-82456030D01*
X152943849Y-82466520D01*
X152964893Y-82479133D01*
X152984598Y-82493747D01*
X153002777Y-82510223D01*
X153019253Y-82528402D01*
X153033867Y-82548107D01*
X153046480Y-82569151D01*
X153056970Y-82591329D01*
X153065235Y-82614429D01*
X153071196Y-82638227D01*
X153074796Y-82662496D01*
X153076000Y-82687000D01*
X153076000Y-83937000D01*
X153074796Y-83961504D01*
X153071196Y-83985773D01*
X153065235Y-84009571D01*
X153056970Y-84032671D01*
X153046480Y-84054849D01*
X153033867Y-84075893D01*
X153019253Y-84095598D01*
X153002777Y-84113777D01*
X152984598Y-84130253D01*
X152964893Y-84144867D01*
X152943849Y-84157480D01*
X152921671Y-84167970D01*
X152898571Y-84176235D01*
X152874773Y-84182196D01*
X152850504Y-84185796D01*
X152826000Y-84187000D01*
X151901000Y-84187000D01*
X151876496Y-84185796D01*
X151852227Y-84182196D01*
X151828429Y-84176235D01*
X151805329Y-84167970D01*
X151783151Y-84157480D01*
X151762107Y-84144867D01*
X151742402Y-84130253D01*
X151724223Y-84113777D01*
X151707747Y-84095598D01*
X151693133Y-84075893D01*
X151680520Y-84054849D01*
X151670030Y-84032671D01*
X151661765Y-84009571D01*
X151655804Y-83985773D01*
X151652204Y-83961504D01*
X151651000Y-83937000D01*
X151651000Y-82687000D01*
X151652204Y-82662496D01*
X151655804Y-82638227D01*
X151661765Y-82614429D01*
X151670030Y-82591329D01*
X151680520Y-82569151D01*
X151693133Y-82548107D01*
X151707747Y-82528402D01*
X151724223Y-82510223D01*
X151742402Y-82493747D01*
X151762107Y-82479133D01*
X151783151Y-82466520D01*
X151805329Y-82456030D01*
X151828429Y-82447765D01*
X151852227Y-82441804D01*
X151876496Y-82438204D01*
X151901000Y-82437000D01*
X152826000Y-82437000D01*
X152850504Y-82438204D01*
X152850504Y-82438204D01*
G37*
D11*
X152363500Y-83312000D03*
D10*
G36*
X149875504Y-82438204D02*
G01*
X149899773Y-82441804D01*
X149923571Y-82447765D01*
X149946671Y-82456030D01*
X149968849Y-82466520D01*
X149989893Y-82479133D01*
X150009598Y-82493747D01*
X150027777Y-82510223D01*
X150044253Y-82528402D01*
X150058867Y-82548107D01*
X150071480Y-82569151D01*
X150081970Y-82591329D01*
X150090235Y-82614429D01*
X150096196Y-82638227D01*
X150099796Y-82662496D01*
X150101000Y-82687000D01*
X150101000Y-83937000D01*
X150099796Y-83961504D01*
X150096196Y-83985773D01*
X150090235Y-84009571D01*
X150081970Y-84032671D01*
X150071480Y-84054849D01*
X150058867Y-84075893D01*
X150044253Y-84095598D01*
X150027777Y-84113777D01*
X150009598Y-84130253D01*
X149989893Y-84144867D01*
X149968849Y-84157480D01*
X149946671Y-84167970D01*
X149923571Y-84176235D01*
X149899773Y-84182196D01*
X149875504Y-84185796D01*
X149851000Y-84187000D01*
X148926000Y-84187000D01*
X148901496Y-84185796D01*
X148877227Y-84182196D01*
X148853429Y-84176235D01*
X148830329Y-84167970D01*
X148808151Y-84157480D01*
X148787107Y-84144867D01*
X148767402Y-84130253D01*
X148749223Y-84113777D01*
X148732747Y-84095598D01*
X148718133Y-84075893D01*
X148705520Y-84054849D01*
X148695030Y-84032671D01*
X148686765Y-84009571D01*
X148680804Y-83985773D01*
X148677204Y-83961504D01*
X148676000Y-83937000D01*
X148676000Y-82687000D01*
X148677204Y-82662496D01*
X148680804Y-82638227D01*
X148686765Y-82614429D01*
X148695030Y-82591329D01*
X148705520Y-82569151D01*
X148718133Y-82548107D01*
X148732747Y-82528402D01*
X148749223Y-82510223D01*
X148767402Y-82493747D01*
X148787107Y-82479133D01*
X148808151Y-82466520D01*
X148830329Y-82456030D01*
X148853429Y-82447765D01*
X148877227Y-82441804D01*
X148901496Y-82438204D01*
X148926000Y-82437000D01*
X149851000Y-82437000D01*
X149875504Y-82438204D01*
X149875504Y-82438204D01*
G37*
D11*
X149388500Y-83312000D03*
D10*
G36*
X143325504Y-120665204D02*
G01*
X143349773Y-120668804D01*
X143373571Y-120674765D01*
X143396671Y-120683030D01*
X143418849Y-120693520D01*
X143439893Y-120706133D01*
X143459598Y-120720747D01*
X143477777Y-120737223D01*
X143494253Y-120755402D01*
X143508867Y-120775107D01*
X143521480Y-120796151D01*
X143531970Y-120818329D01*
X143540235Y-120841429D01*
X143546196Y-120865227D01*
X143549796Y-120889496D01*
X143551000Y-120914000D01*
X143551000Y-122164000D01*
X143549796Y-122188504D01*
X143546196Y-122212773D01*
X143540235Y-122236571D01*
X143531970Y-122259671D01*
X143521480Y-122281849D01*
X143508867Y-122302893D01*
X143494253Y-122322598D01*
X143477777Y-122340777D01*
X143459598Y-122357253D01*
X143439893Y-122371867D01*
X143418849Y-122384480D01*
X143396671Y-122394970D01*
X143373571Y-122403235D01*
X143349773Y-122409196D01*
X143325504Y-122412796D01*
X143301000Y-122414000D01*
X142376000Y-122414000D01*
X142351496Y-122412796D01*
X142327227Y-122409196D01*
X142303429Y-122403235D01*
X142280329Y-122394970D01*
X142258151Y-122384480D01*
X142237107Y-122371867D01*
X142217402Y-122357253D01*
X142199223Y-122340777D01*
X142182747Y-122322598D01*
X142168133Y-122302893D01*
X142155520Y-122281849D01*
X142145030Y-122259671D01*
X142136765Y-122236571D01*
X142130804Y-122212773D01*
X142127204Y-122188504D01*
X142126000Y-122164000D01*
X142126000Y-120914000D01*
X142127204Y-120889496D01*
X142130804Y-120865227D01*
X142136765Y-120841429D01*
X142145030Y-120818329D01*
X142155520Y-120796151D01*
X142168133Y-120775107D01*
X142182747Y-120755402D01*
X142199223Y-120737223D01*
X142217402Y-120720747D01*
X142237107Y-120706133D01*
X142258151Y-120693520D01*
X142280329Y-120683030D01*
X142303429Y-120674765D01*
X142327227Y-120668804D01*
X142351496Y-120665204D01*
X142376000Y-120664000D01*
X143301000Y-120664000D01*
X143325504Y-120665204D01*
X143325504Y-120665204D01*
G37*
D11*
X142838500Y-121539000D03*
D10*
G36*
X140350504Y-120665204D02*
G01*
X140374773Y-120668804D01*
X140398571Y-120674765D01*
X140421671Y-120683030D01*
X140443849Y-120693520D01*
X140464893Y-120706133D01*
X140484598Y-120720747D01*
X140502777Y-120737223D01*
X140519253Y-120755402D01*
X140533867Y-120775107D01*
X140546480Y-120796151D01*
X140556970Y-120818329D01*
X140565235Y-120841429D01*
X140571196Y-120865227D01*
X140574796Y-120889496D01*
X140576000Y-120914000D01*
X140576000Y-122164000D01*
X140574796Y-122188504D01*
X140571196Y-122212773D01*
X140565235Y-122236571D01*
X140556970Y-122259671D01*
X140546480Y-122281849D01*
X140533867Y-122302893D01*
X140519253Y-122322598D01*
X140502777Y-122340777D01*
X140484598Y-122357253D01*
X140464893Y-122371867D01*
X140443849Y-122384480D01*
X140421671Y-122394970D01*
X140398571Y-122403235D01*
X140374773Y-122409196D01*
X140350504Y-122412796D01*
X140326000Y-122414000D01*
X139401000Y-122414000D01*
X139376496Y-122412796D01*
X139352227Y-122409196D01*
X139328429Y-122403235D01*
X139305329Y-122394970D01*
X139283151Y-122384480D01*
X139262107Y-122371867D01*
X139242402Y-122357253D01*
X139224223Y-122340777D01*
X139207747Y-122322598D01*
X139193133Y-122302893D01*
X139180520Y-122281849D01*
X139170030Y-122259671D01*
X139161765Y-122236571D01*
X139155804Y-122212773D01*
X139152204Y-122188504D01*
X139151000Y-122164000D01*
X139151000Y-120914000D01*
X139152204Y-120889496D01*
X139155804Y-120865227D01*
X139161765Y-120841429D01*
X139170030Y-120818329D01*
X139180520Y-120796151D01*
X139193133Y-120775107D01*
X139207747Y-120755402D01*
X139224223Y-120737223D01*
X139242402Y-120720747D01*
X139262107Y-120706133D01*
X139283151Y-120693520D01*
X139305329Y-120683030D01*
X139328429Y-120674765D01*
X139352227Y-120668804D01*
X139376496Y-120665204D01*
X139401000Y-120664000D01*
X140326000Y-120664000D01*
X140350504Y-120665204D01*
X140350504Y-120665204D01*
G37*
D11*
X139863500Y-121539000D03*
D10*
G36*
X143325504Y-110759204D02*
G01*
X143349773Y-110762804D01*
X143373571Y-110768765D01*
X143396671Y-110777030D01*
X143418849Y-110787520D01*
X143439893Y-110800133D01*
X143459598Y-110814747D01*
X143477777Y-110831223D01*
X143494253Y-110849402D01*
X143508867Y-110869107D01*
X143521480Y-110890151D01*
X143531970Y-110912329D01*
X143540235Y-110935429D01*
X143546196Y-110959227D01*
X143549796Y-110983496D01*
X143551000Y-111008000D01*
X143551000Y-112258000D01*
X143549796Y-112282504D01*
X143546196Y-112306773D01*
X143540235Y-112330571D01*
X143531970Y-112353671D01*
X143521480Y-112375849D01*
X143508867Y-112396893D01*
X143494253Y-112416598D01*
X143477777Y-112434777D01*
X143459598Y-112451253D01*
X143439893Y-112465867D01*
X143418849Y-112478480D01*
X143396671Y-112488970D01*
X143373571Y-112497235D01*
X143349773Y-112503196D01*
X143325504Y-112506796D01*
X143301000Y-112508000D01*
X142376000Y-112508000D01*
X142351496Y-112506796D01*
X142327227Y-112503196D01*
X142303429Y-112497235D01*
X142280329Y-112488970D01*
X142258151Y-112478480D01*
X142237107Y-112465867D01*
X142217402Y-112451253D01*
X142199223Y-112434777D01*
X142182747Y-112416598D01*
X142168133Y-112396893D01*
X142155520Y-112375849D01*
X142145030Y-112353671D01*
X142136765Y-112330571D01*
X142130804Y-112306773D01*
X142127204Y-112282504D01*
X142126000Y-112258000D01*
X142126000Y-111008000D01*
X142127204Y-110983496D01*
X142130804Y-110959227D01*
X142136765Y-110935429D01*
X142145030Y-110912329D01*
X142155520Y-110890151D01*
X142168133Y-110869107D01*
X142182747Y-110849402D01*
X142199223Y-110831223D01*
X142217402Y-110814747D01*
X142237107Y-110800133D01*
X142258151Y-110787520D01*
X142280329Y-110777030D01*
X142303429Y-110768765D01*
X142327227Y-110762804D01*
X142351496Y-110759204D01*
X142376000Y-110758000D01*
X143301000Y-110758000D01*
X143325504Y-110759204D01*
X143325504Y-110759204D01*
G37*
D11*
X142838500Y-111633000D03*
D10*
G36*
X140350504Y-110759204D02*
G01*
X140374773Y-110762804D01*
X140398571Y-110768765D01*
X140421671Y-110777030D01*
X140443849Y-110787520D01*
X140464893Y-110800133D01*
X140484598Y-110814747D01*
X140502777Y-110831223D01*
X140519253Y-110849402D01*
X140533867Y-110869107D01*
X140546480Y-110890151D01*
X140556970Y-110912329D01*
X140565235Y-110935429D01*
X140571196Y-110959227D01*
X140574796Y-110983496D01*
X140576000Y-111008000D01*
X140576000Y-112258000D01*
X140574796Y-112282504D01*
X140571196Y-112306773D01*
X140565235Y-112330571D01*
X140556970Y-112353671D01*
X140546480Y-112375849D01*
X140533867Y-112396893D01*
X140519253Y-112416598D01*
X140502777Y-112434777D01*
X140484598Y-112451253D01*
X140464893Y-112465867D01*
X140443849Y-112478480D01*
X140421671Y-112488970D01*
X140398571Y-112497235D01*
X140374773Y-112503196D01*
X140350504Y-112506796D01*
X140326000Y-112508000D01*
X139401000Y-112508000D01*
X139376496Y-112506796D01*
X139352227Y-112503196D01*
X139328429Y-112497235D01*
X139305329Y-112488970D01*
X139283151Y-112478480D01*
X139262107Y-112465867D01*
X139242402Y-112451253D01*
X139224223Y-112434777D01*
X139207747Y-112416598D01*
X139193133Y-112396893D01*
X139180520Y-112375849D01*
X139170030Y-112353671D01*
X139161765Y-112330571D01*
X139155804Y-112306773D01*
X139152204Y-112282504D01*
X139151000Y-112258000D01*
X139151000Y-111008000D01*
X139152204Y-110983496D01*
X139155804Y-110959227D01*
X139161765Y-110935429D01*
X139170030Y-110912329D01*
X139180520Y-110890151D01*
X139193133Y-110869107D01*
X139207747Y-110849402D01*
X139224223Y-110831223D01*
X139242402Y-110814747D01*
X139262107Y-110800133D01*
X139283151Y-110787520D01*
X139305329Y-110777030D01*
X139328429Y-110768765D01*
X139352227Y-110762804D01*
X139376496Y-110759204D01*
X139401000Y-110758000D01*
X140326000Y-110758000D01*
X140350504Y-110759204D01*
X140350504Y-110759204D01*
G37*
D11*
X139863500Y-111633000D03*
D10*
G36*
X143325504Y-99583204D02*
G01*
X143349773Y-99586804D01*
X143373571Y-99592765D01*
X143396671Y-99601030D01*
X143418849Y-99611520D01*
X143439893Y-99624133D01*
X143459598Y-99638747D01*
X143477777Y-99655223D01*
X143494253Y-99673402D01*
X143508867Y-99693107D01*
X143521480Y-99714151D01*
X143531970Y-99736329D01*
X143540235Y-99759429D01*
X143546196Y-99783227D01*
X143549796Y-99807496D01*
X143551000Y-99832000D01*
X143551000Y-101082000D01*
X143549796Y-101106504D01*
X143546196Y-101130773D01*
X143540235Y-101154571D01*
X143531970Y-101177671D01*
X143521480Y-101199849D01*
X143508867Y-101220893D01*
X143494253Y-101240598D01*
X143477777Y-101258777D01*
X143459598Y-101275253D01*
X143439893Y-101289867D01*
X143418849Y-101302480D01*
X143396671Y-101312970D01*
X143373571Y-101321235D01*
X143349773Y-101327196D01*
X143325504Y-101330796D01*
X143301000Y-101332000D01*
X142376000Y-101332000D01*
X142351496Y-101330796D01*
X142327227Y-101327196D01*
X142303429Y-101321235D01*
X142280329Y-101312970D01*
X142258151Y-101302480D01*
X142237107Y-101289867D01*
X142217402Y-101275253D01*
X142199223Y-101258777D01*
X142182747Y-101240598D01*
X142168133Y-101220893D01*
X142155520Y-101199849D01*
X142145030Y-101177671D01*
X142136765Y-101154571D01*
X142130804Y-101130773D01*
X142127204Y-101106504D01*
X142126000Y-101082000D01*
X142126000Y-99832000D01*
X142127204Y-99807496D01*
X142130804Y-99783227D01*
X142136765Y-99759429D01*
X142145030Y-99736329D01*
X142155520Y-99714151D01*
X142168133Y-99693107D01*
X142182747Y-99673402D01*
X142199223Y-99655223D01*
X142217402Y-99638747D01*
X142237107Y-99624133D01*
X142258151Y-99611520D01*
X142280329Y-99601030D01*
X142303429Y-99592765D01*
X142327227Y-99586804D01*
X142351496Y-99583204D01*
X142376000Y-99582000D01*
X143301000Y-99582000D01*
X143325504Y-99583204D01*
X143325504Y-99583204D01*
G37*
D11*
X142838500Y-100457000D03*
D10*
G36*
X140350504Y-99583204D02*
G01*
X140374773Y-99586804D01*
X140398571Y-99592765D01*
X140421671Y-99601030D01*
X140443849Y-99611520D01*
X140464893Y-99624133D01*
X140484598Y-99638747D01*
X140502777Y-99655223D01*
X140519253Y-99673402D01*
X140533867Y-99693107D01*
X140546480Y-99714151D01*
X140556970Y-99736329D01*
X140565235Y-99759429D01*
X140571196Y-99783227D01*
X140574796Y-99807496D01*
X140576000Y-99832000D01*
X140576000Y-101082000D01*
X140574796Y-101106504D01*
X140571196Y-101130773D01*
X140565235Y-101154571D01*
X140556970Y-101177671D01*
X140546480Y-101199849D01*
X140533867Y-101220893D01*
X140519253Y-101240598D01*
X140502777Y-101258777D01*
X140484598Y-101275253D01*
X140464893Y-101289867D01*
X140443849Y-101302480D01*
X140421671Y-101312970D01*
X140398571Y-101321235D01*
X140374773Y-101327196D01*
X140350504Y-101330796D01*
X140326000Y-101332000D01*
X139401000Y-101332000D01*
X139376496Y-101330796D01*
X139352227Y-101327196D01*
X139328429Y-101321235D01*
X139305329Y-101312970D01*
X139283151Y-101302480D01*
X139262107Y-101289867D01*
X139242402Y-101275253D01*
X139224223Y-101258777D01*
X139207747Y-101240598D01*
X139193133Y-101220893D01*
X139180520Y-101199849D01*
X139170030Y-101177671D01*
X139161765Y-101154571D01*
X139155804Y-101130773D01*
X139152204Y-101106504D01*
X139151000Y-101082000D01*
X139151000Y-99832000D01*
X139152204Y-99807496D01*
X139155804Y-99783227D01*
X139161765Y-99759429D01*
X139170030Y-99736329D01*
X139180520Y-99714151D01*
X139193133Y-99693107D01*
X139207747Y-99673402D01*
X139224223Y-99655223D01*
X139242402Y-99638747D01*
X139262107Y-99624133D01*
X139283151Y-99611520D01*
X139305329Y-99601030D01*
X139328429Y-99592765D01*
X139352227Y-99586804D01*
X139376496Y-99583204D01*
X139401000Y-99582000D01*
X140326000Y-99582000D01*
X140350504Y-99583204D01*
X140350504Y-99583204D01*
G37*
D11*
X139863500Y-100457000D03*
D10*
G36*
X143325504Y-82946204D02*
G01*
X143349773Y-82949804D01*
X143373571Y-82955765D01*
X143396671Y-82964030D01*
X143418849Y-82974520D01*
X143439893Y-82987133D01*
X143459598Y-83001747D01*
X143477777Y-83018223D01*
X143494253Y-83036402D01*
X143508867Y-83056107D01*
X143521480Y-83077151D01*
X143531970Y-83099329D01*
X143540235Y-83122429D01*
X143546196Y-83146227D01*
X143549796Y-83170496D01*
X143551000Y-83195000D01*
X143551000Y-84445000D01*
X143549796Y-84469504D01*
X143546196Y-84493773D01*
X143540235Y-84517571D01*
X143531970Y-84540671D01*
X143521480Y-84562849D01*
X143508867Y-84583893D01*
X143494253Y-84603598D01*
X143477777Y-84621777D01*
X143459598Y-84638253D01*
X143439893Y-84652867D01*
X143418849Y-84665480D01*
X143396671Y-84675970D01*
X143373571Y-84684235D01*
X143349773Y-84690196D01*
X143325504Y-84693796D01*
X143301000Y-84695000D01*
X142376000Y-84695000D01*
X142351496Y-84693796D01*
X142327227Y-84690196D01*
X142303429Y-84684235D01*
X142280329Y-84675970D01*
X142258151Y-84665480D01*
X142237107Y-84652867D01*
X142217402Y-84638253D01*
X142199223Y-84621777D01*
X142182747Y-84603598D01*
X142168133Y-84583893D01*
X142155520Y-84562849D01*
X142145030Y-84540671D01*
X142136765Y-84517571D01*
X142130804Y-84493773D01*
X142127204Y-84469504D01*
X142126000Y-84445000D01*
X142126000Y-83195000D01*
X142127204Y-83170496D01*
X142130804Y-83146227D01*
X142136765Y-83122429D01*
X142145030Y-83099329D01*
X142155520Y-83077151D01*
X142168133Y-83056107D01*
X142182747Y-83036402D01*
X142199223Y-83018223D01*
X142217402Y-83001747D01*
X142237107Y-82987133D01*
X142258151Y-82974520D01*
X142280329Y-82964030D01*
X142303429Y-82955765D01*
X142327227Y-82949804D01*
X142351496Y-82946204D01*
X142376000Y-82945000D01*
X143301000Y-82945000D01*
X143325504Y-82946204D01*
X143325504Y-82946204D01*
G37*
D11*
X142838500Y-83820000D03*
D10*
G36*
X140350504Y-82946204D02*
G01*
X140374773Y-82949804D01*
X140398571Y-82955765D01*
X140421671Y-82964030D01*
X140443849Y-82974520D01*
X140464893Y-82987133D01*
X140484598Y-83001747D01*
X140502777Y-83018223D01*
X140519253Y-83036402D01*
X140533867Y-83056107D01*
X140546480Y-83077151D01*
X140556970Y-83099329D01*
X140565235Y-83122429D01*
X140571196Y-83146227D01*
X140574796Y-83170496D01*
X140576000Y-83195000D01*
X140576000Y-84445000D01*
X140574796Y-84469504D01*
X140571196Y-84493773D01*
X140565235Y-84517571D01*
X140556970Y-84540671D01*
X140546480Y-84562849D01*
X140533867Y-84583893D01*
X140519253Y-84603598D01*
X140502777Y-84621777D01*
X140484598Y-84638253D01*
X140464893Y-84652867D01*
X140443849Y-84665480D01*
X140421671Y-84675970D01*
X140398571Y-84684235D01*
X140374773Y-84690196D01*
X140350504Y-84693796D01*
X140326000Y-84695000D01*
X139401000Y-84695000D01*
X139376496Y-84693796D01*
X139352227Y-84690196D01*
X139328429Y-84684235D01*
X139305329Y-84675970D01*
X139283151Y-84665480D01*
X139262107Y-84652867D01*
X139242402Y-84638253D01*
X139224223Y-84621777D01*
X139207747Y-84603598D01*
X139193133Y-84583893D01*
X139180520Y-84562849D01*
X139170030Y-84540671D01*
X139161765Y-84517571D01*
X139155804Y-84493773D01*
X139152204Y-84469504D01*
X139151000Y-84445000D01*
X139151000Y-83195000D01*
X139152204Y-83170496D01*
X139155804Y-83146227D01*
X139161765Y-83122429D01*
X139170030Y-83099329D01*
X139180520Y-83077151D01*
X139193133Y-83056107D01*
X139207747Y-83036402D01*
X139224223Y-83018223D01*
X139242402Y-83001747D01*
X139262107Y-82987133D01*
X139283151Y-82974520D01*
X139305329Y-82964030D01*
X139328429Y-82955765D01*
X139352227Y-82949804D01*
X139376496Y-82946204D01*
X139401000Y-82945000D01*
X140326000Y-82945000D01*
X140350504Y-82946204D01*
X140350504Y-82946204D01*
G37*
D11*
X139863500Y-83820000D03*
M02*
